<svg width="32" height="32" viewBox="0 0 32 32" fill="none" xmlns="http://www.w3.org/2000/svg">
<g clip-path="url(#clip0_2061_7443)">
<path d="M11.7032 19.9751C9.54926 19.476 7.59407 18.2298 6.19768 16.4658C4.78048 14.6754 4 12.4193 4 10.1129C4 4.53666 8.4428 0 13.9037 0C19.3646 0 23.8074 4.53666 23.8074 10.1129C23.8074 11.6469 23.442 13.1408 22.7214 14.5533C22.0596 15.8505 21.1062 17.0347 19.9644 17.9783C19.9164 18.0179 19.8612 18.0476 19.802 18.0655C19.7428 18.0833 19.6808 18.0892 19.6194 18.0825C19.558 18.0759 19.4985 18.057 19.4442 18.0269C19.39 17.9968 19.3421 17.9561 19.3033 17.9071C19.2249 17.8081 19.1882 17.6814 19.2012 17.5548C19.2143 17.4282 19.2761 17.3121 19.373 17.232C21.5937 15.3972 22.8673 12.8025 22.8673 10.113C22.8672 5.06593 18.8462 0.959977 13.9037 0.959977C8.96118 0.959977 4.94012 5.06593 4.94012 10.1129C4.94012 14.4174 7.80672 18.0879 11.9113 19.039L11.7032 19.9751Z" fill="#72B969"/>
<path d="M13.8905 7.41142C12.8296 7.41142 11.9557 8.26215 11.9051 9.34423L11.7696 11.3316V13.1131L11.6191 15.4588C9.53774 14.5302 8.19287 12.4317 8.19287 10.1129C8.19287 6.89732 10.7548 4.28125 13.9038 4.28125C17.0528 4.28125 19.6148 6.89732 19.6148 10.1129C19.6148 12.4317 18.2699 14.5302 16.1886 15.4588L15.9038 9.37143C15.8525 8.27412 14.9663 7.41142 13.8905 7.41142Z" fill="#72B969"/>
<path d="M12.2774 13.2144C12.2774 12.9492 12.067 12.7344 11.8073 12.7344C11.5476 12.7344 11.3372 12.9492 11.3372 13.2144V27.1481L9.27582 25.0432C8.07072 23.8128 6.11866 23.8043 4.92377 25.0242C3.72907 26.2441 3.73747 28.2377 4.94245 29.4681L7.28221 31.8573C7.37403 31.951 7.49436 31.9979 7.61464 31.9979C7.73491 31.9979 7.85524 31.951 7.94706 31.8573C7.99071 31.8127 8.02534 31.7598 8.04897 31.7016C8.07259 31.6434 8.08475 31.5809 8.08475 31.5179C8.08475 31.4549 8.07259 31.3924 8.04897 31.3342C8.02534 31.276 7.99071 31.2231 7.94706 31.1785L5.6073 28.7893C4.76884 27.9332 4.76044 26.5486 5.58856 25.703C6.4168 24.8574 7.7727 24.8657 8.6111 25.722L11.3373 28.5058V31.5179C11.3373 31.7831 11.5477 31.9979 11.8074 31.9979C12.067 31.9979 12.2774 31.7831 12.2774 31.5179L12.2774 13.2144Z" fill="black"/>
<path d="M25.9578 21.9454C25.5356 21.9451 25.1238 22.0791 24.7798 22.3289C24.5022 21.1881 23.491 20.34 22.2892 20.34C21.6082 20.34 20.9888 20.6127 20.5289 21.0562C20.1868 20.019 19.2261 19.2696 18.0965 19.2696C17.4797 19.2696 16.9132 19.493 16.4702 19.8645V9.58155C16.4702 8.13653 15.3189 6.96094 13.9038 6.96094C12.4887 6.96094 11.3374 8.13653 11.3374 9.58155V10.9796C11.3374 11.2447 11.5478 11.4596 11.8075 11.4596C12.0671 11.4596 12.2775 11.2447 12.2775 10.9796V9.58155C12.2775 8.66586 13.0071 7.92091 13.9038 7.92091C14.8005 7.92091 15.5301 8.66592 15.5301 9.58155V28.1632C15.5301 28.4283 15.7405 28.6432 16.0001 28.6432C16.2598 28.6432 16.4702 28.4283 16.4702 28.1632V21.8902C16.4702 20.9745 17.1998 20.2296 18.0965 20.2296C18.9931 20.2296 19.7227 20.9746 19.7227 21.8902V28.1632C19.7227 28.4283 19.9331 28.6432 20.1928 28.6432C20.4525 28.6432 20.6629 28.4283 20.6629 28.1632V22.9606C20.6629 22.0449 21.3924 21.2999 22.2891 21.2999C23.1858 21.2999 23.9154 22.0449 23.9154 22.9606V28.1632C23.9154 28.4283 24.1258 28.6432 24.3855 28.6432C24.6451 28.6432 24.8555 28.4283 24.8555 28.1632V24.0309C24.8555 23.4103 25.35 22.9054 25.9577 22.9054C26.5655 22.9054 27.06 23.4103 27.06 24.0309V31.5231C27.06 31.7883 27.2704 32.0031 27.53 32.0031C27.7897 32.0031 28.0001 31.7883 28.0001 31.5231V24.0309C28.0002 22.8809 27.084 21.9454 25.9578 21.9454Z" fill="black"/>
</g>
<defs>
<clipPath id="clip0_2061_7443">
<rect width="32" height="32" fill="white"/>
</clipPath>
</defs>
</svg>
