<svg width="154.882324" height="123.440918" viewBox="0 0 154.882 123.441" fill="none" xmlns="http://www.w3.org/2000/svg" xmlns:xlink="http://www.w3.org/1999/xlink">
	<desc>
			Created with Pixso.
	</desc>
	<defs/>
	<path id="Ellipse 4" d="M64.4 8.86C98.86 6.76 124 13.96 139.82 30.44C146.1 36.99 150.45 44.62 152.87 53.32C154.97 60.9 155.42 68.4 154.22 75.82C153.14 82.51 149.73 89.13 143.99 95.69C138.42 102.06 131.37 107.57 122.83 112.23C114.01 117.04 104.69 120.33 94.9 122.08C84.28 123.98 74.08 123.88 64.28 121.78C44.26 117.49 27.91 107.94 15.22 93.12C9.38 86.29 5.18 79.1 2.62 71.54C-0.02 63.73 -0.67 56.23 0.68 49.03C2.06 41.6 6.03 34.38 12.57 27.36C19.24 20.21 27.66 14.29 37.81 9.62C61.81 -1.44 87.76 -2.97 115.67 5.03L115.26 6.47C87.71 -1.42 62.1 0.08 38.44 10.98C28.46 15.57 20.21 21.37 13.67 28.38C7.32 35.19 3.48 42.16 2.15 49.3C-0.53 63.66 4.21 77.95 16.36 92.15C28.83 106.71 44.9 116.1 64.6 120.32C74.2 122.38 84.21 122.47 94.63 120.6C104.27 118.88 113.43 115.65 122.11 110.91C130.49 106.34 137.41 100.94 142.86 94.7C148.41 88.36 151.7 81.99 152.74 75.58C153.91 68.38 153.47 61.09 151.42 53.73C149.07 45.26 144.84 37.85 138.73 31.48C123.24 15.33 98.49 8.29 64.49 10.35L64.4 8.86ZM115.65 5.04L115.67 5.03C116.08 5.14 116.3 5.55 116.19 5.95C116.07 6.36 115.66 6.58 115.26 6.47L115.24 6.44L115.65 5.04ZM64.51 10.33L64.49 10.35C64.07 10.38 63.72 10.07 63.69 9.65C63.67 9.23 63.98 8.88 64.4 8.86L64.42 8.88L64.51 10.33Z" fill="#767DBF" fill-opacity="1.000000" fill-rule="evenodd"/>
</svg>
