<svg width="70.000000" height="70.000000" viewBox="0 0 70 70" fill="none" xmlns="http://www.w3.org/2000/svg" xmlns:xlink="http://www.w3.org/1999/xlink">
	<desc>
			Created with Pixso.
	</desc>
	<defs>
		<linearGradient x1="0.017699" y1="34.990952" x2="70.018311" y2="34.990952" id="paint_linear_2008_1011_0" gradientUnits="userSpaceOnUse">
			<stop stop-color="#FFE36A"/>
			<stop offset="1.000000" stop-color="#FFDC46"/>
		</linearGradient>
		<linearGradient x1="4.040652" y1="34.990917" x2="65.995285" y2="34.990917" id="paint_linear_2008_1012_0" gradientUnits="userSpaceOnUse">
			<stop stop-color="#FFE36A"/>
			<stop offset="1.000000" stop-color="#FFDC46"/>
		</linearGradient>
		<linearGradient x1="6.051983" y1="34.990932" x2="63.983028" y2="34.990932" id="paint_linear_2008_1013_0" gradientUnits="userSpaceOnUse">
			<stop stop-color="#FFE36A"/>
			<stop offset="1.000000" stop-color="#FFDC46"/>
		</linearGradient>
	</defs>
	<g opacity="0.500000">
		<path id="Vector" d="M35 70C15.68 70 0 54.31 0 35C0 15.68 15.68 0 35 0C54.31 0 70 15.68 70 35C70 54.31 54.31 70 35 70Z" fill="url(#paint_linear_2008_1011_0)" fill-opacity="1.000000" fill-rule="nonzero"/>
	</g>
	<g opacity="0.500000">
		<path id="Vector" d="M35 65.97C17.9 65.97 4.02 52.09 4.02 35C4.02 17.9 17.9 4.02 35 4.02C52.09 4.02 65.97 17.9 65.97 35C65.97 52.09 52.09 65.97 35 65.97Z" fill="url(#paint_linear_2008_1012_0)" fill-opacity="1.000000" fill-rule="nonzero"/>
	</g>
	<g opacity="0.500000">
		<path id="Vector" d="M63.96 35C63.96 50.99 50.99 63.96 34.99 63.96C19 63.96 6.03 50.99 6.03 35C6.03 19 19 6.03 34.99 6.03C50.99 6.03 63.96 19 63.96 35Z" fill="url(#paint_linear_2008_1013_0)" fill-opacity="1.000000" fill-rule="evenodd"/>
	</g>
	<path id="Vector" d="M52.9 38.11C52.6 37.11 52.29 36 50.99 34.99L50.89 34.89L50.99 34.79C52.29 33.79 52.6 32.78 52.9 31.68C53.1 30.77 53.4 29.97 54.21 29.16C54.31 28.96 54.41 28.76 54.31 28.56C54.21 28.36 54.1 28.26 53.9 28.16C52.7 27.95 52.09 27.45 51.39 26.85C50.58 26.14 49.68 25.54 48.07 25.44C47.97 25.44 47.97 25.44 47.87 25.44C47.87 25.44 47.87 25.34 47.97 25.34C48.47 23.83 48.07 22.72 47.67 21.72C47.37 20.91 47.06 20.11 47.27 18.9C47.27 18.7 47.16 18.5 47.06 18.4C46.86 18.3 46.66 18.3 46.46 18.3C45.35 18.8 44.55 18.8 43.64 18.7C42.54 18.7 41.43 18.6 40.12 19.51L40.02 19.61C40.02 19.51 40.02 19.51 40.02 19.51C39.52 18 38.62 17.39 37.71 16.79C37.01 16.29 36.3 15.79 35.7 14.78C35.5 14.38 34.89 14.38 34.69 14.78C34.09 15.79 33.39 16.29 32.68 16.79C31.78 17.39 30.87 18 30.37 19.51C30.37 19.61 30.37 19.61 30.37 19.61L30.27 19.51C28.96 18.6 27.85 18.6 26.75 18.7C25.84 18.7 25.04 18.8 23.93 18.3C23.73 18.2 23.53 18.2 23.33 18.4C23.13 18.5 23.03 18.7 23.13 18.9C23.33 20.11 23.03 20.81 22.73 21.72C22.32 22.72 21.92 23.73 22.42 25.34C22.42 25.44 22.42 25.44 22.52 25.44C22.42 25.44 22.42 25.44 22.32 25.44C20.71 25.44 19.81 26.14 19 26.85C18.3 27.35 17.6 27.95 16.49 28.16C16.29 28.16 16.09 28.36 16.09 28.56C15.99 28.76 16.09 28.96 16.19 29.16C16.99 30.07 17.19 30.87 17.5 31.68C17.8 32.68 18.1 33.79 19.41 34.79L19.51 34.89L19.41 34.99C18.1 36 17.8 37.01 17.5 38.11C17.29 39.02 16.99 39.82 16.19 40.63C16.09 40.83 15.99 41.03 16.09 41.23C16.19 41.43 16.29 41.53 16.49 41.63C17.7 41.83 18.3 42.34 19 42.94C19.81 43.64 20.71 44.25 22.32 44.35L22.42 44.35C22.42 44.35 22.42 44.45 22.32 44.45C21.82 45.96 22.22 47.06 22.62 48.07C22.93 48.87 23.23 49.68 23.03 50.89C23.03 51.09 23.13 51.29 23.23 51.39C23.33 51.49 23.43 51.49 23.53 51.49C23.63 51.49 23.73 51.49 23.73 51.39C24.84 50.89 25.64 50.89 26.55 50.99C27.65 50.99 28.76 51.09 30.07 50.18L30.17 50.08C30.17 50.18 30.17 50.18 30.17 50.18C30.67 51.69 31.58 52.29 32.48 52.9C33.18 53.4 33.89 53.9 34.49 54.91C34.59 55.11 34.79 55.21 35 55.21C35.2 55.21 35.4 55.11 35.5 54.91C36.1 53.9 36.81 53.4 37.51 52.9C38.41 52.29 39.32 51.69 39.82 50.18C39.82 50.08 39.82 50.08 39.82 50.08L39.92 50.18C41.23 51.09 42.34 51.09 43.44 50.99C44.35 50.99 45.15 50.89 46.26 51.39C46.36 51.39 46.46 51.49 46.46 51.49C46.56 51.49 46.66 51.49 46.76 51.39C46.96 51.29 47.06 51.09 46.96 50.89C46.76 49.68 47.06 48.97 47.37 48.07C47.77 47.06 48.17 46.06 47.67 44.45C47.67 44.35 47.67 44.35 47.57 44.35L47.67 44.35C49.28 44.35 50.18 43.64 50.99 42.94C51.69 42.44 52.39 41.83 53.5 41.63C53.7 41.63 53.9 41.43 53.9 41.23C54 41.03 53.9 40.83 53.8 40.63C53.3 39.82 53.1 39.02 52.9 38.11ZM47.97 26.85C49.18 26.85 49.78 27.35 50.58 27.95C51.19 28.46 51.79 28.86 52.7 29.26C52.19 30.07 51.89 30.87 51.69 31.58C51.39 32.58 51.19 33.29 50.18 34.09C49.88 34.29 49.58 34.39 49.28 34.49C48.67 34.39 48.17 34.39 47.77 34.39C47.67 32.08 46.86 29.87 45.66 27.95C45.96 27.75 46.46 27.45 46.76 27.05C47.27 26.85 47.67 26.85 47.97 26.85ZM35.9 46.76L44.55 28.16C45.96 30.07 46.76 32.48 46.76 34.99C46.86 41.13 42.04 46.26 35.9 46.76ZM23.23 34.99C23.23 32.38 24.03 30.07 25.44 28.16L34.09 46.76C27.96 46.26 23.23 41.13 23.23 34.99ZM35 23.13C38.11 23.13 41.03 24.33 43.14 26.35L26.95 26.35C29.06 24.43 31.88 23.13 35 23.13ZM43.54 27.55L35 45.96L26.45 27.55L43.54 27.55ZM40.73 20.71C41.73 20.01 42.54 20.01 43.54 20.11C44.25 20.11 45.05 20.21 46.06 19.91C46.06 20.91 46.36 21.62 46.66 22.32C46.96 23.23 47.27 24.03 46.96 25.14C46.86 25.44 46.66 25.74 46.46 26.04C45.96 26.24 45.56 26.55 45.25 26.85C45.25 26.75 45.15 26.75 45.15 26.65C43.75 24.94 41.93 23.73 39.82 22.93C40.02 22.52 40.12 22.12 40.23 21.52C40.23 21.22 40.43 20.91 40.73 20.71ZM31.27 20.11C31.68 18.9 32.28 18.5 33.18 17.9C33.79 17.49 34.49 17.09 35.1 16.29C35.7 17.09 36.4 17.49 37.01 17.9C37.81 18.5 38.52 18.9 38.92 20.11C39.02 20.41 39.02 20.71 39.02 21.12C38.72 21.62 38.62 22.12 38.52 22.52C37.41 22.22 36.3 22.02 35.2 22.02C33.99 22.02 32.88 22.22 31.88 22.52C31.78 22.12 31.68 21.62 31.37 21.12C31.07 20.81 31.17 20.41 31.27 20.11ZM23.23 25.14C22.83 23.93 23.13 23.23 23.53 22.32C23.83 21.62 24.03 20.91 24.13 19.91C25.04 20.21 25.84 20.11 26.65 20.11C27.65 20.11 28.46 20.01 29.46 20.71C29.77 20.91 29.97 21.22 30.17 21.42C30.27 22.02 30.37 22.42 30.57 22.83C28.46 23.63 26.65 24.94 25.24 26.55C25.24 26.65 25.14 26.65 25.14 26.75C24.84 26.45 24.43 26.14 23.93 25.94C23.53 25.84 23.33 25.54 23.23 25.14ZM19.71 33.99C18.7 33.29 18.5 32.48 18.2 31.47C18 30.77 17.8 29.97 17.19 29.16C18.1 28.86 18.7 28.36 19.31 27.85C20.11 27.25 20.71 26.75 21.92 26.75C22.22 26.75 22.52 26.85 22.83 26.95C23.23 27.35 23.63 27.65 23.93 27.85C22.73 29.66 22.02 31.88 21.82 34.29C21.42 34.29 20.91 34.29 20.31 34.39C20.31 34.29 20.01 34.19 19.71 33.99ZM22.12 43.14C20.81 43.14 20.21 42.64 19.41 42.04C18.8 41.53 18.2 41.13 17.29 40.73C17.8 39.92 18.1 39.12 18.3 38.41C18.6 37.41 18.8 36.7 19.81 35.9C20.11 35.7 20.41 35.6 20.71 35.5C21.02 35.6 21.42 35.6 21.72 35.6C21.92 35.6 22.02 35.6 22.22 35.6C22.32 37.91 23.13 40.12 24.33 42.04C24.03 42.24 23.53 42.54 23.23 42.94C22.73 43.04 22.42 43.14 22.12 43.14ZM29.36 49.18C28.36 49.88 27.55 49.88 26.55 49.78C25.84 49.78 25.04 49.68 24.03 49.98C24.03 48.97 23.73 48.27 23.43 47.57C23.13 46.66 22.83 45.86 23.13 44.75C23.23 44.45 23.43 44.15 23.63 43.85C24.13 43.64 24.54 43.34 24.84 43.04C26.25 44.85 28.16 46.16 30.27 46.96C30.07 47.37 29.97 47.77 29.87 48.37C29.87 48.77 29.66 48.97 29.36 49.18ZM38.82 49.78C38.41 50.99 37.81 51.39 36.91 51.99C36.3 52.39 35.6 52.8 35 53.6C34.39 52.8 33.69 52.39 33.08 51.99C32.28 51.39 31.58 50.99 31.17 49.78C31.07 49.48 31.07 49.18 31.07 48.77C31.37 48.27 31.48 47.77 31.58 47.37C32.68 47.67 33.79 47.87 34.89 47.87C36.1 47.87 37.21 47.67 38.21 47.37C38.31 47.77 38.41 48.27 38.72 48.77C38.92 49.18 38.92 49.48 38.82 49.78ZM46.76 44.75C47.16 45.96 46.86 46.66 46.46 47.57C46.16 48.27 45.96 48.97 45.86 49.98C44.95 49.68 44.15 49.78 43.34 49.78C42.34 49.78 41.53 49.88 40.53 49.18C40.23 48.97 40.02 48.67 39.82 48.47C39.72 47.87 39.62 47.47 39.42 47.06C41.53 46.26 43.44 44.85 44.85 43.14C45.15 43.44 45.56 43.64 46.06 43.95C46.46 44.15 46.66 44.45 46.76 44.75ZM50.58 42.04C49.78 42.64 49.18 43.14 47.97 43.14C47.67 43.14 47.27 43.04 46.96 42.94C46.56 42.54 46.16 42.24 45.86 42.04C47.06 40.22 47.77 38.01 47.97 35.6C48.07 35.6 48.27 35.6 48.47 35.6C48.77 35.6 49.08 35.6 49.48 35.5C49.78 35.6 50.08 35.7 50.38 35.9C51.39 36.6 51.59 37.41 51.89 38.41C52.09 39.12 52.29 39.92 52.9 40.73C51.79 41.03 51.19 41.53 50.58 42.04Z" fill="#FFFFFF" fill-opacity="1.000000" fill-rule="nonzero"/>
</svg>
