<svg width="70.000000" height="70.000000" viewBox="0 0 70 70" fill="none" xmlns="http://www.w3.org/2000/svg" xmlns:xlink="http://www.w3.org/1999/xlink">
	<desc>
			Created with Pixso.
	</desc>
	<defs>
		<linearGradient x1="0.017699" y1="34.990845" x2="70.018311" y2="34.990845" id="paint_linear_2008_1052_0" gradientUnits="userSpaceOnUse">
			<stop stop-color="#F485CE"/>
			<stop offset="1.000000" stop-color="#F462D4"/>
		</linearGradient>
		<linearGradient x1="4.038614" y1="34.991863" x2="65.993179" y2="34.991863" id="paint_linear_2008_1053_0" gradientUnits="userSpaceOnUse">
			<stop stop-color="#F485CE"/>
			<stop offset="1.000000" stop-color="#F462D4"/>
		</linearGradient>
		<linearGradient x1="6.048827" y1="34.992603" x2="63.980366" y2="34.992603" id="paint_linear_2008_1054_0" gradientUnits="userSpaceOnUse">
			<stop stop-color="#F485CE"/>
			<stop offset="1.000000" stop-color="#F462D4"/>
		</linearGradient>
	</defs>
	<g opacity="0.500000">
		<path id="Vector" d="M35 70C15.68 70 0 54.31 0 35C0 15.68 15.68 0 35 0C54.31 0 70 15.68 70 35C70 54.31 54.31 70 35 70Z" fill="url(#paint_linear_2008_1052_0)" fill-opacity="1.000000" fill-rule="nonzero"/>
	</g>
	<g opacity="0.500000">
		<path id="Vector" d="M35 65.97C17.9 65.97 4.02 52.09 4.02 35C4.02 17.9 17.9 4.02 35 4.02C52.09 4.02 65.97 17.9 65.97 35C65.97 52.09 52.09 65.97 35 65.97Z" fill="url(#paint_linear_2008_1053_0)" fill-opacity="1.000000" fill-rule="nonzero"/>
	</g>
	<g opacity="0.500000">
		<path id="Vector" d="M63.96 35C63.96 50.99 50.99 63.96 34.99 63.96C19 63.96 6.03 50.99 6.03 35C6.03 19 19 6.03 34.99 6.03C50.99 6.03 63.96 19 63.96 35Z" fill="url(#paint_linear_2008_1054_0)" fill-opacity="1.000000" fill-rule="evenodd"/>
	</g>
	<path id="Vector" d="M34.99 16C31.23 16 27.56 17.11 24.43 19.2C21.31 21.28 18.88 24.25 17.44 27.72C16 31.19 15.63 35.01 16.36 38.69C17.09 42.37 18.9 45.76 21.56 48.41C23.32 50.18 25.41 51.58 27.72 52.54C30.02 53.5 32.5 53.99 34.99 54C37.49 54 39.96 53.51 42.27 52.55C44.57 51.6 46.67 50.2 48.43 48.43C50.2 46.67 51.6 44.57 52.55 42.27C53.51 39.96 54 37.49 54 34.99C53.99 32.5 53.5 30.02 52.54 27.72C51.58 25.41 50.18 23.32 48.41 21.56C46.66 19.79 44.56 18.39 42.26 17.43C39.95 16.48 37.48 15.99 34.99 16ZM47.87 47.87C46.18 49.56 44.17 50.91 41.96 51.82C39.75 52.74 37.38 53.21 34.98 53.22C32.59 53.22 30.22 52.75 28.01 51.83C25.79 50.92 23.78 49.57 22.09 47.88C20.4 46.19 19.06 44.18 18.14 41.97C17.23 39.75 16.76 37.38 16.76 34.99C16.76 32.6 17.23 30.23 18.15 28.02C19.07 25.8 20.41 23.8 22.11 22.11C23.8 20.41 25.8 19.07 28.02 18.15C30.23 17.23 32.6 16.76 34.99 16.76C37.38 16.76 39.75 17.23 41.97 18.14C44.18 19.06 46.19 20.4 47.88 22.09C49.57 23.78 50.91 25.79 51.83 28.01C52.75 30.22 53.22 32.59 53.22 34.98C53.21 37.38 52.74 39.75 51.82 41.96C50.91 44.17 49.56 46.18 47.87 47.87Z" fill="#FFFFFF" fill-opacity="1.000000" fill-rule="nonzero"/>
	<path id="Vector" d="M35.03 19.23C26.34 19.23 19.27 26.3 19.27 34.99C19.27 43.67 26.34 50.74 35.03 50.74C43.71 50.74 50.78 43.68 50.78 34.99C50.78 26.3 43.71 19.23 35.03 19.23ZM42.77 23.28C42.81 23.31 42.85 23.33 42.9 23.35C42.95 23.36 43 23.36 43.05 23.35C43.1 23.34 43.15 23.33 43.2 23.3C43.24 23.27 43.28 23.24 43.31 23.2L43.64 22.74C44.22 23.15 44.78 23.6 45.3 24.09L36.99 32.39C36.88 32.31 36.77 32.24 36.65 32.18L40.98 21.24C41.68 21.54 42.35 21.9 43 22.31L42.68 22.74C42.62 22.83 42.59 22.93 42.61 23.03C42.63 23.13 42.68 23.22 42.77 23.28ZM32.34 35.23C32.34 34.7 32.5 34.18 32.79 33.74C33.09 33.3 33.51 32.96 34 32.75C34.49 32.55 35.03 32.5 35.55 32.6C36.07 32.7 36.55 32.96 36.92 33.33C37.3 33.71 37.55 34.19 37.66 34.71C37.76 35.23 37.71 35.77 37.5 36.26C37.3 36.75 36.96 37.17 36.52 37.46C36.07 37.76 35.56 37.91 35.02 37.91C34.31 37.91 33.63 37.63 33.13 37.13C32.63 36.62 32.34 35.94 32.34 35.23ZM37.59 21.19C37.64 21.2 37.69 21.2 37.74 21.2C37.79 21.19 37.83 21.17 37.88 21.14C37.92 21.12 37.96 21.08 37.99 21.04C38.02 21 38.04 20.95 38.05 20.9L38.18 20.34C38.89 20.49 39.58 20.7 40.26 20.95L35.93 31.89C35.73 31.84 35.53 31.81 35.33 31.79L35.33 20.01C36.03 20.02 36.73 20.08 37.42 20.2L37.29 20.73C37.28 20.78 37.28 20.83 37.29 20.88C37.3 20.93 37.32 20.98 37.34 21.02C37.37 21.06 37.41 21.1 37.45 21.13C37.49 21.16 37.54 21.18 37.59 21.19ZM31.7 20.97C31.71 21.02 31.73 21.07 31.76 21.11C31.78 21.16 31.82 21.19 31.86 21.22C31.9 21.25 31.95 21.28 32 21.29C32.05 21.3 32.1 21.3 32.15 21.29C32.2 21.28 32.25 21.27 32.29 21.24C32.33 21.21 32.37 21.18 32.4 21.13C32.43 21.09 32.45 21.05 32.46 21C32.48 20.95 32.48 20.89 32.47 20.84L32.37 20.24C33.09 20.11 33.82 20.03 34.56 20.01L34.56 31.81C34.41 31.83 34.26 31.86 34.11 31.9L29.26 21.16C30.02 20.84 30.81 20.59 31.61 20.4L31.7 20.97ZM26.68 23.24C26.71 23.29 26.74 23.33 26.78 23.36C26.83 23.39 26.87 23.41 26.92 23.42C26.97 23.43 27.02 23.43 27.07 23.42C27.12 23.42 27.17 23.4 27.21 23.37C27.26 23.35 27.3 23.31 27.33 23.27C27.36 23.23 27.38 23.18 27.39 23.13C27.4 23.08 27.4 23.03 27.4 22.98C27.39 22.93 27.37 22.88 27.34 22.84L27.03 22.32C27.52 22.01 28.03 21.73 28.56 21.48L33.39 32.19C33.24 32.27 33.1 32.36 32.96 32.46L24.67 24.17C25.21 23.65 25.78 23.18 26.38 22.75L26.68 23.24ZM23.07 27L22.58 26.66C23.04 25.97 23.56 25.32 24.13 24.72L32.4 32.99C32.26 33.14 32.14 33.31 32.04 33.49L21.17 29.28C21.45 28.6 21.78 27.95 22.16 27.31L22.63 27.64C22.68 27.67 22.72 27.69 22.77 27.7C22.82 27.71 22.88 27.71 22.93 27.71C22.98 27.7 23.02 27.68 23.07 27.65C23.11 27.62 23.15 27.59 23.18 27.54C23.21 27.5 23.23 27.45 23.24 27.4C23.25 27.35 23.25 27.3 23.24 27.25C23.23 27.2 23.21 27.15 23.18 27.11C23.15 27.07 23.12 27.03 23.07 27ZM20.97 31.97L20.38 31.83C20.51 31.21 20.68 30.61 20.89 30.01L31.72 34.2C31.68 34.33 31.65 34.47 31.63 34.6L20.05 34.6C20.07 33.93 20.13 33.26 20.23 32.6L20.8 32.73C20.85 32.74 20.9 32.74 20.95 32.73C21 32.72 21.05 32.7 21.09 32.68C21.14 32.65 21.18 32.62 21.21 32.57C21.23 32.53 21.26 32.49 21.27 32.44C21.28 32.39 21.28 32.33 21.27 32.28C21.26 32.23 21.24 32.18 21.22 32.14C21.19 32.1 21.15 32.06 21.11 32.03C21.07 32 21.02 31.98 20.97 31.97ZM21.31 37.77C21.29 37.67 21.24 37.58 21.15 37.52C21.07 37.46 20.97 37.43 20.87 37.45L20.26 37.54C20.14 36.83 20.07 36.1 20.05 35.37L31.57 35.37C31.58 35.58 31.61 35.78 31.65 35.98L20.95 40.13C20.73 39.54 20.55 38.92 20.41 38.3L20.99 38.21C21.09 38.2 21.18 38.14 21.24 38.06C21.3 37.97 21.33 37.87 21.31 37.77ZM23.38 42.75C23.33 42.67 23.24 42.6 23.14 42.58C23.04 42.55 22.94 42.57 22.85 42.62L22.33 42.94C21.91 42.27 21.55 41.58 21.24 40.85L31.9 36.71C31.98 36.88 32.08 37.04 32.19 37.2L24.13 45.26C23.63 44.73 23.18 44.17 22.76 43.58L23.25 43.29C23.3 43.26 23.33 43.22 23.36 43.18C23.39 43.14 23.42 43.1 23.43 43.05C23.44 43 23.44 42.95 23.43 42.9C23.43 42.85 23.41 42.8 23.38 42.75ZM27.31 46.66C27.22 46.6 27.12 46.58 27.02 46.59C26.92 46.61 26.82 46.66 26.76 46.75L26.41 47.24C25.8 46.8 25.22 46.33 24.67 45.81L32.7 37.78C32.88 37.95 33.08 38.09 33.29 38.22L28.91 48.66C28.27 48.37 27.65 48.04 27.06 47.67L27.39 47.2C27.42 47.16 27.44 47.11 27.46 47.06C27.47 47.02 27.47 46.96 27.46 46.91C27.45 46.86 27.44 46.82 27.41 46.77C27.38 46.73 27.35 46.69 27.31 46.66L27.31 46.66ZM32.47 48.75C32.42 48.74 32.37 48.73 32.32 48.74C32.27 48.75 32.22 48.77 32.18 48.8C32.14 48.82 32.1 48.86 32.07 48.9C32.04 48.94 32.02 48.99 32.01 49.04L31.87 49.63C31.11 49.47 30.36 49.24 29.63 48.96L34 38.53C34.18 38.59 34.37 38.63 34.56 38.66L34.56 49.96C33.91 49.94 33.27 49.88 32.63 49.78L32.76 49.21C32.79 49.11 32.77 49.01 32.72 48.92C32.66 48.83 32.57 48.77 32.47 48.75L32.47 48.75ZM38.35 49.04C38.35 48.99 38.33 48.94 38.3 48.89C38.27 48.85 38.24 48.81 38.2 48.78C38.16 48.75 38.11 48.73 38.06 48.72C38.01 48.71 37.96 48.71 37.91 48.71C37.86 48.72 37.81 48.74 37.77 48.77C37.72 48.79 37.68 48.83 37.65 48.87C37.62 48.91 37.6 48.96 37.59 49.01C37.58 49.06 37.58 49.11 37.59 49.16L37.68 49.73C36.91 49.87 36.12 49.95 35.33 49.97L35.33 38.67C35.6 38.65 35.85 38.6 36.1 38.52L40.55 48.91C39.86 49.19 39.16 49.41 38.44 49.58L38.35 49.04ZM43.39 46.76C43.33 46.67 43.25 46.61 43.15 46.58C43.05 46.56 42.94 46.58 42.85 46.63C42.77 46.68 42.7 46.77 42.68 46.87C42.66 46.97 42.67 47.08 42.73 47.16L43.02 47.65C42.46 48.01 41.87 48.33 41.26 48.61L36.81 38.19C36.97 38.09 37.13 37.98 37.27 37.86L45.3 45.88C44.79 46.37 44.24 46.81 43.67 47.22L43.39 46.76ZM47 42.99L47.47 43.31C46.99 44.03 46.45 44.71 45.85 45.34L37.8 37.29C37.93 37.11 38.05 36.92 38.15 36.71L48.81 40.85C48.54 41.48 48.24 42.08 47.89 42.66L47.44 42.35C47.4 42.32 47.36 42.3 47.31 42.29C47.26 42.28 47.2 42.28 47.15 42.29C47.1 42.3 47.05 42.31 47.01 42.34C46.97 42.37 46.93 42.41 46.9 42.45C46.87 42.49 46.85 42.54 46.84 42.59C46.83 42.64 46.83 42.69 46.84 42.74C46.85 42.79 46.87 42.84 46.9 42.88C46.93 42.92 46.96 42.96 47 42.99L47 42.99ZM49.11 38.01L49.67 38.14C49.53 38.82 49.33 39.48 49.1 40.13L38.4 35.98C38.44 35.78 38.47 35.58 38.48 35.37L50 35.37C49.99 36.05 49.92 36.71 49.82 37.38L49.29 37.26C49.19 37.23 49.08 37.25 48.99 37.3C48.91 37.36 48.84 37.45 48.82 37.55C48.8 37.65 48.82 37.75 48.87 37.84C48.92 37.93 49.01 37.99 49.11 38.01L49.11 38.01ZM48.78 32.2C48.79 32.29 48.84 32.37 48.91 32.43C48.98 32.49 49.07 32.52 49.16 32.52C49.18 32.52 49.2 32.52 49.22 32.52L49.79 32.43C49.91 33.15 49.98 33.87 50 34.6L38.42 34.6C38.4 34.45 38.36 34.3 38.31 34.16L49.1 29.84C49.32 30.44 49.5 31.05 49.64 31.67L49.1 31.75C49 31.77 48.91 31.83 48.85 31.91C48.79 31.99 48.76 32.1 48.78 32.2L48.78 32.2ZM46.7 27.2C46.72 27.24 46.76 27.28 46.8 27.31C46.84 27.34 46.89 27.36 46.94 27.38C46.99 27.39 47.04 27.39 47.09 27.38C47.14 27.38 47.19 27.36 47.23 27.33L47.72 27.04C48.14 27.7 48.5 28.4 48.81 29.12L37.99 33.45C37.87 33.25 37.73 33.07 37.58 32.9L45.85 24.63C46.37 25.18 46.85 25.77 47.29 26.39L46.83 26.67C46.79 26.7 46.75 26.73 46.72 26.77C46.69 26.81 46.66 26.86 46.65 26.91C46.64 26.96 46.64 27.01 46.65 27.06C46.65 27.11 46.67 27.16 46.7 27.2Z" fill="#FFFFFF" fill-opacity="1.000000" fill-rule="nonzero"/>
</svg>
