<svg width="70.000000" height="70.000000" viewBox="0 0 70 70" fill="none" xmlns="http://www.w3.org/2000/svg" xmlns:xlink="http://www.w3.org/1999/xlink">
	<desc>
			Created with Pixso.
	</desc>
	<defs>
		<linearGradient x1="0.017699" y1="34.990952" x2="70.018311" y2="34.990952" id="paint_linear_2008_1023_0" gradientUnits="userSpaceOnUse">
			<stop stop-color="#F47E7D"/>
			<stop offset="1.000000" stop-color="#F45A5A"/>
		</linearGradient>
		<linearGradient x1="4.040652" y1="34.990917" x2="65.995285" y2="34.990917" id="paint_linear_2008_1024_0" gradientUnits="userSpaceOnUse">
			<stop stop-color="#F47E7D"/>
			<stop offset="1.000000" stop-color="#F45A5A"/>
		</linearGradient>
		<linearGradient x1="6.051983" y1="34.990780" x2="63.983028" y2="34.990780" id="paint_linear_2008_1025_0" gradientUnits="userSpaceOnUse">
			<stop stop-color="#F47E7D"/>
			<stop offset="1.000000" stop-color="#F45A5A"/>
		</linearGradient>
	</defs>
	<g opacity="0.500000">
		<path id="Vector" d="M70 35C70 54.33 54.33 70 35 70C15.66 70 0 54.33 0 35C0 15.67 15.66 0 35 0C54.33 0 70 15.67 70 35Z" fill="url(#paint_linear_2008_1023_0)" fill-opacity="1.000000" fill-rule="evenodd"/>
	</g>
	<g opacity="0.500000">
		<path id="Vector" d="M35 65.97C17.9 65.97 4.02 52.09 4.02 35C4.02 17.9 17.9 4.02 35 4.02C52.09 4.02 65.97 17.9 65.97 35C65.97 52.09 52.09 65.97 35 65.97Z" fill="url(#paint_linear_2008_1024_0)" fill-opacity="1.000000" fill-rule="nonzero"/>
	</g>
	<g opacity="0.500000">
		<path id="Vector" d="M63.96 34.99C63.96 50.99 50.99 63.96 34.99 63.96C19 63.96 6.03 50.99 6.03 34.99C6.03 19 19 6.03 34.99 6.03C50.99 6.03 63.96 19 63.96 34.99Z" fill="url(#paint_linear_2008_1025_0)" fill-opacity="1.000000" fill-rule="evenodd"/>
	</g>
	<path id="Vector" d="M34.99 30.77C32.68 30.77 30.77 32.68 30.77 34.99C30.77 37.31 32.68 39.22 34.99 39.22C37.31 39.22 39.22 37.31 39.22 34.99C39.22 32.68 37.31 30.77 34.99 30.77ZM34.99 38.01C33.28 38.01 31.98 36.6 31.98 34.99C31.98 33.29 33.39 31.98 34.99 31.98C36.7 31.98 38.01 33.39 38.01 34.99C38.11 36.7 36.7 38.01 34.99 38.01Z" fill="#FFFFFF" fill-opacity="1.000000" fill-rule="nonzero"/>
	<path id="Vector" d="M56.22 34.49C55.51 34.09 55.21 33.49 54.81 32.98C54.51 32.38 54.1 31.78 53.3 31.37C53.8 30.67 53.9 29.97 54 29.36C54.1 28.66 54.2 28.06 54.71 27.45C54.81 27.25 54.81 27.05 54.81 26.85C54.71 26.65 54.61 26.55 54.41 26.45C53.6 26.35 53.1 25.94 52.49 25.54C51.99 25.14 51.39 24.74 50.48 24.64C50.68 23.83 50.48 23.13 50.38 22.42C50.18 21.82 50.08 21.12 50.28 20.31C50.38 20.11 50.28 19.91 50.18 19.81C50.08 19.71 49.78 19.61 49.68 19.61C48.87 19.81 48.27 19.61 47.57 19.51C46.96 19.31 46.26 19.2 45.35 19.41C45.25 18.6 44.85 18 44.45 17.49C44.05 16.99 43.64 16.49 43.54 15.58C43.54 15.38 43.34 15.18 43.24 15.18C43.04 15.08 42.84 15.08 42.64 15.28C41.93 15.79 41.33 15.89 40.73 15.99C40.12 16.09 39.32 16.19 38.62 16.69C38.21 15.99 37.61 15.58 37.01 15.18C36.4 14.88 35.9 14.48 35.5 13.77C35.4 13.57 35.2 13.47 34.99 13.47C34.79 13.47 34.59 13.57 34.49 13.77C34.09 14.48 33.49 14.78 32.98 15.18C32.38 15.48 31.78 15.89 31.37 16.69C30.67 16.19 29.97 16.09 29.36 15.99C28.66 15.89 28.06 15.79 27.45 15.28C27.25 15.18 27.05 15.18 26.85 15.18C26.65 15.28 26.55 15.38 26.55 15.58C26.45 16.39 26.04 16.89 25.64 17.49C25.24 18 24.84 18.6 24.74 19.51C23.93 19.31 23.23 19.51 22.52 19.61C21.92 19.81 21.22 19.91 20.41 19.71C20.21 19.71 20.01 19.71 19.91 19.81C19.81 19.91 19.71 20.21 19.71 20.31C19.91 21.12 19.71 21.72 19.61 22.42C19.41 23.03 19.31 23.73 19.51 24.64C18.7 24.74 18.1 25.14 17.49 25.54C16.99 25.94 16.49 26.35 15.58 26.45C15.38 26.45 15.18 26.65 15.18 26.75C15.08 26.95 15.08 27.15 15.28 27.35C15.78 28.06 15.89 28.66 15.99 29.26C16.09 29.87 16.19 30.67 16.69 31.37C15.99 31.78 15.58 32.38 15.18 32.98C14.88 33.59 14.48 34.09 13.77 34.49C13.57 34.59 13.47 34.79 13.47 34.99C13.47 35.2 13.57 35.4 13.77 35.5C14.48 35.9 14.78 36.5 15.18 37.01C15.48 37.61 15.89 38.21 16.69 38.62C16.19 39.32 16.09 40.02 15.99 40.63C15.89 41.33 15.78 41.93 15.28 42.54C15.18 42.74 15.18 42.94 15.18 43.14C15.28 43.34 15.38 43.44 15.58 43.54C16.39 43.64 16.89 44.05 17.49 44.45C18 44.85 18.6 45.25 19.51 45.35C19.31 46.16 19.51 46.86 19.61 47.57C19.81 48.17 19.91 48.87 19.71 49.68C19.61 49.88 19.71 50.08 19.81 50.18C19.91 50.28 20.21 50.38 20.31 50.38C21.12 50.18 21.72 50.38 22.42 50.48C22.83 50.58 23.33 50.68 23.83 50.68C24.13 50.68 24.33 50.68 24.64 50.58C24.74 51.39 25.14 51.99 25.54 52.49C25.94 53 26.35 53.5 26.45 54.41C26.45 54.61 26.65 54.81 26.75 54.81C26.85 54.81 26.85 54.81 26.95 54.81C27.05 54.81 27.15 54.81 27.25 54.71C27.95 54.2 28.56 54.1 29.16 54C29.76 53.9 30.57 53.8 31.27 53.3C31.68 54 32.28 54.41 32.88 54.81C33.49 55.11 33.99 55.51 34.39 56.22C34.49 56.42 34.69 56.52 34.89 56.52C35.1 56.52 35.3 56.42 35.4 56.22C35.8 55.51 36.4 55.21 36.91 54.81C37.51 54.51 38.11 54.1 38.51 53.3C39.22 53.8 39.92 53.9 40.53 54C41.23 54.1 41.83 54.2 42.44 54.71C42.54 54.81 42.64 54.81 42.74 54.81C42.84 54.81 42.84 54.81 42.94 54.81C43.14 54.71 43.24 54.61 43.34 54.41C43.44 53.6 43.85 53.1 44.25 52.49C44.65 51.99 45.05 51.39 45.15 50.48C45.45 50.58 45.66 50.58 45.96 50.58C46.46 50.58 46.86 50.48 47.37 50.38C47.97 50.18 48.67 50.08 49.48 50.28C49.68 50.38 49.88 50.28 49.98 50.18C50.08 50.08 50.18 49.88 50.18 49.68C49.98 48.87 50.18 48.27 50.28 47.57C50.48 46.96 50.58 46.26 50.38 45.35C51.19 45.25 51.79 44.85 52.29 44.45C52.8 44.05 53.3 43.64 54.2 43.54C54.41 43.54 54.61 43.34 54.61 43.24C54.71 43.04 54.71 42.84 54.51 42.64C54 41.93 53.9 41.33 53.8 40.73C53.7 40.12 53.6 39.32 53.1 38.62C53.8 38.21 54.2 37.61 54.61 37.01C54.91 36.4 55.31 35.9 56.01 35.5C56.22 35.4 56.32 35.2 56.32 34.99C56.52 34.79 56.42 34.59 56.22 34.49ZM53.4 27.35C53.1 27.95 53 28.56 52.9 29.06C52.8 29.76 52.7 30.37 52.19 30.87C51.39 30.77 50.58 31.07 50.18 31.27C49.78 31.07 49.48 30.77 49.28 30.47C48.97 30.17 48.57 29.76 48.07 29.46C48.27 28.96 48.27 28.46 48.27 27.95C48.27 27.55 48.27 27.15 48.37 26.75C48.77 26.65 49.58 26.35 50.08 25.64C50.89 25.64 51.29 25.94 51.89 26.35C52.29 26.85 52.8 27.15 53.4 27.35ZM43.54 45.96C43.44 46.26 43.24 46.66 43.14 47.06C42.64 46.96 42.24 46.96 41.93 46.96C41.43 46.96 41.03 46.96 40.63 46.76C40.53 46.16 40.22 45.66 40.02 45.45C40.12 45.15 40.22 44.95 40.33 44.75C40.53 44.45 40.73 44.15 40.83 43.74C41.03 43.74 41.13 43.74 41.33 43.74C41.63 43.74 41.83 43.74 42.03 43.64C42.34 43.54 42.54 43.54 42.84 43.54C43.04 43.85 43.34 44.25 43.85 44.55C43.85 45.15 43.74 45.45 43.54 45.96ZM37.81 49.28C37.41 48.97 37.01 48.87 36.7 48.77C36.2 48.57 35.9 48.47 35.6 48.07C35.8 47.47 35.7 46.96 35.6 46.66C35.8 46.46 35.9 46.36 36.2 46.16C36.5 45.96 36.81 45.76 37.01 45.35C37.41 45.66 37.81 45.66 38.11 45.76C38.41 45.86 38.62 45.86 38.82 45.96C38.82 46.26 39.02 46.86 39.42 47.26C39.32 47.77 39.02 47.97 38.72 48.37C38.41 48.57 38.11 48.87 37.81 49.28ZM32.18 49.28C31.88 48.87 31.58 48.57 31.37 48.37C30.97 48.07 30.77 47.77 30.67 47.26C31.07 46.76 31.17 46.26 31.17 45.96C31.37 45.86 31.68 45.76 31.88 45.76C32.18 45.66 32.58 45.66 32.98 45.35C33.18 45.76 33.59 45.96 33.79 46.16C33.99 46.26 34.19 46.46 34.39 46.66C34.29 46.96 34.19 47.57 34.39 48.17C34.09 48.57 33.79 48.67 33.28 48.87C32.98 48.87 32.58 48.97 32.18 49.28ZM26.55 24.03C26.65 23.73 26.85 23.33 26.95 22.93C27.45 23.03 27.85 23.03 28.16 23.03C28.66 23.03 29.06 23.03 29.46 23.23C29.56 23.83 29.87 24.33 30.07 24.54C29.97 24.84 29.87 25.04 29.76 25.24C29.56 25.54 29.36 25.84 29.26 26.35C28.76 26.24 28.46 26.35 28.06 26.35C27.75 26.45 27.55 26.45 27.25 26.45C27.05 26.14 26.75 25.64 26.24 25.44C26.14 24.84 26.24 24.43 26.55 24.03ZM32.18 20.71C32.58 21.01 32.98 21.12 33.28 21.22C33.79 21.42 34.09 21.52 34.39 21.92C34.19 22.52 34.29 23.03 34.39 23.33C34.19 23.53 34.09 23.63 33.79 23.83C33.49 24.03 33.18 24.23 32.98 24.64C32.58 24.33 32.18 24.33 31.88 24.23C31.58 24.13 31.37 24.13 31.17 24.03C31.17 23.73 30.97 23.13 30.57 22.72C30.67 22.22 30.97 22.02 31.27 21.62C31.58 21.32 31.88 21.12 32.18 20.71ZM37.91 20.71C38.21 21.12 38.51 21.42 38.72 21.62C39.12 21.92 39.32 22.22 39.42 22.72C39.02 23.23 38.92 23.73 38.92 24.03C38.72 24.13 38.41 24.23 38.21 24.23C37.91 24.33 37.51 24.33 37.11 24.64C36.91 24.23 36.5 24.03 36.3 23.83C36.1 23.73 35.9 23.53 35.7 23.33C35.8 23.03 35.9 22.42 35.7 21.82C36 21.42 36.3 21.32 36.81 21.12C37.11 21.12 37.51 20.91 37.91 20.71ZM34.99 45.56C34.79 45.35 34.59 45.25 34.39 45.15C34.09 44.95 33.89 44.85 33.79 44.45C33.69 44.25 33.79 44.15 33.79 43.95C34.19 44.05 34.59 44.05 34.99 44.05C35.4 44.05 35.8 44.05 36.2 43.95C36.2 44.05 36.3 44.25 36.2 44.45C36.1 44.85 35.9 44.95 35.6 45.15C35.4 45.25 35.2 45.35 34.99 45.56ZM29.46 42.24C29.36 42.34 29.26 42.44 29.16 42.44C28.86 42.64 28.56 42.54 28.26 42.44C28.06 42.44 27.85 42.34 27.55 42.34C27.55 42.04 27.45 41.83 27.45 41.63C27.35 41.23 27.35 41.03 27.45 40.73C27.55 40.53 27.65 40.43 27.85 40.43C28.36 41.03 28.86 41.63 29.56 42.14C29.46 42.14 29.46 42.24 29.46 42.24ZM34.99 24.43C35.2 24.64 35.4 24.74 35.6 24.84C35.9 25.04 36.1 25.14 36.2 25.54C36.3 25.74 36.2 25.84 36.2 26.04C35.8 25.94 35.4 25.94 34.99 25.94C34.59 25.94 34.19 25.94 33.79 26.04C33.79 25.84 33.69 25.74 33.79 25.54C33.89 25.14 34.09 25.04 34.39 24.84C34.59 24.74 34.79 24.54 34.99 24.43ZM40.53 27.75C40.63 27.65 40.73 27.55 40.83 27.55C41.13 27.35 41.43 27.45 41.73 27.55C41.93 27.55 42.14 27.65 42.44 27.65C42.44 27.95 42.54 28.16 42.54 28.36C42.64 28.76 42.64 28.96 42.54 29.26C42.44 29.46 42.34 29.56 42.14 29.56C41.63 28.96 41.13 28.36 40.43 27.85C40.53 27.75 40.53 27.75 40.53 27.75ZM36.6 42.74C36.1 42.84 35.5 42.94 34.99 42.94C34.39 42.94 33.89 42.84 33.39 42.74C30.37 42.14 27.95 39.72 27.25 36.6C27.15 36.1 27.05 35.5 27.05 34.99C27.05 31.17 29.76 28.06 33.28 27.25C33.79 27.15 34.39 27.05 34.89 27.05C38.72 27.05 41.83 29.76 42.64 33.29C42.74 33.79 42.84 34.39 42.84 34.89C42.94 38.82 40.22 41.93 36.6 42.74ZM44.65 31.58C44.55 31.98 44.55 32.18 44.25 32.38C44.15 32.48 43.95 32.58 43.74 32.58C43.54 31.78 43.24 31.07 42.84 30.37C42.94 30.27 43.14 30.17 43.34 30.17C43.74 30.17 43.95 30.27 44.25 30.47C44.45 30.57 44.65 30.67 44.85 30.87C44.65 31.17 44.65 31.37 44.65 31.58ZM39.02 25.24C39.12 25.44 39.22 25.64 39.42 25.84C39.62 26.14 39.72 26.35 39.72 26.75C39.72 26.95 39.62 27.05 39.52 27.25C38.82 26.85 38.11 26.55 37.31 26.35C37.31 26.14 37.41 26.04 37.51 25.84C37.71 25.54 38.01 25.54 38.31 25.44C38.62 25.34 38.82 25.34 39.02 25.24ZM32.68 26.24C31.88 26.45 31.17 26.75 30.47 27.15C30.37 27.05 30.27 26.85 30.27 26.65C30.27 26.24 30.37 26.04 30.57 25.74C30.67 25.54 30.77 25.34 30.97 25.14C31.17 25.24 31.47 25.24 31.68 25.34C32.08 25.44 32.28 25.44 32.48 25.74C32.58 25.94 32.68 26.14 32.68 26.24ZM29.16 27.45C29.36 27.55 29.46 27.65 29.46 27.85C28.86 28.36 28.26 28.86 27.75 29.56C27.65 29.46 27.45 29.36 27.35 29.26C27.15 28.96 27.25 28.66 27.35 28.36C27.35 28.16 27.45 27.95 27.45 27.65C27.75 27.65 27.95 27.55 28.16 27.55C28.56 27.35 28.86 27.25 29.16 27.45ZM26.75 30.27C26.95 30.27 27.05 30.37 27.25 30.47C26.85 31.17 26.55 31.88 26.35 32.68C26.14 32.68 26.04 32.58 25.84 32.48C25.54 32.28 25.54 31.98 25.44 31.68C25.44 31.47 25.34 31.27 25.24 30.97C25.44 30.87 25.64 30.77 25.84 30.57C26.14 30.37 26.35 30.27 26.75 30.27ZM25.54 33.79C25.74 33.69 25.84 33.79 26.04 33.79C25.94 34.19 25.94 34.59 25.94 34.99C25.94 35.4 25.94 35.8 26.04 36.2C25.84 36.2 25.74 36.3 25.54 36.2C25.14 36.1 25.04 35.9 24.84 35.6C24.74 35.4 24.64 35.2 24.43 34.99C24.64 34.79 24.74 34.59 24.84 34.39C25.04 34.09 25.24 33.89 25.54 33.79ZM25.44 38.31C25.54 37.91 25.54 37.71 25.84 37.51C25.94 37.41 26.14 37.41 26.24 37.31C26.45 38.11 26.75 38.82 27.15 39.52C27.05 39.62 26.85 39.72 26.65 39.72C26.24 39.72 26.04 39.62 25.74 39.42C25.54 39.32 25.34 39.22 25.14 39.02C25.34 38.82 25.34 38.51 25.44 38.31ZM30.97 44.75C30.87 44.55 30.77 44.35 30.57 44.15C30.37 43.85 30.27 43.64 30.27 43.24C30.27 43.04 30.37 42.94 30.47 42.74C31.17 43.14 31.88 43.44 32.68 43.64C32.68 43.64 32.68 43.64 32.68 43.74C32.68 43.74 32.68 43.74 32.68 43.85C32.68 43.95 32.58 44.05 32.48 44.15C32.28 44.45 31.98 44.45 31.68 44.55C31.47 44.65 31.17 44.65 30.97 44.75ZM37.31 43.74C38.11 43.54 38.82 43.24 39.52 42.84C39.62 42.94 39.72 43.14 39.72 43.34C39.72 43.74 39.62 43.95 39.42 44.25C39.32 44.45 39.22 44.65 39.02 44.85C38.82 44.75 38.51 44.75 38.31 44.65C37.91 44.55 37.71 44.55 37.51 44.25C37.41 44.05 37.41 43.85 37.31 43.74ZM40.83 42.54C40.63 42.44 40.53 42.34 40.53 42.14C41.13 41.63 41.73 41.13 42.24 40.43C42.24 40.43 42.24 40.43 42.34 40.43C42.44 40.53 42.54 40.63 42.54 40.73C42.74 41.03 42.64 41.33 42.54 41.63C42.54 41.83 42.44 42.04 42.44 42.34C42.14 42.34 41.93 42.44 41.73 42.44C41.43 42.64 41.23 42.64 40.83 42.54ZM43.24 39.72C43.04 39.72 42.94 39.62 42.74 39.52C43.14 38.82 43.44 38.11 43.64 37.31C43.74 37.31 43.95 37.41 44.05 37.51C44.35 37.71 44.35 38.01 44.45 38.31C44.45 38.51 44.55 38.72 44.65 39.02C44.45 39.12 44.25 39.22 44.05 39.42C43.85 39.62 43.64 39.72 43.24 39.72ZM44.45 36.2C44.25 36.3 44.15 36.2 43.95 36.2C44.05 35.8 44.05 35.4 44.05 34.99C44.05 34.59 44.05 34.19 43.95 33.79C44.05 33.79 44.25 33.69 44.45 33.79C44.85 33.89 44.95 34.09 45.15 34.39C45.25 34.59 45.35 34.79 45.56 34.99C45.35 35.2 45.25 35.4 45.15 35.6C44.95 35.9 44.85 36.1 44.45 36.2ZM47.06 28.16C47.06 28.66 47.06 29.06 46.86 29.46C46.26 29.56 45.76 29.87 45.56 30.07C45.25 29.97 45.05 29.87 44.85 29.76C44.55 29.56 44.25 29.36 43.74 29.26C43.85 28.76 43.74 28.46 43.74 28.06C43.64 27.75 43.64 27.55 43.64 27.25C43.95 27.05 44.45 26.75 44.65 26.24C45.15 26.14 45.45 26.35 45.96 26.55C46.26 26.65 46.66 26.85 47.06 26.95C47.06 27.35 47.06 27.75 47.06 28.16ZM43.14 22.83C43.24 23.33 43.44 23.63 43.54 24.03C43.74 24.43 43.85 24.84 43.85 25.34C43.34 25.64 42.94 26.04 42.84 26.35C42.54 26.35 42.34 26.35 42.03 26.24C41.73 26.14 41.33 26.14 40.83 26.24C40.73 25.74 40.53 25.44 40.33 25.14C40.22 24.94 40.02 24.74 40.02 24.43C40.22 24.13 40.53 23.73 40.63 23.13C41.03 22.83 41.43 22.93 41.93 22.93C42.24 22.93 42.64 22.93 43.14 22.83ZM25.34 26.24C25.64 26.75 26.04 27.15 26.35 27.25C26.35 27.55 26.35 27.75 26.24 28.06C26.14 28.36 26.14 28.76 26.24 29.26C25.74 29.36 25.44 29.56 25.14 29.76C24.94 29.87 24.74 30.07 24.43 30.07C24.13 29.87 23.73 29.56 23.13 29.46C22.83 29.06 22.93 28.66 22.93 28.16C22.93 27.75 22.93 27.35 22.83 26.95C23.33 26.85 23.63 26.65 24.03 26.55C24.53 26.24 24.84 26.14 25.34 26.24ZM22.72 30.57C23.23 30.97 23.73 31.07 24.03 31.07C24.13 31.27 24.23 31.58 24.23 31.78C24.33 32.08 24.33 32.48 24.64 32.88C24.23 33.08 24.03 33.49 23.83 33.69C23.73 33.89 23.53 34.09 23.33 34.29C23.03 34.19 22.42 34.09 21.82 34.29C21.42 33.99 21.32 33.69 21.12 33.18C21.01 32.88 20.81 32.48 20.61 32.08C21.01 31.78 21.32 31.47 21.52 31.27C21.92 30.97 22.22 30.67 22.72 30.57ZM21.22 36.7C21.42 36.2 21.52 35.9 21.92 35.6C22.12 35.7 22.42 35.7 22.62 35.7C22.93 35.7 23.23 35.6 23.43 35.6C23.63 35.8 23.73 35.9 23.93 36.2C24.13 36.5 24.33 36.81 24.74 37.01C24.43 37.41 24.43 37.81 24.33 38.11C24.23 38.41 24.23 38.62 24.13 38.82C23.83 38.82 23.23 39.02 22.83 39.42C22.32 39.32 22.12 39.02 21.72 38.72C21.52 38.41 21.22 38.11 20.81 37.91C21.01 37.41 21.12 37.01 21.22 36.7ZM22.93 41.83C22.93 41.33 22.93 40.93 23.13 40.53C23.73 40.43 24.23 40.12 24.43 39.92C24.74 40.02 24.84 40.12 25.14 40.22C25.44 40.43 25.74 40.63 26.24 40.73C26.14 41.23 26.24 41.53 26.24 41.93C26.35 42.24 26.35 42.44 26.35 42.74C26.04 42.94 25.54 43.24 25.34 43.74C24.84 43.85 24.53 43.64 24.03 43.44C23.73 43.34 23.33 43.14 22.93 43.04C23.03 42.64 22.93 42.24 22.93 41.83ZM26.95 47.06C26.85 46.56 26.65 46.26 26.55 45.86C26.35 45.45 26.24 45.05 26.24 44.55C26.75 44.25 27.15 43.85 27.25 43.54C27.55 43.54 27.75 43.54 28.06 43.64C28.26 43.64 28.46 43.74 28.76 43.74C28.86 43.74 29.06 43.74 29.26 43.74C29.36 44.25 29.56 44.55 29.76 44.75C29.87 44.95 30.07 45.15 30.07 45.45C29.87 45.76 29.56 46.16 29.46 46.76C29.06 47.06 28.66 46.96 28.16 46.96C27.75 47.06 27.35 46.96 26.95 47.06ZM44.75 43.74C44.45 43.24 44.05 42.84 43.74 42.74C43.74 42.44 43.74 42.24 43.85 41.93C43.95 41.63 43.95 41.23 43.85 40.73C44.35 40.63 44.65 40.43 44.95 40.22C45.15 40.02 45.35 39.92 45.66 39.92C45.96 40.12 46.36 40.43 46.96 40.53C47.26 40.93 47.16 41.33 47.16 41.83C47.16 42.24 47.16 42.64 47.26 43.04C46.76 43.14 46.46 43.34 46.06 43.44C45.56 43.74 45.15 43.85 44.75 43.74ZM47.37 39.42C46.86 39.02 46.36 38.92 46.06 38.92C45.96 38.72 45.86 38.41 45.86 38.21C45.76 37.91 45.76 37.51 45.45 37.11C45.86 36.91 46.06 36.5 46.26 36.3C46.36 36.1 46.56 35.9 46.76 35.7C46.96 35.8 47.26 35.8 47.57 35.8C47.77 35.8 47.97 35.8 48.27 35.7C48.67 36 48.77 36.3 48.97 36.81C49.08 37.11 49.28 37.51 49.48 37.91C49.08 38.21 48.77 38.51 48.57 38.72C48.07 39.02 47.77 39.32 47.37 39.42ZM48.77 33.29C48.57 33.79 48.47 34.09 48.07 34.39C47.47 34.19 46.96 34.29 46.66 34.39C46.46 34.19 46.36 34.09 46.16 33.79C45.96 33.49 45.76 33.18 45.35 32.98C45.66 32.58 45.66 32.18 45.76 31.88C45.86 31.58 45.86 31.37 45.96 31.17C46.26 31.17 46.86 30.97 47.26 30.57C47.77 30.67 47.97 30.97 48.37 31.27C48.57 31.58 48.87 31.88 49.28 32.08C49.08 32.58 48.87 32.88 48.77 33.29ZM47.37 20.71C47.87 20.81 48.47 21.01 49.18 20.91C49.18 21.62 49.28 22.22 49.38 22.72C49.58 23.43 49.68 23.93 49.38 24.64C48.57 24.84 47.97 25.44 47.67 25.74C47.26 25.74 46.86 25.54 46.46 25.34C46.06 25.14 45.56 24.94 44.95 24.94C44.95 24.33 44.75 23.93 44.55 23.43C44.35 23.03 44.25 22.72 44.25 22.22C44.55 21.92 45.15 21.32 45.35 20.51C46.06 20.41 46.66 20.51 47.37 20.71ZM40.93 17.09C41.43 16.99 42.03 16.89 42.64 16.59C42.84 17.29 43.24 17.7 43.54 18.2C43.95 18.8 44.25 19.2 44.25 20.01C43.54 20.51 43.24 21.22 43.14 21.72C42.74 21.82 42.34 21.82 41.93 21.82C41.43 21.82 40.93 21.82 40.43 22.02C40.22 21.52 39.82 21.12 39.52 20.81C39.22 20.51 38.92 20.31 38.72 19.91C38.92 19.51 39.22 18.8 39.12 17.9C39.62 17.29 40.22 17.19 40.93 17.09ZM33.59 16.19C34.09 15.89 34.59 15.58 34.99 15.08C35.5 15.58 36 15.89 36.4 16.19C37.01 16.59 37.51 16.89 37.81 17.6C37.41 18.3 37.41 19.1 37.41 19.61C37.11 19.91 36.7 20.01 36.3 20.21C35.9 20.41 35.4 20.51 34.99 20.91C34.59 20.51 34.09 20.31 33.69 20.21C33.28 20.11 32.98 19.91 32.58 19.61C32.58 19.2 32.58 18.3 32.18 17.6C32.48 16.79 32.98 16.49 33.59 16.19ZM26.55 18.1C26.85 17.7 27.25 17.19 27.45 16.49C28.06 16.79 28.66 16.89 29.16 16.99C29.87 17.09 30.37 17.19 30.97 17.7C30.87 18.5 31.17 19.31 31.37 19.71C31.17 20.11 30.87 20.41 30.57 20.61C30.27 20.91 29.87 21.32 29.56 21.82C29.06 21.62 28.56 21.62 28.06 21.62C27.65 21.62 27.25 21.62 26.85 21.52C26.75 21.12 26.45 20.31 25.74 19.81C25.74 19.2 26.04 18.7 26.55 18.1ZM20.71 22.62C20.81 22.12 21.01 21.52 20.91 20.81C21.62 20.81 22.22 20.71 22.72 20.61C23.43 20.41 23.93 20.31 24.64 20.61C24.84 21.42 25.44 22.02 25.74 22.32C25.74 22.72 25.54 23.13 25.34 23.53C25.14 23.93 24.94 24.43 24.94 25.04C24.33 25.04 23.93 25.24 23.43 25.44C23.03 25.64 22.72 25.74 22.22 25.74C21.92 25.44 21.32 24.84 20.51 24.64C20.41 23.93 20.51 23.33 20.71 22.62ZM18.2 26.45C18.8 26.04 19.2 25.74 20.01 25.74C20.51 26.45 21.22 26.75 21.72 26.85C21.82 27.25 21.82 27.65 21.82 28.06C21.82 28.56 21.82 29.06 22.02 29.56C21.52 29.76 21.12 30.17 20.81 30.47C20.51 30.77 20.31 31.07 19.91 31.27C19.51 31.07 18.8 30.77 17.9 30.87C17.39 30.37 17.29 29.76 17.19 29.06C17.09 28.56 16.99 27.95 16.69 27.35C17.29 27.15 17.8 26.75 18.2 26.45ZM15.08 34.99C15.58 34.49 15.89 33.99 16.19 33.59C16.59 32.98 16.89 32.48 17.6 32.18C18.2 32.48 18.8 32.58 19.2 32.58C19.31 32.58 19.41 32.58 19.51 32.58C19.81 32.88 19.91 33.29 20.11 33.69C20.31 34.09 20.41 34.59 20.81 34.99C20.41 35.4 20.21 35.9 20.11 36.3C20.01 36.7 19.81 37.01 19.51 37.41C19.1 37.41 18.2 37.41 17.49 37.81C16.79 37.51 16.49 37.01 16.09 36.4C15.89 35.9 15.58 35.4 15.08 34.99ZM16.59 42.54C16.89 41.93 16.99 41.33 17.09 40.83C17.19 40.12 17.29 39.52 17.8 39.02C17.9 39.02 18 39.02 18.2 39.02C18.9 39.02 19.51 38.82 19.81 38.62C20.21 38.82 20.51 39.12 20.71 39.42C21.01 39.72 21.42 40.12 21.92 40.43C21.72 40.93 21.72 41.43 21.72 41.93C21.72 42.34 21.72 42.74 21.62 43.14C21.22 43.24 20.41 43.54 19.91 44.25C19.1 44.25 18.7 43.95 18.1 43.54C17.7 43.14 17.29 42.84 16.59 42.54ZM22.72 49.28C22.22 49.18 21.62 48.97 20.91 49.08C20.91 48.37 20.81 47.77 20.71 47.26C20.51 46.56 20.41 46.06 20.71 45.35C21.52 45.15 22.12 44.55 22.42 44.25C22.83 44.25 23.23 44.45 23.63 44.65C24.03 44.85 24.53 45.05 25.14 45.05C25.14 45.66 25.34 46.06 25.54 46.56C25.74 46.96 25.84 47.26 25.84 47.77C25.54 48.07 24.94 48.67 24.74 49.48C23.93 49.58 23.43 49.48 22.72 49.28ZM29.06 52.9C28.56 53 27.95 53.1 27.35 53.4C27.15 52.7 26.75 52.29 26.45 51.79C26.04 51.19 25.74 50.79 25.74 49.98C26.45 49.48 26.75 48.77 26.85 48.27C27.25 48.17 27.65 48.17 28.06 48.17C28.56 48.17 29.06 48.17 29.56 47.97C29.76 48.47 30.17 48.87 30.47 49.18C30.77 49.48 31.07 49.68 31.27 50.08C31.07 50.48 30.77 51.19 30.87 52.09C30.37 52.7 29.76 52.8 29.06 52.9ZM36.4 53.8C35.9 54.1 35.4 54.41 34.99 54.91C34.49 54.41 33.99 54.1 33.59 53.8C32.98 53.4 32.48 53.1 32.18 52.39C32.58 51.69 32.58 50.89 32.58 50.38C32.88 50.08 33.28 49.98 33.69 49.78C34.09 49.58 34.59 49.48 34.99 49.08C35.4 49.48 35.9 49.68 36.3 49.78C36.7 49.88 37.01 50.08 37.41 50.38C37.41 50.79 37.41 51.69 37.81 52.39C37.51 53.1 37.01 53.4 36.4 53.8ZM43.54 51.79C43.24 52.19 42.84 52.7 42.64 53.4C42.03 53.1 41.43 53 40.93 52.9C40.22 52.8 39.72 52.7 39.12 52.19C39.22 51.39 38.92 50.58 38.72 50.18C38.92 49.78 39.22 49.48 39.52 49.28C39.82 48.97 40.22 48.57 40.53 48.07C41.03 48.27 41.53 48.27 42.03 48.27C42.44 48.27 42.84 48.27 43.24 48.37C43.34 48.77 43.64 49.58 44.35 50.08C44.25 50.79 43.95 51.29 43.54 51.79ZM49.28 47.26C49.18 47.77 48.97 48.37 49.08 49.08C48.37 49.08 47.77 49.18 47.26 49.28C46.56 49.48 46.06 49.58 45.35 49.28C45.15 48.47 44.55 47.87 44.25 47.57C44.25 47.16 44.45 46.76 44.65 46.36C44.85 45.96 45.05 45.45 45.05 44.85C45.66 44.85 46.06 44.65 46.56 44.45C46.96 44.25 47.26 44.15 47.77 44.15C48.07 44.45 48.67 45.05 49.48 45.25C49.58 46.06 49.48 46.56 49.28 47.26ZM51.79 43.54C51.19 43.95 50.79 44.25 49.98 44.25C49.48 43.54 48.77 43.24 48.27 43.14C48.17 42.74 48.17 42.34 48.17 41.93C48.17 41.43 48.17 40.93 47.97 40.43C48.47 40.22 48.87 39.82 49.18 39.52C49.48 39.22 49.68 38.92 50.08 38.72C50.38 38.92 50.99 39.12 51.69 39.12C51.79 39.12 51.89 39.12 52.09 39.12C52.6 39.62 52.7 40.22 52.8 40.93C52.9 41.43 53 42.04 53.3 42.64C52.8 42.84 52.29 43.24 51.79 43.54ZM53.8 36.4C53.4 37.01 53.1 37.51 52.39 37.81C51.69 37.41 50.89 37.41 50.38 37.41C50.08 37.11 49.98 36.7 49.78 36.3C49.58 35.9 49.48 35.4 49.08 34.99C49.48 34.59 49.68 34.09 49.78 33.69C49.88 33.29 50.08 32.98 50.38 32.58C50.48 32.58 50.58 32.58 50.78 32.58C51.29 32.58 51.89 32.48 52.39 32.18C53.1 32.48 53.4 32.98 53.8 33.59C54.1 34.09 54.41 34.59 54.91 34.99C54.41 35.5 54.1 36 53.8 36.4Z" fill="#FFFFFF" fill-opacity="1.000000" fill-rule="nonzero"/>
</svg>
