<svg width="70.000000" height="70.000000" viewBox="0 0 70 70" fill="none" xmlns="http://www.w3.org/2000/svg" xmlns:xlink="http://www.w3.org/1999/xlink">
	<desc>
			Created with Pixso.
	</desc>
	<defs>
		<linearGradient x1="0.017699" y1="34.990952" x2="70.018311" y2="34.990952" id="paint_linear_2008_1030_0" gradientUnits="userSpaceOnUse">
			<stop stop-color="#BFEF56"/>
			<stop offset="1.000000" stop-color="#9BDC1E"/>
		</linearGradient>
		<linearGradient x1="4.040652" y1="34.990910" x2="65.995285" y2="34.990910" id="paint_linear_2008_1031_0" gradientUnits="userSpaceOnUse">
			<stop stop-color="#BFEF56"/>
			<stop offset="1.000000" stop-color="#9BDC1E"/>
		</linearGradient>
		<linearGradient x1="6.051983" y1="34.990688" x2="63.983017" y2="34.990688" id="paint_linear_2008_1032_0" gradientUnits="userSpaceOnUse">
			<stop stop-color="#BFEF56"/>
			<stop offset="1.000000" stop-color="#9BDC1E"/>
		</linearGradient>
	</defs>
	<g opacity="0.500000">
		<path id="Vector" d="M35 70C15.68 70 0 54.31 0 35C0 15.68 15.68 0 35 0C54.31 0 70 15.68 70 35C70 54.31 54.31 70 35 70Z" fill="url(#paint_linear_2008_1030_0)" fill-opacity="1.000000" fill-rule="nonzero"/>
	</g>
	<g opacity="0.500000">
		<path id="Vector" d="M35 65.97C17.9 65.97 4.02 52.09 4.02 35C4.02 17.9 17.9 4.02 35 4.02C52.09 4.02 65.97 17.9 65.97 35C65.97 52.09 52.09 65.97 35 65.97Z" fill="url(#paint_linear_2008_1031_0)" fill-opacity="1.000000" fill-rule="nonzero"/>
	</g>
	<g opacity="0.500000">
		<path id="Vector" d="M63.96 34.99C63.96 50.99 50.99 63.96 34.99 63.96C19 63.96 6.03 50.99 6.03 34.99C6.03 19 19 6.03 34.99 6.03C50.99 6.03 63.96 19 63.96 34.99Z" fill="url(#paint_linear_2008_1032_0)" fill-opacity="1.000000" fill-rule="evenodd"/>
	</g>
	<path id="Vector" d="M55.01 34.49C54.1 33.99 53.7 33.39 53.3 32.78C52.8 31.98 52.29 31.17 50.89 30.77C50.89 30.77 50.89 30.77 50.79 30.77C51.69 29.66 51.79 28.76 51.89 27.85C51.89 27.15 51.99 26.35 52.49 25.54C52.6 25.34 52.6 25.14 52.49 24.94C52.39 24.74 52.19 24.64 51.99 24.64C50.99 24.64 50.38 24.33 49.68 24.03C48.87 23.63 47.97 23.23 46.56 23.43C46.56 23.43 46.56 23.43 46.46 23.43C46.46 23.43 46.46 23.43 46.46 23.33C46.76 21.92 46.36 21.12 45.86 20.21C45.56 19.51 45.25 18.9 45.25 17.9C45.25 17.7 45.15 17.49 44.95 17.39C44.75 17.29 44.55 17.29 44.35 17.39C43.54 17.9 42.84 18 42.04 18C41.13 18.1 40.12 18.1 39.12 19.1C39.12 19.1 39.12 19.1 39.12 19C38.62 17.7 37.81 17.09 37.11 16.59C36.5 16.19 35.9 15.79 35.4 14.88C35.2 14.48 34.59 14.48 34.39 14.88C33.89 15.79 33.29 16.19 32.68 16.59C31.88 17.09 31.07 17.6 30.67 19C30.67 19 30.67 19 30.67 19.1C29.56 18.2 28.66 18.1 27.75 18C27.05 18 26.24 17.9 25.44 17.39C25.24 17.29 25.04 17.29 24.84 17.39C24.64 17.49 24.54 17.7 24.54 17.9C24.54 18.9 24.23 19.51 23.93 20.21C23.53 21.02 23.13 21.92 23.33 23.33C23.33 23.33 23.33 23.33 23.33 23.43C23.33 23.43 23.33 23.43 23.23 23.43C21.82 23.13 21.02 23.53 20.11 24.03C19.41 24.33 18.8 24.64 17.8 24.64C17.6 24.64 17.39 24.74 17.29 24.94C17.19 25.14 17.19 25.34 17.29 25.54C17.8 26.35 17.9 27.05 17.9 27.85C18 28.76 18 29.77 19 30.77C19 30.77 19 30.77 18.9 30.77C17.6 31.27 16.99 32.08 16.49 32.78C16.09 33.39 15.68 33.99 14.78 34.49C14.58 34.59 14.48 34.79 14.48 34.99C14.48 35.2 14.58 35.4 14.78 35.5C15.68 36 16.09 36.6 16.49 37.21C16.99 38.01 17.49 38.82 18.9 39.22C18.9 39.22 18.9 39.22 19 39.22C18.1 40.33 18 41.23 17.9 42.14C17.9 42.84 17.8 43.64 17.29 44.45C17.19 44.65 17.19 44.85 17.29 45.05C17.39 45.25 17.6 45.35 17.8 45.35C18.8 45.35 19.41 45.66 20.11 45.96C20.71 46.26 21.42 46.56 22.32 46.56C22.62 46.56 22.83 46.56 23.23 46.46C23.23 46.46 23.23 46.46 23.33 46.46C23.33 46.46 23.33 46.46 23.33 46.56C23.03 47.97 23.43 48.77 23.93 49.68C24.23 50.38 24.54 50.99 24.54 51.99C24.54 52.19 24.64 52.39 24.84 52.49C24.94 52.6 25.04 52.6 25.14 52.6C25.24 52.6 25.34 52.6 25.44 52.49C26.24 51.99 26.95 51.89 27.75 51.89C28.66 51.79 29.66 51.79 30.67 50.79C30.67 50.79 30.67 50.79 30.67 50.89C31.17 52.19 31.98 52.8 32.68 53.3C33.29 53.7 33.89 54.1 34.39 55.01C34.49 55.21 34.69 55.31 34.89 55.31C35.1 55.31 35.3 55.21 35.4 55.01C35.9 54.1 36.5 53.7 37.11 53.3C37.91 52.8 38.72 52.29 39.12 50.89C39.12 50.89 39.12 50.89 39.12 50.79C40.22 51.69 41.13 51.79 42.04 51.89C42.74 51.89 43.54 51.99 44.35 52.49C44.45 52.6 44.55 52.6 44.65 52.6C44.75 52.6 44.85 52.6 44.95 52.49C45.15 52.39 45.25 52.19 45.25 51.99C45.25 50.99 45.56 50.38 45.86 49.68C46.26 48.87 46.66 47.97 46.46 46.56C46.46 46.56 46.46 46.56 46.46 46.46C46.46 46.46 46.46 46.46 46.56 46.46C46.86 46.56 47.16 46.56 47.47 46.56C48.37 46.56 49.08 46.26 49.68 45.96C50.38 45.66 50.99 45.35 51.99 45.35C52.19 45.35 52.39 45.25 52.49 45.05C52.6 44.85 52.6 44.65 52.49 44.45C51.99 43.64 51.89 42.94 51.89 42.14C51.79 41.23 51.79 40.22 50.79 39.22C50.79 39.22 50.79 39.22 50.89 39.22C52.19 38.72 52.8 37.91 53.3 37.21C53.7 36.6 54.1 36 55.01 35.5C55.21 35.4 55.31 35.2 55.31 34.99C55.31 34.79 55.21 34.59 55.01 34.49ZM36.1 47.67L39.42 42.04L45.66 42.04C43.54 45.25 40.02 47.37 36.1 47.67ZM24.43 42.04L30.67 42.04L33.99 47.67C29.97 47.37 26.55 45.25 24.43 42.04ZM22.22 34.99C22.22 33.08 22.62 31.27 23.43 29.66L26.55 34.99L23.43 40.33C22.62 38.62 22.22 36.91 22.22 34.99ZM33.99 22.22L30.67 27.85L24.43 27.85C26.55 24.74 29.97 22.62 33.99 22.22ZM45.66 27.85L39.32 27.85L36.1 22.22C40.02 22.62 43.54 24.74 45.66 27.85ZM38.72 40.93L31.37 40.93L27.85 34.99L31.37 29.06L38.72 29.06L42.24 35.1L38.72 40.93ZM42.74 36.2L45.45 40.93L40.02 40.93L42.74 36.2ZM38.01 42.04L34.99 47.16L31.98 42.04L38.01 42.04ZM29.97 40.93L24.33 40.93L27.15 36.1L29.97 40.93ZM27.15 33.79L24.33 28.96L29.97 28.96L27.15 33.79ZM31.98 27.85L34.99 22.72L37.91 27.85L31.98 27.85ZM39.92 29.06L45.66 29.06L42.84 33.99L39.92 29.06ZM46.56 40.43L43.44 35.1L46.56 29.66C47.26 31.27 47.77 33.08 47.77 34.99C47.77 36.91 47.37 38.72 46.56 40.43ZM46.86 24.54C47.87 24.33 48.47 24.64 49.18 25.04C49.68 25.34 50.28 25.64 51.09 25.74C50.79 26.45 50.79 27.15 50.68 27.75C50.58 28.56 50.58 29.26 49.88 30.07C49.38 30.67 48.57 30.87 48.17 30.87C47.87 29.97 47.57 29.16 47.06 28.36C46.56 27.45 45.96 26.65 45.25 25.84C45.56 25.24 46.16 24.64 46.86 24.54ZM42.34 19.2C42.94 19.2 43.64 19.1 44.35 18.8C44.45 19.61 44.75 20.21 45.05 20.71C45.45 21.52 45.76 22.02 45.56 23.03C45.35 23.83 44.75 24.33 44.45 24.64C42.94 23.33 41.23 22.32 39.32 21.62C39.42 21.12 39.52 20.41 40.12 19.91C40.83 19.31 41.53 19.2 42.34 19.2ZM31.88 19.41C32.18 18.4 32.78 18.1 33.49 17.6C33.99 17.29 34.49 16.89 34.99 16.29C35.5 16.89 36 17.29 36.5 17.6C37.21 18.1 37.71 18.4 38.11 19.41C38.31 20.11 38.11 20.91 37.91 21.32C37.01 21.12 36 21.02 34.99 21.02C33.99 21.02 32.98 21.12 32.08 21.32C31.88 20.91 31.68 20.21 31.88 19.41ZM25.04 20.71C25.34 20.21 25.64 19.61 25.74 18.8C26.45 19.1 27.15 19.1 27.75 19.2C28.56 19.31 29.26 19.31 30.07 20.01C30.67 20.51 30.87 21.32 30.87 21.72C28.96 22.32 27.25 23.33 25.74 24.74C25.34 24.43 24.74 23.93 24.64 23.13C24.33 22.12 24.64 21.52 25.04 20.71ZM18.9 25.64C19.71 25.54 20.31 25.24 20.81 24.94C21.62 24.54 22.12 24.23 23.13 24.43C23.93 24.64 24.43 25.24 24.74 25.54C24.03 26.35 23.43 27.15 22.93 28.06C22.52 28.86 22.12 29.66 21.82 30.57C21.32 30.47 20.61 30.37 20.11 29.77C19.41 28.96 19.41 28.36 19.31 27.45C19.2 27.05 19.1 26.35 18.9 25.64ZM17.7 36.5C17.39 36 16.99 35.5 16.39 34.99C16.99 34.49 17.39 33.99 17.7 33.49C18.2 32.78 18.5 32.28 19.51 31.88C20.21 31.68 21.02 31.88 21.42 32.08C21.22 32.98 21.12 33.99 21.12 34.99C21.12 36 21.22 37.01 21.42 37.91C21.02 38.11 20.21 38.31 19.51 38.11C18.5 37.81 18.2 37.21 17.7 36.5ZM23.13 45.45C22.12 45.66 21.52 45.35 20.81 44.95C20.31 44.65 19.71 44.35 18.9 44.25C19.2 43.54 19.2 42.84 19.31 42.24C19.41 41.43 19.41 40.73 20.11 39.92C20.61 39.32 21.42 39.12 21.82 39.12C22.12 40.02 22.42 40.83 22.93 41.63C23.43 42.54 24.03 43.34 24.74 44.15C24.43 44.65 23.93 45.25 23.13 45.45ZM27.65 50.79C27.05 50.79 26.35 50.89 25.64 51.19C25.54 50.38 25.24 49.78 24.94 49.28C24.54 48.47 24.23 47.97 24.43 46.96C24.64 46.16 25.24 45.66 25.54 45.35C27.05 46.66 28.76 47.67 30.67 48.37C30.57 48.87 30.47 49.58 29.87 50.08C29.16 50.68 28.56 50.68 27.65 50.79ZM38.11 50.48C37.81 51.49 37.21 51.79 36.5 52.29C36 52.6 35.5 53 34.99 53.6C34.49 53 33.99 52.6 33.49 52.29C32.78 51.79 32.28 51.49 31.88 50.48C31.68 49.78 31.88 48.97 32.08 48.57C32.98 48.77 33.99 48.87 34.99 48.87C36 48.87 37.01 48.77 37.91 48.57C38.11 48.97 38.41 49.78 38.11 50.48ZM45.05 49.18C44.75 49.68 44.45 50.28 44.35 51.09C43.64 50.79 42.94 50.79 42.34 50.68C41.53 50.58 40.83 50.58 40.02 49.88C39.42 49.38 39.22 48.57 39.22 48.17C41.13 47.57 42.84 46.56 44.35 45.15C44.75 45.45 45.35 45.96 45.45 46.76C45.66 47.87 45.35 48.47 45.05 49.18ZM51.19 44.35C50.38 44.45 49.78 44.75 49.28 45.05C48.47 45.45 47.97 45.76 46.96 45.56C46.16 45.35 45.66 44.75 45.35 44.45C46.66 42.94 47.67 41.23 48.37 39.32C48.87 39.42 49.58 39.52 50.08 40.12C50.79 40.93 50.79 41.53 50.89 42.44C50.89 42.94 50.89 43.54 51.19 44.35ZM52.29 36.5C51.79 37.21 51.49 37.71 50.48 38.11C49.78 38.31 48.97 38.11 48.57 37.91C48.77 37.01 48.87 36 48.87 34.99C48.87 33.99 48.77 32.98 48.57 32.08C48.97 31.88 49.78 31.68 50.48 31.88C51.49 32.18 51.79 32.78 52.29 33.49C52.6 33.99 53 34.49 53.6 34.99C53 35.5 52.7 36 52.29 36.5Z" fill="#FFFFFF" fill-opacity="1.000000" fill-rule="nonzero"/>
</svg>
