<svg width="70.000000" height="70.000000" viewBox="0 0 70 70" fill="none" xmlns="http://www.w3.org/2000/svg" xmlns:xlink="http://www.w3.org/1999/xlink">
	<desc>
			Created with Pixso.
	</desc>
	<defs>
		<linearGradient x1="0.017699" y1="34.991043" x2="70.018311" y2="34.991043" id="paint_linear_2008_1035_0" gradientUnits="userSpaceOnUse">
			<stop stop-color="#BE9DEB"/>
			<stop offset="1.000000" stop-color="#AB7BEB"/>
		</linearGradient>
		<linearGradient x1="4.040652" y1="34.991024" x2="65.995285" y2="34.991024" id="paint_linear_2008_1036_0" gradientUnits="userSpaceOnUse">
			<stop stop-color="#BE9DEB"/>
			<stop offset="1.000000" stop-color="#AB7BEB"/>
		</linearGradient>
		<linearGradient x1="6.051983" y1="34.991135" x2="63.983017" y2="34.991135" id="paint_linear_2008_1037_0" gradientUnits="userSpaceOnUse">
			<stop stop-color="#BE9DEB"/>
			<stop offset="1.000000" stop-color="#AB7BEB"/>
		</linearGradient>
	</defs>
	<g opacity="0.500000">
		<path id="Vector" d="M70 35C70 54.33 54.33 70 35 70C15.66 70 0 54.33 0 35C0 15.67 15.66 0 35 0C54.33 0 70 15.67 70 35Z" fill="url(#paint_linear_2008_1035_0)" fill-opacity="1.000000" fill-rule="evenodd"/>
	</g>
	<g opacity="0.500000">
		<path id="Vector" d="M35 65.97C17.9 65.97 4.02 52.09 4.02 35C4.02 17.9 17.9 4.02 35 4.02C52.09 4.02 65.97 17.9 65.97 35C65.97 52.09 52.09 65.97 35 65.97Z" fill="url(#paint_linear_2008_1036_0)" fill-opacity="1.000000" fill-rule="nonzero"/>
	</g>
	<g opacity="0.500000">
		<path id="Vector" d="M63.96 35C63.96 50.99 50.99 63.96 34.99 63.96C19 63.96 6.03 50.99 6.03 35C6.03 19 19 6.03 34.99 6.03C50.99 6.03 63.96 19 63.96 35Z" fill="url(#paint_linear_2008_1037_0)" fill-opacity="1.000000" fill-rule="evenodd"/>
	</g>
	<path id="Vector" d="M58.13 34.49C54.1 32.28 52.8 29.46 51.69 26.65C50.38 23.63 49.08 20.41 44.15 18.8C39.32 17.19 36.2 20.11 35.1 21.52C33.99 20.11 30.87 17.19 26.04 18.8C21.12 20.41 19.71 23.63 18.5 26.65C17.29 29.46 16.09 32.38 12.06 34.49C11.86 34.59 11.76 34.79 11.76 34.99C11.76 35.2 11.86 35.4 12.06 35.5C16.09 37.71 17.39 40.53 18.5 43.34C19.81 46.36 21.12 49.58 26.04 51.19C27.05 51.49 27.95 51.69 28.76 51.69C32.08 51.69 34.19 49.58 35.1 48.47C36 49.58 38.11 51.69 41.43 51.69C42.24 51.69 43.14 51.59 44.15 51.19C49.08 49.58 50.48 46.36 51.69 43.34C52.9 40.53 54.1 37.61 58.13 35.5C58.33 35.4 58.43 35.2 58.43 34.99C58.43 34.79 58.33 34.59 58.13 34.49ZM35 23.03C39.22 23.03 43.04 25.24 45.15 28.66L24.94 28.66C27.05 25.24 30.77 23.03 35 23.03ZM26.35 50.18C21.92 48.67 20.71 46.06 19.51 42.94C18.4 40.33 17.09 37.31 13.37 34.99C17.09 32.68 18.4 29.66 19.51 27.05C20.81 23.93 21.92 21.32 26.35 19.81C30.27 18.5 32.78 20.61 33.89 21.92C27.15 22.52 21.82 28.16 21.82 34.99C21.82 41.83 27.15 47.47 33.89 48.07C32.78 49.38 30.27 51.49 26.35 50.18ZM23.03 34.99C23.03 33.29 23.43 31.58 24.13 30.07L33.99 46.86C27.85 46.36 23.03 41.23 23.03 34.99ZM34.89 46.26L25.24 29.76L44.75 29.76L34.89 46.26ZM45.96 30.07C46.66 31.58 47.06 33.18 47.06 34.99C47.06 41.33 42.14 46.56 35.9 46.96L45.96 30.07ZM50.58 42.94C49.28 46.06 48.17 48.67 43.75 50.18C39.82 51.49 37.31 49.38 36.2 48.07C42.94 47.47 48.27 41.83 48.27 34.99C48.27 28.16 42.94 22.52 36.3 21.92C37.41 20.71 40.02 18.6 43.85 19.81C48.27 21.32 49.48 23.93 50.68 27.05C51.79 29.66 53.1 32.68 56.82 34.99C53 37.31 51.69 40.33 50.58 42.94Z" fill="#FFFFFF" fill-opacity="1.000000" fill-rule="nonzero"/>
</svg>
