<svg width="70.000000" height="70.000000" viewBox="0 0 70 70" fill="none" xmlns="http://www.w3.org/2000/svg" xmlns:xlink="http://www.w3.org/1999/xlink">
	<desc>
			Created with Pixso.
	</desc>
	<defs>
		<linearGradient x1="0.017699" y1="34.990845" x2="70.018311" y2="34.990845" id="paint_linear_2008_1006_0" gradientUnits="userSpaceOnUse">
			<stop stop-color="#FFB15E"/>
			<stop offset="1.000000" stop-color="#FF9F3A"/>
		</linearGradient>
		<linearGradient x1="4.040652" y1="34.990818" x2="65.995285" y2="34.990818" id="paint_linear_2008_1007_0" gradientUnits="userSpaceOnUse">
			<stop stop-color="#FFB15E"/>
			<stop offset="1.000000" stop-color="#FF9F3A"/>
		</linearGradient>
		<linearGradient x1="6.051983" y1="34.991035" x2="63.983017" y2="34.991035" id="paint_linear_2008_1008_0" gradientUnits="userSpaceOnUse">
			<stop stop-color="#FFB15E"/>
			<stop offset="1.000000" stop-color="#FF9F3A"/>
		</linearGradient>
	</defs>
	<g opacity="0.500000">
		<path id="Vector" d="M35 70C15.68 70 0 54.31 0 35C0 15.68 15.68 0 35 0C54.31 0 70 15.68 70 35C70 54.31 54.31 70 35 70Z" fill="url(#paint_linear_2008_1006_0)" fill-opacity="1.000000" fill-rule="nonzero"/>
	</g>
	<g opacity="0.500000">
		<path id="Vector" d="M35 65.97C17.9 65.97 4.02 52.09 4.02 35C4.02 17.9 17.9 4.02 35 4.02C52.09 4.02 65.97 17.9 65.97 35C65.97 52.09 52.09 65.97 35 65.97Z" fill="url(#paint_linear_2008_1007_0)" fill-opacity="1.000000" fill-rule="nonzero"/>
	</g>
	<g opacity="0.500000">
		<path id="Vector" d="M63.96 35C63.96 50.99 50.99 63.96 34.99 63.96C19 63.96 6.03 50.99 6.03 35C6.03 19 19 6.03 34.99 6.03C50.99 6.03 63.96 19 63.96 35Z" fill="url(#paint_linear_2008_1008_0)" fill-opacity="1.000000" fill-rule="evenodd"/>
	</g>
	<path id="Vector" d="M51.89 35.9C51.59 35.4 51.19 35.1 50.79 34.89C51.19 34.69 51.49 34.39 51.89 33.89C53.1 32.18 52.8 30.67 52.5 29.26C52.19 27.95 51.99 26.75 52.6 25.24C52.7 25.04 52.7 24.84 52.6 24.74C52.5 24.54 52.29 24.43 52.19 24.43C50.58 24.23 49.68 23.43 48.67 22.52C47.57 21.52 46.36 20.51 44.35 20.71C43.75 20.81 43.34 20.91 42.94 21.12C42.94 20.71 42.84 20.21 42.64 19.71C41.83 17.8 40.33 17.39 38.92 16.89C37.71 16.49 36.5 16.09 35.5 14.78C35.3 14.48 34.79 14.48 34.59 14.78C33.69 16.09 32.48 16.49 31.17 16.89C29.77 17.39 28.26 17.8 27.45 19.71C27.25 20.21 27.15 20.71 27.15 21.12C26.75 20.91 26.35 20.71 25.74 20.71C23.73 20.51 22.52 21.52 21.42 22.52C20.41 23.43 19.51 24.23 17.9 24.43C17.7 24.43 17.6 24.54 17.5 24.74C17.39 24.94 17.39 25.14 17.5 25.24C18.2 26.75 17.9 27.95 17.6 29.26C17.29 30.77 16.99 32.28 18.2 33.89C18.5 34.39 18.9 34.69 19.31 34.89C18.9 35.1 18.6 35.4 18.2 35.9C16.99 37.61 17.29 39.12 17.6 40.53C17.9 41.83 18.1 43.04 17.5 44.55C17.39 44.75 17.39 44.95 17.5 45.05C17.6 45.25 17.8 45.35 17.9 45.35C19.51 45.56 20.41 46.36 21.42 47.27C22.42 48.17 23.53 49.08 25.24 49.08C25.44 49.08 25.54 49.08 25.74 49.08C26.35 48.97 26.75 48.87 27.15 48.67C27.15 49.08 27.25 49.58 27.45 50.08C28.26 51.99 29.77 52.39 31.17 52.9C32.38 53.3 33.59 53.7 34.59 55.01C34.69 55.21 34.89 55.21 35.1 55.21C35.3 55.21 35.5 55.11 35.6 55.01C36.5 53.7 37.71 53.3 39.02 52.9C40.43 52.39 41.93 51.99 42.74 50.08C42.94 49.58 43.04 49.08 43.04 48.67C43.44 48.87 43.85 49.08 44.45 49.08C44.65 49.08 44.85 49.08 44.95 49.08C46.66 49.08 47.77 48.17 48.77 47.27C49.78 46.36 50.68 45.56 52.29 45.35C52.5 45.35 52.6 45.25 52.7 45.05C52.8 44.85 52.8 44.65 52.7 44.55C51.99 43.04 52.29 41.83 52.6 40.53C52.8 39.12 53.1 37.61 51.89 35.9ZM47.67 34.99C47.67 42.04 41.93 47.67 35 47.67C28.06 47.67 22.32 41.93 22.32 34.99C22.32 34.99 22.32 34.99 22.32 34.89C24.43 39.82 29.46 43.24 35 43.24C40.53 43.24 45.56 39.82 47.67 34.99ZM35 22.32C41.03 22.32 46.06 26.55 47.37 32.18C46.06 37.91 40.93 42.04 35 42.04C29.06 42.04 23.93 37.91 22.62 32.18C23.93 26.55 28.96 22.32 35 22.32ZM44.35 22.02C45.86 21.82 46.76 22.62 47.77 23.53C48.67 24.33 49.68 25.24 51.19 25.54C50.68 27.05 50.99 28.36 51.19 29.56C51.49 30.97 51.69 32.08 50.79 33.29C50.08 34.29 49.08 34.19 48.67 33.99C48.67 33.29 48.57 32.68 48.37 31.98C47.57 28.46 45.46 25.34 42.54 23.43C42.84 23.03 43.14 22.12 44.35 22.02ZM28.46 20.41C29.06 19 30.17 18.6 31.48 18.2C32.58 17.8 33.89 17.39 35 16.19C36.1 17.39 37.31 17.8 38.52 18.2C39.82 18.6 40.93 19 41.53 20.41C42.04 21.62 41.43 22.32 41.13 22.62C39.32 21.72 37.21 21.22 35 21.22C32.78 21.22 30.77 21.72 28.86 22.62C28.56 22.22 27.96 21.52 28.46 20.41ZM18.7 29.56C18.9 28.36 19.2 27.05 18.7 25.54C20.21 25.24 21.22 24.33 22.12 23.53C23.23 22.62 24.03 21.82 25.54 22.02C26.75 22.12 27.15 23.03 27.25 23.53C24.33 25.54 22.22 28.56 21.42 32.08C21.32 32.68 21.22 33.39 21.12 34.09C20.71 34.19 19.71 34.39 19 33.39C18.2 32.08 18.4 30.97 18.7 29.56ZM25.64 47.97C24.13 48.17 23.23 47.37 22.22 46.46C21.32 45.66 20.31 44.75 18.8 44.45C19.31 42.94 19 41.63 18.8 40.43C18.5 39.02 18.3 37.91 19.2 36.7C19.91 35.7 20.91 35.8 21.32 36C21.62 40.43 23.93 44.25 27.45 46.56C27.25 46.96 26.85 47.77 25.64 47.97ZM41.53 49.58C40.93 50.99 39.82 51.39 38.52 51.79C37.41 52.19 36.1 52.6 35 53.8C33.89 52.6 32.68 52.19 31.48 51.79C30.17 51.39 29.06 50.99 28.46 49.58C27.96 48.37 28.56 47.67 28.86 47.37C30.67 48.27 32.78 48.77 35 48.77C37.21 48.77 39.22 48.27 41.13 47.37C41.43 47.67 42.04 48.47 41.53 49.58ZM51.29 40.33C51.09 41.53 50.79 42.84 51.29 44.35C49.78 44.65 48.77 45.56 47.87 46.36C46.86 47.27 45.96 48.07 44.45 47.87C43.24 47.77 42.84 46.86 42.74 46.36C46.16 44.05 48.57 40.22 48.87 35.8C49.28 35.7 50.28 35.5 50.99 36.5C51.79 37.91 51.59 38.92 51.29 40.33Z" fill="#FFFFFF" fill-opacity="1.000000" fill-rule="nonzero"/>
</svg>
