<svg width="70.000000" height="70.000000" viewBox="0 0 70 70" fill="none" xmlns="http://www.w3.org/2000/svg" xmlns:xlink="http://www.w3.org/1999/xlink">
	<desc>
			Created with Pixso.
	</desc>
	<defs>
		<linearGradient x1="0.017699" y1="34.990952" x2="70.018311" y2="34.990952" id="paint_linear_2008_1016_0" gradientUnits="userSpaceOnUse">
			<stop stop-color="#73CBE6"/>
			<stop offset="1.000000" stop-color="#52C3E6"/>
		</linearGradient>
		<linearGradient x1="4.040652" y1="34.990910" x2="65.995285" y2="34.990910" id="paint_linear_2008_1017_0" gradientUnits="userSpaceOnUse">
			<stop stop-color="#73CBE6"/>
			<stop offset="1.000000" stop-color="#52C3E6"/>
		</linearGradient>
		<linearGradient x1="6.051983" y1="34.991135" x2="63.983017" y2="34.991135" id="paint_linear_2008_1018_0" gradientUnits="userSpaceOnUse">
			<stop stop-color="#73CBE6"/>
			<stop offset="1.000000" stop-color="#52C3E6"/>
		</linearGradient>
	</defs>
	<g opacity="0.500000">
		<path id="Vector" d="M70 35C70 54.33 54.33 70 35 70C15.66 70 0 54.33 0 35C0 15.67 15.66 0 35 0C54.33 0 70 15.67 70 35Z" fill="url(#paint_linear_2008_1016_0)" fill-opacity="1.000000" fill-rule="evenodd"/>
	</g>
	<g opacity="0.500000">
		<path id="Vector" d="M35 65.97C17.9 65.97 4.02 52.09 4.02 35C4.02 17.9 17.9 4.02 35 4.02C52.09 4.02 65.97 17.9 65.97 35C65.97 52.09 52.09 65.97 35 65.97Z" fill="url(#paint_linear_2008_1017_0)" fill-opacity="1.000000" fill-rule="nonzero"/>
	</g>
	<g opacity="0.500000">
		<path id="Vector" d="M63.96 35C63.96 50.99 50.99 63.96 34.99 63.96C19 63.96 6.03 50.99 6.03 35C6.03 19 19 6.03 34.99 6.03C50.99 6.03 63.96 19 63.96 35Z" fill="url(#paint_linear_2008_1018_0)" fill-opacity="1.000000" fill-rule="evenodd"/>
	</g>
	<path id="Vector" d="M55.01 34.49C54.31 34.09 54 33.69 53.7 33.18C53.3 32.68 52.9 32.08 52.09 31.68C52.7 30.97 52.9 30.27 53 29.66C53.1 29.06 53.2 28.56 53.7 27.95C53.8 27.75 53.9 27.55 53.8 27.35C53.7 27.15 53.5 27.05 53.3 26.95C52.49 26.85 52.09 26.55 51.59 26.24C51.09 25.84 50.48 25.44 49.48 25.44C49.78 24.53 49.68 23.83 49.58 23.23C49.48 22.62 49.38 22.12 49.58 21.32C49.68 21.12 49.58 20.91 49.48 20.71C49.38 20.61 49.08 20.51 48.87 20.61C48.17 20.81 47.57 20.71 46.96 20.61C46.36 20.51 45.56 20.31 44.75 20.71C44.75 19.81 44.35 19.1 43.95 18.6C43.64 18.1 43.34 17.6 43.24 16.89C43.24 16.69 43.04 16.49 42.84 16.39C42.64 16.29 42.44 16.39 42.24 16.49C41.63 16.99 41.13 17.09 40.53 17.19C39.92 17.29 39.12 17.49 38.52 18.1C38.11 17.19 37.51 16.79 37.01 16.49C36.5 16.19 36 15.89 35.7 15.18C35.5 14.78 34.89 14.78 34.69 15.18C34.29 15.89 33.89 16.19 33.39 16.49C32.88 16.89 32.28 17.29 31.88 18.1C31.17 17.49 30.47 17.29 29.87 17.19C29.26 17.09 28.76 16.99 28.16 16.49C27.95 16.39 27.75 16.29 27.55 16.39C27.35 16.49 27.25 16.69 27.15 16.89C27.05 17.7 26.75 18.1 26.45 18.6C26.04 19.1 25.64 19.71 25.64 20.71C24.74 20.41 24.03 20.51 23.43 20.61C22.83 20.71 22.32 20.81 21.52 20.61C21.32 20.51 21.12 20.61 20.91 20.71C20.81 20.81 20.71 21.12 20.81 21.32C21.02 22.02 20.91 22.62 20.81 23.23C20.71 23.83 20.51 24.64 20.91 25.44C20.01 25.44 19.31 25.84 18.8 26.24C18.3 26.55 17.8 26.85 17.09 26.95C16.89 26.95 16.69 27.15 16.59 27.35C16.49 27.55 16.59 27.75 16.69 27.95C17.19 28.56 17.29 29.06 17.39 29.66C17.49 30.27 17.7 31.07 18.3 31.68C17.39 32.08 16.99 32.68 16.69 33.18C16.39 33.69 16.09 34.19 15.38 34.49C15.18 34.59 15.08 34.79 15.08 34.99C15.08 35.2 15.18 35.4 15.38 35.5C16.09 35.9 16.39 36.3 16.69 36.81C17.09 37.31 17.49 37.91 18.3 38.31C17.7 39.02 17.49 39.72 17.39 40.33C17.29 40.93 17.19 41.43 16.69 42.03C16.59 42.24 16.49 42.44 16.59 42.64C16.69 42.84 16.89 42.94 17.09 43.04C17.9 43.14 18.3 43.44 18.8 43.74C19.31 44.15 20.01 44.55 20.91 44.55C20.61 45.45 20.71 46.16 20.81 46.76C20.91 47.37 21.02 47.87 20.81 48.67C20.71 48.87 20.81 49.08 20.91 49.28C21.02 49.38 21.32 49.48 21.52 49.38C22.22 49.18 22.83 49.28 23.43 49.38C23.73 49.48 24.13 49.48 24.54 49.48C24.84 49.48 25.24 49.38 25.64 49.28C25.64 50.18 26.04 50.89 26.45 51.39C26.75 51.89 27.05 52.39 27.15 53.1C27.15 53.3 27.35 53.5 27.55 53.6C27.65 53.6 27.65 53.6 27.75 53.6C27.85 53.6 28.06 53.6 28.16 53.5C28.76 53 29.26 52.9 29.87 52.8C30.47 52.7 31.27 52.49 31.88 51.89C32.28 52.8 32.88 53.2 33.39 53.5C33.89 53.8 34.39 54.1 34.69 54.81C34.79 55.01 34.99 55.11 35.2 55.11C35.4 55.11 35.6 55.01 35.7 54.81C36.1 54.1 36.5 53.8 37.01 53.5C37.51 53.1 38.11 52.7 38.52 51.89C39.22 52.49 39.92 52.7 40.53 52.8C41.13 52.9 41.63 53 42.24 53.5C42.34 53.6 42.44 53.6 42.64 53.6C42.74 53.6 42.74 53.6 42.84 53.6C43.04 53.5 43.14 53.3 43.24 53.1C43.34 52.29 43.64 51.89 43.95 51.39C44.35 50.89 44.75 50.28 44.75 49.28C45.15 49.48 45.56 49.48 45.86 49.48C46.26 49.48 46.66 49.38 46.96 49.38C47.57 49.28 48.07 49.18 48.87 49.38C49.08 49.48 49.28 49.38 49.48 49.28C49.58 49.18 49.68 48.87 49.58 48.67C49.38 47.97 49.48 47.37 49.58 46.76C49.68 46.16 49.88 45.35 49.48 44.55C50.38 44.55 51.09 44.15 51.59 43.74C52.09 43.44 52.6 43.14 53.3 43.04C53.5 43.04 53.7 42.84 53.8 42.64C53.9 42.44 53.8 42.24 53.7 42.03C53.2 41.43 53.1 40.93 53 40.33C52.9 39.72 52.7 38.92 52.09 38.31C53 37.91 53.4 37.31 53.7 36.81C54 36.3 54.31 35.8 55.01 35.5C55.21 35.4 55.31 35.2 55.31 34.99C55.31 34.79 55.21 34.59 55.01 34.49ZM49.18 26.55C49.98 26.45 50.38 26.75 50.99 27.15C51.39 27.45 51.79 27.65 52.39 27.85C52.09 28.36 51.99 28.86 51.89 29.36C51.79 30.07 51.69 30.57 51.09 31.07C50.89 31.27 50.58 31.37 50.28 31.47L50.18 31.47C49.98 31.47 49.88 31.47 49.68 31.47C49.28 29.97 48.67 28.56 47.87 27.15C47.97 27.05 48.07 26.95 48.27 26.85C48.27 26.85 48.37 26.85 48.37 26.75C48.57 26.65 48.77 26.55 49.18 26.55ZM44.15 22.42C44.35 22.12 44.55 21.92 44.85 21.82C45.56 21.42 46.06 21.52 46.76 21.72C47.27 21.82 47.77 21.92 48.27 21.82C48.27 22.42 48.37 22.93 48.37 23.33C48.47 24.03 48.57 24.53 48.27 25.24C48.17 25.54 47.97 25.74 47.67 25.84C47.67 25.84 47.57 25.84 47.57 25.94C47.37 26.04 47.27 26.14 47.16 26.14C46.26 24.94 45.15 23.83 43.85 22.83C43.95 22.72 44.05 22.52 44.15 22.42ZM38.62 19.91L38.62 19.81C38.72 19.51 38.82 19.31 39.02 19C39.52 18.4 40.02 18.3 40.73 18.2C41.23 18.1 41.63 18 42.24 17.7C42.44 18.3 42.74 18.7 42.94 19.1C43.34 19.71 43.64 20.11 43.54 20.91C43.54 21.22 43.44 21.52 43.24 21.72C43.24 21.72 43.24 21.82 43.14 21.82C43.04 22.02 42.94 22.12 42.84 22.22C41.53 21.42 40.12 20.81 38.52 20.41C38.52 20.21 38.62 20.01 38.62 19.91ZM32.58 18.7C32.88 18 33.29 17.7 33.79 17.29C34.19 16.99 34.59 16.79 34.99 16.29C35.4 16.69 35.8 16.99 36.2 17.29C36.81 17.7 37.21 18 37.41 18.7C37.51 19 37.51 19.31 37.41 19.51L37.41 19.61C37.41 19.81 37.31 19.91 37.31 20.11C36.5 20.01 35.8 19.91 34.99 19.91C34.19 19.91 33.49 20.01 32.68 20.11C32.58 20.01 32.58 19.81 32.58 19.61L32.58 19.51C32.48 19.31 32.48 19 32.58 18.7ZM27.15 19.1C27.45 18.7 27.65 18.3 27.85 17.7C28.36 18 28.86 18.1 29.36 18.2C30.07 18.3 30.57 18.4 31.07 19C31.27 19.2 31.37 19.51 31.47 19.81L31.47 19.91C31.47 20.11 31.47 20.31 31.47 20.41C29.97 20.81 28.56 21.42 27.15 22.22C27.05 22.12 26.95 22.02 26.85 21.82C26.85 21.82 26.85 21.72 26.75 21.72C26.65 21.52 26.45 21.22 26.45 20.91C26.45 20.11 26.75 19.71 27.15 19.1ZM21.62 23.33C21.72 22.83 21.82 22.42 21.72 21.82C22.32 21.82 22.83 21.72 23.23 21.72C23.93 21.62 24.43 21.52 25.14 21.82C25.44 21.92 25.64 22.12 25.74 22.42C25.74 22.42 25.74 22.52 25.84 22.52C25.94 22.72 26.04 22.83 26.04 22.93C24.84 23.83 23.73 24.94 22.72 26.24C22.62 26.14 22.42 26.14 22.32 26.04C22.32 26.04 22.22 26.04 22.22 25.94C22.02 25.74 21.82 25.54 21.62 25.34C21.42 24.43 21.52 24.03 21.62 23.33ZM17.8 27.85C18.4 27.65 18.8 27.35 19.2 27.15C19.81 26.75 20.21 26.45 21.02 26.55C21.32 26.55 21.62 26.65 21.82 26.85C21.82 26.85 21.92 26.85 21.92 26.95C22.12 27.05 22.22 27.15 22.32 27.25C21.52 28.56 20.91 29.97 20.51 31.58C20.41 31.58 20.21 31.58 20.01 31.58L19.91 31.58C19.61 31.47 19.41 31.37 19.1 31.17C18.5 30.67 18.4 30.17 18.3 29.46C18.1 28.86 18 28.36 17.8 27.85ZM17.29 36.2C16.99 35.8 16.79 35.4 16.29 34.99C16.69 34.59 16.99 34.19 17.29 33.79C17.7 33.18 18 32.78 18.7 32.58C19 32.48 19.31 32.48 19.61 32.58L19.71 32.58C19.91 32.58 20.01 32.68 20.11 32.68C20.01 33.49 19.91 34.19 19.91 34.99C19.91 35.8 20.01 36.5 20.11 37.31C20.01 37.41 19.81 37.41 19.61 37.41L19.51 37.41C19.2 37.41 18.9 37.41 18.7 37.41C18 37.11 17.7 36.7 17.29 36.2ZM20.91 43.44C20.11 43.54 19.71 43.24 19.1 42.84C18.7 42.54 18.3 42.34 17.7 42.14C18 41.63 18.1 41.13 18.2 40.63C18.3 39.92 18.4 39.42 19 38.92C19.2 38.72 19.51 38.62 19.81 38.51L19.91 38.51C20.11 38.51 20.21 38.51 20.31 38.51C20.71 40.02 21.32 41.43 22.12 42.84C22.02 42.94 21.92 43.04 21.72 43.14C21.72 43.14 21.62 43.14 21.62 43.24C21.52 43.34 21.22 43.44 20.91 43.44ZM25.94 47.57C25.74 47.87 25.54 48.07 25.24 48.17C24.54 48.47 24.03 48.47 23.33 48.27C22.83 48.17 22.32 48.07 21.82 48.17C21.82 47.57 21.72 47.06 21.72 46.66C21.62 45.96 21.52 45.45 21.82 44.75C21.92 44.45 22.12 44.25 22.42 44.15C22.42 44.15 22.52 44.15 22.52 44.05C22.72 43.95 22.83 43.85 22.93 43.85C23.83 45.05 24.94 46.16 26.24 47.16C26.04 47.26 26.04 47.37 25.94 47.57ZM31.37 50.08L31.37 50.18C31.27 50.48 31.17 50.68 30.97 50.99C30.47 51.59 29.97 51.69 29.26 51.79C28.76 51.89 28.36 51.99 27.75 52.29C27.55 51.69 27.25 51.29 27.05 50.89C26.65 50.28 26.35 49.88 26.45 49.08C26.45 48.77 26.55 48.47 26.75 48.27C26.75 48.27 26.75 48.17 26.85 48.17C26.95 47.97 27.05 47.87 27.15 47.77C28.46 48.57 29.87 49.18 31.47 49.58C31.47 49.68 31.47 49.88 31.37 50.08ZM37.41 51.29C37.11 51.99 36.7 52.29 36.2 52.7C35.8 53 35.4 53.2 34.99 53.7C34.59 53.3 34.19 53 33.79 52.7C33.18 52.29 32.78 51.99 32.58 51.29C32.48 50.99 32.48 50.68 32.58 50.48L32.58 50.38C32.58 50.18 32.68 50.08 32.68 49.88C33.49 49.98 34.19 50.08 34.99 50.08C35.8 50.08 36.5 49.98 37.31 49.88C37.41 49.98 37.41 50.18 37.41 50.38L37.41 50.48C37.51 50.68 37.51 50.99 37.41 51.29ZM42.84 50.89C42.54 51.29 42.34 51.69 42.14 52.29C41.63 51.99 41.13 51.89 40.63 51.79C39.92 51.69 39.42 51.59 38.92 50.99C38.72 50.78 38.62 50.48 38.52 50.18L38.52 50.08C38.52 49.88 38.52 49.68 38.52 49.58C40.02 49.18 41.43 48.57 42.84 47.77C42.94 47.87 43.04 47.97 43.14 48.17C43.14 48.17 43.14 48.27 43.24 48.27C43.34 48.47 43.54 48.77 43.54 49.08C43.54 49.88 43.24 50.28 42.84 50.89ZM34.99 48.87C33.99 48.87 33.08 48.77 32.08 48.57C26.75 47.47 22.52 43.24 21.32 37.81C21.12 36.91 21.02 35.9 21.02 34.89C21.02 28.26 25.74 22.62 32.08 21.32C32.98 21.12 33.99 21.01 34.89 21.01C35.9 21.01 36.81 21.12 37.81 21.32C43.14 22.42 47.37 26.65 48.57 32.08C48.77 32.98 48.87 33.99 48.87 34.99C48.87 42.64 42.64 48.87 34.99 48.87ZM48.37 46.66C48.27 47.16 48.17 47.57 48.27 48.17C47.67 48.17 47.16 48.27 46.76 48.27C46.06 48.37 45.56 48.47 44.85 48.17C44.55 48.07 44.35 47.87 44.25 47.57C44.25 47.57 44.25 47.47 44.15 47.47C44.05 47.26 43.95 47.16 43.95 47.06C45.15 46.16 46.26 45.05 47.27 43.74C47.37 43.85 47.57 43.85 47.67 43.95C47.67 43.95 47.77 43.95 47.77 44.05C47.97 44.25 48.17 44.45 48.37 44.65C48.57 45.45 48.47 45.96 48.37 46.66ZM52.29 42.14C51.69 42.34 51.29 42.64 50.89 42.84C50.28 43.24 49.88 43.54 49.08 43.44C48.77 43.44 48.47 43.34 48.27 43.14C48.27 43.14 48.17 43.14 48.17 43.04C47.97 42.94 47.87 42.84 47.77 42.74C48.57 41.43 49.18 40.02 49.58 38.41C49.68 38.41 49.88 38.41 49.98 38.41L50.08 38.41C50.38 38.51 50.68 38.62 50.89 38.82C51.49 39.32 51.59 39.82 51.69 40.53C51.89 41.13 51.99 41.63 52.29 42.14ZM52.7 36.2C52.29 36.81 51.99 37.21 51.29 37.41C50.99 37.51 50.68 37.51 50.48 37.41L50.38 37.41C50.18 37.41 50.08 37.31 49.88 37.31C49.98 36.5 50.08 35.8 50.08 34.99C50.08 34.19 49.98 33.49 49.88 32.68C49.98 32.68 50.18 32.58 50.28 32.58L50.38 32.58C50.68 32.58 50.99 32.48 51.29 32.58C51.99 32.88 52.29 33.28 52.7 33.79C53 34.19 53.2 34.59 53.7 34.99C53.2 35.4 53 35.8 52.7 36.2Z" fill="#FFFFFF" fill-opacity="1.000000" fill-rule="nonzero"/>
	<path id="Vector" d="M34.99 28.16C31.27 28.16 28.16 31.17 28.16 35C28.16 38.72 31.17 41.83 34.99 41.83C38.72 41.83 41.83 38.82 41.83 35C41.83 31.27 38.72 28.16 34.99 28.16ZM34.99 40.63C31.88 40.63 29.36 38.11 29.36 35C29.36 31.88 31.88 29.36 34.99 29.36C38.11 29.36 40.63 31.88 40.63 35C40.63 38.11 38.11 40.63 34.99 40.63Z" fill="#FFFFFF" fill-opacity="1.000000" fill-rule="nonzero"/>
</svg>
