<svg width="70.000000" height="70.000000" viewBox="0 0 70 70" fill="none" xmlns="http://www.w3.org/2000/svg" xmlns:xlink="http://www.w3.org/1999/xlink">
	<desc>
			Created with Pixso.
	</desc>
	<defs>
		<linearGradient x1="0.017699" y1="34.990845" x2="70.018311" y2="34.990845" id="paint_linear_2008_1115_0" gradientUnits="userSpaceOnUse">
			<stop stop-color="#F48599"/>
			<stop offset="1.000000" stop-color="#F4627D"/>
		</linearGradient>
		<linearGradient x1="4.040652" y1="34.990818" x2="65.995285" y2="34.990818" id="paint_linear_2008_1116_0" gradientUnits="userSpaceOnUse">
			<stop stop-color="#F48599"/>
			<stop offset="1.000000" stop-color="#F4627D"/>
		</linearGradient>
		<linearGradient x1="6.051983" y1="34.990791" x2="63.983017" y2="34.990791" id="paint_linear_2008_1117_0" gradientUnits="userSpaceOnUse">
			<stop stop-color="#F48599"/>
			<stop offset="1.000000" stop-color="#F4627D"/>
		</linearGradient>
	</defs>
	<g opacity="0.500000">
		<path id="Vector" d="M35 70C15.68 70 0 54.31 0 35C0 15.68 15.68 0 35 0C54.31 0 70 15.68 70 35C70 54.31 54.31 70 35 70Z" fill="url(#paint_linear_2008_1115_0)" fill-opacity="1.000000" fill-rule="nonzero"/>
	</g>
	<g opacity="0.500000">
		<path id="Vector" d="M35 65.97C17.9 65.97 4.02 52.09 4.02 35C4.02 17.9 17.9 4.02 35 4.02C52.09 4.02 65.97 17.9 65.97 35C65.97 52.09 52.09 65.97 35 65.97Z" fill="url(#paint_linear_2008_1116_0)" fill-opacity="1.000000" fill-rule="nonzero"/>
	</g>
	<g opacity="0.500000">
		<path id="Vector" d="M63.96 35C63.96 50.99 50.99 63.96 34.99 63.96C19 63.96 6.03 50.99 6.03 35C6.03 19 19 6.03 34.99 6.03C50.99 6.03 63.96 19 63.96 35Z" fill="url(#paint_linear_2008_1117_0)" fill-opacity="1.000000" fill-rule="evenodd"/>
	</g>
	<path id="Vector" d="M55.01 34.49C53.1 33.08 52.49 31.37 51.99 29.66C51.39 27.75 50.68 25.74 48.17 24.64C47.27 24.23 46.36 24.13 45.66 24.33C45.76 23.63 45.76 22.83 45.35 21.82C44.25 19.31 42.24 18.6 40.33 18C38.62 17.39 36.91 16.89 35.5 14.98C35.3 14.68 34.79 14.68 34.59 14.98C33.18 16.89 31.47 17.49 29.77 18C27.85 18.6 25.84 19.31 24.74 21.82C24.33 22.72 24.23 23.63 24.43 24.33C23.73 24.23 22.93 24.23 21.92 24.64C19.41 25.74 18.7 27.75 18.1 29.66C17.49 31.37 16.99 33.08 15.08 34.49C14.88 34.59 14.88 34.79 14.88 34.99C14.88 35.2 14.98 35.4 15.08 35.5C16.99 36.91 17.6 38.62 18.1 40.33C18.7 42.24 19.41 44.25 21.92 45.35C22.52 45.66 23.13 45.76 23.73 45.76C23.93 45.76 24.23 45.76 24.43 45.66C24.33 46.36 24.33 47.16 24.74 48.17C25.84 50.68 27.85 51.39 29.77 51.99C31.47 52.6 33.18 53.1 34.59 55.01C34.69 55.21 34.89 55.21 35.1 55.21C35.3 55.21 35.5 55.11 35.6 55.01C37.01 53.1 38.72 52.49 40.43 51.99C42.34 51.39 44.35 50.68 45.45 48.17C45.86 47.26 45.96 46.36 45.76 45.66C45.96 45.66 46.26 45.76 46.46 45.76C46.96 45.76 47.57 45.66 48.27 45.35C50.79 44.25 51.49 42.24 52.09 40.33C52.7 38.62 53.2 36.91 55.11 35.5C55.31 35.4 55.31 35.2 55.31 34.99C55.31 34.79 55.21 34.59 55.01 34.49ZM25.74 22.32C26.65 20.31 28.26 19.71 30.07 19.1C31.68 18.6 33.49 18 34.99 16.19C36.5 17.9 38.31 18.5 39.92 19.1C41.73 19.71 43.34 20.21 44.25 22.32C44.75 23.53 44.55 24.33 44.15 24.94C44.05 25.04 43.95 25.04 43.85 25.14C42.84 23.03 39.32 21.42 34.89 21.42C30.47 21.42 26.95 22.93 25.94 25.14C25.84 25.04 25.74 24.94 25.64 24.94C25.44 24.33 25.24 23.43 25.74 22.32ZM43.04 43.04L35.9 43.04L43.04 28.76L43.04 43.04ZM26.95 28.76L34.09 43.04L26.95 43.04L26.95 28.76ZM27.35 26.95L42.74 26.95L34.99 42.34L27.35 26.95ZM27.05 25.74C27.65 23.93 31.07 22.62 34.99 22.62C38.92 22.62 42.34 24.03 42.94 25.74L27.05 25.74ZM25.84 27.05L25.84 42.94C24.03 42.34 22.72 38.92 22.72 34.99C22.62 31.07 24.03 27.65 25.84 27.05ZM42.94 44.15C42.34 45.96 38.92 47.26 34.99 47.26C31.07 47.26 27.65 45.86 27.05 44.15L42.94 44.15ZM44.25 42.94L44.25 27.05C46.06 27.65 47.37 31.07 47.37 34.99C47.37 38.92 45.96 42.34 44.25 42.94ZM22.32 44.25C20.31 43.34 19.71 41.73 19.1 39.92C18.6 38.31 18 36.5 16.19 34.99C17.9 33.49 18.5 31.68 19.1 30.07C19.71 28.26 20.21 26.65 22.32 25.74C23.53 25.24 24.33 25.44 24.94 25.84C25.04 25.94 25.04 26.04 25.14 26.14C23.03 27.15 21.42 30.67 21.42 35.1C21.42 39.52 22.93 43.04 25.14 44.05C25.04 44.15 25.04 44.25 24.94 44.35C24.33 44.55 23.43 44.75 22.32 44.25ZM44.35 47.67C43.44 49.68 41.83 50.28 40.02 50.89C38.41 51.39 36.6 51.99 35.1 53.8C33.59 52.09 31.78 51.49 30.17 50.89C28.36 50.28 26.75 49.78 25.84 47.67C25.34 46.46 25.54 45.66 25.94 45.05C26.04 44.95 26.14 44.95 26.24 44.85C27.25 46.96 30.77 48.57 35.2 48.57C39.62 48.57 43.14 47.06 44.15 44.85C44.25 44.95 44.35 44.95 44.45 45.05C44.65 45.66 44.85 46.56 44.35 47.67ZM50.89 39.92C50.28 41.73 49.78 43.34 47.67 44.25C46.46 44.75 45.66 44.55 45.05 44.15C44.95 44.05 44.95 43.95 44.85 43.85C46.96 42.84 48.57 39.32 48.57 34.89C48.57 30.47 47.06 26.95 44.85 25.94C44.95 25.84 44.95 25.74 45.05 25.64C45.66 25.24 46.56 25.04 47.67 25.54C49.68 26.45 50.28 28.06 50.89 29.87C51.39 31.47 51.99 33.28 53.8 34.79C51.99 36.5 51.49 38.31 50.89 39.92Z" fill="#FFFFFF" fill-opacity="1.000000" fill-rule="nonzero"/>
</svg>
