<svg width="70.000000" height="70.000000" viewBox="0 0 70 70" fill="none" xmlns="http://www.w3.org/2000/svg" xmlns:xlink="http://www.w3.org/1999/xlink">
	<desc>
			Created with Pixso.
	</desc>
	<defs>
		<linearGradient x1="0.021513" y1="34.988937" x2="70.021507" y2="34.988937" id="paint_linear_2008_1059_0" gradientUnits="userSpaceOnUse">
			<stop stop-color="#FFECD9"/>
			<stop offset="1.000000" stop-color="#FFC78C"/>
		</linearGradient>
		<linearGradient x1="4.041989" y1="34.990173" x2="65.996017" y2="34.990173" id="paint_linear_2008_1060_0" gradientUnits="userSpaceOnUse">
			<stop stop-color="#FFECD9"/>
			<stop offset="1.000000" stop-color="#FFC78C"/>
		</linearGradient>
		<linearGradient x1="6.051983" y1="34.991035" x2="63.983017" y2="34.991035" id="paint_linear_2008_1061_0" gradientUnits="userSpaceOnUse">
			<stop stop-color="#FFECD9"/>
			<stop offset="1.000000" stop-color="#FFC78C"/>
		</linearGradient>
		<linearGradient x1="34.999836" y1="11.734284" x2="34.999836" y2="36.443123" id="paint_linear_2008_1066_0" gradientUnits="userSpaceOnUse">
			<stop stop-color="#F47E7D"/>
			<stop offset="1.000000" stop-color="#F45A5A"/>
		</linearGradient>
		<linearGradient x1="16.354181" y1="20.944880" x2="35.186867" y2="36.351120" id="paint_linear_2008_1068_0" gradientUnits="userSpaceOnUse">
			<stop stop-color="#BE9DEB"/>
			<stop offset="1.000000" stop-color="#AB7BEB"/>
		</linearGradient>
		<linearGradient x1="11.748154" y1="41.641830" x2="35.232723" y2="36.143955" id="paint_linear_2008_1070_0" gradientUnits="userSpaceOnUse">
			<stop stop-color="#73CBE6"/>
			<stop offset="1.000000" stop-color="#52C3E6"/>
		</linearGradient>
		<linearGradient x1="24.652092" y1="58.239639" x2="35.103714" y2="35.977768" id="paint_linear_2008_1072_0" gradientUnits="userSpaceOnUse">
			<stop stop-color="#BFEF56"/>
			<stop offset="1.000000" stop-color="#9BDC1E"/>
		</linearGradient>
		<linearGradient x1="45.348511" y1="58.239647" x2="34.896896" y2="35.977779" id="paint_linear_2008_1074_0" gradientUnits="userSpaceOnUse">
			<stop stop-color="#FFE36A"/>
			<stop offset="1.000000" stop-color="#FFDC46"/>
		</linearGradient>
		<linearGradient x1="58.251812" y1="41.641876" x2="34.767250" y2="36.143986" id="paint_linear_2008_1076_0" gradientUnits="userSpaceOnUse">
			<stop stop-color="#FFB15E"/>
			<stop offset="1.000000" stop-color="#FF9F3A"/>
		</linearGradient>
		<linearGradient x1="53.646175" y1="20.944897" x2="34.813499" y2="36.351135" id="paint_linear_2008_1078_0" gradientUnits="userSpaceOnUse">
			<stop stop-color="#F48599"/>
			<stop offset="1.000000" stop-color="#F4627D"/>
		</linearGradient>
	</defs>
	<g opacity="0.500000">
		<path id="Vector" d="M35 70C15.68 70 0 54.31 0 35C0 15.68 15.68 0 35 0C54.31 0 70 15.68 70 35C70 54.31 54.31 70 35 70Z" fill="url(#paint_linear_2008_1059_0)" fill-opacity="1.000000" fill-rule="nonzero"/>
	</g>
	<g opacity="0.500000">
		<path id="Vector" d="M35 65.97C17.9 65.97 4.02 52.09 4.02 35C4.02 17.9 17.9 4.02 35 4.02C52.09 4.02 65.97 17.9 65.97 35C65.97 52.09 52.09 65.97 35 65.97Z" fill="url(#paint_linear_2008_1060_0)" fill-opacity="1.000000" fill-rule="nonzero"/>
	</g>
	<g opacity="0.500000">
		<path id="Vector" d="M63.96 35C63.96 50.99 50.99 63.96 34.99 63.96C19 63.96 6.03 50.99 6.03 35C6.03 19 19 6.03 34.99 6.03C50.99 6.03 63.96 19 63.96 35Z" fill="url(#paint_linear_2008_1061_0)" fill-opacity="1.000000" fill-rule="evenodd"/>
	</g>
	<g opacity="0.600000">
		<path id="Vector" d="M35 12C35 12 29.1 16.03 29.1 24.1C29.1 32.17 35 36.19 35 36.19C35 36.19 40.89 32.16 40.89 24.09C40.89 16.03 35 12 35 12Z" fill="url(#paint_linear_2008_1066_0)" fill-opacity="1.000000" fill-rule="nonzero"/>
		<path id="Vector" d="M29.1 24.1C29.1 16.03 35 12 35 12C35 12 40.89 16.03 40.89 24.09C40.89 32.16 35 36.19 35 36.19C35 36.19 29.1 32.17 29.1 24.1ZM34.99 34.91Q35.12 34.81 35.24 34.69Q36.27 33.75 37.13 32.57Q38.03 31.35 38.64 30Q38.85 29.53 39.03 29.04Q39.21 28.53 39.36 28.02Q39.89 26.13 39.89 24.09Q39.89 22.06 39.36 20.18Q39.22 19.66 39.03 19.14Q38.85 18.66 38.65 18.2Q38.04 16.84 37.13 15.61Q36.27 14.43 35.24 13.49Q35.12 13.38 35 13.27Q34.87 13.38 34.75 13.49Q33.72 14.43 32.86 15.61Q31.96 16.83 31.35 18.18Q31.14 18.66 30.96 19.15Q30.78 19.65 30.63 20.17Q30.1 22.06 30.1 24.1Q30.1 26.15 30.64 28.05Q30.78 28.55 30.96 29.05Q31.14 29.54 31.36 30.02Q31.97 31.36 32.85 32.58Q33.72 33.76 34.75 34.7Q34.87 34.81 34.99 34.91Z" fill="#FFFFFF" fill-opacity="1.000000" fill-rule="evenodd"/>
		<path id="Vector" d="M29.1 24.1C29.1 16.03 35 12 35 12C35 12 40.89 16.03 40.89 24.09C40.89 32.16 35 36.19 35 36.19C35 36.19 29.1 32.17 29.1 24.1ZM34.99 34.91Q35.12 34.81 35.24 34.69Q36.27 33.75 37.13 32.57Q38.03 31.35 38.64 30Q38.85 29.53 39.03 29.04Q39.21 28.53 39.36 28.02Q39.89 26.13 39.89 24.09Q39.89 22.06 39.36 20.18Q39.22 19.66 39.03 19.14Q38.85 18.66 38.65 18.2Q38.04 16.84 37.13 15.61Q36.27 14.43 35.24 13.49Q35.12 13.38 35 13.27Q34.87 13.38 34.75 13.49Q33.72 14.43 32.86 15.61Q31.96 16.83 31.35 18.18Q31.14 18.66 30.96 19.15Q30.78 19.65 30.63 20.17Q30.1 22.06 30.1 24.1Q30.1 26.15 30.64 28.05Q30.78 28.55 30.96 29.05Q31.14 29.54 31.36 30.02Q31.97 31.36 32.85 32.58Q33.72 33.76 34.75 34.7Q34.87 34.81 34.99 34.91Z" fill="#FFFFFF" fill-opacity="1.000000" fill-rule="evenodd"/>
	</g>
	<g opacity="0.600000">
		<path id="Vector" d="M16.55 21.11C16.55 21.11 15.94 28.35 22.09 33.38C28.25 38.41 35 36.2 35 36.2C35 36.2 35.6 28.96 29.45 23.92C23.31 18.89 16.55 21.11 16.55 21.11Z" fill="url(#paint_linear_2008_1068_0)" fill-opacity="1.000000" fill-rule="nonzero"/>
		<path id="Vector" d="M16.55 21.11C16.55 21.11 15.94 28.35 22.09 33.38C28.25 38.41 35 36.2 35 36.2C35 36.2 35.6 28.96 29.45 23.92C23.31 18.89 16.55 21.11 16.55 21.11ZM17.53 21.89Q17.54 22.07 17.55 22.26Q17.62 23.68 17.98 25.11Q18.43 26.88 19.27 28.44Q19.38 28.64 19.49 28.84Q19.9 29.53 20.37 30.16Q21.38 31.51 22.72 32.61L22.73 32.61Q24.3 33.9 26.1 34.65Q26.56 34.84 27.02 34.99Q27.45 35.14 27.89 35.25Q29.34 35.63 30.88 35.68Q32.31 35.72 33.67 35.48Q33.85 35.45 34.01 35.42Q34.01 35.23 34 35.04Q33.92 33.62 33.56 32.2Q33.11 30.43 32.27 28.87Q32.16 28.67 32.05 28.47Q31.65 27.78 31.17 27.15Q30.16 25.8 28.82 24.7Q27.24 23.41 25.44 22.65Q24.99 22.46 24.52 22.31Q24.11 22.17 23.68 22.06Q22.22 21.67 20.66 21.63Q19.23 21.58 17.87 21.82Q17.7 21.85 17.53 21.89Z" fill="#FFFFFF" fill-opacity="1.000000" fill-rule="evenodd"/>
		<path id="Vector" d="M16.55 21.11C16.55 21.11 15.94 28.35 22.09 33.38C28.25 38.41 35 36.2 35 36.2C35 36.2 35.6 28.96 29.45 23.92C23.31 18.89 16.55 21.11 16.55 21.11ZM17.53 21.89Q17.54 22.07 17.55 22.26Q17.62 23.68 17.98 25.11Q18.43 26.88 19.27 28.44Q19.38 28.64 19.49 28.84Q19.9 29.53 20.37 30.16Q21.38 31.51 22.72 32.61L22.73 32.61Q24.3 33.9 26.1 34.65Q26.56 34.84 27.02 34.99Q27.45 35.14 27.89 35.25Q29.34 35.63 30.88 35.68Q32.31 35.72 33.67 35.48Q33.85 35.45 34.01 35.42Q34.01 35.23 34 35.04Q33.92 33.62 33.56 32.2Q33.11 30.43 32.27 28.87Q32.16 28.67 32.05 28.47Q31.65 27.78 31.17 27.15Q30.16 25.8 28.82 24.7Q27.24 23.41 25.44 22.65Q24.99 22.46 24.52 22.31Q24.11 22.17 23.68 22.06Q22.22 21.67 20.66 21.63Q19.23 21.58 17.87 21.82Q17.7 21.85 17.53 21.89Z" fill="#FFFFFF" fill-opacity="1.000000" fill-rule="evenodd"/>
	</g>
	<g opacity="0.600000">
		<path id="Vector" d="M12 41.58C12 41.58 17.14 46.59 24.81 44.79C32.48 42.99 35 36.2 35 36.2C35 36.2 29.85 31.2 22.18 32.99C14.51 34.78 12 41.58 12 41.58Z" fill="url(#paint_linear_2008_1070_0)" fill-opacity="1.000000" fill-rule="nonzero"/>
		<path id="Vector" d="M12 41.58C12 41.58 17.14 46.59 24.81 44.79C32.48 42.99 35 36.2 35 36.2C35 36.2 29.85 31.2 22.18 32.99C14.51 34.78 12 41.58 12 41.58ZM13.21 41.31Q13.3 41.14 13.39 40.96Q14.06 39.72 14.98 38.59Q16.16 37.17 17.61 36.13Q17.76 36.02 17.91 35.92Q18.55 35.49 19.22 35.14Q20.71 34.36 22.41 33.97Q24.23 33.54 26.03 33.61Q26.66 33.64 27.28 33.73Q27.57 33.77 27.85 33.82Q29.49 34.12 31.05 34.83Q32.36 35.43 33.48 36.25Q33.63 36.37 33.78 36.48Q33.69 36.64 33.6 36.82Q32.93 38.06 32.01 39.18Q30.84 40.6 29.39 41.64Q29.24 41.75 29.07 41.86Q28.44 42.29 27.76 42.64Q26.27 43.42 24.58 43.82Q22.76 44.24 20.96 44.17Q20.34 44.14 19.71 44.06Q19.42 44.02 19.14 43.96Q17.5 43.66 15.94 42.95Q14.63 42.35 13.51 41.53Q13.36 41.42 13.21 41.31Z" fill="#FFFFFF" fill-opacity="1.000000" fill-rule="evenodd"/>
		<path id="Vector" d="M12 41.58C12 41.58 17.14 46.59 24.81 44.79C32.48 42.99 35 36.2 35 36.2C35 36.2 29.85 31.2 22.18 32.99C14.51 34.78 12 41.58 12 41.58ZM13.21 41.31Q13.3 41.14 13.39 40.96Q14.06 39.72 14.98 38.59Q16.16 37.17 17.61 36.13Q17.76 36.02 17.91 35.92Q18.55 35.49 19.22 35.14Q20.71 34.36 22.41 33.97Q24.23 33.54 26.03 33.61Q26.66 33.64 27.28 33.73Q27.57 33.77 27.85 33.82Q29.49 34.12 31.05 34.83Q32.36 35.43 33.48 36.25Q33.63 36.37 33.78 36.48Q33.69 36.64 33.6 36.82Q32.93 38.06 32.01 39.18Q30.84 40.6 29.39 41.64Q29.24 41.75 29.07 41.86Q28.44 42.29 27.76 42.64Q26.27 43.42 24.58 43.82Q22.76 44.24 20.96 44.17Q20.34 44.14 19.71 44.06Q19.42 44.02 19.14 43.96Q17.5 43.66 15.94 42.95Q14.63 42.35 13.51 41.53Q13.36 41.42 13.21 41.31Z" fill="#FFFFFF" fill-opacity="1.000000" fill-rule="evenodd"/>
	</g>
	<g opacity="0.600000">
		<path id="Vector" d="M24.76 58C24.76 58 31.78 56.98 35.19 49.72C38.61 42.45 35 36.2 35 36.2C35 36.2 27.98 37.21 24.56 44.47C21.16 51.73 24.76 58 24.76 58Z" fill="url(#paint_linear_2008_1072_0)" fill-opacity="1.000000" fill-rule="nonzero"/>
		<path id="Vector" d="M35.19 49.72C31.78 56.98 24.76 58 24.76 58C24.76 58 21.16 51.73 24.56 44.47C27.98 37.21 35 36.2 35 36.2C35 36.2 38.61 42.45 35.19 49.72ZM34.44 37.34Q34.51 37.5 34.58 37.67Q35.11 38.98 35.39 40.42Q35.71 42.07 35.65 43.7Q35.64 44.08 35.61 44.45Q35.55 45.14 35.42 45.82Q35.08 47.6 34.29 49.3L34.29 49.3Q33.39 51.2 32.05 52.71Q31.75 53.05 31.42 53.36Q31.03 53.75 30.62 54.09Q29.52 55.01 28.23 55.7Q26.95 56.38 25.63 56.76Q25.47 56.81 25.31 56.85Q25.24 56.69 25.17 56.52Q24.64 55.21 24.36 53.76Q24.04 52.09 24.11 50.44Q24.12 50.09 24.15 49.73Q24.22 49.01 24.35 48.3Q24.69 46.55 25.47 44.9Q26.36 42.99 27.71 41.49Q28.01 41.15 28.33 40.83Q28.72 40.45 29.14 40.1Q30.24 39.18 31.53 38.5Q32.8 37.82 34.13 37.43Q34.29 37.38 34.44 37.34Z" fill="#FFFFFF" fill-opacity="1.000000" fill-rule="evenodd"/>
	</g>
	<g opacity="0.600000">
		<path id="Vector" d="M45.23 58C45.23 58 48.84 51.73 45.43 44.47C42.02 37.21 35 36.2 35 36.2C35 36.2 31.39 42.46 34.8 49.72C38.2 56.98 45.23 58 45.23 58Z" fill="url(#paint_linear_2008_1074_0)" fill-opacity="1.000000" fill-rule="nonzero"/>
		<path id="Vector" d="M45.23 58C45.23 58 48.84 51.73 45.43 44.47C42.02 37.21 35 36.2 35 36.2C35 36.2 31.39 42.46 34.8 49.72C38.2 56.98 45.23 58 45.23 58ZM44.68 56.85Q44.52 56.81 44.36 56.76Q43.03 56.38 41.76 55.7Q40.45 55 39.35 54.07Q38.94 53.74 38.56 53.36Q38.23 53.04 37.93 52.7Q36.59 51.19 35.7 49.3Q34.92 47.63 34.58 45.88Q34.45 45.18 34.39 44.46Q34.36 44.11 34.34 43.76Q34.28 42.1 34.6 40.43Q34.88 38.98 35.41 37.67Q35.48 37.5 35.55 37.34Q35.7 37.38 35.87 37.43Q37.19 37.82 38.47 38.5Q39.77 39.19 40.88 40.12Q41.29 40.46 41.66 40.83Q41.99 41.16 42.3 41.5Q43.64 43 44.52 44.9Q45.31 46.56 45.64 48.31Q45.78 49.02 45.84 49.74Q45.87 50.09 45.88 50.44Q45.95 52.1 45.63 53.77Q45.35 55.22 44.81 56.53Q44.75 56.7 44.68 56.85Z" fill="#FFFFFF" fill-opacity="1.000000" fill-rule="evenodd"/>
		<path id="Vector" d="M45.23 58C45.23 58 48.84 51.73 45.43 44.47C42.02 37.21 35 36.2 35 36.2C35 36.2 31.39 42.46 34.8 49.72C38.2 56.98 45.23 58 45.23 58ZM44.68 56.85Q44.52 56.81 44.36 56.76Q43.03 56.38 41.76 55.7Q40.45 55 39.35 54.07Q38.94 53.74 38.56 53.36Q38.23 53.04 37.93 52.7Q36.59 51.19 35.7 49.3Q34.92 47.63 34.58 45.88Q34.45 45.18 34.39 44.46Q34.36 44.11 34.34 43.76Q34.28 42.1 34.6 40.43Q34.88 38.98 35.41 37.67Q35.48 37.5 35.55 37.34Q35.7 37.38 35.87 37.43Q37.19 37.82 38.47 38.5Q39.77 39.19 40.88 40.12Q41.29 40.46 41.66 40.83Q41.99 41.16 42.3 41.5Q43.64 43 44.52 44.9Q45.31 46.56 45.64 48.31Q45.78 49.02 45.84 49.74Q45.87 50.09 45.88 50.44Q45.95 52.1 45.63 53.77Q45.35 55.22 44.81 56.53Q44.75 56.7 44.68 56.85Z" fill="#FFFFFF" fill-opacity="1.000000" fill-rule="evenodd"/>
	</g>
	<g opacity="0.600000">
		<path id="Vector" d="M58 41.58C58 41.58 55.48 34.79 47.81 32.99C40.14 31.2 35 36.19 35 36.19C35 36.19 37.51 42.98 45.18 44.78C52.85 46.58 58 41.58 58 41.58Z" fill="url(#paint_linear_2008_1076_0)" fill-opacity="1.000000" fill-rule="nonzero"/>
		<path id="Vector" d="M47.81 32.99C55.48 34.79 58 41.58 58 41.58C58 41.58 52.85 46.58 45.18 44.78C37.51 42.98 35 36.19 35 36.19C35 36.19 40.14 31.2 47.81 32.99ZM36.21 36.47Q36.36 36.36 36.51 36.24Q37.63 35.42 38.94 34.83Q40.5 34.12 42.13 33.82Q42.42 33.77 42.71 33.72Q43.33 33.64 43.96 33.61Q45.76 33.54 47.58 33.97Q49.27 34.36 50.76 35.14Q51.44 35.49 52.07 35.92Q52.24 36.03 52.39 36.14Q53.84 37.18 55.01 38.6Q55.93 39.72 56.6 40.97Q56.69 41.14 56.78 41.31Q56.63 41.42 56.48 41.53Q55.36 42.35 54.05 42.95Q52.49 43.65 50.87 43.95Q50.57 44.01 50.28 44.05Q49.66 44.13 49.03 44.16Q47.23 44.23 45.41 43.81Q43.72 43.41 42.23 42.63Q41.55 42.28 40.92 41.85Q40.75 41.74 40.6 41.63Q39.15 40.59 37.98 39.17Q37.05 38.05 36.39 36.81Q36.3 36.63 36.21 36.47Z" fill="#FFFFFF" fill-opacity="1.000000" fill-rule="evenodd"/>
		<path id="Vector" d="M47.81 32.99C55.48 34.79 58 41.58 58 41.58C58 41.58 52.85 46.58 45.18 44.78C37.51 42.98 35 36.19 35 36.19C35 36.19 40.14 31.2 47.81 32.99ZM36.21 36.47Q36.36 36.36 36.51 36.24Q37.63 35.42 38.94 34.83Q40.5 34.12 42.13 33.82Q42.42 33.77 42.71 33.72Q43.33 33.64 43.96 33.61Q45.76 33.54 47.58 33.97Q49.27 34.36 50.76 35.14Q51.44 35.49 52.07 35.92Q52.24 36.03 52.39 36.14Q53.84 37.18 55.01 38.6Q55.93 39.72 56.6 40.97Q56.69 41.14 56.78 41.31Q56.63 41.42 56.48 41.53Q55.36 42.35 54.05 42.95Q52.49 43.65 50.87 43.95Q50.57 44.01 50.28 44.05Q49.66 44.13 49.03 44.16Q47.23 44.23 45.41 43.81Q43.72 43.41 42.23 42.63Q41.55 42.28 40.92 41.85Q40.75 41.74 40.6 41.63Q39.15 40.59 37.98 39.17Q37.05 38.05 36.39 36.81Q36.3 36.63 36.21 36.47Z" fill="#FFFFFF" fill-opacity="1.000000" fill-rule="evenodd"/>
	</g>
	<g opacity="0.600000">
		<path id="Vector" d="M53.44 21.11C53.44 21.11 46.69 18.89 40.54 23.92C34.39 28.96 35 36.19 35 36.19C35 36.19 41.75 38.41 47.9 33.37C54.05 28.34 53.44 21.11 53.44 21.11Z" fill="url(#paint_linear_2008_1078_0)" fill-opacity="1.000000" fill-rule="nonzero"/>
		<path id="Vector" d="M40.54 23.92C46.69 18.89 53.44 21.11 53.44 21.11C53.44 21.11 54.05 28.34 47.9 33.37C41.75 38.41 35 36.19 35 36.19C35 36.19 34.39 28.96 40.54 23.92ZM35.98 35.41Q36.14 35.44 36.32 35.47Q37.68 35.71 39.11 35.67Q40.64 35.62 42.09 35.25Q42.53 35.13 42.97 34.99Q43.42 34.84 43.87 34.65Q45.68 33.9 47.27 32.6Q48.62 31.49 49.63 30.13Q50.1 29.51 50.5 28.83Q50.62 28.62 50.73 28.41Q51.57 26.86 52.01 25.1Q52.37 23.68 52.44 22.26Q52.46 22.07 52.46 21.89Q52.29 21.85 52.12 21.82Q50.76 21.58 49.33 21.63Q47.8 21.67 46.35 22.05Q45.91 22.16 45.47 22.31Q45.02 22.46 44.57 22.64Q42.76 23.4 41.17 24.7Q39.82 25.8 38.81 27.16Q38.34 27.79 37.94 28.47Q37.82 28.68 37.71 28.89Q36.87 30.44 36.43 32.19Q36.07 33.62 36 35.03Q35.98 35.23 35.98 35.41Z" fill="#FFFFFF" fill-opacity="1.000000" fill-rule="evenodd"/>
		<path id="Vector" d="M40.54 23.92C46.69 18.89 53.44 21.11 53.44 21.11C53.44 21.11 54.05 28.34 47.9 33.37C41.75 38.41 35 36.19 35 36.19C35 36.19 34.39 28.96 40.54 23.92ZM35.98 35.41Q36.14 35.44 36.32 35.47Q37.68 35.71 39.11 35.67Q40.64 35.62 42.09 35.25Q42.53 35.13 42.97 34.99Q43.42 34.84 43.87 34.65Q45.68 33.9 47.27 32.6Q48.62 31.49 49.63 30.13Q50.1 29.51 50.5 28.83Q50.62 28.62 50.73 28.41Q51.57 26.86 52.01 25.1Q52.37 23.68 52.44 22.26Q52.46 22.07 52.46 21.89Q52.29 21.85 52.12 21.82Q50.76 21.58 49.33 21.63Q47.8 21.67 46.35 22.05Q45.91 22.16 45.47 22.31Q45.02 22.46 44.57 22.64Q42.76 23.4 41.17 24.7Q39.82 25.8 38.81 27.16Q38.34 27.79 37.94 28.47Q37.82 28.68 37.71 28.89Q36.87 30.44 36.43 32.19Q36.07 33.62 36 35.03Q35.98 35.23 35.98 35.41Z" fill="#FFFFFF" fill-opacity="1.000000" fill-rule="evenodd"/>
	</g>
</svg>
