<svg width="640.000000" height="581.000000" viewBox="0 0 640 581" fill="none" xmlns="http://www.w3.org/2000/svg" xmlns:xlink="http://www.w3.org/1999/xlink">
	<desc>
			Created with Pixso.
	</desc>
	<defs>
		<clipPath id="clip13_5953">
			<rect id="icons" rx="14.500000" width="29.000000" height="29.000000" transform="translate(348.477295 230.019531)" fill="white" fill-opacity="0"/>
		</clipPath>
		<clipPath id="clip13_5957">
			<rect id="icons" rx="14.500000" width="29.000000" height="29.000000" transform="translate(262.477295 230.019531)" fill="white" fill-opacity="0"/>
		</clipPath>
		<clipPath id="clip13_5960">
			<rect id="icons" rx="14.500000" width="29.000000" height="29.000000" transform="translate(328.477295 340.019531)" fill="white" fill-opacity="0"/>
		</clipPath>
		<clipPath id="clip13_5963">
			<rect id="icons" rx="14.500000" width="29.000000" height="29.000000" transform="translate(375.477295 308.019531)" fill="white" fill-opacity="0"/>
		</clipPath>
	</defs>
	<circle id="Ellipse 1" cx="319.978027" cy="290.515625" r="254.000000" stroke="#2C3235" stroke-opacity="1.000000" stroke-width="2.000000"/>
	<circle id="Ellipse 2" cx="319.978027" cy="290.515625" r="136.000000" stroke="#2C3235" stroke-opacity="1.000000" stroke-width="2.000000"/>
	<rect id="Rectangle 1" x="164.978027" y="135.513672" width="310.000000" height="310.000000" stroke="#494D59" stroke-opacity="1.000000" stroke-width="2.000000"/>
	<rect id="Rectangle 2" x="319.978027" y="71.310547" width="310.000000" height="310.000000" transform="rotate(45 319.978027 71.310547)" stroke="#2C3235" stroke-opacity="1.000000" stroke-width="2.000000"/>
	<path id="Arrow 3" d="M184.97 289.01L454.97 289.01L454.97 290.01L184.97 290.01L184.97 289.01Z" fill="#2C3235" fill-opacity="1.000000" fill-rule="evenodd"/>
	<path id="Arrow 4" d="M320.47 154.51L320.47 424.51L319.47 424.51L319.47 154.51L320.47 154.51Z" fill="#2C3235" fill-opacity="1.000000" fill-rule="evenodd"/>
	<path id="Vector 1" d="M319.97 424.52L454.97 289.51" stroke="#494D59" stroke-opacity="1.000000" stroke-width="1.000000" stroke-dasharray="4 4"/>
	<path id="Arrow 1" d="M409.12 380.07L229.41 200.36L226.07 203.71L223.1 192.64L234.17 195.6L230.83 198.95L410.53 378.66L413.88 375.31L416.85 386.39L405.77 383.42L409.12 380.07Z" fill="#9D2D9D" fill-opacity="1.000000" fill-rule="evenodd"/>
	<path id="Arrow 2" d="M410.53 200.37L230.83 380.07L234.17 383.42L223.1 386.39L226.07 375.31L229.41 378.66L409.12 198.95L405.77 195.6L416.85 192.64L413.88 203.71L410.53 200.37Z" fill="#D34645" fill-opacity="1.000000" fill-rule="evenodd"/>
	<circle id="Ellipse 3" cx="57.977783" cy="290.515625" r="7.000000" fill="#8B46C1" fill-opacity="1.000000"/>
	<circle id="Ellipse 4" cx="581.977783" cy="290.515625" r="7.000000" fill="#D34645" fill-opacity="1.000000"/>
	<circle id="Ellipse 3" r="7.000000" transform="matrix(-4.37114e-08 1 -1 -4.37114e-08 319.978 28.5156)" fill="#8B46C1" fill-opacity="1.000000"/>
	<circle id="Ellipse 4" r="7.000000" transform="matrix(-4.37114e-08 1 -1 -4.37114e-08 319.978 552.516)" fill="#D34645" fill-opacity="1.000000"/>
	<circle id="Ellipse 3" r="7.000000" transform="matrix(0.707107 0.707107 -0.707107 0.707107 134.716 105.252)" fill="#494D59" fill-opacity="1.000000"/>
	<circle id="Ellipse 4" r="7.000000" transform="matrix(0.707107 0.707107 -0.707107 0.707107 505.24 475.775)" fill="#494D59" fill-opacity="1.000000"/>
	<circle id="Ellipse 3" r="7.000000" transform="matrix(-0.707107 0.707107 -0.707107 -0.707107 505.24 105.254)" fill="#494D59" fill-opacity="1.000000"/>
	<circle id="Ellipse 4" r="7.000000" transform="matrix(-0.707107 0.707107 -0.707107 -0.707107 134.716 475.777)" fill="#494D59" fill-opacity="1.000000"/>
	<circle id="Ellipse 3" r="5.000000" transform="matrix(0.390731 0.920505 -0.920505 0.390731 218.388 51.1855)" fill="#494D59" fill-opacity="1.000000"/>
	<circle id="Ellipse 4" r="5.000000" transform="matrix(0.390731 0.920505 -0.920505 0.390731 421.567 529.844)" fill="#494D59" fill-opacity="1.000000"/>
	<circle id="Ellipse 3" r="5.000000" transform="matrix(0.927184 0.374607 -0.374607 0.927184 78.9116 193.123)" fill="#494D59" fill-opacity="1.000000"/>
	<circle id="Ellipse 4" r="5.000000" transform="matrix(0.927184 0.374607 -0.374607 0.927184 561.043 387.918)" fill="#494D59" fill-opacity="1.000000"/>
	<circle id="Ellipse 3" r="5.000000" transform="matrix(0.927184 -0.374607 0.374607 0.927184 78.9119 387.914)" fill="#494D59" fill-opacity="1.000000"/>
	<circle id="Ellipse 4" r="5.000000" transform="matrix(0.927184 -0.374607 0.374607 0.927184 561.044 193.121)" fill="#494D59" fill-opacity="1.000000"/>
	<circle id="Ellipse 3" r="5.000000" transform="matrix(0.390731 -0.920505 0.920505 0.390731 218.388 529.848)" fill="#494D59" fill-opacity="1.000000"/>
	<circle id="Ellipse 4" r="5.000000" transform="matrix(0.390731 -0.920505 0.920505 0.390731 421.567 51.1895)" fill="#494D59" fill-opacity="1.000000"/>
	<circle id="Ellipse 3" r="3.000000" transform="matrix(0.996195 0.0871557 -0.0871557 0.996195 62.9597 268.029)" fill="#494D59" fill-opacity="1.000000"/>
	<circle id="Ellipse 4" r="3.000000" transform="matrix(0.996195 0.0871557 -0.0871557 0.996195 576.996 313.002)" fill="#494D59" fill-opacity="1.000000"/>
	<circle id="Ellipse 3" r="3.000000" transform="matrix(0.981627 0.190809 -0.190809 0.981627 66.718 241.287)" fill="#494D59" fill-opacity="1.000000"/>
	<circle id="Ellipse 4" r="3.000000" transform="matrix(0.981627 0.190809 -0.190809 0.981627 573.238 339.744)" fill="#494D59" fill-opacity="1.000000"/>
	<circle id="Ellipse 3" r="3.000000" transform="matrix(0.956305 0.292372 -0.292372 0.956305 73.2512 215.086)" fill="#494D59" fill-opacity="1.000000"/>
	<circle id="Ellipse 4" r="3.000000" transform="matrix(0.956305 0.292372 -0.292372 0.956305 566.704 365.949)" fill="#494D59" fill-opacity="1.000000"/>
	<circle id="Ellipse 3" r="3.000000" transform="matrix(0.891007 0.45399 -0.45399 0.891007 90.0989 173.391)" fill="#494D59" fill-opacity="1.000000"/>
	<circle id="Ellipse 4" r="3.000000" transform="matrix(0.891007 0.45399 -0.45399 0.891007 549.858 407.65)" fill="#494D59" fill-opacity="1.000000"/>
	<circle id="Ellipse 3" r="3.000000" transform="matrix(0.838671 0.544639 -0.544639 0.838671 103.602 150.004)" fill="#494D59" fill-opacity="1.000000"/>
	<circle id="Ellipse 4" r="3.000000" transform="matrix(0.838671 0.544639 -0.544639 0.838671 536.355 431.037)" fill="#494D59" fill-opacity="1.000000"/>
	<circle id="Ellipse 3" r="3.000000" transform="matrix(0.777146 0.62932 -0.62932 0.777146 119.474 128.158)" fill="#494D59" fill-opacity="1.000000"/>
	<circle id="Ellipse 4" r="3.000000" transform="matrix(0.777146 0.62932 -0.62932 0.777146 520.481 452.887)" fill="#494D59" fill-opacity="1.000000"/>
	<circle id="Ellipse 3" r="3.000000" transform="matrix(0.642788 0.766044 -0.766044 0.642788 154.14 92.8789)" fill="#494D59" fill-opacity="1.000000"/>
	<circle id="Ellipse 4" r="3.000000" transform="matrix(0.642788 0.766044 -0.766044 0.642788 485.818 488.158)" fill="#494D59" fill-opacity="1.000000"/>
	<circle id="Ellipse 3" r="3.000000" transform="matrix(0.559193 0.829038 -0.829038 0.559193 175.707 76.627)" fill="#494D59" fill-opacity="1.000000"/>
	<circle id="Ellipse 4" r="3.000000" transform="matrix(0.559193 0.829038 -0.829038 0.559193 464.251 504.41)" fill="#494D59" fill-opacity="1.000000"/>
	<circle id="Ellipse 3" r="3.000000" transform="matrix(0.469472 0.882948 -0.882948 0.469472 198.854 62.7188)" fill="#494D59" fill-opacity="1.000000"/>
	<circle id="Ellipse 4" r="3.000000" transform="matrix(0.469472 0.882948 -0.882948 0.469472 441.101 518.32)" fill="#494D59" fill-opacity="1.000000"/>
	<circle id="Ellipse 3" r="3.000000" transform="matrix(0.309017 0.951057 -0.951057 0.309017 240.253 45.1484)" fill="#494D59" fill-opacity="1.000000"/>
	<circle id="Ellipse 4" r="3.000000" transform="matrix(0.309017 0.951057 -0.951057 0.309017 399.706 535.895)" fill="#494D59" fill-opacity="1.000000"/>
	<circle id="Ellipse 3" r="3.000000" transform="matrix(0.207912 0.978148 -0.978148 0.207912 266.338 38.1562)" fill="#494D59" fill-opacity="1.000000"/>
	<circle id="Ellipse 4" r="3.000000" transform="matrix(0.207912 0.978148 -0.978148 0.207912 373.621 542.881)" fill="#494D59" fill-opacity="1.000000"/>
	<circle id="Ellipse 3" r="3.000000" transform="matrix(0.104528 0.994522 -0.994522 0.104528 293.009 33.9355)" fill="#494D59" fill-opacity="1.000000"/>
	<circle id="Ellipse 4" r="3.000000" transform="matrix(0.104528 0.994522 -0.994522 0.104528 346.946 547.109)" fill="#494D59" fill-opacity="1.000000"/>
	<circle id="Ellipse 3" r="3.000000" transform="matrix(-0.104528 0.994522 -0.994522 -0.104528 346.948 33.9336)" fill="#494D59" fill-opacity="1.000000"/>
	<circle id="Ellipse 4" r="3.000000" transform="matrix(-0.104528 0.994522 -0.994522 -0.104528 293.012 547.107)" fill="#494D59" fill-opacity="1.000000"/>
	<circle id="Ellipse 3" r="3.000000" transform="matrix(-0.207912 0.978148 -0.978148 -0.207912 373.621 38.1582)" fill="#494D59" fill-opacity="1.000000"/>
	<circle id="Ellipse 4" r="3.000000" transform="matrix(-0.207912 0.978148 -0.978148 -0.207912 266.339 542.883)" fill="#494D59" fill-opacity="1.000000"/>
	<circle id="Ellipse 3" r="3.000000" transform="matrix(-0.309017 0.951056 -0.951056 -0.309017 399.704 45.1484)" fill="#494D59" fill-opacity="1.000000"/>
	<circle id="Ellipse 4" r="3.000000" transform="matrix(-0.309017 0.951056 -0.951056 -0.309017 240.251 535.895)" fill="#494D59" fill-opacity="1.000000"/>
	<circle id="Ellipse 3" r="3.000000" transform="matrix(-0.469472 0.882948 -0.882948 -0.469472 441.104 62.7168)" fill="#494D59" fill-opacity="1.000000"/>
	<circle id="Ellipse 4" r="3.000000" transform="matrix(-0.469472 0.882948 -0.882948 -0.469472 198.856 518.318)" fill="#494D59" fill-opacity="1.000000"/>
	<circle id="Ellipse 3" r="3.000000" transform="matrix(-0.559193 0.829038 -0.829038 -0.559193 464.252 76.625)" fill="#494D59" fill-opacity="1.000000"/>
	<circle id="Ellipse 4" r="3.000000" transform="matrix(-0.559193 0.829038 -0.829038 -0.559193 175.708 504.408)" fill="#494D59" fill-opacity="1.000000"/>
	<circle id="Ellipse 3" r="3.000000" transform="matrix(-0.642788 0.766044 -0.766044 -0.642788 485.817 92.877)" fill="#494D59" fill-opacity="1.000000"/>
	<circle id="Ellipse 4" r="3.000000" transform="matrix(-0.642788 0.766044 -0.766044 -0.642788 154.138 488.156)" fill="#494D59" fill-opacity="1.000000"/>
	<circle id="Ellipse 3" r="3.000000" transform="matrix(-0.766044 0.642788 -0.642788 -0.766044 517.619 124.674)" fill="#494D59" fill-opacity="1.000000"/>
	<circle id="Ellipse 4" r="3.000000" transform="matrix(-0.766044 0.642788 -0.642788 -0.766044 122.34 456.352)" fill="#494D59" fill-opacity="1.000000"/>
	<circle id="Ellipse 3" r="3.000000" transform="matrix(-0.829038 0.559193 -0.559193 -0.829038 533.871 146.244)" fill="#494D59" fill-opacity="1.000000"/>
	<circle id="Ellipse 4" r="3.000000" transform="matrix(-0.829038 0.559193 -0.559193 -0.829038 106.087 434.787)" fill="#494D59" fill-opacity="1.000000"/>
	<circle id="Ellipse 3" r="3.000000" transform="matrix(-0.882948 0.469472 -0.469472 -0.882948 547.778 169.389)" fill="#494D59" fill-opacity="1.000000"/>
	<circle id="Ellipse 4" r="3.000000" transform="matrix(-0.882948 0.469472 -0.469472 -0.882948 92.177 411.637)" fill="#494D59" fill-opacity="1.000000"/>
	<circle id="Ellipse 3" r="3.000000" transform="matrix(-0.956305 0.292372 -0.292372 -0.956305 566.704 215.09)" fill="#494D59" fill-opacity="1.000000"/>
	<circle id="Ellipse 4" r="3.000000" transform="matrix(-0.956305 0.292372 -0.292372 -0.956305 73.251 365.953)" fill="#494D59" fill-opacity="1.000000"/>
	<circle id="Ellipse 3" r="3.000000" transform="matrix(-0.981627 0.190809 -0.190809 -0.981627 573.238 241.293)" fill="#494D59" fill-opacity="1.000000"/>
	<circle id="Ellipse 4" r="3.000000" transform="matrix(-0.981627 0.190809 -0.190809 -0.981627 66.718 339.75)" fill="#494D59" fill-opacity="1.000000"/>
	<circle id="Ellipse 3" r="3.000000" transform="matrix(-0.996195 0.0871558 -0.0871558 -0.996195 576.995 268.033)" fill="#494D59" fill-opacity="1.000000"/>
	<circle id="Ellipse 4" r="3.000000" transform="matrix(-0.996195 0.0871558 -0.0871558 -0.996195 62.959 313.006)" fill="#494D59" fill-opacity="1.000000"/>
	<rect id="Frame 7" rx="13.000000" width="26.000000" height="26.000000" transform="translate(213.977295 277.519531)" fill="#F8F8F8" fill-opacity="1.000000"/>
	<rect id="Frame 7" rx="13.000000" width="26.000000" height="26.000000" transform="translate(213.977295 277.519531)" stroke="#72B969" stroke-opacity="1.000000" stroke-width="2.000000"/>
	<rect id="Frame 9" rx="13.000000" width="26.000000" height="26.000000" transform="translate(340.977295 377.519531)" fill="#F8F8F8" fill-opacity="1.000000"/>
	<rect id="Frame 9" rx="13.000000" width="26.000000" height="26.000000" transform="translate(340.977295 377.519531)" stroke="#72B969" stroke-opacity="1.000000" stroke-width="2.000000"/>
	<rect id="Frame 10" rx="13.000000" width="26.000000" height="26.000000" transform="translate(373.977295 345.519531)" fill="#F8F8F8" fill-opacity="1.000000"/>
	<rect id="Frame 10" rx="13.000000" width="26.000000" height="26.000000" transform="translate(373.977295 345.519531)" stroke="#72B969" stroke-opacity="1.000000" stroke-width="2.000000"/>
	<rect id="Frame 11" rx="13.000000" width="26.000000" height="26.000000" transform="translate(407.977295 310.519531)" fill="#F8F8F8" fill-opacity="1.000000"/>
	<rect id="Frame 11" rx="13.000000" width="26.000000" height="26.000000" transform="translate(407.977295 310.519531)" stroke="#72B969" stroke-opacity="1.000000" stroke-width="2.000000"/>
	<rect id="Frame 12" rx="18.000000" width="36.000000" height="36.000000" transform="translate(356.977295 272.519531)" fill="#F8F8F8" fill-opacity="1.000000"/>
	<rect id="Frame 12" rx="18.000000" width="36.000000" height="36.000000" transform="translate(356.977295 272.519531)" stroke="#494D59" stroke-opacity="1.000000" stroke-width="2.000000"/>
	<rect id="Frame 8" rx="13.000000" width="26.000000" height="26.000000" transform="translate(306.977295 184.519531)" fill="#F8F8F8" fill-opacity="1.000000"/>
	<rect id="Frame 8" rx="13.000000" width="26.000000" height="26.000000" transform="translate(306.977295 184.519531)" stroke="#72B969" stroke-opacity="1.000000" stroke-width="2.000000"/>
	<rect id="Frame 5" rx="13.000000" width="26.000000" height="26.000000" transform="translate(306.977295 126.519531)" fill="#F8F8F8" fill-opacity="1.000000"/>
	<rect id="Frame 5" rx="13.000000" width="26.000000" height="26.000000" transform="translate(306.977295 126.519531)" stroke="#4DB9F5" stroke-opacity="1.000000" stroke-width="2.000000"/>
	<rect id="Frame 6" rx="13.000000" width="26.000000" height="26.000000" transform="translate(306.977295 429.519531)" fill="#F8F8F8" fill-opacity="1.000000"/>
	<rect id="Frame 6" rx="13.000000" width="26.000000" height="26.000000" transform="translate(306.977295 429.519531)" stroke="#FF7C03" stroke-opacity="1.000000" stroke-width="2.000000"/>
	<rect id="Frame 5" rx="13.000000" width="26.000000" height="26.000000" transform="translate(414.104492 170.892578)" fill="#F8F8F8" fill-opacity="1.000000"/>
	<rect id="Frame 5" rx="13.000000" width="26.000000" height="26.000000" transform="translate(414.104492 170.892578)" stroke="#494D59" stroke-opacity="1.000000" stroke-width="2.000000"/>
	<rect id="Frame 6" rx="13.000000" width="26.000000" height="26.000000" transform="translate(199.851074 385.144531)" fill="#F8F8F8" fill-opacity="1.000000"/>
	<rect id="Frame 6" rx="13.000000" width="26.000000" height="26.000000" transform="translate(199.851074 385.144531)" stroke="#494D59" stroke-opacity="1.000000" stroke-width="2.000000"/>
	<rect id="Frame 5" rx="13.000000" width="26.000000" height="26.000000" transform="translate(414.103271 385.144531)" fill="#F8F8F8" fill-opacity="1.000000"/>
	<rect id="Frame 5" rx="13.000000" width="26.000000" height="26.000000" transform="translate(414.103271 385.144531)" stroke="#494D59" stroke-opacity="1.000000" stroke-width="2.000000"/>
	<rect id="Frame 6" rx="13.000000" width="26.000000" height="26.000000" transform="translate(199.851074 170.892578)" fill="#F8F8F8" fill-opacity="1.000000"/>
	<rect id="Frame 6" rx="13.000000" width="26.000000" height="26.000000" transform="translate(199.851074 170.892578)" stroke="#494D59" stroke-opacity="1.000000" stroke-width="2.000000"/>
	<rect id="Frame 5" rx="13.000000" width="26.000000" height="26.000000" transform="translate(458.477783 277.519531)" fill="#F8F8F8" fill-opacity="1.000000"/>
	<rect id="Frame 5" rx="13.000000" width="26.000000" height="26.000000" transform="translate(458.477783 277.519531)" stroke="#FF7C03" stroke-opacity="1.000000" stroke-width="2.000000"/>
	<rect id="Frame 6" rx="13.000000" width="26.000000" height="26.000000" transform="translate(155.477783 278.019531)" fill="#F8F8F8" fill-opacity="1.000000"/>
	<rect id="Frame 6" rx="13.000000" width="26.000000" height="26.000000" transform="translate(155.477783 278.019531)" stroke="#4DB9F5" stroke-opacity="1.000000" stroke-width="2.000000"/>
	<rect id="Frame 5" rx="18.000000" width="36.000000" height="36.000000" transform="translate(433.616699 145.400391)" fill="#F8F8F8" fill-opacity="1.000000"/>
	<rect id="Frame 5" rx="18.000000" width="36.000000" height="36.000000" transform="translate(433.616699 145.400391)" stroke="#494D59" stroke-opacity="1.000000" stroke-width="2.000000"/>
	<rect id="Frame 6" rx="18.000000" width="36.000000" height="36.000000" transform="translate(170.338135 399.644531)" fill="#F8F8F8" fill-opacity="1.000000"/>
	<rect id="Frame 6" rx="18.000000" width="36.000000" height="36.000000" transform="translate(170.338135 399.644531)" stroke="#494D59" stroke-opacity="1.000000" stroke-width="2.000000"/>
	<rect id="Frame 5" rx="18.000000" width="36.000000" height="36.000000" transform="translate(431.377686 401.925781)" fill="#F8F8F8" fill-opacity="1.000000"/>
	<rect id="Frame 5" rx="18.000000" width="36.000000" height="36.000000" transform="translate(431.377686 401.925781)" stroke="#494D59" stroke-opacity="1.000000" stroke-width="2.000000"/>
	<rect id="Frame 6" rx="18.000000" width="36.000000" height="36.000000" transform="translate(172.577393 143.123047)" fill="#F8F8F8" fill-opacity="1.000000"/>
	<rect id="Frame 6" rx="18.000000" width="36.000000" height="36.000000" transform="translate(172.577393 143.123047)" stroke="#494D59" stroke-opacity="1.000000" stroke-width="2.000000"/>
	<rect id="Frame 5" rx="18.000000" width="36.000000" height="36.000000" transform="translate(484.977783 272.525391)" fill="#F8F8F8" fill-opacity="1.000000"/>
	<rect id="Frame 5" rx="18.000000" width="36.000000" height="36.000000" transform="translate(484.977783 272.525391)" stroke="#494D59" stroke-opacity="1.000000" stroke-width="2.000000"/>
	<rect id="Frame 6" rx="18.000000" width="36.000000" height="36.000000" transform="translate(118.977295 272.525391)" fill="#F8F8F8" fill-opacity="1.000000"/>
	<rect id="Frame 6" rx="18.000000" width="36.000000" height="36.000000" transform="translate(118.977295 272.525391)" stroke="#1171CB" stroke-opacity="1.000000" stroke-width="2.000000"/>
	<rect id="Frame 5" rx="18.000000" width="36.000000" height="36.000000" transform="translate(301.977295 89.519531)" fill="#F8F8F8" fill-opacity="1.000000"/>
	<rect id="Frame 5" rx="18.000000" width="36.000000" height="36.000000" transform="translate(301.977295 89.519531)" stroke="#1171CB" stroke-opacity="1.000000" stroke-width="2.000000"/>
	<rect id="Frame 6" rx="18.000000" width="36.000000" height="36.000000" transform="translate(301.977295 455.519531)" fill="#F8F8F8" fill-opacity="1.000000"/>
	<rect id="Frame 6" rx="18.000000" width="36.000000" height="36.000000" transform="translate(301.977295 455.519531)" stroke="#494D59" stroke-opacity="1.000000" stroke-width="2.000000"/>
	<rect id="Frame 2" rx="25.000000" width="50.000000" height="50.000000" transform="translate(294.977295 265.519531)" fill="#F8F8F8" fill-opacity="1.000000"/>
	<rect id="Frame 2" rx="25.000000" width="50.000000" height="50.000000" transform="translate(294.977295 265.519531)" stroke="#FBC93B" stroke-opacity="1.000000" stroke-width="2.000000"/>
	<rect id="Frame 3" rx="25.000000" width="50.000000" height="50.000000" transform="translate(67.977295 265.519531)" fill="#F8F8F8" fill-opacity="1.000000"/>
	<rect id="Frame 3" rx="25.000000" width="50.000000" height="50.000000" transform="translate(67.977295 265.519531)" stroke="#8B46C1" stroke-opacity="1.000000" stroke-width="2.000000"/>
	<rect id="Frame 4" rx="25.000000" width="50.000000" height="50.000000" transform="translate(521.977295 265.519531)" fill="#F8F8F8" fill-opacity="1.000000"/>
	<rect id="Frame 4" rx="25.000000" width="50.000000" height="50.000000" transform="translate(521.977295 265.519531)" stroke="#D34645" stroke-opacity="1.000000" stroke-width="2.000000"/>
	<rect id="Frame 5" rx="25.000000" width="50.000000" height="50.000000" transform="translate(294.977295 38.509766)" fill="#F8F8F8" fill-opacity="1.000000"/>
	<rect id="Frame 5" rx="25.000000" width="50.000000" height="50.000000" transform="translate(294.977295 38.509766)" stroke="#8B46C1" stroke-opacity="1.000000" stroke-width="2.000000"/>
	<rect id="Frame 6" rx="25.000000" width="50.000000" height="50.000000" transform="translate(294.977295 492.519531)" fill="#F8F8F8" fill-opacity="1.000000"/>
	<rect id="Frame 6" rx="25.000000" width="50.000000" height="50.000000" transform="translate(294.977295 492.519531)" stroke="#D34645" stroke-opacity="1.000000" stroke-width="2.000000"/>
	<rect id="Frame 5" rx="25.000000" width="50.000000" height="50.000000" transform="translate(455.493896 104.996094)" fill="#F8F8F8" fill-opacity="1.000000"/>
	<rect id="Frame 5" rx="25.000000" width="50.000000" height="50.000000" transform="translate(455.493896 104.996094)" stroke="#494D59" stroke-opacity="1.000000" stroke-width="2.000000"/>
	<rect id="Frame 6" rx="25.000000" width="50.000000" height="50.000000" transform="translate(134.460449 426.029297)" fill="#F8F8F8" fill-opacity="1.000000"/>
	<rect id="Frame 6" rx="25.000000" width="50.000000" height="50.000000" transform="translate(134.460449 426.029297)" stroke="#494D59" stroke-opacity="1.000000" stroke-width="2.000000"/>
	<rect id="Frame 5" rx="25.000000" width="50.000000" height="50.000000" transform="translate(455.493408 426.029297)" fill="#F8F8F8" fill-opacity="1.000000"/>
	<rect id="Frame 5" rx="25.000000" width="50.000000" height="50.000000" transform="translate(455.493408 426.029297)" stroke="#494D59" stroke-opacity="1.000000" stroke-width="2.000000"/>
	<rect id="Frame 6" rx="25.000000" width="50.000000" height="50.000000" transform="translate(134.459229 104.994141)" fill="#F8F8F8" fill-opacity="1.000000"/>
	<rect id="Frame 6" rx="25.000000" width="50.000000" height="50.000000" transform="translate(134.459229 104.994141)" stroke="#494D59" stroke-opacity="1.000000" stroke-width="2.000000"/>
	<rect id="icons" rx="14.500000" width="29.000000" height="29.000000" transform="translate(348.477295 230.019531)" fill="#F8F8F8" fill-opacity="1.000000"/>
	<g clip-path="url(#clip13_5953)">
		<path id="Vector" d="M363.7 258.33C363.56 258.48 363.37 258.57 363.17 258.61C362.97 258.65 362.77 258.63 362.58 258.56C362.39 258.48 362.23 258.35 362.12 258.18C362 258.01 361.94 257.81 361.94 257.6L361.94 246.32C361.95 246.05 362.06 245.79 362.25 245.61C362.44 245.42 362.7 245.31 362.97 245.31C363.24 245.31 363.5 245.42 363.69 245.61C363.89 245.79 364 246.05 364 246.32L364 257.6C364 257.88 363.89 258.14 363.7 258.33Z" fill="#FF7AB2" fill-opacity="1.000000" fill-rule="nonzero"/>
		<path id="Vector" d="M366.79 254.43C366.59 254.62 366.33 254.73 366.06 254.73L359.89 254.73C359.62 254.72 359.36 254.61 359.17 254.42C358.98 254.23 358.88 253.97 358.88 253.7C358.88 253.43 358.98 253.17 359.17 252.98C359.36 252.79 359.62 252.68 359.89 252.67L366.06 252.67C366.26 252.67 366.46 252.73 366.63 252.85C366.8 252.96 366.93 253.12 367.01 253.31C367.09 253.49 367.11 253.7 367.07 253.9C367.03 254.1 366.93 254.28 366.79 254.43L366.79 254.43ZM368.06 245.24C367.4 245.91 366.6 246.44 365.73 246.81C364.85 247.17 363.92 247.35 362.97 247.35C361.31 247.35 359.69 246.77 358.4 245.72C357.12 244.66 356.24 243.19 355.91 241.55C355.59 239.92 355.84 238.23 356.62 236.76C357.41 235.29 358.68 234.14 360.22 233.5C361.76 232.86 363.47 232.78 365.06 233.26C366.66 233.75 368.03 234.77 368.96 236.15C369.89 237.54 370.3 239.2 370.14 240.86C369.97 242.52 369.24 244.06 368.06 245.24ZM359.34 236.52C358.62 237.23 358.13 238.15 357.93 239.15C357.73 240.15 357.83 241.18 358.22 242.12C358.61 243.06 359.27 243.86 360.12 244.43C360.96 244.99 361.95 245.29 362.97 245.29C363.82 245.29 364.65 245.09 365.4 244.69C366.14 244.29 366.78 243.71 367.25 243.01C367.72 242.31 368.01 241.5 368.09 240.66C368.17 239.81 368.05 238.96 367.72 238.18C367.4 237.4 366.89 236.71 366.24 236.18C365.58 235.64 364.81 235.27 363.98 235.11C363.15 234.94 362.29 234.98 361.48 235.23C360.67 235.48 359.93 235.92 359.34 236.52Z" fill="#FF7AB2" fill-opacity="1.000000" fill-rule="nonzero"/>
	</g>
	<rect id="icons" rx="14.500000" width="29.000000" height="29.000000" transform="translate(262.477295 230.019531)" fill="#F8F8F8" fill-opacity="1.000000"/>
	<g clip-path="url(#clip13_5957)">
		<path id="Vector" d="M278.25 244.27C278.05 244.27 277.85 244.2 277.68 244.09C277.51 243.98 277.38 243.82 277.3 243.63C277.22 243.44 277.2 243.24 277.24 243.04C277.28 242.84 277.38 242.65 277.52 242.51L285.5 234.53C285.7 234.34 285.96 234.24 286.23 234.24C286.5 234.24 286.75 234.35 286.94 234.54C287.14 234.73 287.24 234.99 287.25 235.26C287.25 235.53 287.14 235.79 286.96 235.98L278.98 243.96C278.79 244.16 278.52 244.27 278.25 244.27Z" fill="#6BE7FF" fill-opacity="1.000000" fill-rule="nonzero"/>
		<path id="Vector" d="M273.89 254.8C272.7 254.8 271.54 254.51 270.49 253.95C269.45 253.39 268.56 252.59 267.9 251.6C267.24 250.62 266.84 249.48 266.72 248.31C266.61 247.13 266.78 245.94 267.24 244.85C267.69 243.75 268.4 242.79 269.32 242.03C270.24 241.28 271.32 240.77 272.48 240.54C273.64 240.31 274.84 240.37 275.98 240.71C277.11 241.06 278.14 241.67 278.98 242.51C279.99 243.52 280.67 244.8 280.95 246.2C281.23 247.59 281.08 249.04 280.54 250.36C279.99 251.67 279.07 252.8 277.89 253.59C276.7 254.38 275.31 254.8 273.89 254.8ZM273.89 242.46C272.7 242.46 271.54 242.87 270.63 243.62C269.71 244.38 269.07 245.43 268.84 246.6C268.61 247.76 268.79 248.98 269.35 250.02C269.91 251.07 270.82 251.9 271.92 252.35C273.02 252.81 274.24 252.87 275.38 252.52C276.52 252.18 277.5 251.45 278.16 250.46C278.82 249.47 279.12 248.28 279.01 247.1C278.89 245.91 278.37 244.81 277.52 243.96C277.05 243.49 276.48 243.11 275.86 242.85C275.23 242.59 274.56 242.46 273.89 242.46ZM286.23 241.43C285.96 241.43 285.7 241.32 285.5 241.13C285.31 240.93 285.2 240.67 285.2 240.4L285.2 236.29L281.09 236.29C280.81 236.29 280.55 236.18 280.36 235.99C280.17 235.79 280.06 235.53 280.06 235.26C280.06 234.99 280.17 234.72 280.36 234.53C280.55 234.34 280.81 234.23 281.09 234.23L286.23 234.23C286.5 234.23 286.76 234.34 286.96 234.53C287.15 234.72 287.26 234.99 287.26 235.26L287.26 240.4C287.26 240.67 287.15 240.93 286.96 241.13C286.76 241.32 286.5 241.43 286.23 241.43Z" fill="#6BE7FF" fill-opacity="1.000000" fill-rule="nonzero"/>
	</g>
	<rect id="icons" rx="14.500000" width="29.000000" height="29.000000" transform="translate(328.477295 340.019531)" fill="#F8F8F8" fill-opacity="1.000000"/>
	<g clip-path="url(#clip13_5960)">
		<path id="Vector" d="M354.3 346.63C353.38 345.43 352.09 344.56 350.62 344.18C349.16 343.8 347.6 343.93 346.22 344.53C344.98 345.07 343.87 345.97 342.97 347.17C342.08 345.97 340.97 345.07 339.73 344.53C338.34 343.93 336.79 343.8 335.32 344.18C333.86 344.56 332.56 345.43 331.65 346.63C330.68 347.9 330.17 349.48 330.17 351.21C330.17 353.69 331.65 356.42 334.58 359.32C336.96 361.68 339.78 363.61 341.24 364.55C341.76 364.88 342.36 365.06 342.97 365.06C343.59 365.06 344.19 364.88 344.7 364.55C346.17 363.61 348.99 361.68 351.37 359.32C354.29 356.42 355.78 353.69 355.78 351.21C355.78 349.48 355.26 347.9 354.3 346.63Z" fill="#F9595F" fill-opacity="1.000000" fill-rule="nonzero"/>
	</g>
	<rect id="icons" rx="14.500000" width="29.000000" height="29.000000" transform="translate(375.477295 308.019531)" fill="#F8F8F8" fill-opacity="1.000000"/>
	<g clip-path="url(#clip13_5963)">
		<path id="Vector" d="M391.53 333.93L391.53 336.01L388.58 336.01L388.58 333.84C385.76 333.52 383.11 332.3 381.03 330.37L383.37 327.49C384.82 328.87 386.62 329.83 388.58 330.27L388.58 323.96C384.6 322.92 381.91 321.5 381.91 317.67C381.91 314.18 384.6 311.49 388.58 311L388.58 309.02L391.53 309.02L391.53 311.03C394.06 311.29 396.44 312.35 398.33 314.05L396.13 317.02C394.82 315.85 393.24 315.01 391.53 314.6L391.53 320.68C395.97 321.69 398.91 323.21 398.91 327.16C398.91 330.89 396.22 333.61 391.53 333.93ZM388.58 319.91L388.58 314.53C386.99 314.92 385.99 316.05 385.99 317.32C385.99 318.61 386.83 319.29 388.58 319.91ZM394.86 327.55C394.86 326.06 393.83 325.38 391.53 324.7L391.53 330.47C393.73 330.21 394.86 328.98 394.86 327.55Z" fill="#72BD39" fill-opacity="1.000000" fill-rule="nonzero"/>
	</g>
</svg>
