<svg width="33" height="32" viewBox="0 0 33 32" fill="none" xmlns="http://www.w3.org/2000/svg">
<path fill-rule="evenodd" clip-rule="evenodd" d="M4.12969 3.46778C9.55313 4.06163 13.8311 3.13271 16.4992 0C19.1701 3.13271 23.4481 4.06163 28.8687 3.46778C33.0622 14.7782 29.2515 28.0092 16.4992 32C3.74974 28.0092 -0.0610282 14.7782 4.12969 3.46778Z" fill="#ACB2E9"/>
<path fill-rule="evenodd" clip-rule="evenodd" d="M4.13269 3.46778C9.55332 4.06163 13.8313 3.13271 16.4994 0V32C3.74993 28.0092 -0.0608354 14.7782 4.13269 3.46778Z" fill="#C2C7F2"/>
<path fill-rule="evenodd" clip-rule="evenodd" d="M5.26945 5.15199C3.4682 10.8617 3.68773 17.356 6.78362 22.6026C8.98452 26.3291 12.3562 28.9252 16.4991 30.3363C20.6448 28.9252 24.0165 26.3291 26.2174 22.6026C29.3133 17.356 29.5328 10.8617 27.7288 5.15199C23.69 5.4244 19.564 4.85779 16.4991 2.26172C13.437 4.85779 9.311 5.4244 5.26945 5.15199Z" fill="#9197CC"/>
<path fill-rule="evenodd" clip-rule="evenodd" d="M5.26945 5.15199C3.4682 10.8617 3.68773 17.356 6.78362 22.6026C8.98452 26.3291 12.3562 28.9252 16.4991 30.3363V2.26172C13.437 4.85779 9.311 5.4244 5.26945 5.15199Z" fill="#ACB2E9"/>
<path fill-rule="evenodd" clip-rule="evenodd" d="M5.26945 5.15199C3.4682 10.8617 3.68773 17.356 6.78362 22.6026C8.98452 26.3291 12.3562 28.9252 16.4991 30.3363C-0.179327 22.5862 5.69162 5.67229 5.69162 5.67229C14.4023 6.18442 16.4991 2.26172 16.4991 2.26172C13.437 4.85779 9.311 5.4244 5.26945 5.15199Z" fill="#A0A6D7"/>
<path fill-rule="evenodd" clip-rule="evenodd" d="M16.4991 11.1562C18.0949 11.1562 19.3895 12.4093 19.3895 13.9539C19.3895 15.128 18.6437 16.1305 17.5826 16.5472V21.9137H15.4155V16.5472C14.3573 16.1305 13.6115 15.128 13.6115 13.9539C13.6115 12.4093 14.9033 11.1562 16.4991 11.1562Z" fill="#7379B0"/>
</svg>
