<svg width="30.000000" height="30.000000" viewBox="0 0 30 30" fill="none" xmlns="http://www.w3.org/2000/svg" xmlns:xlink="http://www.w3.org/1999/xlink">
	<desc>
			Created with Pixso.
	</desc>
	<defs>
		<clipPath id="clip9_781">
			<rect id="Frame" rx="-0.500000" width="29.000000" height="29.000000" transform="translate(0.500000 0.500000)" fill="white" fill-opacity="0"/>
		</clipPath>
	</defs>
	<rect id="Frame" rx="-0.500000" width="29.000000" height="29.000000" transform="translate(0.500000 0.500000)" fill="#FFFFFF" fill-opacity="0"/>
	<g clip-path="url(#clip9_781)">
		<path id="Vector" d="M25.96 15C25.96 21.05 21.05 25.96 15 25.96C8.94 25.96 4.03 21.05 4.03 15C4.03 8.94 8.94 4.03 15 4.03C21.05 4.03 25.96 8.94 25.96 15Z" fill="#ACFC9F" fill-opacity="1.000000" fill-rule="evenodd"/>
		<path id="6-Check" d="M13.84 26.58C13.76 26.58 13.68 26.57 13.61 26.53C13.54 26.5 13.47 26.46 13.42 26.4L1.99 14.04C1.92 13.96 1.87 13.86 1.85 13.75C1.83 13.63 1.84 13.52 1.89 13.42C1.93 13.32 2.01 13.23 2.1 13.17C2.2 13.11 2.31 13.07 2.42 13.07L7.92 13.07C8 13.07 8.08 13.09 8.16 13.12C8.23 13.16 8.3 13.21 8.35 13.27L12.17 17.66C12.58 16.78 13.38 15.31 14.78 13.52C16.85 10.88 20.71 6.99 27.3 3.48C27.43 3.41 27.58 3.39 27.72 3.43C27.86 3.46 27.98 3.55 28.06 3.67C28.13 3.79 28.16 3.94 28.14 4.08C28.12 4.22 28.04 4.35 27.93 4.44C27.9 4.46 25.36 6.46 22.43 10.13C19.74 13.5 16.16 19.02 14.4 26.14C14.37 26.27 14.3 26.38 14.2 26.46C14.09 26.54 13.97 26.58 13.84 26.58L13.84 26.58ZM3.74 14.23L13.55 24.84C14.37 21.9 15.5 19.07 16.94 16.38C18.26 13.91 19.8 11.57 21.56 9.38C22.17 8.61 22.81 7.86 23.47 7.13C19.68 9.72 17.23 12.28 15.73 14.18C13.57 16.93 12.9 18.9 12.89 18.92C12.86 19.02 12.8 19.11 12.73 19.17C12.65 19.24 12.56 19.29 12.46 19.31C12.36 19.33 12.25 19.32 12.16 19.29C12.06 19.26 11.98 19.2 11.91 19.12L7.65 14.23L3.74 14.23Z" fill="#8C97FB" fill-opacity="1.000000" fill-rule="nonzero"/>
	</g>
</svg>
