<svg width="30" height="30" viewBox="0 0 30 30" fill="none" xmlns="http://www.w3.org/2000/svg">
<g clip-path="url(#clip0_2061_7590)">
<rect width="30" height="30" rx="15" fill="#F8F8F8"/>
<g filter="url(#filter0_d_2061_7590)">
<circle cx="15" cy="15" r="13" fill="white"/>
</g>
<circle cx="15" cy="15" r="9" stroke="#FF7AB2" stroke-width="2"/>
<path d="M26.8847 14.3771L27.3395 14.5847L26.8847 14.3771C26.7041 14.7727 26.7041 15.2273 26.8847 15.6229L28.43 19.0083C28.5378 19.2443 28.447 19.5236 28.2211 19.6512L24.981 21.4817C24.6024 21.6956 24.3352 22.0634 24.2488 22.4896L23.5091 26.1367C23.4575 26.391 23.22 26.5636 22.9622 26.5341L19.265 26.1105C18.8329 26.061 18.4006 26.2015 18.0802 26.4955L15.338 29.0113C15.1468 29.1868 14.8532 29.1868 14.662 29.0113L11.9198 26.4955C11.5994 26.2015 11.1671 26.061 10.735 26.1105L7.03781 26.5341C6.78001 26.5636 6.54246 26.391 6.49088 26.1367L5.7512 22.4896C5.66476 22.0634 5.3976 21.6956 5.01896 21.4817L1.77889 19.6512C1.55297 19.5236 1.46223 19.2443 1.56998 19.0083L3.1153 15.6229C3.29589 15.2273 3.29589 14.7727 3.1153 14.3771L1.56998 10.9917C1.46223 10.7557 1.55297 10.4764 1.77889 10.3488L5.01896 8.51827C5.3976 8.30435 5.66476 7.93664 5.7512 7.51043L6.49088 3.86328C6.54246 3.60897 6.78001 3.43638 7.03781 3.46592L10.735 3.88946C11.1671 3.93896 11.5994 3.7985 11.9198 3.5045L14.662 0.988674C14.8532 0.813249 15.1468 0.813249 15.338 0.988675L18.0802 3.5045C18.4006 3.7985 18.8329 3.93896 19.265 3.88946L22.9622 3.46592C23.22 3.43638 23.4575 3.60897 23.5091 3.86328L24.2488 7.51043C24.3352 7.93664 24.6024 8.30435 24.981 8.51827L28.2211 10.3488C28.447 10.4764 28.5378 10.7557 28.43 10.9917L26.8847 14.3771Z" stroke="#6BE7FF"/>
</g>
<defs>
<filter id="filter0_d_2061_7590" x="0.5" y="0.5" width="29" height="29" filterUnits="userSpaceOnUse" color-interpolation-filters="sRGB">
<feFlood flood-opacity="0" result="BackgroundImageFix"/>
<feColorMatrix in="SourceAlpha" type="matrix" values="0 0 0 0 0 0 0 0 0 0 0 0 0 0 0 0 0 0 127 0" result="hardAlpha"/>
<feOffset/>
<feGaussianBlur stdDeviation="0.75"/>
<feComposite in2="hardAlpha" operator="out"/>
<feColorMatrix type="matrix" values="0 0 0 0 0.629167 0 0 0 0 0.495469 0 0 0 0 0.495469 0 0 0 0.25 0"/>
<feBlend mode="normal" in2="BackgroundImageFix" result="effect1_dropShadow_2061_7590"/>
<feBlend mode="normal" in="SourceGraphic" in2="effect1_dropShadow_2061_7590" result="shape"/>
</filter>
<clipPath id="clip0_2061_7590">
<rect width="30" height="30" rx="15" fill="white"/>
</clipPath>
</defs>
</svg>
