<svg width="50.000000" height="50.000000" viewBox="0 0 50 50" fill="none" xmlns="http://www.w3.org/2000/svg" xmlns:xlink="http://www.w3.org/1999/xlink">
	<desc>
			Created with Pixso.
	</desc>
	<defs>
		<clipPath id="clip2032_982">
			<rect id="Frame" rx="-0.500000" width="49.000000" height="49.000000" transform="translate(0.500000 0.500000)" fill="white" fill-opacity="0"/>
		</clipPath>
	</defs>
	<rect id="Frame" rx="-0.500000" width="49.000000" height="49.000000" transform="translate(0.500000 0.500000)" fill="#FFFFFF" fill-opacity="0"/>
	<g clip-path="url(#clip2032_982)">
		<path id="Vector" d="M27.13 24.58C26.79 24.58 26.46 24.48 26.17 24.29C25.89 24.1 25.67 23.83 25.54 23.52C25.41 23.21 25.38 22.86 25.45 22.53C25.51 22.2 25.67 21.89 25.91 21.65L39.21 8.35C39.54 8.04 39.97 7.87 40.42 7.87C40.87 7.88 41.3 8.06 41.61 8.38C41.93 8.69 42.11 9.12 42.12 9.57C42.12 10.02 41.95 10.46 41.64 10.78L28.34 24.08C28.02 24.4 27.58 24.58 27.13 24.58Z" fill="#6BE7FF" fill-opacity="1.000000" fill-rule="nonzero"/>
		<path id="Vector" d="M19.85 42.14C17.88 42.14 15.94 41.65 14.2 40.72C12.46 39.79 10.97 38.45 9.88 36.8C8.78 35.16 8.1 33.28 7.91 31.31C7.72 29.35 8.01 27.37 8.77 25.55C9.52 23.72 10.72 22.11 12.24 20.86C13.77 19.61 15.58 18.75 17.51 18.37C19.45 17.98 21.45 18.08 23.34 18.66C25.23 19.23 26.94 20.26 28.34 21.65C30.02 23.33 31.16 25.47 31.62 27.8C32.08 30.13 31.85 32.54 30.94 34.73C30.03 36.92 28.49 38.8 26.52 40.11C24.55 41.43 22.23 42.14 19.85 42.14ZM19.85 21.57C17.87 21.57 15.95 22.25 14.42 23.51C12.88 24.77 11.83 26.52 11.45 28.47C11.06 30.41 11.36 32.43 12.29 34.18C13.23 35.93 14.74 37.3 16.57 38.06C18.4 38.81 20.44 38.92 22.34 38.34C24.24 37.76 25.88 36.55 26.98 34.9C28.08 33.25 28.58 31.27 28.38 29.3C28.19 27.33 27.32 25.48 25.91 24.08C25.12 23.28 24.18 22.65 23.14 22.22C22.09 21.78 20.98 21.56 19.85 21.57ZM40.42 19.85C39.97 19.85 39.53 19.67 39.21 19.35C38.89 19.03 38.71 18.59 38.71 18.14L38.71 11.28L31.85 11.28C31.4 11.28 30.96 11.1 30.64 10.78C30.32 10.46 30.14 10.02 30.14 9.57C30.14 9.11 30.32 8.68 30.64 8.35C30.96 8.03 31.4 7.85 31.85 7.85L40.42 7.85C40.88 7.85 41.31 8.03 41.64 8.35C41.96 8.68 42.14 9.11 42.14 9.57L42.14 18.14C42.14 18.59 41.96 19.03 41.64 19.35C41.31 19.67 40.88 19.85 40.42 19.85Z" fill="#6BE7FF" fill-opacity="1.000000" fill-rule="nonzero"/>
	</g>
</svg>
