<svg width="30" height="30" viewBox="0 0 30 30" fill="none" xmlns="http://www.w3.org/2000/svg">
<path opacity="0.5" d="M15 30C23.2843 30 30 23.2843 30 15C30 6.71573 23.2843 0 15 0C6.71573 0 0 6.71573 0 15C0 23.2843 6.71573 30 15 30Z" fill="url(#paint0_linear_2378_15997)"/>
<path opacity="0.5" d="M15 28.2758C7.6724 28.2758 1.72412 22.3276 1.72412 15C1.72412 7.6724 7.6724 1.72412 15 1.72412C22.3276 1.72412 28.2758 7.6724 28.2758 15C28.2758 22.3276 22.3276 28.2758 15 28.2758Z" fill="url(#paint1_linear_2378_15997)"/>
<path opacity="0.5" d="M15 27.414C21.8559 27.414 27.4138 21.8562 27.4138 15.0002C27.4138 8.14427 21.8559 2.58643 15 2.58643C8.14403 2.58643 2.58618 8.14427 2.58618 15.0002C2.58618 21.8562 8.14403 27.414 15 27.414Z" fill="url(#paint2_linear_2378_15997)"/>
<path d="M23.5774 14.7846C23.2757 14.6122 23.1464 14.4397 23.0171 14.2242C22.8446 14.0087 22.6722 13.7501 22.3274 13.5777C22.586 13.2759 22.6722 12.9742 22.7153 12.7156C22.7584 12.457 22.8015 12.2415 23.0171 11.9828C23.0602 11.8966 23.1033 11.8104 23.0602 11.7242C23.0171 11.638 22.9308 11.5949 22.8446 11.5518C22.4998 11.5087 22.3274 11.3794 22.1119 11.2501C21.8964 11.0777 21.6378 10.9053 21.2067 10.9053C21.336 10.5173 21.2929 10.2156 21.2498 9.95698C21.2067 9.69836 21.1636 9.48284 21.2498 9.13801C21.2929 9.0518 21.2498 8.9656 21.2067 8.87939C21.1636 8.83629 21.0343 8.79318 20.9481 8.83629C20.6464 8.9225 20.3878 8.87939 20.1291 8.83629C19.8705 8.79318 19.5257 8.70698 19.1808 8.87939C19.1808 8.49146 19.0084 8.18974 18.836 7.97422C18.7067 7.7587 18.5774 7.54319 18.5343 7.24146C18.5343 7.15526 18.4481 7.06905 18.3619 7.02594C18.2757 6.98284 18.1895 7.02594 18.1033 7.06904C17.8446 7.28456 17.6291 7.32767 17.3705 7.37077C17.1119 7.41388 16.7671 7.50008 16.5084 7.7587C16.336 7.37077 16.0774 7.19835 15.8619 7.06904C15.6464 6.93973 15.4308 6.81043 15.3015 6.5087C15.2153 6.33629 14.9567 6.33629 14.8705 6.5087C14.6981 6.81043 14.5257 6.93973 14.3102 7.06904C14.0946 7.24146 13.836 7.41387 13.6636 7.7587C13.3619 7.50008 13.0602 7.41388 12.8015 7.37077C12.5429 7.32767 12.3274 7.28456 12.0688 7.06904C11.9826 7.02594 11.8964 6.98284 11.8102 7.02594C11.7239 7.06905 11.6808 7.15526 11.6377 7.24146C11.5946 7.58629 11.4653 7.7587 11.336 7.97422C11.1636 8.18974 10.9912 8.44836 10.9912 8.87939C10.6033 8.75008 10.3015 8.79318 10.0429 8.83629C9.7843 8.87939 9.56878 8.9225 9.22395 8.83629C9.13774 8.79318 9.05154 8.83629 8.96533 8.87939C8.92223 8.9225 8.87912 9.0518 8.92223 9.13801C9.00843 9.43974 8.96533 9.69836 8.92223 9.95698C8.87912 10.2156 8.79292 10.5604 8.96533 10.9053C8.5774 10.9053 8.27568 11.0777 8.06016 11.2501C7.84464 11.3794 7.62913 11.5087 7.3274 11.5518C7.24119 11.5518 7.15499 11.638 7.11188 11.7242C7.06878 11.8104 7.11189 11.8966 7.15499 11.9828C7.37051 12.2415 7.41361 12.457 7.45671 12.7156C7.49982 12.9742 7.58602 13.319 7.84464 13.5777C7.45671 13.7501 7.2843 14.0087 7.15499 14.2242C7.02568 14.4397 6.89637 14.6553 6.59464 14.7846C6.50844 14.8277 6.46533 14.9139 6.46533 15.0001C6.46533 15.0863 6.50844 15.1725 6.59464 15.2156C6.89637 15.388 7.02568 15.5604 7.15499 15.7759C7.3274 15.9915 7.49981 16.2501 7.84464 16.4225C7.58602 16.7242 7.49982 17.0259 7.45671 17.2846C7.41361 17.5432 7.37051 17.7587 7.15499 18.0173C7.11189 18.1035 7.06878 18.1897 7.11188 18.2759C7.15499 18.3621 7.24119 18.4053 7.3274 18.4484C7.67223 18.4915 7.84464 18.6208 8.06016 18.7501C8.27568 18.9225 8.5774 19.0949 8.96533 19.0949C8.83602 19.4828 8.87912 19.7846 8.92223 20.0432C8.96533 20.3018 9.00843 20.5173 8.92223 20.8621C8.87912 20.9484 8.92223 21.0346 8.96533 21.1208C9.00844 21.1639 9.13774 21.207 9.22395 21.1639C9.52567 21.0777 9.7843 21.1208 10.0429 21.1639C10.1722 21.207 10.3446 21.207 10.5171 21.207C10.6464 21.207 10.8188 21.1639 10.9912 21.1208C10.9912 21.5087 11.1636 21.8104 11.336 22.0259C11.4653 22.2415 11.5946 22.457 11.6377 22.7587C11.6377 22.8449 11.7239 22.9311 11.8102 22.9742C11.8533 22.9742 11.8533 22.9742 11.8964 22.9742C11.9395 22.9742 12.0257 22.9742 12.0688 22.9311C12.3274 22.7156 12.5429 22.6725 12.8015 22.6294C13.0602 22.5863 13.405 22.5001 13.6636 22.2415C13.836 22.6294 14.0946 22.8018 14.3102 22.9311C14.5257 23.0604 14.7412 23.1897 14.8705 23.4915C14.9136 23.5777 14.9998 23.6208 15.086 23.6208C15.1722 23.6208 15.2584 23.5777 15.3015 23.4915C15.474 23.1897 15.6464 23.0604 15.8619 22.9311C16.0774 22.7587 16.336 22.5863 16.5084 22.2415C16.8102 22.5001 17.1119 22.5863 17.3705 22.6294C17.6291 22.6725 17.8446 22.7156 18.1033 22.9311C18.1464 22.9742 18.1895 22.9742 18.2757 22.9742C18.3188 22.9742 18.3188 22.9742 18.3619 22.9742C18.4481 22.9311 18.4912 22.8449 18.5343 22.7587C18.5774 22.4139 18.7067 22.2415 18.836 22.0259C19.0084 21.8104 19.1808 21.5518 19.1808 21.1208C19.3533 21.207 19.5257 21.207 19.655 21.207C19.8274 21.207 19.9998 21.1639 20.1291 21.1639C20.3878 21.1208 20.6033 21.0777 20.9481 21.1639C21.0343 21.207 21.1205 21.1639 21.2067 21.1208C21.2498 21.0777 21.2929 20.9484 21.2498 20.8621C21.1636 20.5604 21.2067 20.3018 21.2498 20.0432C21.2929 19.7846 21.3791 19.4397 21.2067 19.0949C21.5946 19.0949 21.8964 18.9225 22.1119 18.7501C22.3274 18.6208 22.5429 18.4915 22.8446 18.4484C22.9308 18.4484 23.0171 18.3621 23.0602 18.2759C23.1033 18.1897 23.0602 18.1035 23.0171 18.0173C22.8015 17.7587 22.7584 17.5432 22.7153 17.2846C22.6722 17.0259 22.586 16.6811 22.3274 16.4225C22.7153 16.2501 22.8877 15.9915 23.0171 15.7759C23.1464 15.5604 23.2757 15.3449 23.5774 15.2156C23.6636 15.1725 23.7067 15.0863 23.7067 15.0001C23.7067 14.9139 23.6636 14.8277 23.5774 14.7846ZM21.0774 11.3794C21.4222 11.3363 21.5946 11.4656 21.8533 11.638C22.0257 11.7673 22.1981 11.8535 22.4567 11.9397C22.3274 12.1553 22.2843 12.3708 22.2412 12.5863C22.1981 12.888 22.155 13.1035 21.8964 13.319C21.8102 13.4053 21.6808 13.4484 21.5515 13.4915H21.5084C21.4222 13.4915 21.3791 13.4915 21.2929 13.4915C21.1205 12.8449 20.8619 12.2415 20.5171 11.638C20.5602 11.5949 20.6033 11.5518 20.6895 11.5087C20.6895 11.5087 20.7326 11.5087 20.7326 11.4656C20.8188 11.4225 20.905 11.3794 21.0774 11.3794ZM18.9222 9.61215C18.9222 9.56905 18.9222 9.56905 18.9222 9.61215C19.0084 9.48284 19.0946 9.39663 19.224 9.35353C19.5257 9.18111 19.7412 9.22422 20.0429 9.31043C20.2584 9.35353 20.474 9.39663 20.6895 9.35353C20.6895 9.61215 20.7326 9.82767 20.7326 10.0001C20.7757 10.3018 20.8188 10.5173 20.6895 10.819C20.6464 10.9484 20.5602 11.0346 20.4308 11.0777C20.4308 11.0777 20.3877 11.0777 20.3877 11.1208C20.3015 11.1639 20.2584 11.207 20.2153 11.207C19.8274 10.6897 19.3533 10.2156 18.7929 9.78456C18.836 9.74146 18.8791 9.65526 18.9222 9.61215ZM16.5515 8.53457V8.49146C16.5946 8.36215 16.6377 8.27594 16.724 8.14663C16.9395 7.88801 17.155 7.84491 17.4567 7.80181C17.6722 7.7587 17.8446 7.7156 18.1033 7.58629C18.1895 7.84491 18.3188 8.01732 18.405 8.18974C18.5774 8.44836 18.7067 8.62077 18.6636 8.9656C18.6636 9.09491 18.6205 9.22422 18.5343 9.31043C18.5343 9.31043 18.5343 9.35353 18.4912 9.35353C18.4481 9.43974 18.405 9.48284 18.3619 9.52595C17.8015 9.18112 17.1981 8.9225 16.5084 8.75008C16.5084 8.66388 16.5515 8.57767 16.5515 8.53457ZM13.9653 8.01733C14.0946 7.7156 14.2671 7.58629 14.4826 7.41387C14.655 7.28456 14.8274 7.19836 14.9998 6.98284C15.1722 7.15525 15.3446 7.28456 15.5171 7.41387C15.7757 7.58629 15.9481 7.7156 16.0343 8.01733C16.0774 8.14664 16.0774 8.27594 16.0343 8.36215V8.40525C16.0343 8.49146 15.9912 8.53456 15.9912 8.62077C15.6464 8.57767 15.3446 8.53457 14.9998 8.53457C14.655 8.53457 14.3533 8.57767 14.0084 8.62077C13.9653 8.57767 13.9653 8.49146 13.9653 8.40525V8.36215C13.9222 8.27594 13.9222 8.14664 13.9653 8.01733ZM11.6377 8.18974C11.7671 8.01732 11.8533 7.84491 11.9395 7.58629C12.155 7.7156 12.3705 7.7587 12.586 7.80181C12.8877 7.84491 13.1033 7.88801 13.3188 8.14663C13.405 8.23284 13.4481 8.36215 13.4912 8.49146V8.53457C13.4912 8.62077 13.4912 8.70698 13.4912 8.75008C12.8446 8.9225 12.2412 9.18112 11.6377 9.52595C11.5946 9.48284 11.5515 9.43974 11.5084 9.35353C11.5084 9.35353 11.5084 9.31043 11.4653 9.31043C11.4222 9.22422 11.336 9.09491 11.336 8.9656C11.336 8.62077 11.4653 8.44836 11.6377 8.18974ZM9.26706 10.0001C9.31016 9.78456 9.35327 9.61215 9.31016 9.35353C9.56878 9.35353 9.7843 9.31043 9.95671 9.31043C10.2584 9.26733 10.474 9.22422 10.7757 9.35353C10.905 9.39663 10.9912 9.48284 11.0343 9.61215C11.0343 9.61215 11.0343 9.65525 11.0774 9.65525C11.1205 9.74146 11.1636 9.78457 11.1636 9.82767C10.6464 10.2156 10.1722 10.6897 9.7412 11.2501C9.69809 11.207 9.61188 11.207 9.56878 11.1639C9.56878 11.1639 9.52568 11.1639 9.52568 11.1208C9.43947 11.0346 9.35326 10.9484 9.26706 10.8621C9.18085 10.4742 9.22395 10.3018 9.26706 10.0001ZM7.62912 11.9397C7.88774 11.8535 8.06016 11.7242 8.23258 11.638C8.4912 11.4656 8.66361 11.3363 9.00843 11.3794C9.13774 11.3794 9.26705 11.4225 9.35326 11.5087C9.35326 11.5087 9.39637 11.5087 9.39637 11.5518C9.48257 11.5949 9.52568 11.638 9.56878 11.6811C9.22395 12.2415 8.96533 12.8449 8.79292 13.5346C8.74981 13.5346 8.66361 13.5346 8.5774 13.5346H8.5343C8.40499 13.4915 8.31878 13.4484 8.18947 13.3622C7.93085 13.1466 7.88774 12.9311 7.84464 12.6294C7.75843 12.3708 7.71533 12.1553 7.62912 11.9397ZM7.41361 15.5173C7.2843 15.3449 7.19809 15.1725 6.98257 15.0001C7.15499 14.8277 7.2843 14.6553 7.41361 14.4828C7.58602 14.2242 7.71533 14.0518 8.01706 13.9656C8.14637 13.9225 8.27568 13.9225 8.40499 13.9656H8.44809C8.5343 13.9656 8.5774 14.0087 8.6205 14.0087C8.5774 14.3535 8.5343 14.6553 8.5343 15.0001C8.5343 15.3449 8.5774 15.6466 8.6205 15.9915C8.5774 16.0346 8.49119 16.0346 8.40499 16.0346H8.36188C8.23257 16.0346 8.10327 16.0346 8.01706 16.0346C7.71533 15.9053 7.58602 15.7328 7.41361 15.5173ZM8.96533 18.6208C8.62051 18.6639 8.44809 18.5346 8.18947 18.3622C8.01706 18.2328 7.84465 18.1466 7.58602 18.0604C7.71533 17.8449 7.75844 17.6294 7.80154 17.4139C7.84465 17.1121 7.88774 16.8966 8.14636 16.6811C8.23257 16.5949 8.36188 16.5518 8.49119 16.5087H8.5343C8.62051 16.5087 8.66361 16.5087 8.70671 16.5087C8.87912 17.1553 9.13775 17.7587 9.48257 18.3622C9.43947 18.4053 9.39637 18.4484 9.31016 18.4915C9.31016 18.4915 9.26706 18.4915 9.26706 18.5346C9.22395 18.5777 9.09464 18.6208 8.96533 18.6208ZM11.1205 20.388C11.0774 20.388 11.0774 20.388 11.1205 20.388C11.0343 20.5173 10.9481 20.6035 10.8188 20.6466C10.5171 20.7759 10.3015 20.7759 9.99981 20.6897C9.7843 20.6466 9.56878 20.6035 9.35326 20.6466C9.35326 20.388 9.31016 20.1725 9.31016 20.0001C9.26706 19.6984 9.22395 19.4828 9.35326 19.1811C9.39637 19.0518 9.48257 18.9656 9.61189 18.9225C9.61189 18.9225 9.65498 18.9225 9.65498 18.8794C9.74119 18.8363 9.7843 18.7932 9.8274 18.7932C10.2153 19.3104 10.6895 19.7846 11.2498 20.2156C11.1636 20.2587 11.1636 20.3018 11.1205 20.388ZM13.4481 21.4656V21.5087C13.405 21.638 13.3619 21.7242 13.2757 21.8535C13.0602 22.1121 12.8446 22.1553 12.5429 22.1984C12.3274 22.2415 12.155 22.2846 11.8964 22.4139C11.8102 22.1553 11.6808 21.9828 11.5946 21.8104C11.4222 21.5518 11.2929 21.3794 11.336 21.0346C11.336 20.9053 11.3791 20.7759 11.4653 20.6897C11.4653 20.6897 11.4653 20.6466 11.5084 20.6466C11.5515 20.5604 11.5946 20.5173 11.6377 20.4742C12.1981 20.819 12.8015 21.0777 13.4912 21.2501C13.4912 21.2932 13.4912 21.3794 13.4481 21.4656ZM16.0343 21.9828C15.905 22.2846 15.7326 22.4139 15.5171 22.5863C15.3446 22.7156 15.1722 22.8018 14.9998 23.0173C14.8274 22.8449 14.655 22.7156 14.4826 22.5863C14.224 22.4139 14.0515 22.2846 13.9653 21.9828C13.9222 21.8535 13.9222 21.7242 13.9653 21.638V21.5949C13.9653 21.5087 14.0084 21.4656 14.0084 21.3794C14.3533 21.4225 14.655 21.4656 14.9998 21.4656C15.3446 21.4656 15.6464 21.4225 15.9912 21.3794C16.0343 21.4225 16.0343 21.5087 16.0343 21.5949V21.638C16.0774 21.7242 16.0774 21.8535 16.0343 21.9828ZM18.3619 21.8104C18.2326 21.9828 18.1464 22.1553 18.0602 22.4139C17.8446 22.2846 17.6291 22.2415 17.4136 22.1984C17.1119 22.1553 16.8964 22.1121 16.6808 21.8535C16.5946 21.7673 16.5515 21.638 16.5084 21.5087V21.4656C16.5084 21.3794 16.5084 21.2932 16.5084 21.2501C17.155 21.0777 17.7584 20.819 18.3619 20.4742C18.405 20.5173 18.4481 20.5604 18.4912 20.6466C18.4912 20.6466 18.4912 20.6897 18.5343 20.6897C18.5774 20.7759 18.6636 20.9053 18.6636 21.0346C18.6636 21.3794 18.5343 21.5518 18.3619 21.8104ZM14.9998 20.9484C14.5688 20.9484 14.1808 20.9053 13.7498 20.819C11.4653 20.3449 9.65499 18.5346 9.13774 16.207C9.05154 15.819 9.00843 15.388 9.00843 14.957C9.00843 12.1121 11.0343 9.69836 13.7498 9.13801C14.1377 9.0518 14.5688 9.0087 14.9567 9.0087C15.3877 9.0087 15.7757 9.0518 16.2067 9.13801C18.4912 9.61215 20.3015 11.4225 20.8188 13.7501C20.905 14.138 20.9481 14.569 20.9481 15.0001C20.9481 18.2759 18.2757 20.9484 14.9998 20.9484ZM20.7326 20.0001C20.6895 20.2156 20.6464 20.388 20.6895 20.6466C20.4308 20.6466 20.2153 20.6897 20.0429 20.6897C19.7412 20.7328 19.5257 20.7759 19.224 20.6466C19.0946 20.6035 19.0084 20.5173 18.9653 20.388C18.9653 20.388 18.9653 20.3449 18.9222 20.3449C18.8791 20.2587 18.836 20.2156 18.836 20.1725C19.3533 19.7846 19.8274 19.3104 20.2584 18.7501C20.3015 18.7932 20.3877 18.7932 20.4308 18.8363C20.4308 18.8363 20.474 18.8363 20.474 18.8794C20.5602 18.9656 20.6464 19.0518 20.7326 19.138C20.8188 19.4828 20.7757 19.6984 20.7326 20.0001ZM22.4136 18.0604C22.155 18.1466 21.9826 18.2759 21.8102 18.3622C21.5515 18.5346 21.3791 18.6639 21.0343 18.6208C20.905 18.6208 20.7757 18.5777 20.6895 18.4915C20.6895 18.4915 20.6464 18.4915 20.6464 18.4484C20.5602 18.4053 20.5171 18.3622 20.474 18.319C20.8188 17.7587 21.0774 17.1553 21.2498 16.4656C21.2929 16.4656 21.3791 16.4656 21.4222 16.4656H21.4653C21.5946 16.5087 21.724 16.5518 21.8102 16.638C22.0688 16.8535 22.1119 17.069 22.155 17.3708C22.2412 17.6294 22.2843 17.8449 22.4136 18.0604ZM22.586 15.5173C22.4136 15.7759 22.2843 15.9484 21.9826 16.0346C21.8533 16.0777 21.724 16.0777 21.6378 16.0346H21.5946C21.5084 16.0346 21.4653 15.9915 21.3791 15.9915C21.4222 15.6466 21.4653 15.3449 21.4653 15.0001C21.4653 14.6553 21.4222 14.3535 21.3791 14.0087C21.4222 14.0087 21.5084 13.9656 21.5515 13.9656H21.5946C21.724 13.9656 21.8533 13.9225 21.9826 13.9656C22.2843 14.0949 22.4136 14.2673 22.586 14.4828C22.7153 14.6553 22.8015 14.8277 23.0171 15.0001C22.8015 15.1725 22.7153 15.3449 22.586 15.5173Z" fill="white"/>
<path d="M14.9999 12.0693C13.4051 12.0693 12.0688 13.3624 12.0688 15.0004C12.0688 16.5952 13.362 17.9314 14.9999 17.9314C16.5947 17.9314 17.9309 16.6383 17.9309 15.0004C17.9309 13.4055 16.5947 12.0693 14.9999 12.0693ZM14.9999 17.4142C13.6637 17.4142 12.5861 16.3366 12.5861 15.0004C12.5861 13.6642 13.6637 12.5866 14.9999 12.5866C16.3361 12.5866 17.4137 13.6642 17.4137 15.0004C17.4137 16.3366 16.3361 17.4142 14.9999 17.4142Z" fill="white"/>
<defs>
<linearGradient id="paint0_linear_2378_15997" x1="0.00758621" y1="14.9961" x2="30.0078" y2="14.9961" gradientUnits="userSpaceOnUse">
<stop stop-color="#73CBE6"/>
<stop offset="1" stop-color="#52C3E6"/>
</linearGradient>
<linearGradient id="paint1_linear_2378_15997" x1="1.73171" y1="14.9961" x2="28.2837" y2="14.9961" gradientUnits="userSpaceOnUse">
<stop stop-color="#73CBE6"/>
<stop offset="1" stop-color="#52C3E6"/>
</linearGradient>
<linearGradient id="paint2_linear_2378_15997" x1="2.59381" y1="14.9963" x2="27.4214" y2="14.9963" gradientUnits="userSpaceOnUse">
<stop stop-color="#73CBE6"/>
<stop offset="1" stop-color="#52C3E6"/>
</linearGradient>
</defs>
</svg>
