<svg width="30" height="30" viewBox="0 0 30 30" fill="none" xmlns="http://www.w3.org/2000/svg">
<path opacity="0.5" d="M15 30C6.72414 30 0 23.2759 0 15C0 6.72413 6.72414 0 15 0C23.2759 0 30 6.72413 30 15C30 23.2759 23.2759 30 15 30Z" fill="url(#paint0_linear_2378_15990)"/>
<path opacity="0.5" d="M15 28.2758C7.6724 28.2758 1.72412 22.3276 1.72412 15C1.72412 7.67239 7.6724 1.72412 15 1.72412C22.3276 1.72412 28.2758 7.67239 28.2758 15C28.2758 22.3276 22.3276 28.2758 15 28.2758Z" fill="url(#paint1_linear_2378_15990)"/>
<path opacity="0.5" d="M15 27.4135C21.8559 27.4135 27.4138 21.8557 27.4138 14.9997C27.4138 8.14378 21.8559 2.58594 15 2.58594C8.14403 2.58594 2.58618 8.14378 2.58618 14.9997C2.58618 21.8557 8.14403 27.4135 15 27.4135Z" fill="url(#paint2_linear_2378_15990)"/>
<path d="M23.5775 14.7845C23.1896 14.569 23.0171 14.3104 22.8447 14.0517C22.6292 13.7069 22.4137 13.3621 21.8102 13.1897C21.8102 13.1897 21.8102 13.1897 21.7671 13.1897C22.1551 12.7155 22.1982 12.3276 22.2413 11.9397C22.2413 11.6379 22.2844 11.2931 22.4999 10.9483C22.543 10.8621 22.543 10.7759 22.4999 10.6897C22.4568 10.6034 22.3706 10.5603 22.2844 10.5603C21.8533 10.5603 21.5947 10.431 21.293 10.3017C20.9482 10.1293 20.5602 9.9569 19.9568 10.0431C19.9568 10.0431 19.9568 10.0431 19.9137 10.0431C19.9137 10.0431 19.9137 10.0431 19.9137 10C20.043 9.39656 19.8706 9.05173 19.6551 8.66379C19.5258 8.36207 19.3964 8.10345 19.3964 7.67241C19.3964 7.58621 19.3533 7.5 19.2671 7.4569C19.1809 7.41379 19.0947 7.41379 19.0085 7.4569C18.6637 7.67241 18.362 7.71552 18.0171 7.71552C17.6292 7.75862 17.1982 7.75863 16.7671 8.18966C16.7671 8.18966 16.7671 8.18966 16.7671 8.14655C16.5516 7.58621 16.2068 7.32759 15.9051 7.11207C15.6464 6.93966 15.3878 6.76724 15.1723 6.37931C15.0861 6.2069 14.8275 6.2069 14.7413 6.37931C14.5258 6.76724 14.2671 6.93966 14.0085 7.11207C13.6637 7.32759 13.3189 7.54311 13.1464 8.14655C13.1464 8.14655 13.1464 8.14656 13.1464 8.18966C12.6723 7.80173 12.2844 7.75862 11.8964 7.71552C11.5947 7.71552 11.2499 7.67241 10.9051 7.4569C10.8189 7.41379 10.7326 7.41379 10.6464 7.4569C10.5602 7.5 10.5171 7.58621 10.5171 7.67241C10.5171 8.10345 10.3878 8.36207 10.2585 8.66379C10.0861 9.00862 9.91368 9.39656 9.99989 10C9.99989 10 9.99989 10 9.99989 10.0431C9.99989 10.0431 9.9999 10.0431 9.95679 10.0431C9.35334 9.91379 9.00851 10.0862 8.62058 10.3017C8.31886 10.431 8.06024 10.5603 7.6292 10.5603C7.543 10.5603 7.45679 10.6034 7.41368 10.6897C7.37058 10.7759 7.37058 10.8621 7.41368 10.9483C7.6292 11.2931 7.67231 11.5948 7.67231 11.9397C7.71541 12.3276 7.71541 12.7586 8.14644 13.1897C8.14644 13.1897 8.14645 13.1897 8.10334 13.1897C7.543 13.4052 7.28437 13.75 7.06886 14.0517C6.89644 14.3104 6.72403 14.569 6.3361 14.7845C6.24989 14.8276 6.20679 14.9138 6.20679 15C6.20679 15.0862 6.24989 15.1724 6.3361 15.2155C6.72403 15.431 6.89644 15.6897 7.06886 15.9483C7.28437 16.2931 7.49989 16.6379 8.10334 16.8103C8.10334 16.8103 8.10334 16.8103 8.14644 16.8103C7.75851 17.2845 7.71541 17.6724 7.67231 18.0603C7.67231 18.3621 7.6292 18.7069 7.41368 19.0517C7.37058 19.1379 7.37058 19.2241 7.41368 19.3103C7.45679 19.3966 7.543 19.4397 7.6292 19.4397C8.06024 19.4397 8.31886 19.569 8.62058 19.6983C8.8792 19.8276 9.18093 19.9569 9.56886 19.9569C9.69817 19.9569 9.78438 19.9569 9.95679 19.9138C9.95679 19.9138 9.95679 19.9138 9.99989 19.9138C9.99989 19.9138 9.99989 19.9138 9.99989 19.9569C9.87058 20.5603 10.043 20.9052 10.2585 21.2931C10.3878 21.5948 10.5171 21.8534 10.5171 22.2845C10.5171 22.3707 10.5602 22.4569 10.6464 22.5C10.6895 22.5431 10.7327 22.5431 10.7758 22.5431C10.8189 22.5431 10.862 22.5431 10.9051 22.5C11.2499 22.2845 11.5516 22.2414 11.8964 22.2414C12.2844 22.1983 12.7154 22.1983 13.1464 21.7672C13.1464 21.7672 13.1464 21.7672 13.1464 21.8104C13.362 22.3707 13.7068 22.6293 14.0085 22.8448C14.2671 23.0172 14.5258 23.1897 14.7413 23.5776C14.7844 23.6638 14.8706 23.7069 14.9568 23.7069C15.043 23.7069 15.1292 23.6638 15.1723 23.5776C15.3878 23.1897 15.6464 23.0172 15.9051 22.8448C16.2499 22.6293 16.5947 22.4138 16.7671 21.8104C16.7671 21.8104 16.7671 21.8103 16.7671 21.7672C17.2413 22.1552 17.6292 22.1983 18.0171 22.2414C18.3189 22.2414 18.6637 22.2845 19.0085 22.5C19.0516 22.5431 19.0947 22.5431 19.1378 22.5431C19.1809 22.5431 19.224 22.5431 19.2671 22.5C19.3533 22.4569 19.3964 22.3707 19.3964 22.2845C19.3964 21.8534 19.5258 21.5948 19.6551 21.2931C19.8275 20.9483 19.9999 20.5603 19.9137 19.9569C19.9137 19.9569 19.9137 19.9569 19.9137 19.9138C19.9137 19.9138 19.9137 19.9138 19.9568 19.9138C20.0861 19.9569 20.2154 19.9569 20.3447 19.9569C20.7327 19.9569 21.0344 19.8276 21.293 19.6983C21.5947 19.569 21.8533 19.4397 22.2844 19.4397C22.3706 19.4397 22.4568 19.3966 22.4999 19.3103C22.543 19.2241 22.543 19.1379 22.4999 19.0517C22.2844 18.7069 22.2413 18.4052 22.2413 18.0603C22.1982 17.6724 22.1982 17.2414 21.7671 16.8103C21.7671 16.8103 21.7671 16.8103 21.8102 16.8103C22.3706 16.5948 22.6292 16.25 22.8447 15.9483C23.0171 15.6897 23.1896 15.431 23.5775 15.2155C23.6637 15.1724 23.7068 15.0862 23.7068 15C23.7068 14.9138 23.6637 14.8276 23.5775 14.7845ZM15.474 20.431L16.8964 18.0172H19.5689C18.6637 19.3966 17.1551 20.3017 15.474 20.431ZM10.474 18.0172H13.1464L14.5689 20.431C12.8447 20.3017 11.3792 19.3966 10.474 18.0172ZM9.52576 15C9.52576 14.181 9.69817 13.4052 10.043 12.7155L11.3792 15L10.043 17.2845C9.69817 16.5517 9.52576 15.819 9.52576 15ZM14.5689 9.52586L13.1464 11.9397H10.474C11.3792 10.6035 12.8447 9.69828 14.5689 9.52586ZM19.5689 11.9397H16.8533L15.474 9.52586C17.1551 9.69828 18.6637 10.6035 19.5689 11.9397ZM16.5947 17.5431H13.4482L11.9395 15L13.4482 12.4569H16.5947L18.1033 15.0431L16.5947 17.5431ZM18.3189 15.5172L19.4827 17.5431H17.1551L18.3189 15.5172ZM16.293 18.0172L14.9999 20.2155L13.7068 18.0172H16.293ZM12.8447 17.5431H10.4309L11.6378 15.4741L12.8447 17.5431ZM11.6378 14.4828L10.4309 12.4138H12.8447L11.6378 14.4828ZM13.7068 11.9397L14.9999 9.74138L16.2499 11.9397H13.7068ZM17.112 12.4569H19.5689L18.362 14.569L17.112 12.4569ZM19.9568 17.3276L18.6206 15.0431L19.9568 12.7155C20.2585 13.4052 20.474 14.181 20.474 15C20.474 15.819 20.3016 16.5948 19.9568 17.3276ZM20.0861 10.5172C20.5171 10.431 20.7758 10.5603 21.0775 10.7328C21.293 10.8621 21.5516 10.9914 21.8964 11.0345C21.7671 11.3362 21.7671 11.6379 21.724 11.8966C21.6809 12.2414 21.6809 12.5431 21.3792 12.8879C21.1637 13.1466 20.8189 13.2328 20.6464 13.2328C20.5171 12.8448 20.3878 12.5 20.1723 12.1552C19.9568 11.7672 19.6982 11.4224 19.3964 11.0776C19.5258 10.819 19.7844 10.5603 20.0861 10.5172ZM18.1464 8.23276C18.4051 8.23276 18.7068 8.18966 19.0085 8.06035C19.0516 8.40518 19.1809 8.66379 19.3102 8.87931C19.4826 9.22414 19.612 9.43966 19.5257 9.87069C19.4395 10.2155 19.1809 10.431 19.0516 10.5603C18.4051 10 17.6723 9.56897 16.8533 9.26725C16.8964 9.05173 16.9395 8.75 17.1982 8.53448C17.4999 8.27586 17.8016 8.23276 18.1464 8.23276ZM13.6637 8.31897C13.793 7.88793 14.0516 7.75863 14.3533 7.54311C14.5689 7.4138 14.7844 7.24138 14.9999 6.98276C15.2154 7.24138 15.4309 7.4138 15.6464 7.54311C15.9482 7.75863 16.1637 7.88793 16.3361 8.31897C16.4223 8.62069 16.3361 8.96552 16.2499 9.13793C15.862 9.05173 15.4309 9.00862 14.9999 9.00862C14.5689 9.00862 14.1378 9.05173 13.7499 9.13793C13.6637 8.96552 13.5775 8.66379 13.6637 8.31897ZM10.7326 8.87931C10.862 8.66379 10.9913 8.40518 11.0344 8.06035C11.3361 8.18966 11.6378 8.18966 11.8964 8.23276C12.2413 8.27586 12.543 8.27586 12.8878 8.57759C13.1464 8.79311 13.2326 9.13793 13.2326 9.31035C12.4137 9.56897 11.6809 10 11.0344 10.6034C10.862 10.4741 10.6033 10.2586 10.5602 9.9138C10.4309 9.48276 10.5602 9.22414 10.7326 8.87931ZM8.10334 10.9914C8.44817 10.9483 8.70679 10.819 8.92231 10.6897C9.26713 10.5172 9.48265 10.3879 9.91369 10.4741C10.2585 10.5603 10.474 10.819 10.6033 10.9483C10.3016 11.2931 10.043 11.6379 9.82748 12.0259C9.65507 12.3707 9.48265 12.7155 9.35334 13.1035C9.13782 13.0603 8.8361 13.0172 8.62058 12.7586C8.31886 12.4138 8.31886 12.1552 8.27575 11.7672C8.23265 11.5948 8.18955 11.2931 8.10334 10.9914ZM7.5861 15.6466C7.45679 15.431 7.28438 15.2155 7.02576 15C7.28438 14.7845 7.45679 14.569 7.5861 14.3534C7.80162 14.0517 7.93092 13.8362 8.36196 13.6638C8.66368 13.5776 9.00851 13.6638 9.18093 13.75C9.09472 14.1379 9.05162 14.569 9.05162 15C9.05162 15.431 9.09472 15.8621 9.18093 16.25C9.00851 16.3362 8.66368 16.4224 8.36196 16.3362C7.93092 16.2069 7.80162 15.9483 7.5861 15.6466ZM9.91369 19.4828C9.48265 19.569 9.22403 19.4397 8.92231 19.2672C8.70679 19.1379 8.44817 19.0086 8.10334 18.9655C8.23265 18.6638 8.23265 18.3621 8.27575 18.1035C8.31886 17.7586 8.31886 17.4569 8.62058 17.1121C8.8361 16.8534 9.18093 16.7672 9.35334 16.7672C9.48265 17.1552 9.61196 17.5 9.82748 17.8448C10.043 18.2328 10.3016 18.5776 10.6033 18.9224C10.474 19.1379 10.2585 19.3965 9.91369 19.4828ZM11.8533 21.7672C11.5947 21.7672 11.293 21.8103 10.9913 21.9397C10.9482 21.5948 10.8189 21.3362 10.6895 21.1207C10.5171 20.7759 10.3878 20.5603 10.474 20.1293C10.5602 19.7845 10.8189 19.569 10.9482 19.4397C11.5947 20 12.3275 20.431 13.1464 20.7328C13.1033 20.9483 13.0602 21.25 12.8016 21.4655C12.4999 21.7241 12.2413 21.7241 11.8533 21.7672ZM16.3361 21.6379C16.2068 22.069 15.9482 22.1983 15.6464 22.4138C15.4309 22.5431 15.2154 22.7155 14.9999 22.9741C14.7844 22.7155 14.5689 22.5431 14.3533 22.4138C14.0516 22.1983 13.8361 22.069 13.6637 21.6379C13.5775 21.3362 13.6637 20.9914 13.7499 20.819C14.1378 20.9052 14.5689 20.9483 14.9999 20.9483C15.4309 20.9483 15.862 20.9052 16.2499 20.819C16.3361 20.9914 16.4654 21.3362 16.3361 21.6379ZM19.3102 21.0776C19.1809 21.2931 19.0516 21.5517 19.0085 21.8966C18.7068 21.7672 18.4051 21.7672 18.1464 21.7241C17.8016 21.681 17.4999 21.681 17.1551 21.3793C16.8964 21.1638 16.8102 20.819 16.8102 20.6466C17.6292 20.3879 18.362 19.9569 19.0085 19.3534C19.1809 19.4828 19.4396 19.6983 19.4827 20.0431C19.5689 20.5172 19.4395 20.7759 19.3102 21.0776ZM21.9395 19.0086C21.5947 19.0517 21.3361 19.181 21.1206 19.3103C20.7758 19.4828 20.5602 19.6121 20.1292 19.5259C19.7844 19.4397 19.5689 19.181 19.4395 19.0517C19.9999 18.4052 20.4309 17.6724 20.7327 16.8535C20.9482 16.8966 21.2499 16.9397 21.4654 17.1983C21.7671 17.5431 21.7671 17.8017 21.8102 18.1897C21.8102 18.4052 21.8102 18.6638 21.9395 19.0086ZM22.4137 15.6466C22.1982 15.9483 22.0689 16.1638 21.6378 16.3362C21.3361 16.4224 20.9913 16.3362 20.8189 16.25C20.9051 15.8621 20.9482 15.431 20.9482 15C20.9482 14.569 20.9051 14.1379 20.8189 13.75C20.9913 13.6638 21.3361 13.5776 21.6378 13.6638C22.0689 13.7931 22.1982 14.0517 22.4137 14.3534C22.543 14.569 22.7154 14.7845 22.974 15C22.7154 15.2155 22.5861 15.431 22.4137 15.6466Z" fill="white"/>
<defs>
<linearGradient id="paint0_linear_2378_15990" x1="0.00758621" y1="14.9961" x2="30.0078" y2="14.9961" gradientUnits="userSpaceOnUse">
<stop stop-color="#BFEF56"/>
<stop offset="1" stop-color="#9BDC1E"/>
</linearGradient>
<linearGradient id="paint1_linear_2378_15990" x1="1.73171" y1="14.9961" x2="28.2837" y2="14.9961" gradientUnits="userSpaceOnUse">
<stop stop-color="#BFEF56"/>
<stop offset="1" stop-color="#9BDC1E"/>
</linearGradient>
<linearGradient id="paint2_linear_2378_15990" x1="2.59381" y1="14.9958" x2="27.4214" y2="14.9958" gradientUnits="userSpaceOnUse">
<stop stop-color="#BFEF56"/>
<stop offset="1" stop-color="#9BDC1E"/>
</linearGradient>
</defs>
</svg>
