<svg width="30" height="30" viewBox="0 0 30 30" fill="none" xmlns="http://www.w3.org/2000/svg">
<path opacity="0.5" d="M15 30C6.72414 30 0 23.2759 0 15C0 6.72413 6.72414 0 15 0C23.2759 0 30 6.72413 30 15C30 23.2759 23.2759 30 15 30Z" fill="url(#paint0_linear_2378_16004)"/>
<path opacity="0.5" d="M15 28.2758C7.6724 28.2758 1.72412 22.3276 1.72412 15C1.72412 7.67239 7.6724 1.72412 15 1.72412C22.3276 1.72412 28.2758 7.67239 28.2758 15C28.2758 22.3276 22.3276 28.2758 15 28.2758Z" fill="url(#paint1_linear_2378_16004)"/>
<path opacity="0.5" d="M15 27.414C21.8559 27.414 27.4138 21.8562 27.4138 15.0002C27.4138 8.14427 21.8559 2.58643 15 2.58643C8.14403 2.58643 2.58618 8.14427 2.58618 15.0002C2.58618 21.8562 8.14403 27.414 15 27.414Z" fill="url(#paint2_linear_2378_16004)"/>
<path d="M22.6724 16.3364C22.5431 15.9053 22.4138 15.4312 21.8534 15.0001L21.8103 14.957L21.8534 14.9139C22.4138 14.4829 22.5431 14.0519 22.6724 13.5777C22.7586 13.1898 22.8879 12.845 23.2327 12.5001C23.2758 12.4139 23.3189 12.3277 23.2758 12.2415C23.2327 12.1553 23.1896 12.1122 23.1034 12.0691C22.5862 11.9829 22.3276 11.7674 22.0258 11.5088C21.681 11.207 21.2931 10.9484 20.6034 10.9053C20.5603 10.9053 20.5603 10.9053 20.5172 10.9053C20.5172 10.9053 20.5172 10.8622 20.5603 10.8622C20.7758 10.2157 20.6034 9.74151 20.431 9.31048C20.3017 8.96565 20.1724 8.62083 20.2586 8.10359C20.2586 8.01738 20.2155 7.93117 20.1724 7.88807C20.0862 7.84497 20 7.84496 19.9138 7.84496C19.4396 8.06048 19.0948 8.06048 18.7069 8.01737C18.2327 8.01737 17.7586 7.97428 17.1982 8.36221L17.1551 8.40532C17.1551 8.36221 17.1551 8.36221 17.1551 8.36221C16.9396 7.71566 16.5517 7.45703 16.1638 7.19841C15.862 6.98289 15.5603 6.76738 15.3017 6.33634C15.2155 6.16393 14.9569 6.16393 14.8707 6.33634C14.612 6.76738 14.3103 6.98289 14.0086 7.19841C13.6207 7.45703 13.2327 7.71566 13.0172 8.36221C13.0172 8.40531 13.0172 8.40532 13.0172 8.40532L12.9741 8.36221C12.4138 7.97428 11.9396 7.97427 11.4655 8.01737C11.0776 8.01737 10.7327 8.06048 10.2586 7.84496C10.1724 7.80186 10.0862 7.80186 9.99996 7.88807C9.91376 7.93117 9.87065 8.01738 9.91376 8.10359C9.99996 8.62083 9.87066 8.92255 9.74135 9.31048C9.56893 9.74151 9.39652 10.1726 9.61203 10.8622C9.61203 10.9053 9.61203 10.9053 9.65513 10.9053C9.61203 10.9053 9.61203 10.9053 9.56893 10.9053C8.87927 10.9053 8.49134 11.207 8.14651 11.5088C7.84479 11.7243 7.54306 11.9829 7.06893 12.0691C6.98272 12.0691 6.89652 12.1553 6.89652 12.2415C6.85341 12.3277 6.89652 12.4139 6.93962 12.5001C7.28445 12.8881 7.37065 13.2329 7.49996 13.5777C7.62927 14.0088 7.75859 14.4829 8.31893 14.9139L8.36203 14.957L8.31893 15.0001C7.75859 15.4312 7.62927 15.8622 7.49996 16.3364C7.41375 16.7243 7.28445 17.0691 6.93962 17.4139C6.89652 17.5001 6.85341 17.5864 6.89652 17.6726C6.93962 17.7588 6.98272 17.8019 7.06893 17.845C7.58617 17.9312 7.84479 18.1467 8.14651 18.4053C8.49134 18.707 8.87927 18.9657 9.56893 19.0088H9.61203C9.61203 19.0088 9.61203 19.0519 9.56893 19.0519C9.35341 19.6984 9.52583 20.1726 9.69824 20.6036C9.82755 20.9484 9.95686 21.2932 9.87065 21.8105C9.87065 21.8967 9.91376 21.9829 9.95686 22.026C9.99997 22.0691 10.0431 22.0691 10.0862 22.0691C10.1293 22.0691 10.1724 22.0691 10.1724 22.026C10.6465 21.8105 10.9913 21.8105 11.3793 21.8536C11.8534 21.8536 12.3275 21.8967 12.8879 21.5088L12.931 21.4657C12.931 21.5088 12.931 21.5088 12.931 21.5088C13.1465 22.1553 13.5344 22.4139 13.9224 22.6726C14.2241 22.8881 14.5258 23.1036 14.7844 23.5346C14.8276 23.6208 14.9138 23.6639 15 23.6639C15.0862 23.6639 15.1724 23.6208 15.2155 23.5346C15.4741 23.1036 15.7758 22.8881 16.0776 22.6726C16.4655 22.4139 16.8534 22.1553 17.0689 21.5088C17.0689 21.4657 17.0689 21.4657 17.0689 21.4657L17.112 21.5088C17.6724 21.8967 18.1465 21.8967 18.6207 21.8536C19.0086 21.8536 19.3534 21.8105 19.8275 22.026C19.8707 22.026 19.9138 22.0691 19.9138 22.0691C19.9569 22.0691 20 22.0691 20.0431 22.026C20.1293 21.9829 20.1724 21.8967 20.1293 21.8105C20.0431 21.2932 20.1724 20.9915 20.3017 20.6036C20.4741 20.1726 20.6465 19.7415 20.431 19.0519C20.431 19.0088 20.431 19.0088 20.3879 19.0088H20.431C21.1206 19.0088 21.5086 18.707 21.8534 18.4053C22.1551 18.1898 22.4569 17.9312 22.931 17.845C23.0172 17.845 23.1034 17.7588 23.1034 17.6726C23.1465 17.5864 23.1034 17.5001 23.0603 17.4139C22.8448 17.0691 22.7586 16.7243 22.6724 16.3364ZM20.5603 11.5088C21.0776 11.5088 21.3362 11.7243 21.681 11.9829C21.9396 12.1984 22.1982 12.3708 22.5862 12.5432C22.3706 12.8881 22.2413 13.2329 22.1551 13.5346C22.0258 13.9657 21.9396 14.2674 21.5086 14.6122C21.3793 14.6984 21.25 14.7415 21.1207 14.7846C20.862 14.7415 20.6465 14.7415 20.4741 14.7415C20.431 13.7501 20.0862 12.8019 19.5689 11.9829C19.6982 11.8967 19.9138 11.7674 20.0431 11.595C20.2586 11.5088 20.431 11.5088 20.5603 11.5088ZM15.3879 20.0433L19.0948 12.0691C19.6982 12.8881 20.0431 13.9226 20.0431 15.0001C20.0862 17.6295 18.0172 19.8277 15.3879 20.0433ZM9.95686 15.0001C9.95686 13.8795 10.3017 12.8881 10.9051 12.0691L14.612 20.0433C11.9827 19.8277 9.95686 17.6295 9.95686 15.0001ZM15 9.91394C16.3362 9.91394 17.5862 10.4312 18.4913 11.2932H11.5517C12.4569 10.4743 13.6638 9.91394 15 9.91394ZM18.6638 11.8105L15 19.6984L11.3362 11.8105H18.6638ZM17.4569 8.87944C17.8879 8.57772 18.2327 8.57773 18.6638 8.62083C18.9655 8.62083 19.3103 8.66393 19.7413 8.53462C19.7413 8.96566 19.8706 9.26738 20 9.5691C20.1293 9.95703 20.2586 10.3019 20.1293 10.776C20.0862 10.9053 20 11.0346 19.9138 11.1639C19.6982 11.2501 19.5258 11.3794 19.3965 11.5088C19.3965 11.4657 19.3534 11.4657 19.3534 11.4226C18.75 10.6898 17.9741 10.1726 17.0689 9.82773C17.1551 9.65531 17.1982 9.4829 17.2413 9.22428C17.2413 9.09497 17.3275 8.96565 17.4569 8.87944ZM13.4051 8.62083C13.5776 8.10359 13.8362 7.93117 14.2241 7.67255C14.4827 7.50014 14.7844 7.32772 15.0431 6.98289C15.3017 7.32772 15.6034 7.50014 15.862 7.67255C16.2069 7.93117 16.5086 8.10359 16.681 8.62083C16.7241 8.75014 16.7241 8.87945 16.7241 9.05187C16.5948 9.26739 16.5517 9.4829 16.5086 9.65531C16.0344 9.526 15.5603 9.4398 15.0862 9.4398C14.5689 9.4398 14.0948 9.526 13.6638 9.65531C13.6207 9.4829 13.5775 9.26739 13.4482 9.05187C13.3189 8.92256 13.362 8.75014 13.4051 8.62083ZM9.95686 10.776C9.78445 10.2588 9.91375 9.95703 10.0862 9.5691C10.2155 9.26738 10.3017 8.96566 10.3448 8.53462C10.7327 8.66393 11.0775 8.62083 11.4224 8.62083C11.8534 8.62083 12.1982 8.57772 12.6293 8.87944C12.7586 8.96565 12.8448 9.09497 12.931 9.18117C12.9741 9.43979 13.0172 9.61221 13.1034 9.78462C12.1982 10.1294 11.4224 10.6898 10.8189 11.3795C10.8189 11.4226 10.7758 11.4225 10.7758 11.4657C10.6465 11.3363 10.4741 11.207 10.2586 11.1208C10.0862 11.0777 9.99997 10.9484 9.95686 10.776ZM8.44824 14.5691C8.01721 14.2674 7.931 13.9226 7.80169 13.4915C7.71548 13.1898 7.62928 12.845 7.37066 12.5001C7.75859 12.3708 8.0172 12.1553 8.27582 11.9398C8.62065 11.6812 8.87928 11.4657 9.39652 11.4657C9.52583 11.4657 9.65513 11.5088 9.78445 11.5519C9.95686 11.7243 10.1293 11.8536 10.2586 11.9398C9.74134 12.7157 9.43962 13.6639 9.35341 14.6984C9.181 14.6984 8.96548 14.6984 8.70686 14.7415C8.70686 14.6984 8.57755 14.6553 8.44824 14.5691ZM9.48272 18.4915C8.92238 18.4915 8.66376 18.276 8.31893 18.0174C8.06031 17.8019 7.80169 17.6295 7.41376 17.457C7.62927 17.1122 7.75858 16.7674 7.84479 16.4657C7.9741 16.0346 8.06031 15.7329 8.49134 15.3881C8.62065 15.3019 8.74997 15.2588 8.87928 15.2157C9.00859 15.2588 9.181 15.2588 9.31031 15.2588C9.39652 15.2588 9.43962 15.2588 9.52583 15.2588C9.56893 16.2501 9.91376 17.1984 10.431 18.0174C10.3017 18.1036 10.0862 18.2329 9.95686 18.4053C9.74135 18.4484 9.61203 18.4915 9.48272 18.4915ZM12.5862 21.0777C12.1551 21.3795 11.8103 21.3795 11.3793 21.3364C11.0775 21.3364 10.7327 21.2932 10.3017 21.4226C10.3017 20.9915 10.1724 20.6898 10.0431 20.3881C9.91376 20.0001 9.78445 19.6553 9.91376 19.1812C9.95686 19.0519 10.0431 18.9226 10.1293 18.7932C10.3448 18.707 10.5172 18.5777 10.6465 18.4484C11.25 19.2243 12.0689 19.7846 12.9741 20.1295C12.8879 20.3019 12.8448 20.4743 12.8017 20.7329C12.8017 20.9053 12.7155 20.9915 12.5862 21.0777ZM16.6379 21.3364C16.4655 21.8536 16.2069 22.026 15.8189 22.2846C15.5603 22.457 15.2586 22.6295 15 22.9743C14.7413 22.6295 14.4396 22.457 14.181 22.2846C13.8362 22.026 13.5344 21.8536 13.362 21.3364C13.3189 21.207 13.3189 21.0777 13.3189 20.9053C13.4482 20.6898 13.4913 20.4743 13.5344 20.3019C14.0086 20.4312 14.4827 20.5174 14.9569 20.5174C15.4741 20.5174 15.9482 20.4312 16.3793 20.3019C16.4224 20.4743 16.4655 20.6898 16.5948 20.9053C16.681 21.0777 16.681 21.207 16.6379 21.3364ZM20.0431 19.1812C20.2155 19.6984 20.0862 20.0001 19.9138 20.3881C19.7845 20.6898 19.6982 20.9915 19.6551 21.4226C19.2672 21.2932 18.9224 21.3364 18.5776 21.3364C18.1465 21.3364 17.8017 21.3795 17.3707 21.0777C17.2413 20.9915 17.1551 20.8622 17.0689 20.776C17.0258 20.5174 16.9827 20.345 16.8965 20.1726C17.8017 19.8277 18.6207 19.2243 19.2241 18.4915C19.3534 18.6208 19.5258 18.707 19.7413 18.8363C19.9138 18.9226 20 19.0519 20.0431 19.1812ZM21.681 18.0174C21.3362 18.276 21.0776 18.4915 20.5603 18.4915C20.431 18.4915 20.2586 18.4484 20.1293 18.4053C19.9569 18.2329 19.7844 18.1036 19.6551 18.0174C20.1724 17.2415 20.4741 16.2932 20.5603 15.2588C20.6034 15.2588 20.6896 15.2588 20.7758 15.2588C20.9051 15.2588 21.0345 15.2588 21.2069 15.2157C21.3362 15.2588 21.4655 15.3019 21.5948 15.3881C22.0258 15.6898 22.112 16.0346 22.2413 16.4657C22.3276 16.7674 22.4138 17.1122 22.6724 17.457C22.1982 17.5864 21.9396 17.8019 21.681 18.0174Z" fill="white"/>
<defs>
<linearGradient id="paint0_linear_2378_16004" x1="0.00758621" y1="14.9961" x2="30.0078" y2="14.9961" gradientUnits="userSpaceOnUse">
<stop stop-color="#FFE36A"/>
<stop offset="1" stop-color="#FFDC46"/>
</linearGradient>
<linearGradient id="paint1_linear_2378_16004" x1="1.73171" y1="14.9961" x2="28.2837" y2="14.9961" gradientUnits="userSpaceOnUse">
<stop stop-color="#FFE36A"/>
<stop offset="1" stop-color="#FFDC46"/>
</linearGradient>
<linearGradient id="paint2_linear_2378_16004" x1="2.59381" y1="14.9963" x2="27.4214" y2="14.9963" gradientUnits="userSpaceOnUse">
<stop stop-color="#FFE36A"/>
<stop offset="1" stop-color="#FFDC46"/>
</linearGradient>
</defs>
</svg>
