<svg width="30" height="30" viewBox="0 0 30 30" fill="none" xmlns="http://www.w3.org/2000/svg">
<path opacity="0.5" d="M15 30C6.72414 30 0 23.2759 0 15C0 6.72414 6.72414 0 15 0C23.2759 0 30 6.72414 30 15C30 23.2759 23.2759 30 15 30Z" fill="url(#paint0_linear_2378_16011)"/>
<path opacity="0.5" d="M15 28.2758C7.6724 28.2758 1.72412 22.3276 1.72412 15C1.72412 7.6724 7.6724 1.72412 15 1.72412C22.3276 1.72412 28.2758 7.6724 28.2758 15C28.2758 22.3276 22.3276 28.2758 15 28.2758Z" fill="url(#paint1_linear_2378_16011)"/>
<path opacity="0.5" d="M15 27.4135C21.8559 27.4135 27.4138 21.8557 27.4138 14.9997C27.4138 8.14379 21.8559 2.58594 15 2.58594C8.14403 2.58594 2.58618 8.14379 2.58618 14.9997C2.58618 21.8557 8.14403 27.4135 15 27.4135Z" fill="url(#paint2_linear_2378_16011)"/>
<path d="M23.5774 14.7843C22.7585 14.1808 22.4998 13.448 22.2843 12.7153C22.0257 11.8963 21.724 11.0342 20.6464 10.5601C20.2585 10.3877 19.8705 10.3446 19.5688 10.4308C19.6119 10.1291 19.6119 9.78425 19.4395 9.35322C18.9654 8.27563 18.1033 7.9739 17.2843 7.71528C16.5516 7.45666 15.8188 7.24114 15.2154 6.42218C15.1291 6.29287 14.9136 6.29287 14.8274 6.42218C14.224 7.24114 13.4912 7.49976 12.7585 7.71528C11.9395 7.9739 11.0774 8.27563 10.6033 9.35322C10.4309 9.74115 10.3878 10.1291 10.474 10.4308C10.1723 10.3877 9.82743 10.3877 9.39639 10.5601C8.31881 11.0342 8.01708 11.8963 7.75846 12.7153C7.49984 13.448 7.28432 14.1808 6.46536 14.7843C6.37915 14.8274 6.37915 14.9136 6.37915 14.9998C6.37915 15.086 6.42225 15.1722 6.46536 15.2153C7.28432 15.8187 7.54294 16.5515 7.75846 17.2843C8.01708 18.1032 8.31881 18.9653 9.39639 19.4394C9.65501 19.5687 9.91363 19.6118 10.1723 19.6118C10.2585 19.6118 10.3878 19.6118 10.474 19.5687C10.4309 19.8705 10.4309 20.2153 10.6033 20.6463C11.0774 21.7239 11.9395 22.0256 12.7585 22.2843C13.4912 22.5429 14.224 22.7584 14.8274 23.5774C14.8705 23.6636 14.9567 23.6636 15.0429 23.6636C15.1291 23.6636 15.2154 23.6205 15.2585 23.5774C15.8619 22.7584 16.5947 22.4998 17.3274 22.2843C18.1464 22.0256 19.0085 21.7239 19.4826 20.6463C19.655 20.2584 19.6981 19.8705 19.6119 19.5687C19.6981 19.5687 19.8274 19.6118 19.9136 19.6118C20.1292 19.6118 20.3878 19.5687 20.6895 19.4394C21.7671 18.9653 22.0688 18.1032 22.3274 17.2843C22.586 16.5515 22.8016 15.8187 23.6205 15.2153C23.7067 15.1722 23.7067 15.086 23.7067 14.9998C23.7067 14.9136 23.6636 14.8274 23.5774 14.7843ZM11.0343 9.56874C11.4223 8.70667 12.1119 8.44804 12.8878 8.18942C13.5774 7.9739 14.3533 7.71529 14.9998 6.93942C15.6464 7.67218 16.4223 7.9308 17.1119 8.18942C17.8878 8.44804 18.5774 8.66357 18.9654 9.56874C19.1809 10.086 19.0947 10.4308 18.9222 10.6894C18.8791 10.7325 18.836 10.7325 18.7929 10.7756C18.3619 9.87046 16.8533 9.18081 14.9567 9.18081C13.0602 9.18081 11.5516 9.82735 11.1205 10.7756C11.0774 10.7325 11.0343 10.6894 10.9912 10.6894C10.905 10.4308 10.8188 10.0429 11.0343 9.56874ZM18.4481 18.448H15.3878L18.4481 12.3274V18.448ZM11.5516 12.3274L14.6119 18.448H11.5516V12.3274ZM11.724 11.5515H18.3188L14.9998 18.1463L11.724 11.5515ZM11.5947 11.0343C11.8533 10.2584 13.3188 9.69804 14.9998 9.69804C16.6809 9.69804 18.1464 10.3015 18.405 11.0343H11.5947ZM11.0774 11.5946V18.4049C10.3016 18.1463 9.74122 16.6808 9.74122 14.9998C9.69812 13.3187 10.3016 11.8532 11.0774 11.5946ZM18.405 18.9222C18.1464 19.698 16.6809 20.2584 14.9998 20.2584C13.3188 20.2584 11.8533 19.6549 11.5947 18.9222H18.405ZM18.9654 18.4049V11.5946C19.7412 11.8532 20.3016 13.3187 20.3016 14.9998C20.3016 16.6808 19.6981 18.1463 18.9654 18.4049ZM9.5688 18.9653C8.70673 18.5774 8.44811 17.8877 8.18949 17.1118C7.97398 16.4222 7.71536 15.6463 6.9395 14.9998C7.67226 14.3532 7.93087 13.5774 8.18949 12.8877C8.44811 12.1118 8.66363 11.4222 9.5688 11.0343C10.086 10.8187 10.4309 10.9049 10.6895 11.0774C10.7326 11.1205 10.7326 11.1636 10.7757 11.2067C9.87053 11.6377 9.18087 13.1463 9.18087 15.0429C9.18087 16.9394 9.82742 18.448 10.7757 18.8791C10.7326 18.9222 10.7326 18.9653 10.6895 19.0084C10.4309 19.0946 10.0429 19.1808 9.5688 18.9653ZM19.0085 20.4308C18.6205 21.2929 17.9309 21.5515 17.155 21.8101C16.4654 22.0256 15.6895 22.2842 15.0429 23.0601C14.3964 22.3274 13.6205 22.0687 12.9309 21.8101C12.155 21.5515 11.4654 21.336 11.0774 20.4308C10.8619 19.9136 10.9481 19.5687 11.1205 19.3101C11.1636 19.267 11.2067 19.267 11.2498 19.2239C11.6809 20.1291 13.1895 20.8187 15.086 20.8187C16.9826 20.8187 18.4912 20.1722 18.9222 19.2239C18.9654 19.267 19.0085 19.267 19.0516 19.3101C19.1378 19.5687 19.224 19.9567 19.0085 20.4308ZM21.8102 17.1118C21.5516 17.8877 21.336 18.5774 20.4309 18.9653C19.9136 19.1808 19.5688 19.0946 19.3102 18.9222C19.2671 18.8791 19.2671 18.836 19.224 18.7929C20.1292 18.3618 20.8188 16.8532 20.8188 14.9567C20.8188 13.0601 20.1723 11.5515 19.224 11.1205C19.2671 11.0774 19.2671 11.0342 19.3102 10.9911C19.5688 10.8187 19.9567 10.7325 20.4309 10.948C21.2929 11.336 21.5516 12.0256 21.8102 12.8015C22.0257 13.4912 22.2843 14.267 23.0602 14.9136C22.2843 15.6463 22.0688 16.4222 21.8102 17.1118Z" fill="white"/>
<defs>
<linearGradient id="paint0_linear_2378_16011" x1="0.00758621" y1="14.9961" x2="30.0078" y2="14.9961" gradientUnits="userSpaceOnUse">
<stop stop-color="#F48599"/>
<stop offset="1" stop-color="#F4627D"/>
</linearGradient>
<linearGradient id="paint1_linear_2378_16011" x1="1.73171" y1="14.9961" x2="28.2837" y2="14.9961" gradientUnits="userSpaceOnUse">
<stop stop-color="#F48599"/>
<stop offset="1" stop-color="#F4627D"/>
</linearGradient>
<linearGradient id="paint2_linear_2378_16011" x1="2.59381" y1="14.9958" x2="27.4214" y2="14.9958" gradientUnits="userSpaceOnUse">
<stop stop-color="#F48599"/>
<stop offset="1" stop-color="#F4627D"/>
</linearGradient>
</defs>
</svg>
