<svg width="30" height="30" viewBox="0 0 30 30" fill="none" xmlns="http://www.w3.org/2000/svg">
<path opacity="0.5" d="M15 30C23.2843 30 30 23.2843 30 15C30 6.71573 23.2843 0 15 0C6.71573 0 0 6.71573 0 15C0 23.2843 6.71573 30 15 30Z" fill="url(#paint0_linear_2378_15983)"/>
<path opacity="0.5" d="M15 28.2758C7.6724 28.2758 1.72412 22.3276 1.72412 15C1.72412 7.67239 7.6724 1.72412 15 1.72412C22.3276 1.72412 28.2758 7.67239 28.2758 15C28.2758 22.3276 22.3276 28.2758 15 28.2758Z" fill="url(#paint1_linear_2378_15983)"/>
<path opacity="0.5" d="M15 27.414C21.8559 27.414 27.4138 21.8562 27.4138 15.0002C27.4138 8.14427 21.8559 2.58643 15 2.58643C8.14403 2.58643 2.58618 8.14427 2.58618 15.0002C2.58618 21.8562 8.14403 27.414 15 27.414Z" fill="url(#paint2_linear_2378_15983)"/>
<path d="M24.9137 14.7844C23.1895 13.8361 22.6292 12.6292 22.155 11.4224C21.5947 10.1292 21.0343 8.74993 18.9223 8.06028C16.8533 7.37062 15.5171 8.62063 15.043 9.22407C14.5688 8.62063 13.2326 7.37062 11.1637 8.06028C9.05159 8.74993 8.44814 10.1292 7.9309 11.4224C7.41366 12.6292 6.89642 13.8792 5.17228 14.7844C5.08607 14.8275 5.04297 14.9137 5.04297 14.9999C5.04297 15.0861 5.08607 15.1723 5.17228 15.2155C6.89642 16.1637 7.45676 17.3706 7.9309 18.5775C8.49124 19.8706 9.05159 21.2499 11.1637 21.9396C11.5947 22.0689 11.9826 22.1551 12.3275 22.1551C13.7499 22.1551 14.655 21.2499 15.043 20.7758C15.4309 21.2499 16.3361 22.1551 17.7585 22.1551C18.1033 22.1551 18.4912 22.112 18.9223 21.9396C21.0343 21.2499 21.6378 19.8706 22.155 18.5775C22.6723 17.3706 23.1895 16.1206 24.9137 15.2155C24.9999 15.1723 25.043 15.0861 25.043 14.9999C25.043 14.9137 24.9999 14.8275 24.9137 14.7844ZM14.9999 9.87063C16.8102 9.87063 18.4481 10.8189 19.3533 12.2844H10.6895C11.5947 10.8189 13.1895 9.87063 14.9999 9.87063ZM11.293 21.5086C9.39642 20.862 8.87917 19.7413 8.36193 18.4051C7.88779 17.2844 7.32745 15.9913 5.73263 14.9999C7.32745 14.0086 7.88779 12.7155 8.36193 11.5948C8.92228 10.2586 9.39642 9.13787 11.293 8.49131C12.974 7.93097 14.0516 8.83614 14.5257 9.39649C11.6378 9.65511 9.35331 12.0689 9.35331 14.9999C9.35331 17.931 11.6378 20.3448 14.5257 20.6034C14.0516 21.1637 12.974 22.0689 11.293 21.5086ZM9.87055 14.9999C9.87055 14.2672 10.043 13.5344 10.3447 12.8879L14.5688 20.0861C11.9395 19.8706 9.87055 17.6723 9.87055 14.9999ZM14.9568 19.8275L10.8188 12.7586H19.1809L14.9568 19.8275ZM19.6981 12.8879C19.9999 13.5344 20.1723 14.2241 20.1723 14.9999C20.1723 17.7155 18.0602 19.9568 15.3878 20.1292L19.6981 12.8879ZM21.6809 18.4051C21.1206 19.7413 20.6464 20.862 18.7499 21.5086C17.0688 22.0689 15.9912 21.1637 15.5171 20.6034C18.405 20.3448 20.6895 17.931 20.6895 14.9999C20.6895 12.0689 18.405 9.65511 15.5602 9.39649C16.0344 8.87924 17.155 7.97407 18.793 8.49131C20.6895 9.13787 21.2068 10.2586 21.724 11.5948C22.1981 12.7155 22.7585 14.0086 24.3533 14.9999C22.7154 15.9913 22.155 17.2844 21.6809 18.4051Z" fill="white"/>
<defs>
<linearGradient id="paint0_linear_2378_15983" x1="0.00758621" y1="14.9962" x2="30.0078" y2="14.9962" gradientUnits="userSpaceOnUse">
<stop stop-color="#BE9DEB"/>
<stop offset="1" stop-color="#AB7BEB"/>
</linearGradient>
<linearGradient id="paint1_linear_2378_15983" x1="1.73171" y1="14.9961" x2="28.2837" y2="14.9961" gradientUnits="userSpaceOnUse">
<stop stop-color="#BE9DEB"/>
<stop offset="1" stop-color="#AB7BEB"/>
</linearGradient>
<linearGradient id="paint2_linear_2378_15983" x1="2.59381" y1="14.9963" x2="27.4214" y2="14.9963" gradientUnits="userSpaceOnUse">
<stop stop-color="#BE9DEB"/>
<stop offset="1" stop-color="#AB7BEB"/>
</linearGradient>
</defs>
</svg>
