<svg width="30" height="30" viewBox="0 0 30 30" fill="none" xmlns="http://www.w3.org/2000/svg">
<path opacity="0.5" d="M15 30C6.72414 30 0 23.2759 0 15C0 6.72414 6.72414 0 15 0C23.2759 0 30 6.72414 30 15C30 23.2759 23.2759 30 15 30Z" fill="url(#paint0_linear_2378_16025)"/>
<path opacity="0.5" d="M15 28.2763C7.6724 28.2763 1.72412 22.3281 1.72412 15.0005C1.72412 7.67289 7.6724 1.72461 15 1.72461C22.3276 1.72461 28.2758 7.67289 28.2758 15.0005C28.2758 22.3281 22.3276 28.2763 15 28.2763Z" fill="url(#paint1_linear_2378_16025)"/>
<path opacity="0.5" d="M15 27.4135C21.8559 27.4135 27.4138 21.8557 27.4138 14.9997C27.4138 8.14379 21.8559 2.58594 15 2.58594C8.14403 2.58594 2.58618 8.14379 2.58618 14.9997C2.58618 21.8557 8.14403 27.4135 15 27.4135Z" fill="url(#paint2_linear_2378_16025)"/>
<path d="M22.2414 15.388C22.1121 15.1724 21.9397 15.0431 21.7673 14.9569C21.9397 14.8707 22.069 14.7414 22.2414 14.5259C22.7587 13.7931 22.6294 13.1466 22.5 12.5431C22.3707 11.9828 22.2845 11.4655 22.5431 10.819C22.5862 10.7328 22.5862 10.6466 22.5431 10.6035C22.5 10.5173 22.4138 10.4742 22.3707 10.4742C21.6811 10.388 21.2931 10.0431 20.8621 9.65521C20.388 9.22418 19.8707 8.79313 19.0087 8.87934C18.75 8.92244 18.5776 8.96555 18.4052 9.05175C18.4052 8.87934 18.3621 8.66382 18.2759 8.44831C17.9311 7.62934 17.2845 7.45693 16.6811 7.24142C16.1638 7.069 15.6466 6.89659 15.2156 6.33624C15.1294 6.20693 14.9138 6.20693 14.8276 6.33624C14.4397 6.89659 13.9225 7.069 13.3621 7.24142C12.7587 7.45693 12.1121 7.62934 11.7673 8.44831C11.6811 8.66382 11.638 8.87934 11.638 9.05175C11.4656 8.96555 11.2932 8.87934 11.0345 8.87934C10.1725 8.79313 9.65522 9.22418 9.18108 9.65521C8.75005 10.0431 8.36211 10.388 7.67246 10.4742C7.58625 10.4742 7.54315 10.5173 7.50004 10.6035C7.45694 10.6897 7.45694 10.7759 7.50004 10.819C7.80177 11.4655 7.67246 11.9828 7.54315 12.5431C7.41384 13.1897 7.28453 13.8362 7.80177 14.5259C7.93108 14.7414 8.10349 14.8707 8.27591 14.9569C8.10349 15.0431 7.97418 15.1724 7.80177 15.388C7.28453 16.1207 7.41384 16.7673 7.54315 17.3707C7.67246 17.9311 7.75866 18.4483 7.50004 19.0949C7.45694 19.1811 7.45694 19.2673 7.50004 19.3104C7.54315 19.3966 7.62936 19.4397 7.67246 19.4397C8.36211 19.5259 8.75005 19.8707 9.18108 20.2586C9.61211 20.6466 10.0863 21.0345 10.819 21.0345C10.9052 21.0345 10.9483 21.0345 11.0345 21.0345C11.2932 20.9914 11.4656 20.9483 11.638 20.8621C11.638 21.0345 11.6811 21.25 11.7673 21.4656C12.1121 22.2845 12.7587 22.4569 13.3621 22.6724C13.8794 22.8449 14.3966 23.0173 14.8276 23.5776C14.8707 23.6638 14.9569 23.6638 15.0431 23.6638C15.1294 23.6638 15.2156 23.6207 15.2587 23.5776C15.6466 23.0173 16.1638 22.8449 16.7242 22.6724C17.3276 22.4569 17.9742 22.2845 18.319 21.4656C18.4052 21.25 18.4483 21.0345 18.4483 20.8621C18.6207 20.9483 18.7932 21.0345 19.0518 21.0345C19.138 21.0345 19.2242 21.0345 19.2673 21.0345C20 21.0345 20.4742 20.6466 20.9052 20.2586C21.3363 19.8707 21.7242 19.5259 22.4138 19.4397C22.5 19.4397 22.5431 19.3966 22.5862 19.3104C22.6294 19.2242 22.6294 19.138 22.5862 19.0949C22.2845 18.4483 22.4138 17.9311 22.5431 17.3707C22.6293 16.7673 22.7587 16.1207 22.2414 15.388ZM20.4311 15C20.4311 18.0173 17.9742 20.4311 15 20.4311C12.0259 20.4311 9.56901 17.9742 9.56901 15C9.56901 15 9.56901 15 9.56901 14.9569C10.4742 17.069 12.6294 18.5345 15 18.5345C17.3707 18.5345 19.5259 17.069 20.4311 15ZM15 9.569C17.5863 9.569 19.7414 11.3793 20.3018 13.7931C19.7414 16.25 17.5431 18.0173 15 18.0173C12.4569 18.0173 10.2587 16.25 9.69832 13.7931C10.2587 11.3793 12.4138 9.569 15 9.569ZM19.0087 9.43969C19.6552 9.35349 20.0431 9.69831 20.4742 10.0862C20.8621 10.4311 21.2931 10.819 21.9397 10.9483C21.7242 11.5949 21.8535 12.1552 21.9397 12.6725C22.069 13.2759 22.1552 13.75 21.7673 14.2673C21.4656 14.6983 21.0345 14.6552 20.8621 14.569C20.8621 14.2673 20.819 14.0087 20.7328 13.7069C20.388 12.1983 19.4828 10.8621 18.2328 10.0431C18.3621 9.87073 18.4914 9.4828 19.0087 9.43969ZM12.1983 8.75004C12.4569 8.14659 12.9311 7.97417 13.4914 7.80175C13.9656 7.62934 14.5259 7.45693 15 6.93969C15.4742 7.45693 15.9914 7.62934 16.5087 7.80175C17.069 7.97417 17.5431 8.14659 17.8018 8.75004C18.0173 9.26728 17.7587 9.56899 17.6294 9.6983C16.8535 9.31037 15.9483 9.09486 15 9.09486C14.0518 9.09486 13.1897 9.31037 12.3707 9.6983C12.2414 9.52589 11.9828 9.22417 12.1983 8.75004ZM8.01729 12.6725C8.1035 12.1552 8.23281 11.5949 8.01729 10.9483C8.66384 10.819 9.09487 10.4311 9.4828 10.0862C9.95694 9.69831 10.3018 9.35349 10.9483 9.43969C11.4656 9.4828 11.638 9.87073 11.6811 10.0862C10.4311 10.9483 9.52591 12.2414 9.18108 13.75C9.13798 14.0087 9.09487 14.3104 9.05177 14.6121C8.87935 14.6552 8.44832 14.7414 8.14659 14.3104C7.80177 13.75 7.88798 13.2759 8.01729 12.6725ZM10.9914 20.5604C10.3449 20.6466 9.95694 20.3018 9.52591 19.9138C9.13798 19.569 8.70694 19.1811 8.06039 19.0518C8.27591 18.4052 8.14659 17.8449 8.06039 17.3276C7.93108 16.7242 7.84487 16.25 8.23281 15.7328C8.53453 15.3018 8.96556 15.3449 9.13797 15.4311C9.26728 17.3276 10.2587 18.9656 11.7673 19.9569C11.6811 20.1293 11.5087 20.4742 10.9914 20.5604ZM17.8018 21.25C17.5431 21.8535 17.069 22.0259 16.5087 22.1983C16.0345 22.3707 15.4742 22.5431 15 23.0604C14.5259 22.5431 14.0087 22.3707 13.4914 22.1983C12.9311 22.0259 12.4569 21.8535 12.1983 21.25C11.9828 20.7328 12.2414 20.4311 12.3707 20.3018C13.1466 20.6897 14.0518 20.9052 15 20.9052C15.9483 20.9052 16.8104 20.6897 17.6294 20.3018C17.7587 20.4311 18.0173 20.7759 17.8018 21.25ZM21.9828 17.2845C21.8966 17.8018 21.7673 18.3621 21.9828 19.0087C21.3363 19.138 20.9052 19.5259 20.5173 19.8707C20.0863 20.2587 19.6983 20.6035 19.0518 20.5173C18.5345 20.4742 18.3621 20.0862 18.319 19.8707C19.7845 18.8793 20.819 17.2414 20.9483 15.3449C21.1207 15.3018 21.5518 15.2156 21.8535 15.6466C22.1983 16.25 22.1121 16.6811 21.9828 17.2845Z" fill="white"/>
<defs>
<linearGradient id="paint0_linear_2378_16025" x1="0.00758621" y1="14.9961" x2="30.0078" y2="14.9961" gradientUnits="userSpaceOnUse">
<stop stop-color="#FFB15E"/>
<stop offset="1" stop-color="#FF9F3A"/>
</linearGradient>
<linearGradient id="paint1_linear_2378_16025" x1="1.73171" y1="14.9965" x2="28.2837" y2="14.9965" gradientUnits="userSpaceOnUse">
<stop stop-color="#FFB15E"/>
<stop offset="1" stop-color="#FF9F3A"/>
</linearGradient>
<linearGradient id="paint2_linear_2378_16025" x1="2.59381" y1="14.9958" x2="27.4214" y2="14.9958" gradientUnits="userSpaceOnUse">
<stop stop-color="#FFB15E"/>
<stop offset="1" stop-color="#FF9F3A"/>
</linearGradient>
</defs>
</svg>
