<svg width="30" height="30" viewBox="0 0 30 30" fill="none" xmlns="http://www.w3.org/2000/svg">
<path opacity="0.5" d="M15 30C6.72414 30 0 23.2759 0 15C0 6.72414 6.72414 0 15 0C23.2759 0 30 6.72414 30 15C30 23.2759 23.2759 30 15 30Z" fill="url(#paint0_linear_2378_16018)"/>
<path opacity="0.5" d="M15 28.2758C7.6724 28.2758 1.72412 22.3276 1.72412 15C1.72412 7.6724 7.6724 1.72412 15 1.72412C22.3276 1.72412 28.2758 7.6724 28.2758 15C28.2758 22.3276 22.3276 28.2758 15 28.2758Z" fill="url(#paint1_linear_2378_16018)"/>
<path opacity="0.5" d="M15 27.414C21.8559 27.414 27.4138 21.8562 27.4138 15.0002C27.4138 8.14428 21.8559 2.58643 15 2.58643C8.14403 2.58643 2.58618 8.14428 2.58618 15.0002C2.58618 21.8562 8.14403 27.414 15 27.414Z" fill="url(#paint2_linear_2378_16018)"/>
<path d="M14.9961 6.85696C13.3864 6.85697 11.8128 7.33431 10.4744 8.22862C9.13592 9.12294 8.09274 10.3941 7.47672 11.8813C6.8607 13.3684 6.69953 15.0049 7.01357 16.5837C7.32761 18.1625 8.10277 19.6127 9.24101 20.751C9.99641 21.5084 10.8937 22.1095 11.8816 22.5199C12.8695 22.9303 13.9286 23.1419 14.9984 23.1426C16.0682 23.1434 17.1276 22.9332 18.116 22.5242C19.1045 22.1151 20.0026 21.5152 20.7591 20.7588C21.5155 20.0024 22.1154 19.1043 22.5244 18.1158C22.9335 17.1273 23.1436 16.0679 23.1429 14.9982C23.1422 13.9284 22.9305 12.8693 22.5202 11.8814C22.1098 10.8935 21.5087 9.9962 20.7512 9.2408C19.9972 8.48266 19.1003 7.8816 18.1124 7.47241C17.1246 7.06322 16.0654 6.85404 14.9961 6.85696ZM20.5163 20.5161C19.7916 21.2422 18.931 21.8185 17.9835 22.2118C17.036 22.6052 16.0203 22.8079 14.9944 22.8085C13.9685 22.809 12.9526 22.6073 12.0047 22.215C11.0567 21.8227 10.1955 21.2473 9.47005 20.5219C8.74464 19.7965 8.16931 18.9352 7.77697 17.9873C7.38463 17.0394 7.18297 16.0235 7.18351 14.9976C7.18406 13.9717 7.3868 12.956 7.78015 12.0085C8.17349 11.061 8.74973 10.2003 9.47591 9.4757C10.2006 8.74952 11.0612 8.17328 12.0087 7.77994C12.9562 7.38659 13.9719 7.18385 14.9978 7.18331C16.0237 7.18276 17.0396 7.38442 17.9876 7.77676C18.9355 8.1691 19.7967 8.74443 20.5222 9.46984C21.2476 10.1953 21.8229 11.0565 22.2152 12.0044C22.6076 12.9523 22.8092 13.9683 22.8087 14.9942C22.8081 16.0201 22.6054 17.0358 22.2121 17.9833C21.8187 18.9307 21.2425 19.7914 20.5163 20.5161Z" fill="white"/>
<path d="M15.0131 8.24268C11.2893 8.24268 8.25977 11.2723 8.25977 14.9959C8.25977 18.7195 11.2894 21.7492 15.0131 21.7492C18.7367 21.7492 21.7665 18.7197 21.7665 14.9959C21.7665 11.2721 18.7368 8.24268 15.0131 8.24268ZM18.3303 9.98042C18.348 9.99322 18.368 10.0024 18.3892 10.0075C18.4105 10.0125 18.4325 10.0134 18.454 10.0099C18.4756 10.0065 18.4962 9.99886 18.5148 9.98743C18.5334 9.97601 18.5495 9.96104 18.5623 9.94338L18.7055 9.74572C18.9553 9.92207 19.1922 10.1159 19.4145 10.3258L15.8566 13.8836C15.809 13.8505 15.7594 13.8201 15.7083 13.7928L17.5641 9.10397C17.8637 9.23414 18.1528 9.38703 18.429 9.56128L18.2933 9.74847C18.2675 9.78414 18.2569 9.82862 18.2638 9.87212C18.2707 9.91561 18.2947 9.95457 18.3303 9.98042ZM13.8634 15.1007C13.8634 14.8733 13.9308 14.6511 14.0571 14.462C14.1835 14.2729 14.363 14.1256 14.5731 14.0386C14.7832 13.9516 15.0143 13.9288 15.2374 13.9732C15.4604 14.0175 15.6652 14.1271 15.826 14.2878C15.9868 14.4486 16.0962 14.6535 16.1406 14.8765C16.1849 15.0995 16.1621 15.3307 16.0751 15.5408C15.988 15.7508 15.8407 15.9304 15.6516 16.0567C15.4625 16.183 15.2402 16.2503 15.0128 16.2503C14.7081 16.2499 14.4159 16.1287 14.2004 15.9132C13.985 15.6976 13.8638 15.4055 13.8634 15.1007ZM16.1103 9.08364C16.1315 9.08857 16.1536 9.08925 16.1751 9.08566C16.1966 9.08206 16.2172 9.07425 16.2357 9.06267C16.2542 9.05109 16.2702 9.03598 16.2829 9.0182C16.2955 9.00041 16.3045 8.98031 16.3094 8.95903L16.3648 8.71849C16.6678 8.78377 16.9656 8.87109 17.2559 8.97976L15.3996 13.6704C15.3163 13.6479 15.2313 13.6328 15.1454 13.6252V8.57624C15.4445 8.58242 15.7427 8.60941 16.038 8.65703L15.9856 8.88452C15.9807 8.90578 15.9801 8.92779 15.9837 8.94931C15.9873 8.97082 15.9951 8.99141 16.0067 9.0099C16.0183 9.02839 16.0334 9.04442 16.0512 9.05707C16.0689 9.06972 16.089 9.07875 16.1103 9.08364ZM13.5892 8.989C13.5926 9.01068 13.6002 9.03147 13.6117 9.05017C13.6232 9.06888 13.6382 9.08513 13.656 9.09798C13.6738 9.11083 13.694 9.12003 13.7153 9.12505C13.7367 9.13007 13.7588 9.13081 13.7805 9.12722C13.8021 9.12363 13.8228 9.11579 13.8414 9.10415C13.86 9.09251 13.8761 9.0773 13.8888 9.0594C13.9015 9.04149 13.9105 9.02126 13.9154 8.99985C13.9202 8.97844 13.9207 8.9563 13.9169 8.93468L13.8741 8.6761C14.1843 8.62051 14.4982 8.58783 14.8132 8.57833V13.6328C14.7482 13.6416 14.6838 13.6547 14.6206 13.6721L12.5434 9.06922C12.8689 8.93302 13.205 8.82412 13.5485 8.74367L13.5892 8.989ZM11.4374 9.96357C11.4488 9.98218 11.4637 9.99836 11.4814 10.0112C11.499 10.024 11.519 10.0332 11.5402 10.0383C11.5614 10.0434 11.5834 10.0443 11.605 10.0409C11.6265 10.0375 11.6472 10.0299 11.6658 10.0185C11.6844 10.0071 11.7006 9.99219 11.7134 9.97455C11.7262 9.95691 11.7355 9.93691 11.7406 9.91571C11.7457 9.8945 11.7465 9.87249 11.7431 9.85095C11.7397 9.8294 11.7321 9.80874 11.7207 9.79013L11.5853 9.56875C11.7964 9.43503 12.0152 9.31373 12.2404 9.20549L14.3119 13.7956C14.2485 13.8299 14.1876 13.8686 14.1298 13.9116L10.5769 10.3586C10.8058 10.1393 11.0505 9.93718 11.309 9.75379L11.4374 9.96357ZM9.89137 11.5742L9.67777 11.427C9.87616 11.1316 10.0986 10.8531 10.3428 10.5943L13.8874 14.1388C13.8295 14.2065 13.7777 14.2793 13.7328 14.3562L9.07582 12.5524C9.19617 12.2608 9.33792 11.9785 9.49991 11.7078L9.70285 11.8477C9.7208 11.8604 9.74108 11.8694 9.76252 11.8742C9.78396 11.8789 9.80614 11.8794 9.82776 11.8756C9.84939 11.8717 9.87003 11.8636 9.8885 11.8517C9.90698 11.8398 9.92291 11.8244 9.93537 11.8063C9.94784 11.7882 9.95659 11.7678 9.96113 11.7463C9.96567 11.7249 9.9659 11.7027 9.96181 11.6811C9.95771 11.6595 9.94938 11.639 9.93729 11.6206C9.9252 11.6023 9.90959 11.5865 9.89137 11.5742ZM8.99081 13.7031L8.73558 13.6444C8.79259 13.3793 8.86648 13.1182 8.95679 12.8627L13.5981 14.6604C13.5809 14.716 13.567 14.7726 13.5565 14.8298H8.59439C8.60175 14.5421 8.62839 14.2552 8.67412 13.9711L8.91633 14.0268C8.93766 14.0319 8.9598 14.0328 8.98146 14.0293C9.00313 14.0258 9.02388 14.018 9.04253 14.0065C9.06118 13.9949 9.07736 13.9798 9.09013 13.962C9.1029 13.9441 9.11201 13.9239 9.11692 13.9025C9.12184 13.8812 9.12248 13.859 9.11879 13.8374C9.1151 13.8158 9.10717 13.7951 9.09544 13.7765C9.08372 13.758 9.06843 13.7419 9.05047 13.7293C9.03251 13.7167 9.01223 13.7078 8.99081 13.7031ZM9.13465 16.1887C9.12775 16.1452 9.10385 16.1062 9.06821 16.0803C9.03257 16.0545 8.9881 16.0438 8.9446 16.0507L8.68591 16.0917C8.63292 15.7844 8.60232 15.4737 8.59436 15.162H13.5329C13.5364 15.2491 13.5477 15.3358 13.5665 15.4209L8.98277 17.2017C8.8887 16.9456 8.81123 16.6838 8.75083 16.4177L8.99665 16.3787C9.04015 16.3718 9.07912 16.3479 9.10499 16.3123C9.13087 16.2767 9.14154 16.2322 9.13465 16.1887ZM10.0232 18.3246C10.0003 18.2869 9.96342 18.2599 9.92064 18.2494C9.87785 18.2389 9.83266 18.2459 9.795 18.2688L9.57316 18.4034C9.39412 18.1185 9.23778 17.8199 9.10558 17.5104L13.6744 15.7354C13.7091 15.8083 13.7498 15.8781 13.7959 15.9444L10.3429 19.3974C10.1308 19.1727 9.93517 18.933 9.7574 18.6804L9.96751 18.5528C9.98615 18.5415 10.0024 18.5266 10.0153 18.509C10.0281 18.4914 10.0374 18.4714 10.0426 18.4502C10.0478 18.429 10.0487 18.407 10.0454 18.3854C10.042 18.3639 10.0345 18.3432 10.0232 18.3246ZM11.7047 19.9994C11.6691 19.9735 11.6246 19.9629 11.5811 19.9698C11.5376 19.9768 11.4986 20.0007 11.4728 20.0364L11.3208 20.2462C11.0578 20.0607 10.8091 19.8558 10.5766 19.6333L14.0149 16.195C14.0925 16.2657 14.1773 16.3279 14.2679 16.3808L12.3925 20.8568C12.1178 20.7336 11.8521 20.5912 11.5974 20.4307L11.7419 20.2314C11.7547 20.2137 11.7639 20.1937 11.7689 20.1725C11.774 20.1513 11.7748 20.1293 11.7714 20.1077C11.768 20.0862 11.7603 20.0655 11.7489 20.0469C11.7374 20.0283 11.7225 20.0122 11.7048 19.9994L11.7047 19.9994ZM13.9194 20.8936C13.8981 20.8887 13.8761 20.8881 13.8546 20.8917C13.8331 20.8953 13.8125 20.9031 13.794 20.9147C13.7755 20.9263 13.7595 20.9414 13.7468 20.9592C13.7342 20.9769 13.7251 20.997 13.7203 21.0183L13.6616 21.2734C13.3336 21.2028 13.0117 21.1064 12.6989 20.985L14.5718 16.5154C14.6507 16.5399 14.7314 16.5577 14.8132 16.5686V21.4135C14.5369 21.405 14.2614 21.3787 13.9884 21.3348L14.0441 21.0928C14.0539 21.0499 14.0464 21.0048 14.023 20.9674C13.9996 20.9301 13.9624 20.9036 13.9194 20.8937L13.9194 20.8936ZM16.4396 21.0176C16.4362 20.9959 16.4286 20.975 16.4171 20.9563C16.4057 20.9376 16.3906 20.9213 16.3728 20.9084C16.355 20.8955 16.3349 20.8863 16.3135 20.8813C16.2921 20.8762 16.2699 20.8755 16.2483 20.8791C16.2266 20.8827 16.2059 20.8905 16.1872 20.9022C16.1686 20.9138 16.1525 20.9291 16.1398 20.947C16.1271 20.9649 16.1181 20.9852 16.1133 21.0066C16.1085 21.0281 16.108 21.0502 16.1118 21.0719L16.1522 21.3157C15.8198 21.3753 15.4831 21.4086 15.1454 21.4153V16.5763C15.2575 16.5663 15.3682 16.5435 15.4751 16.5084L17.3802 20.9646C17.0868 21.0814 16.7852 21.1762 16.4778 21.2482L16.4396 21.0176ZM18.5967 20.0409C18.5737 20.0033 18.5367 19.9764 18.4939 19.9661C18.4511 19.9558 18.4059 19.9629 18.3683 19.9859C18.3307 20.0089 18.3038 20.0459 18.2935 20.0888C18.2832 20.1316 18.2903 20.1768 18.3133 20.2144L18.441 20.4228C18.1986 20.5764 17.9462 20.7135 17.6854 20.8333L15.7772 16.3698C15.847 16.3275 15.9131 16.2796 15.975 16.2265L19.4148 19.6663C19.1959 19.8728 18.9628 20.0639 18.7172 20.238L18.5967 20.0409ZM20.1473 18.4259L20.3484 18.5646C20.1411 18.8733 19.9075 19.1635 19.6504 19.4321L16.2021 15.9838C16.2599 15.9061 16.31 15.8229 16.3516 15.7355L20.9204 17.5104C20.8067 17.7768 20.675 18.0353 20.5262 18.2839L20.3357 18.1525C20.3177 18.1398 20.2975 18.1308 20.276 18.1261C20.2546 18.1213 20.2324 18.1208 20.2108 18.1247C20.1891 18.1285 20.1685 18.1366 20.15 18.1485C20.1316 18.1604 20.1156 18.1758 20.1032 18.1939C20.0907 18.212 20.0819 18.2324 20.0774 18.2539C20.0729 18.2754 20.0726 18.2976 20.0767 18.3191C20.0808 18.3407 20.0891 18.3613 20.1012 18.3796C20.1133 18.398 20.1289 18.4137 20.1472 18.426L20.1473 18.4259ZM21.05 16.292L21.2905 16.3474C21.2281 16.6375 21.1454 16.9229 21.043 17.2015L16.4596 15.4211C16.4785 15.3359 16.4898 15.2492 16.4933 15.162H21.4318C21.4244 15.4497 21.3978 15.7366 21.3521 16.0207L21.1246 15.9684C21.0817 15.9585 21.0366 15.9661 20.9992 15.9894C20.9619 16.0128 20.9354 16.0501 20.9255 16.093C20.9156 16.1359 20.9232 16.181 20.9465 16.2184C20.9699 16.2557 21.0072 16.2823 21.0501 16.2922L21.05 16.292ZM20.9064 13.8007C20.9126 13.8397 20.9325 13.8753 20.9625 13.901C20.9926 13.9266 21.0308 13.9408 21.0703 13.9408C21.0791 13.9408 21.0878 13.9401 21.0965 13.9387L21.3402 13.9001C21.3932 14.2073 21.4239 14.5181 21.4318 14.8298H16.4696C16.4577 14.7657 16.4416 14.7024 16.4213 14.6405L21.044 12.7918C21.1378 13.0474 21.215 13.3087 21.2753 13.5742L21.0445 13.6108C21.001 13.6177 20.962 13.6416 20.9361 13.6772C20.9102 13.7129 20.8996 13.7573 20.9065 13.8009L20.9064 13.8007ZM20.0158 11.6595C20.0271 11.6782 20.042 11.6944 20.0596 11.7073C20.0772 11.7202 20.0971 11.7295 20.1183 11.7347C20.1395 11.7399 20.1615 11.7408 20.1831 11.7375C20.2047 11.7342 20.2253 11.7267 20.244 11.7153L20.4529 11.5885C20.6323 11.8739 20.7888 12.173 20.9211 12.483L16.2829 14.3379C16.2323 14.2539 16.1735 14.1752 16.1074 14.1027L19.6506 10.5596C19.8753 10.7944 20.082 11.0458 20.269 11.3116L20.0717 11.4312C20.053 11.4425 20.0368 11.4574 20.0239 11.475C20.0109 11.4926 20.0016 11.5126 19.9964 11.5338C19.9912 11.555 19.9902 11.577 19.9936 11.5986C19.9969 11.6202 20.0044 11.6409 20.0158 11.6595Z" fill="white"/>
<defs>
<linearGradient id="paint0_linear_2378_16018" x1="0.00758621" y1="14.9961" x2="30.0078" y2="14.9961" gradientUnits="userSpaceOnUse">
<stop stop-color="#F485CE"/>
<stop offset="1" stop-color="#F462D4"/>
</linearGradient>
<linearGradient id="paint1_linear_2378_16018" x1="1.73084" y1="14.9965" x2="28.2828" y2="14.9965" gradientUnits="userSpaceOnUse">
<stop stop-color="#F485CE"/>
<stop offset="1" stop-color="#F462D4"/>
</linearGradient>
<linearGradient id="paint2_linear_2378_16018" x1="2.59246" y1="14.997" x2="27.4203" y2="14.997" gradientUnits="userSpaceOnUse">
<stop stop-color="#F485CE"/>
<stop offset="1" stop-color="#F462D4"/>
</linearGradient>
</defs>
</svg>
