<svg width="24" height="25" viewBox="0 0 24 25" fill="none" xmlns="http://www.w3.org/2000/svg">
<path d="M6.89761 18.6618C8.28247 19.8099 10.0607 20.5 12.0001 20.5C16.4184 20.5 20.0001 16.9183 20.0001 12.5C20.0001 11.931 19.9407 11.3758 19.8278 10.8404M6.89761 18.6618C5.12756 17.1944 4.00014 14.9789 4.00014 12.5C4.00014 8.08172 7.58186 4.5 12.0001 4.5C15.8494 4.5 19.0637 7.21853 19.8278 10.8404M6.89761 18.6618C8.85314 18.2147 11.1796 17.2828 13.526 15.9281C16.2564 14.3517 18.4773 12.5125 19.8278 10.8404M6.89761 18.6618C4.46844 19.2171 2.61159 19.0243 1.99965 17.9644C1.36934 16.8726 2.19631 15.0969 3.99999 13.209M19.8278 10.8404C21.0796 9.29041 21.5836 7.88405 21.0522 6.96374C20.5134 6.03051 19.0095 5.76939 16.9997 6.09929" stroke="#4DB9F5" stroke-width="2" stroke-linecap="round" stroke-linejoin="round"/>
</svg>
