<svg width="114" height="114" viewBox="0 0 114 114" fill="none" xmlns="http://www.w3.org/2000/svg">
<circle cx="58.9951" cy="57.2851" r="39.185" fill="white" stroke="#C9CEFF" stroke-width="2"/>
<g filter="url(#filter0_b_2245_3284)">
<path d="M86.6266 79.6708C91.6035 77.9478 95.6857 74.2786 97.9754 69.4703C100.265 64.6621 100.574 59.1087 98.8356 54.0317C96.1607 46.2216 89.5889 40.0486 83.1426 40.6491C80.6533 40.8802 77.7992 38.5084 77.0174 34.9444C75.9717 30.1752 78.4509 24.1313 85.2546 17.688C86.7703 16.2523 85.0768 13.7591 83.2144 14.6841C63.1392 24.6319 53.3689 43.6297 60.0655 63.405C64.718 76.9892 75.7292 83.4434 86.6266 79.6708ZM45.6844 93.8448C50.6612 92.1219 54.7435 88.4527 57.0331 83.6444C59.3227 78.8362 59.6322 73.2828 57.8934 68.2058C55.2184 60.3957 48.6466 54.2227 42.2003 54.8232C39.711 55.0542 36.857 52.6825 36.0752 49.1184C35.0295 44.3493 37.5086 38.3054 44.3124 31.8621C45.8281 30.4264 44.1345 27.9332 42.2722 28.8582C22.1969 38.806 12.4266 57.8038 19.1232 77.5791C23.7758 91.1633 34.7869 97.6175 45.6844 93.8448Z" fill="#E0E3FF"/>
</g>
<g filter="url(#filter1_b_2245_3284)">
<path d="M88.427 81.3269C93.5365 80.053 97.9209 76.7625 100.616 72.1792C103.31 67.596 104.095 62.0954 102.796 56.8877C100.799 48.8762 94.7762 42.149 88.2979 42.1753C85.7963 42.1847 83.1541 39.5709 82.6802 35.9539C82.0464 31.1139 85.036 25.3174 92.3714 19.5068C94.0055 18.212 92.5308 15.5801 90.5948 16.3359C69.7277 24.4585 58.3588 42.5033 63.3403 62.7814C66.8145 76.7158 77.2392 84.1164 88.427 81.3269ZM46.3939 91.807C51.5033 90.5331 55.8877 87.2425 58.5825 82.6593C61.2773 78.076 62.0617 72.5755 60.7633 67.3677C58.7658 59.3563 52.743 52.6291 46.2647 52.6554C43.7631 52.6648 41.1209 50.051 40.647 46.4339C40.0132 41.5939 43.0028 35.7975 50.3382 29.9868C51.9724 28.6921 50.4977 26.0602 48.5617 26.8159C27.6946 34.9386 16.3256 52.9833 21.3071 73.2615C24.7814 87.1958 35.206 94.5964 46.3939 91.807Z" fill="white" fill-opacity="0.01"/>
<path d="M88.3019 43.1753L88.3016 43.1753C86.7018 43.1813 85.1662 42.3568 83.9982 41.1074C82.8207 39.848 81.9523 38.096 81.6886 36.0838C80.9859 30.7176 84.3172 24.6111 91.7504 18.723C92.1172 18.4324 92.1591 18.0153 91.9495 17.6412C91.7412 17.2694 91.3795 17.1031 90.9585 17.2674L90.9576 17.2678C70.4561 25.2481 59.4751 42.8512 64.3109 62.5407C66.0025 69.3243 69.3652 74.4379 73.581 77.5182C77.7846 80.5895 82.8838 81.6784 88.1851 80.3567C93.0312 79.1484 97.1935 76.0267 99.7536 71.6724C102.314 67.3173 103.062 62.0859 101.826 57.1296C100.866 53.2796 98.9409 49.7536 96.5051 47.2088C94.0636 44.6581 91.1842 43.1636 88.3019 43.1753ZM46.2688 53.6554L46.2684 53.6554C44.6687 53.6614 43.133 52.8369 41.965 51.5875C40.7876 50.328 39.9191 48.576 39.6555 46.5638L39.6554 46.5638C38.9528 41.1977 42.2841 35.0911 49.7172 29.2031C50.084 28.9124 50.1259 28.4953 49.9163 28.1212C49.708 27.7495 49.3463 27.5831 48.9253 27.7475L48.9244 27.7478C28.4228 35.7282 17.4418 53.3315 22.2778 73.0212C23.9695 79.8046 27.3322 84.9181 31.5478 87.9982C35.7514 91.0695 40.8506 92.1585 46.1519 90.8367C50.998 89.6284 55.1603 86.5067 57.7205 82.1524C60.2811 77.7974 61.0287 72.566 59.793 67.6096C58.8331 63.7596 56.9077 60.2336 54.4719 57.6889C52.0304 55.1381 49.1511 53.6437 46.2688 53.6554Z" stroke="url(#paint0_linear_2245_3284)" stroke-width="2"/>
</g>
<defs>
<filter id="filter0_b_2245_3284" x="2.02576" y="-0.516602" width="112.922" height="110.426" filterUnits="userSpaceOnUse" color-interpolation-filters="sRGB">
<feFlood flood-opacity="0" result="BackgroundImageFix"/>
<feGaussianBlur in="BackgroundImageFix" stdDeviation="7.5"/>
<feComposite in2="SourceAlpha" operator="in" result="effect1_backgroundBlur_2245_3284"/>
<feBlend mode="normal" in="SourceGraphic" in2="effect1_backgroundBlur_2245_3284" result="shape"/>
</filter>
<filter id="filter1_b_2245_3284" x="5.14343" y="1.20215" width="113.265" height="106.188" filterUnits="userSpaceOnUse" color-interpolation-filters="sRGB">
<feFlood flood-opacity="0" result="BackgroundImageFix"/>
<feGaussianBlur in="BackgroundImageFix" stdDeviation="7.5"/>
<feComposite in2="SourceAlpha" operator="in" result="effect1_backgroundBlur_2245_3284"/>
<feBlend mode="normal" in="SourceGraphic" in2="effect1_backgroundBlur_2245_3284" result="shape"/>
</filter>
<linearGradient id="paint0_linear_2245_3284" x1="67.413" y1="86.5663" x2="71.7726" y2="16.538" gradientUnits="userSpaceOnUse">
<stop stop-color="white"/>
<stop offset="1" stop-color="#D7DBFF"/>
</linearGradient>
</defs>
</svg>
