<svg width="640" height="581" viewBox="0 0 640 581" fill="none" xmlns="http://www.w3.org/2000/svg">
<circle cx="319.978" cy="290.516" r="255" fill="url(#paint0_radial_2794_12710)"/>
<circle cx="319.978" cy="290.516" r="136" stroke="#2C3235" stroke-width="2"/>
<rect x="164.978" y="135.514" width="310" height="310" stroke="#494D59" stroke-width="2"/>
<rect x="319.978" y="71.3107" width="310" height="310" transform="rotate(45 319.978 71.3107)" stroke="#2C3235" stroke-width="2"/>
<path d="M184.978 289.518H454.978" stroke="#2C3235"/>
<path d="M319.979 154.518L319.979 424.518" stroke="#2C3235"/>
<path d="M319.978 424.52L454.978 289.52" stroke="#494D59" stroke-dasharray="4 4"/>
<path d="M224.519 194.057L227.507 205.21L235.672 197.045L224.519 194.057ZM415.438 384.976L412.449 373.822L404.284 381.987L415.438 384.976ZM230.175 201.128L408.367 379.319L409.781 377.905L231.59 199.713L230.175 201.128Z" fill="#9D2D9D"/>
<path d="M224.519 384.977L235.672 381.988L227.507 373.823L224.519 384.977ZM415.438 194.057L404.284 197.046L412.449 205.211L415.438 194.057ZM231.59 379.32L409.781 201.128L408.367 199.714L230.175 377.905L231.59 379.32Z" fill="#D34645"/>
<rect x="213.977" y="277.52" width="26" height="26" rx="13" fill="#F8F8F8"/>
<rect x="213.977" y="277.52" width="26" height="26" rx="13" stroke="#72B969" stroke-width="2"/>
<rect x="340.978" y="377.52" width="26" height="26" rx="13" fill="#F8F8F8"/>
<rect x="340.978" y="377.52" width="26" height="26" rx="13" stroke="#72B969" stroke-width="2"/>
<rect x="373.978" y="345.52" width="26" height="26" rx="13" fill="#F8F8F8"/>
<rect x="373.978" y="345.52" width="26" height="26" rx="13" stroke="#72B969" stroke-width="2"/>
<rect x="407.978" y="310.52" width="26" height="26" rx="13" fill="#F8F8F8"/>
<rect x="407.978" y="310.52" width="26" height="26" rx="13" stroke="#72B969" stroke-width="2"/>
<rect x="356.978" y="272.52" width="36" height="36" rx="18" fill="#F8F8F8"/>
<rect x="356.978" y="272.52" width="36" height="36" rx="18" stroke="#494D59" stroke-width="2"/>
<rect x="306.977" y="184.52" width="26" height="26" rx="13" fill="#F8F8F8"/>
<rect x="306.977" y="184.52" width="26" height="26" rx="13" stroke="#72B969" stroke-width="2"/>
<rect x="306.977" y="126.52" width="26" height="26" rx="13" fill="#F8F8F8"/>
<rect x="306.977" y="126.52" width="26" height="26" rx="13" stroke="#4DB9F5" stroke-width="2"/>
<rect x="306.977" y="429.52" width="26" height="26" rx="13" fill="#F8F8F8"/>
<rect x="306.977" y="429.52" width="26" height="26" rx="13" stroke="#FF7C03" stroke-width="2"/>
<rect x="414.104" y="170.893" width="26" height="26" rx="13" fill="#F8F8F8"/>
<rect x="414.104" y="170.893" width="26" height="26" rx="13" stroke="#494D59" stroke-width="2"/>
<rect x="199.851" y="385.145" width="26" height="26" rx="13" fill="#F8F8F8"/>
<rect x="199.851" y="385.145" width="26" height="26" rx="13" stroke="#494D59" stroke-width="2"/>
<rect x="414.104" y="385.145" width="26" height="26" rx="13" fill="#F8F8F8"/>
<rect x="414.104" y="385.145" width="26" height="26" rx="13" stroke="#494D59" stroke-width="2"/>
<rect x="199.851" y="170.893" width="26" height="26" rx="13" fill="#F8F8F8"/>
<rect x="199.851" y="170.893" width="26" height="26" rx="13" stroke="#494D59" stroke-width="2"/>
<rect x="458.478" y="277.52" width="26" height="26" rx="13" fill="#F8F8F8"/>
<rect x="458.478" y="277.52" width="26" height="26" rx="13" stroke="#FF7C03" stroke-width="2"/>
<rect x="155.478" y="278.02" width="26" height="26" rx="13" fill="#F8F8F8"/>
<rect x="155.478" y="278.02" width="26" height="26" rx="13" stroke="#4DB9F5" stroke-width="2"/>
<rect x="433.617" y="145.4" width="36" height="36" rx="18" fill="#F8F8F8"/>
<rect x="433.617" y="145.4" width="36" height="36" rx="18" stroke="#494D59" stroke-width="2"/>
<rect x="170.338" y="399.645" width="36" height="36" rx="18" fill="#F8F8F8"/>
<rect x="170.338" y="399.645" width="36" height="36" rx="18" stroke="#494D59" stroke-width="2"/>
<rect x="431.378" y="401.926" width="36" height="36" rx="18" fill="#F8F8F8"/>
<rect x="431.378" y="401.926" width="36" height="36" rx="18" stroke="#494D59" stroke-width="2"/>
<rect x="172.578" y="143.123" width="36" height="36" rx="18" fill="#F8F8F8"/>
<rect x="172.578" y="143.123" width="36" height="36" rx="18" stroke="#494D59" stroke-width="2"/>
<rect x="484.978" y="272.525" width="36" height="36" rx="18" fill="#F8F8F8"/>
<rect x="484.978" y="272.525" width="36" height="36" rx="18" stroke="#494D59" stroke-width="2"/>
<rect x="118.977" y="272.525" width="36" height="36" rx="18" fill="#F8F8F8"/>
<rect x="118.977" y="272.525" width="36" height="36" rx="18" stroke="#1171CB" stroke-width="2"/>
<rect x="301.977" y="89.5195" width="36" height="36" rx="18" fill="#F8F8F8"/>
<rect x="301.977" y="89.5195" width="36" height="36" rx="18" stroke="#1171CB" stroke-width="2"/>
<rect x="301.977" y="455.52" width="36" height="36" rx="18" fill="#F8F8F8"/>
<rect x="301.977" y="455.52" width="36" height="36" rx="18" stroke="#494D59" stroke-width="2"/>
<rect x="294.977" y="265.52" width="50" height="50" rx="25" fill="#F8F8F8"/>
<rect x="294.977" y="265.52" width="50" height="50" rx="25" stroke="#FBC93B" stroke-width="2"/>
<rect x="67.9773" y="265.52" width="50" height="50" rx="25" fill="#F8F8F8"/>
<rect x="67.9773" y="265.52" width="50" height="50" rx="25" stroke="#8B46C1" stroke-width="2"/>
<rect x="521.977" y="265.52" width="50" height="50" rx="25" fill="#F8F8F8"/>
<rect x="521.977" y="265.52" width="50" height="50" rx="25" stroke="#D34645" stroke-width="2"/>
<rect x="294.978" y="38.5098" width="50" height="50" rx="25" fill="#F8F8F8"/>
<rect x="294.978" y="38.5098" width="50" height="50" rx="25" stroke="#8B46C1" stroke-width="2"/>
<rect x="294.978" y="492.52" width="50" height="50" rx="25" fill="#F8F8F8"/>
<rect x="294.978" y="492.52" width="50" height="50" rx="25" stroke="#D34645" stroke-width="2"/>
<rect x="455.494" y="104.996" width="50" height="50" rx="25" fill="#F8F8F8"/>
<rect x="455.494" y="104.996" width="50" height="50" rx="25" stroke="#494D59" stroke-width="2"/>
<rect x="134.46" y="426.029" width="50" height="50" rx="25" fill="#F8F8F8"/>
<rect x="134.46" y="426.029" width="50" height="50" rx="25" stroke="#494D59" stroke-width="2"/>
<rect x="455.493" y="426.029" width="50" height="50" rx="25" fill="#F8F8F8"/>
<rect x="455.493" y="426.029" width="50" height="50" rx="25" stroke="#494D59" stroke-width="2"/>
<rect x="134.459" y="104.994" width="50" height="50" rx="25" fill="#F8F8F8"/>
<rect x="134.459" y="104.994" width="50" height="50" rx="25" stroke="#494D59" stroke-width="2"/>
<rect x="347.978" y="229.52" width="30" height="30" rx="15" fill="#F8F8F8"/>
<path d="M363.705 258.337C363.561 258.481 363.378 258.579 363.178 258.619C362.979 258.658 362.772 258.638 362.584 258.56C362.396 258.482 362.235 258.351 362.122 258.181C362.009 258.012 361.949 257.813 361.949 257.61L361.948 246.326C361.953 246.057 362.063 245.8 362.256 245.61C362.448 245.421 362.707 245.316 362.977 245.316C363.246 245.316 363.505 245.421 363.698 245.61C363.89 245.8 364 246.057 364.005 246.326L364.006 257.61C364.006 257.883 363.898 258.144 363.705 258.337Z" fill="#FF7AB2"/>
<path d="M366.791 254.431C366.598 254.624 366.336 254.732 366.063 254.732L359.892 254.733C359.623 254.728 359.366 254.618 359.177 254.426C358.988 254.233 358.882 253.974 358.882 253.705C358.882 253.435 358.988 253.176 359.177 252.984C359.366 252.791 359.623 252.681 359.892 252.676L366.064 252.676C366.268 252.676 366.466 252.737 366.635 252.85C366.805 252.963 366.936 253.123 367.014 253.311C367.092 253.499 367.112 253.706 367.073 253.905C367.033 254.105 366.935 254.288 366.791 254.432L366.791 254.431ZM368.069 245.248C367.401 245.918 366.608 246.45 365.734 246.812C364.86 247.174 363.923 247.359 362.977 247.356C361.311 247.356 359.697 246.778 358.41 245.721C357.122 244.664 356.241 243.194 355.916 241.56C355.591 239.926 355.843 238.231 356.629 236.762C357.414 235.293 358.684 234.142 360.223 233.504C361.762 232.867 363.475 232.783 365.069 233.267C366.662 233.75 368.039 234.772 368.965 236.157C369.89 237.542 370.306 239.205 370.143 240.863C369.98 242.52 369.246 244.07 368.069 245.248ZM359.341 236.52C358.622 237.239 358.132 238.156 357.934 239.153C357.735 240.151 357.837 241.185 358.226 242.124C358.615 243.064 359.274 243.867 360.12 244.432C360.966 244.997 361.96 245.299 362.977 245.299C363.823 245.299 364.655 245.091 365.401 244.692C366.147 244.294 366.783 243.717 367.253 243.014C367.723 242.311 368.012 241.503 368.095 240.661C368.178 239.82 368.053 238.97 367.729 238.189C367.405 237.408 366.894 236.718 366.24 236.181C365.586 235.645 364.81 235.278 363.981 235.113C363.151 234.948 362.294 234.99 361.485 235.235C360.675 235.481 359.939 235.922 359.341 236.52Z" fill="#FF7AB2"/>
<rect x="261.977" y="229.52" width="30" height="30" rx="15" fill="#F8F8F8"/>
<path d="M278.256 244.27C278.053 244.27 277.854 244.209 277.685 244.096C277.516 243.983 277.384 243.823 277.306 243.635C277.228 243.447 277.208 243.24 277.248 243.041C277.287 242.841 277.385 242.658 277.529 242.514L285.507 234.535C285.701 234.347 285.961 234.244 286.231 234.246C286.501 234.248 286.759 234.357 286.949 234.547C287.14 234.738 287.248 234.996 287.25 235.266C287.253 235.535 287.149 235.795 286.962 235.989L278.983 243.968C278.791 244.161 278.529 244.27 278.256 244.27Z" fill="#6BE7FF"/>
<path d="M273.892 254.805C272.708 254.805 271.542 254.513 270.498 253.955C269.454 253.397 268.563 252.59 267.906 251.605C267.248 250.621 266.843 249.489 266.727 248.311C266.611 247.132 266.787 245.944 267.24 244.85C267.693 243.756 268.409 242.791 269.325 242.039C270.24 241.288 271.327 240.775 272.488 240.544C273.649 240.313 274.85 240.372 275.983 240.716C277.116 241.06 278.146 241.678 278.983 242.515C279.99 243.522 280.676 244.805 280.953 246.201C281.231 247.598 281.088 249.045 280.543 250.361C279.998 251.676 279.076 252.8 277.892 253.591C276.708 254.382 275.316 254.805 273.892 254.805ZM273.892 242.463C272.703 242.463 271.55 242.875 270.63 243.63C269.71 244.385 269.081 245.435 268.848 246.602C268.616 247.769 268.796 248.98 269.357 250.029C269.917 251.078 270.825 251.901 271.924 252.356C273.023 252.812 274.246 252.872 275.385 252.526C276.523 252.181 277.507 251.452 278.168 250.463C278.829 249.474 279.127 248.286 279.01 247.102C278.894 245.918 278.37 244.811 277.529 243.969C277.053 243.49 276.486 243.111 275.862 242.852C275.237 242.593 274.568 242.461 273.892 242.463ZM286.235 241.434C285.962 241.434 285.7 241.326 285.507 241.133C285.314 240.94 285.206 240.678 285.206 240.406V236.291H281.092C280.819 236.291 280.558 236.183 280.365 235.99C280.172 235.797 280.063 235.536 280.063 235.263C280.063 234.99 280.172 234.729 280.365 234.536C280.558 234.343 280.819 234.234 281.092 234.234H286.235C286.507 234.234 286.769 234.343 286.962 234.536C287.155 234.729 287.263 234.99 287.263 235.263V240.406C287.263 240.678 287.155 240.94 286.962 241.133C286.769 241.326 286.507 241.434 286.235 241.434Z" fill="#6BE7FF"/>
<rect x="327.978" y="339.52" width="30" height="30" rx="15" fill="#F8F8F8"/>
<path d="M354.303 346.635C353.386 345.43 352.091 344.569 350.625 344.189C349.16 343.809 347.61 343.932 346.223 344.54C344.982 345.075 343.875 345.978 342.978 347.177C342.08 345.975 340.973 345.072 339.732 344.54C338.345 343.932 336.795 343.809 335.33 344.189C333.864 344.569 332.569 345.43 331.653 346.635C330.686 347.901 330.175 349.485 330.175 351.212C330.175 353.699 331.658 356.427 334.582 359.324C336.965 361.684 339.781 363.616 341.247 364.558C341.764 364.888 342.364 365.064 342.978 365.064C343.591 365.064 344.191 364.888 344.708 364.558C346.173 363.616 348.99 361.684 351.373 359.324C354.297 356.428 355.78 353.699 355.78 351.212C355.78 349.485 355.269 347.901 354.303 346.635Z" fill="#F9595F"/>
<rect x="374.978" y="307.52" width="30" height="30" rx="15" fill="#F8F8F8"/>
<path d="M391.533 333.937V336.011H388.585V333.84C385.763 333.522 383.118 332.307 381.038 330.375L383.37 327.492C384.824 328.875 386.626 329.838 388.585 330.278V323.961C384.601 322.925 381.913 321.5 381.913 317.678C381.913 314.179 384.601 311.49 388.585 311.005V309.029H391.533V311.038C394.061 311.299 396.442 312.353 398.335 314.05L396.132 317.03C394.824 315.85 393.244 315.015 391.533 314.601V320.69C395.97 321.694 398.918 323.216 398.918 327.168C398.918 330.893 396.229 333.614 391.533 333.937ZM388.585 319.913V314.536C386.998 314.924 385.993 316.058 385.993 317.321C385.993 318.617 386.836 319.297 388.585 319.913ZM394.869 327.556C394.869 326.066 393.832 325.386 391.533 324.706V330.472C393.735 330.213 394.869 328.982 394.869 327.556Z" fill="#72BD39"/>
<defs>
<radialGradient id="paint0_radial_2794_12710" cx="0" cy="0" r="1" gradientUnits="userSpaceOnUse" gradientTransform="translate(319.978 290.516) rotate(90) scale(296.588)">
<stop stop-color="white"/>
<stop offset="0.638804" stop-color="#EFEFFF"/>
<stop offset="1" stop-color="#D7D8FF"/>
</radialGradient>
</defs>
</svg>
