<svg width="640" height="581" viewBox="0 0 640 581" fill="none" xmlns="http://www.w3.org/2000/svg">
<circle cx="319.978" cy="290.516" r="254" stroke="#2C3235" stroke-width="2"/>
<circle cx="319.978" cy="290.516" r="136" stroke="#2C3235" stroke-width="2"/>
<rect x="164.978" y="135.514" width="310" height="310" stroke="#494D59" stroke-width="2"/>
<rect x="319.978" y="71.3107" width="310" height="310" transform="rotate(45 319.978 71.3107)" stroke="#2C3235" stroke-width="2"/>
<path d="M184.978 289.518H454.978" stroke="#2C3235"/>
<path d="M319.979 154.518L319.979 424.518" stroke="#2C3235"/>
<path d="M319.978 424.52L454.978 289.52" stroke="#494D59" stroke-dasharray="4 4"/>
<path d="M224.519 194.057L227.507 205.21L235.672 197.045L224.519 194.057ZM415.438 384.976L412.449 373.822L404.284 381.987L415.438 384.976ZM230.175 201.128L408.367 379.319L409.781 377.905L231.59 199.713L230.175 201.128Z" fill="#9D2D9D"/>
<path d="M224.519 384.977L235.672 381.988L227.507 373.823L224.519 384.977ZM415.438 194.057L404.284 197.046L412.449 205.211L415.438 194.057ZM231.59 379.32L409.781 201.128L408.367 199.714L230.175 377.905L231.59 379.32Z" fill="#D34645"/>
<circle cx="57.9778" cy="290.516" r="7" fill="#8B46C1"/>
<circle cx="581.978" cy="290.516" r="7" fill="#D34645"/>
<circle cx="319.978" cy="28.5156" r="7" transform="rotate(90 319.978 28.5156)" fill="#8B46C1"/>
<circle cx="319.978" cy="552.516" r="7" transform="rotate(90 319.978 552.516)" fill="#D34645"/>
<circle cx="134.716" cy="105.253" r="7" transform="rotate(45 134.716 105.253)" fill="#494D59"/>
<circle cx="505.24" cy="475.776" r="7" transform="rotate(45 505.24 475.776)" fill="#494D59"/>
<circle cx="505.24" cy="105.254" r="7" transform="rotate(135 505.24 105.254)" fill="#494D59"/>
<circle cx="134.716" cy="475.777" r="7" transform="rotate(135 134.716 475.777)" fill="#494D59"/>
<circle cx="218.388" cy="51.187" r="5" transform="rotate(67 218.388 51.187)" fill="#494D59"/>
<circle cx="421.566" cy="529.845" r="5" transform="rotate(67 421.566 529.845)" fill="#494D59"/>
<circle cx="78.9116" cy="193.122" r="5" transform="rotate(22 78.9116 193.122)" fill="#494D59"/>
<circle cx="561.043" cy="387.917" r="5" transform="rotate(22 561.043 387.917)" fill="#494D59"/>
<circle cx="78.9118" cy="387.913" r="5" transform="rotate(-22 78.9118 387.913)" fill="#494D59"/>
<circle cx="561.044" cy="193.12" r="5" transform="rotate(-22 561.044 193.12)" fill="#494D59"/>
<circle cx="218.388" cy="529.847" r="5" transform="rotate(-67 218.388 529.847)" fill="#494D59"/>
<circle cx="421.567" cy="51.189" r="5" transform="rotate(-67 421.567 51.189)" fill="#494D59"/>
<circle cx="62.9598" cy="268.027" r="3" transform="rotate(5 62.9598 268.027)" fill="#494D59"/>
<circle cx="576.996" cy="313" r="3" transform="rotate(5 576.996 313)" fill="#494D59"/>
<circle cx="66.7184" cy="241.285" r="3" transform="rotate(11 66.7184 241.285)" fill="#494D59"/>
<circle cx="573.238" cy="339.742" r="3" transform="rotate(11 573.238 339.742)" fill="#494D59"/>
<circle cx="73.2513" cy="215.084" r="3" transform="rotate(17 73.2513 215.084)" fill="#494D59"/>
<circle cx="566.705" cy="365.947" r="3" transform="rotate(17 566.705 365.947)" fill="#494D59"/>
<circle cx="90.0991" cy="173.389" r="3" transform="rotate(27 90.0991 173.389)" fill="#494D59"/>
<circle cx="549.858" cy="407.648" r="3" transform="rotate(27 549.858 407.648)" fill="#494D59"/>
<circle cx="103.602" cy="150.001" r="3" transform="rotate(33 103.602 150.001)" fill="#494D59"/>
<circle cx="536.356" cy="431.035" r="3" transform="rotate(33 536.356 431.035)" fill="#494D59"/>
<circle cx="119.474" cy="128.155" r="3" transform="rotate(39 119.474 128.155)" fill="#494D59"/>
<circle cx="520.482" cy="452.883" r="3" transform="rotate(39 520.482 452.883)" fill="#494D59"/>
<circle cx="154.14" cy="92.8788" r="3" transform="rotate(50 154.14 92.8788)" fill="#494D59"/>
<circle cx="485.818" cy="488.158" r="3" transform="rotate(50 485.818 488.158)" fill="#494D59"/>
<circle cx="175.707" cy="76.6276" r="3" transform="rotate(56 175.707 76.6276)" fill="#494D59"/>
<circle cx="464.251" cy="504.411" r="3" transform="rotate(56 464.251 504.411)" fill="#494D59"/>
<circle cx="198.854" cy="62.7194" r="3" transform="rotate(62 198.854 62.7194)" fill="#494D59"/>
<circle cx="441.101" cy="518.321" r="3" transform="rotate(62 441.101 518.321)" fill="#494D59"/>
<circle cx="240.253" cy="45.1455" r="3" transform="rotate(72 240.253 45.1455)" fill="#494D59"/>
<circle cx="399.706" cy="535.892" r="3" transform="rotate(72 399.706 535.892)" fill="#494D59"/>
<circle cx="266.338" cy="38.1558" r="3" transform="rotate(78 266.338 38.1558)" fill="#494D59"/>
<circle cx="373.62" cy="542.88" r="3" transform="rotate(78 373.62 542.88)" fill="#494D59"/>
<circle cx="293.009" cy="33.9319" r="3" transform="rotate(84 293.009 33.9319)" fill="#494D59"/>
<circle cx="346.946" cy="547.106" r="3" transform="rotate(84 346.946 547.106)" fill="#494D59"/>
<circle cx="346.948" cy="33.9317" r="3" transform="rotate(96 346.948 33.9317)" fill="#494D59"/>
<circle cx="293.011" cy="547.106" r="3" transform="rotate(96 293.011 547.106)" fill="#494D59"/>
<circle cx="373.622" cy="38.1564" r="3" transform="rotate(102 373.622 38.1564)" fill="#494D59"/>
<circle cx="266.339" cy="542.881" r="3" transform="rotate(102 266.339 542.881)" fill="#494D59"/>
<circle cx="399.704" cy="45.1468" r="3" transform="rotate(108 399.704 45.1468)" fill="#494D59"/>
<circle cx="240.252" cy="535.893" r="3" transform="rotate(108 240.252 535.893)" fill="#494D59"/>
<circle cx="441.103" cy="62.717" r="3" transform="rotate(118 441.103 62.717)" fill="#494D59"/>
<circle cx="198.856" cy="518.319" r="3" transform="rotate(118 198.856 518.319)" fill="#494D59"/>
<circle cx="464.251" cy="76.6259" r="3" transform="rotate(124 464.251 76.6259)" fill="#494D59"/>
<circle cx="175.708" cy="504.409" r="3" transform="rotate(124 175.708 504.409)" fill="#494D59"/>
<circle cx="485.817" cy="92.8756" r="3" transform="rotate(130 485.817 92.8756)" fill="#494D59"/>
<circle cx="154.138" cy="488.155" r="3" transform="rotate(130 154.138 488.155)" fill="#494D59"/>
<circle cx="517.619" cy="124.675" r="3" transform="rotate(140 517.619 124.675)" fill="#494D59"/>
<circle cx="122.34" cy="456.353" r="3" transform="rotate(140 122.34 456.353)" fill="#494D59"/>
<circle cx="533.871" cy="146.243" r="3" transform="rotate(146 533.871 146.243)" fill="#494D59"/>
<circle cx="106.088" cy="434.786" r="3" transform="rotate(146 106.088 434.786)" fill="#494D59"/>
<circle cx="547.778" cy="169.388" r="3" transform="rotate(152 547.778 169.388)" fill="#494D59"/>
<circle cx="92.1776" cy="411.636" r="3" transform="rotate(152 92.1776 411.636)" fill="#494D59"/>
<circle cx="566.705" cy="215.09" r="3" transform="rotate(163 566.705 215.09)" fill="#494D59"/>
<circle cx="73.2513" cy="365.954" r="3" transform="rotate(163 73.2513 365.954)" fill="#494D59"/>
<circle cx="573.238" cy="241.294" r="3" transform="rotate(169 573.238 241.294)" fill="#494D59"/>
<circle cx="66.7185" cy="339.751" r="3" transform="rotate(169 66.7185 339.751)" fill="#494D59"/>
<circle cx="576.996" cy="268.033" r="3" transform="rotate(175 576.996 268.033)" fill="#494D59"/>
<circle cx="62.9592" cy="313.005" r="3" transform="rotate(175 62.9592 313.005)" fill="#494D59"/>
<rect x="213.977" y="277.52" width="26" height="26" rx="13" fill="#F8F8F8"/>
<rect x="213.977" y="277.52" width="26" height="26" rx="13" stroke="#72B969" stroke-width="2"/>
<rect x="340.978" y="377.52" width="26" height="26" rx="13" fill="#F8F8F8"/>
<rect x="340.978" y="377.52" width="26" height="26" rx="13" stroke="#72B969" stroke-width="2"/>
<rect x="373.978" y="345.52" width="26" height="26" rx="13" fill="#F8F8F8"/>
<rect x="373.978" y="345.52" width="26" height="26" rx="13" stroke="#72B969" stroke-width="2"/>
<rect x="407.978" y="310.52" width="26" height="26" rx="13" fill="#F8F8F8"/>
<rect x="407.978" y="310.52" width="26" height="26" rx="13" stroke="#72B969" stroke-width="2"/>
<rect x="356.978" y="272.52" width="36" height="36" rx="18" fill="#F8F8F8"/>
<rect x="356.978" y="272.52" width="36" height="36" rx="18" stroke="#494D59" stroke-width="2"/>
<rect x="306.978" y="184.52" width="26" height="26" rx="13" fill="#F8F8F8"/>
<rect x="306.978" y="184.52" width="26" height="26" rx="13" stroke="#72B969" stroke-width="2"/>
<rect x="306.977" y="126.52" width="26" height="26" rx="13" fill="#F8F8F8"/>
<rect x="306.977" y="126.52" width="26" height="26" rx="13" stroke="#4DB9F5" stroke-width="2"/>
<rect x="306.977" y="429.52" width="26" height="26" rx="13" fill="#F8F8F8"/>
<rect x="306.977" y="429.52" width="26" height="26" rx="13" stroke="#FF7C03" stroke-width="2"/>
<rect x="414.104" y="170.893" width="26" height="26" rx="13" fill="#F8F8F8"/>
<rect x="414.104" y="170.893" width="26" height="26" rx="13" stroke="#494D59" stroke-width="2"/>
<rect x="199.851" y="385.145" width="26" height="26" rx="13" fill="#F8F8F8"/>
<rect x="199.851" y="385.145" width="26" height="26" rx="13" stroke="#494D59" stroke-width="2"/>
<rect x="414.104" y="385.145" width="26" height="26" rx="13" fill="#F8F8F8"/>
<rect x="414.104" y="385.145" width="26" height="26" rx="13" stroke="#494D59" stroke-width="2"/>
<rect x="199.851" y="170.893" width="26" height="26" rx="13" fill="#F8F8F8"/>
<rect x="199.851" y="170.893" width="26" height="26" rx="13" stroke="#494D59" stroke-width="2"/>
<rect x="458.478" y="277.52" width="26" height="26" rx="13" fill="#F8F8F8"/>
<rect x="458.478" y="277.52" width="26" height="26" rx="13" stroke="#FF7C03" stroke-width="2"/>
<rect x="155.478" y="278.02" width="26" height="26" rx="13" fill="#F8F8F8"/>
<rect x="155.478" y="278.02" width="26" height="26" rx="13" stroke="#4DB9F5" stroke-width="2"/>
<rect x="433.617" y="145.398" width="36" height="36" rx="18" fill="#F8F8F8"/>
<rect x="433.617" y="145.398" width="36" height="36" rx="18" stroke="#494D59" stroke-width="2"/>
<rect x="170.338" y="399.644" width="36" height="36" rx="18" fill="#F8F8F8"/>
<rect x="170.338" y="399.644" width="36" height="36" rx="18" stroke="#494D59" stroke-width="2"/>
<rect x="431.378" y="401.926" width="36" height="36" rx="18" fill="#F8F8F8"/>
<rect x="431.378" y="401.926" width="36" height="36" rx="18" stroke="#494D59" stroke-width="2"/>
<rect x="172.578" y="143.123" width="36" height="36" rx="18" fill="#F8F8F8"/>
<rect x="172.578" y="143.123" width="36" height="36" rx="18" stroke="#494D59" stroke-width="2"/>
<rect x="484.978" y="272.525" width="36" height="36" rx="18" fill="#F8F8F8"/>
<rect x="484.978" y="272.525" width="36" height="36" rx="18" stroke="#494D59" stroke-width="2"/>
<rect x="118.977" y="272.525" width="36" height="36" rx="18" fill="#F8F8F8"/>
<rect x="118.977" y="272.525" width="36" height="36" rx="18" stroke="#1171CB" stroke-width="2"/>
<rect x="301.977" y="89.5195" width="36" height="36" rx="18" fill="#F8F8F8"/>
<rect x="301.977" y="89.5195" width="36" height="36" rx="18" stroke="#1171CB" stroke-width="2"/>
<rect x="301.977" y="455.52" width="36" height="36" rx="18" fill="#F8F8F8"/>
<rect x="301.977" y="455.52" width="36" height="36" rx="18" stroke="#494D59" stroke-width="2"/>
<rect x="294.977" y="265.52" width="50" height="50" rx="25" fill="#F8F8F8"/>
<rect x="294.977" y="265.52" width="50" height="50" rx="25" stroke="#FBC93B" stroke-width="2"/>
<rect x="67.9773" y="265.52" width="50" height="50" rx="25" fill="#F8F8F8"/>
<rect x="67.9773" y="265.52" width="50" height="50" rx="25" stroke="#8B46C1" stroke-width="2"/>
<rect x="521.977" y="265.52" width="50" height="50" rx="25" fill="#F8F8F8"/>
<rect x="521.977" y="265.52" width="50" height="50" rx="25" stroke="#D34645" stroke-width="2"/>
<rect x="294.978" y="38.5098" width="50" height="50" rx="25" fill="#F8F8F8"/>
<rect x="294.978" y="38.5098" width="50" height="50" rx="25" stroke="#8B46C1" stroke-width="2"/>
<rect x="294.978" y="492.52" width="50" height="50" rx="25" fill="#F8F8F8"/>
<rect x="294.978" y="492.52" width="50" height="50" rx="25" stroke="#D34645" stroke-width="2"/>
<rect x="455.494" y="104.996" width="50" height="50" rx="25" fill="#F8F8F8"/>
<rect x="455.494" y="104.996" width="50" height="50" rx="25" stroke="#494D59" stroke-width="2"/>
<rect x="134.46" y="426.029" width="50" height="50" rx="25" fill="#F8F8F8"/>
<rect x="134.46" y="426.029" width="50" height="50" rx="25" stroke="#494D59" stroke-width="2"/>
<rect x="455.493" y="426.029" width="50" height="50" rx="25" fill="#F8F8F8"/>
<rect x="455.493" y="426.029" width="50" height="50" rx="25" stroke="#494D59" stroke-width="2"/>
<rect x="134.459" y="104.994" width="50" height="50" rx="25" fill="#F8F8F8"/>
<rect x="134.459" y="104.994" width="50" height="50" rx="25" stroke="#494D59" stroke-width="2"/>
<path d="M301.604 12.124H304.446V14H297.922V13.566C299.257 12.0167 300.209 10.8873 300.778 10.178C301.357 9.45933 301.744 8.90867 301.94 8.526C302.145 8.14333 302.248 7.784 302.248 7.448C302.248 7.12133 302.15 6.86 301.954 6.664C301.758 6.468 301.501 6.37 301.184 6.37C300.857 6.37 300.591 6.47267 300.386 6.678C300.19 6.874 300.092 7.14 300.092 7.476V7.644H298.09V7.448C298.09 6.58 298.37 5.87067 298.93 5.32C299.49 4.76933 300.232 4.494 301.156 4.494C301.753 4.494 302.29 4.62 302.766 4.872C303.242 5.11467 303.611 5.46 303.872 5.908C304.133 6.356 304.264 6.86 304.264 7.42C304.264 8.01733 304.082 8.64733 303.718 9.31C303.354 9.97267 302.649 10.9107 301.604 12.124ZM309.848 14.168C309.083 14.168 308.415 13.972 307.846 13.58C307.277 13.188 306.838 12.628 306.53 11.9C306.222 11.172 306.068 10.318 306.068 9.338C306.068 7.84467 306.404 6.66867 307.076 5.81C307.757 4.942 308.681 4.508 309.848 4.508C311.015 4.508 311.934 4.942 312.606 5.81C313.278 6.66867 313.614 7.84467 313.614 9.338C313.614 10.822 313.273 11.998 312.592 12.866C311.92 13.734 311.005 14.168 309.848 14.168ZM308.532 11.55C308.84 12.054 309.279 12.306 309.848 12.306C310.417 12.306 310.851 12.054 311.15 11.55C311.449 11.0367 311.598 10.304 311.598 9.352C311.598 8.39067 311.444 7.65333 311.136 7.14C310.837 6.62667 310.408 6.37 309.848 6.37C309.279 6.37 308.84 6.62667 308.532 7.14C308.233 7.644 308.084 8.37667 308.084 9.338C308.084 10.2993 308.233 11.0367 308.532 11.55ZM320.531 6.44H325.935V14H323.933V8.218H322.197L321.945 10.906C321.833 12.0447 321.529 12.852 321.035 13.328C320.54 13.804 319.798 14.042 318.809 14.042H318.473V12.194H318.977C319.257 12.194 319.49 12.096 319.677 11.9C319.863 11.704 319.975 11.424 320.013 11.06L320.531 6.44ZM335.511 10.192C335.511 10.388 335.497 10.5887 335.469 10.794H329.757C329.841 11.3073 330.042 11.704 330.359 11.984C330.686 12.2547 331.101 12.39 331.605 12.39C331.951 12.39 332.263 12.3153 332.543 12.166C332.823 12.0073 333.043 11.7927 333.201 11.522H335.357C335.077 12.3433 334.601 12.9967 333.929 13.482C333.257 13.9673 332.483 14.21 331.605 14.21C330.485 14.21 329.552 13.8273 328.805 13.062C328.059 12.2967 327.685 11.3493 327.685 10.22C327.685 9.772 327.746 9.34267 327.867 8.932C327.998 8.52133 328.18 8.15267 328.413 7.826C328.656 7.49933 328.936 7.21933 329.253 6.986C329.571 6.74333 329.93 6.55667 330.331 6.426C330.733 6.29533 331.157 6.23 331.605 6.23C332.361 6.23 333.038 6.40733 333.635 6.762C334.242 7.11667 334.704 7.59733 335.021 8.204C335.348 8.81067 335.511 9.47333 335.511 10.192ZM331.605 7.966C331.148 7.966 330.761 8.092 330.443 8.344C330.135 8.596 329.925 8.946 329.813 9.394H333.467C333.374 9.086 333.239 8.82933 333.061 8.624C332.884 8.40933 332.669 8.246 332.417 8.134C332.175 8.022 331.904 7.966 331.605 7.966ZM343.284 6.44V8.274H340.82V14H338.818V8.274H336.354V6.44H343.284Z" fill="#202F36"/>
<path d="M301.86 568.812C302.756 568.812 303.489 569.092 304.058 569.652C304.637 570.212 304.926 570.935 304.926 571.822C304.926 572.802 304.595 573.605 303.932 574.23C303.279 574.855 302.443 575.168 301.426 575.168C300.381 575.168 299.527 574.855 298.864 574.23C298.211 573.605 297.884 572.802 297.884 571.822C297.884 570.954 298.206 569.969 298.85 568.868L300.698 565.676H302.896C302.653 566.096 302.327 566.661 301.916 567.37C301.505 568.079 301.197 568.607 300.992 568.952C301.281 568.859 301.571 568.812 301.86 568.812ZM301.412 573.32C301.851 573.32 302.21 573.18 302.49 572.9C302.77 572.62 302.91 572.261 302.91 571.822C302.91 571.374 302.77 571.01 302.49 570.73C302.21 570.45 301.851 570.31 301.412 570.31C300.973 570.31 300.609 570.45 300.32 570.73C300.04 571.01 299.9 571.374 299.9 571.822C299.9 572.261 300.04 572.62 300.32 572.9C300.609 573.18 300.973 573.32 301.412 573.32ZM310.012 575.168C309.247 575.168 308.579 574.972 308.01 574.58C307.441 574.188 307.002 573.628 306.694 572.9C306.386 572.172 306.232 571.318 306.232 570.338C306.232 568.845 306.568 567.669 307.24 566.81C307.921 565.942 308.845 565.508 310.012 565.508C311.179 565.508 312.098 565.942 312.77 566.81C313.442 567.669 313.778 568.845 313.778 570.338C313.778 571.822 313.437 572.998 312.756 573.866C312.084 574.734 311.169 575.168 310.012 575.168ZM308.696 572.55C309.004 573.054 309.443 573.306 310.012 573.306C310.581 573.306 311.015 573.054 311.314 572.55C311.613 572.037 311.762 571.304 311.762 570.352C311.762 569.391 311.608 568.653 311.3 568.14C311.001 567.627 310.572 567.37 310.012 567.37C309.443 567.37 309.004 567.627 308.696 568.14C308.397 568.644 308.248 569.377 308.248 570.338C308.248 571.299 308.397 572.037 308.696 572.55ZM320.695 567.44H326.099V575H324.097V569.218H322.361L322.109 571.906C321.997 573.045 321.693 573.852 321.199 574.328C320.704 574.804 319.962 575.042 318.973 575.042H318.637V573.194H319.141C319.421 573.194 319.654 573.096 319.841 572.9C320.027 572.704 320.139 572.424 320.177 572.06L320.695 567.44ZM335.675 571.192C335.675 571.388 335.661 571.589 335.633 571.794H329.921C330.005 572.307 330.206 572.704 330.523 572.984C330.85 573.255 331.265 573.39 331.769 573.39C332.115 573.39 332.427 573.315 332.707 573.166C332.987 573.007 333.207 572.793 333.365 572.522H335.521C335.241 573.343 334.765 573.997 334.093 574.482C333.421 574.967 332.647 575.21 331.769 575.21C330.649 575.21 329.716 574.827 328.969 574.062C328.223 573.297 327.849 572.349 327.849 571.22C327.849 570.772 327.91 570.343 328.031 569.932C328.162 569.521 328.344 569.153 328.577 568.826C328.82 568.499 329.1 568.219 329.417 567.986C329.735 567.743 330.094 567.557 330.495 567.426C330.897 567.295 331.321 567.23 331.769 567.23C332.525 567.23 333.202 567.407 333.799 567.762C334.406 568.117 334.868 568.597 335.185 569.204C335.512 569.811 335.675 570.473 335.675 571.192ZM331.769 568.966C331.312 568.966 330.925 569.092 330.607 569.344C330.299 569.596 330.089 569.946 329.977 570.394H333.631C333.538 570.086 333.403 569.829 333.225 569.624C333.048 569.409 332.833 569.246 332.581 569.134C332.339 569.022 332.068 568.966 331.769 568.966ZM343.448 567.44V569.274H340.984V575H338.982V569.274H336.518V567.44H343.448Z" fill="#202F36"/>
<path d="M574.878 179.025C575.569 179.183 576.12 179.524 576.53 180.047C576.95 180.56 577.16 181.181 577.16 181.909C577.16 182.814 576.848 183.565 576.222 184.163C575.597 184.76 574.808 185.059 573.856 185.059C572.932 185.059 572.172 184.769 571.574 184.191C570.986 183.612 570.674 182.865 570.636 181.951L572.638 181.951C572.657 182.324 572.778 182.627 573.002 182.861C573.226 183.085 573.511 183.197 573.856 183.197C574.23 183.197 574.538 183.071 574.78 182.819C575.023 182.567 575.144 182.245 575.144 181.853C575.144 181.451 575.014 181.134 574.752 180.901C574.491 180.667 574.146 180.551 573.716 180.551L572.372 180.551L572.372 180.173L574.066 177.373L570.86 177.373L570.86 175.581L576.81 175.581L576.81 175.959L574.878 179.025ZM581.805 178.829C582.776 178.829 583.574 179.118 584.199 179.697C584.824 180.275 585.137 181.008 585.137 181.895C585.137 182.8 584.824 183.556 584.199 184.163C583.574 184.76 582.799 185.059 581.875 185.059C581.259 185.059 580.699 184.928 580.195 184.667C579.7 184.396 579.313 184.027 579.033 183.561C578.753 183.085 578.608 182.553 578.599 181.965L580.629 181.965C580.629 182.198 580.68 182.408 580.783 182.595C580.895 182.781 581.044 182.931 581.231 183.043C581.427 183.145 581.642 183.197 581.875 183.197C582.23 183.197 582.524 183.075 582.757 182.833C583 182.581 583.121 182.268 583.121 181.895C583.121 181.493 582.99 181.167 582.729 180.915C582.468 180.663 582.136 180.537 581.735 180.537L579.117 180.537L578.935 180.285L579.453 175.581L584.493 175.581L584.493 177.373L581.035 177.373L580.867 178.829L581.805 178.829ZM591.93 177.331L597.334 177.331L597.334 184.891L595.332 184.891L595.332 179.109L593.596 179.109L593.344 181.797C593.232 182.935 592.928 183.743 592.434 184.219C591.939 184.695 591.197 184.933 590.208 184.933L589.872 184.933L589.872 183.085L590.376 183.085C590.656 183.085 590.889 182.987 591.076 182.791C591.262 182.595 591.374 182.315 591.412 181.951L591.93 177.331ZM606.91 181.083C606.91 181.279 606.896 181.479 606.868 181.685L601.156 181.685C601.24 182.198 601.441 182.595 601.758 182.875C602.085 183.145 602.5 183.281 603.004 183.281C603.35 183.281 603.662 183.206 603.942 183.057C604.222 182.898 604.442 182.683 604.6 182.413L606.756 182.413C606.476 183.234 606 183.887 605.328 184.373C604.656 184.858 603.882 185.101 603.004 185.101C601.884 185.101 600.951 184.718 600.204 183.953C599.458 183.187 599.084 182.24 599.084 181.111C599.084 180.663 599.145 180.233 599.266 179.823C599.397 179.412 599.579 179.043 599.812 178.717C600.055 178.39 600.335 178.11 600.652 177.877C600.97 177.634 601.329 177.447 601.73 177.317C602.132 177.186 602.556 177.121 603.004 177.121C603.76 177.121 604.437 177.298 605.034 177.653C605.641 178.007 606.103 178.488 606.42 179.095C606.747 179.701 606.91 180.364 606.91 181.083ZM603.004 178.857C602.547 178.857 602.16 178.983 601.842 179.235C601.534 179.487 601.324 179.837 601.212 180.285L604.866 180.285C604.773 179.977 604.638 179.72 604.46 179.515C604.283 179.3 604.068 179.137 603.816 179.025C603.574 178.913 603.303 178.857 603.004 178.857ZM614.683 177.331L614.683 179.165L612.219 179.165L612.219 184.891L610.217 184.891L610.217 179.165L607.753 179.165L607.753 177.331L614.683 177.331Z" fill="#202F36"/>
<path d="M27.6383 394.779L34.3023 394.779L34.3023 395.045L30.7603 404.089L28.6883 404.089L31.6703 396.571L27.6383 396.571L27.6383 394.779ZM38.6201 398.027C39.5908 398.027 40.3888 398.316 41.0141 398.895C41.6394 399.474 41.9521 400.206 41.9521 401.093C41.9521 401.998 41.6394 402.754 41.0141 403.361C40.3888 403.958 39.6141 404.257 38.6901 404.257C38.0741 404.257 37.5141 404.126 37.0101 403.865C36.5154 403.594 36.1281 403.226 35.8481 402.759C35.5681 402.283 35.4234 401.751 35.4141 401.163L37.4441 401.163C37.4441 401.396 37.4954 401.606 37.5981 401.793C37.7101 401.98 37.8594 402.129 38.0461 402.241C38.2421 402.344 38.4568 402.395 38.6901 402.395C39.0448 402.395 39.3388 402.274 39.5721 402.031C39.8148 401.779 39.9361 401.466 39.9361 401.093C39.9361 400.692 39.8054 400.365 39.5441 400.113C39.2828 399.861 38.9514 399.735 38.5501 399.735L35.9321 399.735L35.7501 399.483L36.2681 394.779L41.3081 394.779L41.3081 396.571L37.8501 396.571L37.6821 398.027L38.6201 398.027ZM48.7446 396.529L54.1486 396.529L54.1486 404.089L52.1466 404.089L52.1466 398.307L50.4106 398.307L50.1586 400.995C50.0466 402.134 49.7433 402.941 49.2486 403.417C48.7539 403.893 48.0119 404.131 47.0226 404.131L46.6866 404.131L46.6866 402.283L47.1906 402.283C47.4706 402.283 47.7039 402.185 47.8906 401.989C48.0773 401.793 48.1893 401.513 48.2266 401.149L48.7446 396.529ZM63.7253 400.281C63.7253 400.477 63.7113 400.678 63.6833 400.883L57.9713 400.883C58.0553 401.396 58.2559 401.793 58.5733 402.073C58.8999 402.344 59.3153 402.479 59.8193 402.479C60.1646 402.479 60.4773 402.404 60.7573 402.255C61.0373 402.096 61.2566 401.882 61.4153 401.611L63.5713 401.611C63.2913 402.432 62.8153 403.086 62.1433 403.571C61.4713 404.056 60.6966 404.299 59.8193 404.299C58.6993 404.299 57.7659 403.916 57.0193 403.151C56.2726 402.386 55.8993 401.438 55.8993 400.309C55.8993 399.861 55.9599 399.432 56.0813 399.021C56.2119 398.61 56.3939 398.242 56.6273 397.915C56.8699 397.588 57.1499 397.308 57.4673 397.075C57.7846 396.832 58.1439 396.646 58.5453 396.515C58.9466 396.384 59.3713 396.319 59.8193 396.319C60.5753 396.319 61.2519 396.496 61.8493 396.851C62.4559 397.206 62.9179 397.686 63.2353 398.293C63.5619 398.9 63.7253 399.562 63.7253 400.281ZM59.8193 398.055C59.3619 398.055 58.9746 398.181 58.6573 398.433C58.3493 398.685 58.1393 399.035 58.0273 399.483L61.6813 399.483C61.5879 399.175 61.4526 398.918 61.2753 398.713C61.0979 398.498 60.8833 398.335 60.6313 398.223C60.3886 398.111 60.1179 398.055 59.8193 398.055ZM71.4982 396.529L71.4982 398.363L69.0342 398.363L69.0342 404.089L67.0322 404.089L67.0322 398.363L64.5682 398.363L64.5682 396.529L71.4982 396.529Z" fill="#202F36"/>
<path d="M518.256 90.2902C518.946 90.4489 519.497 90.7896 519.908 91.3122C520.328 91.8256 520.538 92.4462 520.538 93.1742C520.538 94.0796 520.225 94.8309 519.6 95.4282C518.974 96.0256 518.186 96.3242 517.234 96.3242C516.31 96.3242 515.549 96.0349 514.952 95.4562C514.364 94.8776 514.051 94.1309 514.014 93.2162H516.016C516.034 93.5896 516.156 93.8929 516.38 94.1262C516.604 94.3502 516.888 94.4622 517.234 94.4622C517.607 94.4622 517.915 94.3362 518.158 94.0842C518.4 93.8322 518.522 93.5102 518.522 93.1182C518.522 92.7169 518.391 92.3996 518.13 92.1662C517.868 91.9329 517.523 91.8162 517.094 91.8162H515.75V91.4382L517.444 88.6382H514.238V86.8462H520.188V87.2242L518.256 90.2902ZM525.869 96.3242C525.103 96.3242 524.436 96.1282 523.867 95.7362C523.297 95.3442 522.859 94.7842 522.551 94.0562C522.243 93.3282 522.089 92.4742 522.089 91.4942C522.089 90.0009 522.425 88.8249 523.097 87.9662C523.778 87.0982 524.702 86.6642 525.869 86.6642C527.035 86.6642 527.955 87.0982 528.627 87.9662C529.299 88.8249 529.635 90.0009 529.635 91.4942C529.635 92.9782 529.294 94.1542 528.613 95.0222C527.941 95.8902 527.026 96.3242 525.869 96.3242ZM524.553 93.7062C524.861 94.2102 525.299 94.4622 525.869 94.4622C526.438 94.4622 526.872 94.2102 527.171 93.7062C527.469 93.1929 527.619 92.4602 527.619 91.5082C527.619 90.5469 527.465 89.8096 527.157 89.2962C526.858 88.7829 526.429 88.5262 525.869 88.5262C525.299 88.5262 524.861 88.7829 524.553 89.2962C524.254 89.8002 524.105 90.5329 524.105 91.4942C524.105 92.4556 524.254 93.1929 524.553 93.7062ZM536.551 88.5962H541.955V96.1562H539.953V90.3742H538.217L537.965 93.0622C537.853 94.2009 537.55 95.0082 537.055 95.4842C536.561 95.9602 535.819 96.1982 534.829 96.1982H534.493V94.3502H534.997C535.277 94.3502 535.511 94.2522 535.697 94.0562C535.884 93.8602 535.996 93.5802 536.033 93.2162L536.551 88.5962ZM551.532 92.3482C551.532 92.5442 551.518 92.7449 551.49 92.9502H545.778C545.862 93.4636 546.063 93.8602 546.38 94.1402C546.707 94.4109 547.122 94.5462 547.626 94.5462C547.971 94.5462 548.284 94.4716 548.564 94.3222C548.844 94.1636 549.063 93.9489 549.222 93.6782H551.378C551.098 94.4996 550.622 95.1529 549.95 95.6382C549.278 96.1236 548.503 96.3662 547.626 96.3662C546.506 96.3662 545.573 95.9836 544.826 95.2182C544.079 94.4529 543.706 93.5056 543.706 92.3762C543.706 91.9282 543.767 91.4989 543.888 91.0882C544.019 90.6776 544.201 90.3089 544.434 89.9822C544.677 89.6556 544.957 89.3756 545.274 89.1422C545.591 88.8996 545.951 88.7129 546.352 88.5822C546.753 88.4516 547.178 88.3862 547.626 88.3862C548.382 88.3862 549.059 88.5636 549.656 88.9182C550.263 89.2729 550.725 89.7536 551.042 90.3602C551.369 90.9669 551.532 91.6296 551.532 92.3482ZM547.626 90.1222C547.169 90.1222 546.781 90.2482 546.464 90.5002C546.156 90.7522 545.946 91.1022 545.834 91.5502H549.488C549.395 91.2422 549.259 90.9856 549.082 90.7802C548.905 90.5656 548.69 90.4022 548.438 90.2902C548.195 90.1782 547.925 90.1222 547.626 90.1222ZM559.305 88.5962V90.4302H556.841V96.1562H554.839V90.4302H552.375V88.5962H559.305Z" fill="#202F36"/>
<path d="M80.1188 483.534H86.7828V483.8L83.2408 492.844H81.1688L84.1508 485.326H80.1188V483.534ZM91.5815 493.012C90.8161 493.012 90.1488 492.816 89.5795 492.424C89.0101 492.032 88.5715 491.472 88.2635 490.744C87.9555 490.016 87.8015 489.162 87.8015 488.182C87.8015 486.688 88.1375 485.512 88.8095 484.654C89.4908 483.786 90.4148 483.352 91.5815 483.352C92.7481 483.352 93.6675 483.786 94.3395 484.654C95.0115 485.512 95.3475 486.688 95.3475 488.182C95.3475 489.666 95.0068 490.842 94.3255 491.71C93.6535 492.578 92.7388 493.012 91.5815 493.012ZM90.2655 490.394C90.5735 490.898 91.0121 491.15 91.5815 491.15C92.1508 491.15 92.5848 490.898 92.8835 490.394C93.1821 489.88 93.3315 489.148 93.3315 488.196C93.3315 487.234 93.1775 486.497 92.8695 485.984C92.5708 485.47 92.1415 485.214 91.5815 485.214C91.0121 485.214 90.5735 485.47 90.2655 485.984C89.9668 486.488 89.8175 487.22 89.8175 488.182C89.8175 489.143 89.9668 489.88 90.2655 490.394ZM102.264 485.284H107.668V492.844H105.666V487.062H103.93L103.678 489.75C103.566 490.888 103.263 491.696 102.768 492.172C102.273 492.648 101.531 492.886 100.542 492.886H100.206V491.038H100.71C100.99 491.038 101.223 490.94 101.41 490.744C101.597 490.548 101.709 490.268 101.746 489.904L102.264 485.284ZM117.245 489.036C117.245 489.232 117.231 489.432 117.203 489.638H111.491C111.575 490.151 111.775 490.548 112.093 490.828C112.419 491.098 112.835 491.234 113.339 491.234C113.684 491.234 113.997 491.159 114.277 491.01C114.557 490.851 114.776 490.636 114.935 490.366H117.091C116.811 491.187 116.335 491.84 115.663 492.326C114.991 492.811 114.216 493.054 113.339 493.054C112.219 493.054 111.285 492.671 110.539 491.906C109.792 491.14 109.419 490.193 109.419 489.064C109.419 488.616 109.479 488.186 109.601 487.776C109.731 487.365 109.913 486.996 110.147 486.67C110.389 486.343 110.669 486.063 110.987 485.83C111.304 485.587 111.663 485.4 112.065 485.27C112.466 485.139 112.891 485.074 113.339 485.074C114.095 485.074 114.771 485.251 115.369 485.606C115.975 485.96 116.437 486.441 116.755 487.048C117.081 487.654 117.245 488.317 117.245 489.036ZM113.339 486.81C112.881 486.81 112.494 486.936 112.177 487.188C111.869 487.44 111.659 487.79 111.547 488.238H115.201C115.107 487.93 114.972 487.673 114.795 487.468C114.617 487.253 114.403 487.09 114.151 486.978C113.908 486.866 113.637 486.81 113.339 486.81ZM125.018 485.284V487.118H122.554V492.844H120.552V487.118H118.088V485.284H125.018Z" fill="#202F36"/>
<path d="M94.2487 86.8423H97.6647V96.1523H95.7047V88.5923H94.2487V86.8423ZM103.536 96.3203C102.77 96.3203 102.103 96.1243 101.534 95.7323C100.964 95.3403 100.526 94.7803 100.218 94.0523C99.9096 93.3243 99.7556 92.4703 99.7556 91.4903C99.7556 89.997 100.092 88.821 100.764 87.9623C101.445 87.0943 102.369 86.6603 103.536 86.6603C104.702 86.6603 105.622 87.0943 106.294 87.9623C106.966 88.821 107.302 89.997 107.302 91.4903C107.302 92.9743 106.961 94.1503 106.28 95.0183C105.608 95.8863 104.693 96.3203 103.536 96.3203ZM102.22 93.7023C102.528 94.2063 102.966 94.4583 103.536 94.4583C104.105 94.4583 104.539 94.2063 104.838 93.7023C105.136 93.189 105.286 92.4563 105.286 91.5043C105.286 90.543 105.132 89.8057 104.824 89.2923C104.525 88.779 104.096 88.5223 103.536 88.5223C102.966 88.5223 102.528 88.779 102.22 89.2923C101.921 89.7963 101.772 90.529 101.772 91.4903C101.772 92.4517 101.921 93.189 102.22 93.7023ZM114.218 88.5923H119.622V96.1523H117.62V90.3703H115.884L115.632 93.0583C115.52 94.197 115.217 95.0043 114.722 95.4803C114.228 95.9563 113.486 96.1943 112.496 96.1943H112.16V94.3463H112.664C112.944 94.3463 113.178 94.2483 113.364 94.0523C113.551 93.8563 113.663 93.5763 113.7 93.2123L114.218 88.5923ZM129.199 92.3443C129.199 92.5403 129.185 92.741 129.157 92.9463H123.445C123.529 93.4597 123.73 93.8563 124.047 94.1363C124.374 94.407 124.789 94.5423 125.293 94.5423C125.638 94.5423 125.951 94.4677 126.231 94.3183C126.511 94.1597 126.73 93.945 126.889 93.6743H129.045C128.765 94.4957 128.289 95.149 127.617 95.6343C126.945 96.1197 126.17 96.3623 125.293 96.3623C124.173 96.3623 123.24 95.9797 122.493 95.2143C121.746 94.449 121.373 93.5017 121.373 92.3723C121.373 91.9243 121.434 91.495 121.555 91.0843C121.686 90.6737 121.868 90.305 122.101 89.9783C122.344 89.6517 122.624 89.3717 122.941 89.1383C123.258 88.8957 123.618 88.709 124.019 88.5783C124.42 88.4477 124.845 88.3823 125.293 88.3823C126.049 88.3823 126.726 88.5597 127.323 88.9143C127.93 89.269 128.392 89.7497 128.709 90.3563C129.036 90.963 129.199 91.6257 129.199 92.3443ZM125.293 90.1183C124.836 90.1183 124.448 90.2443 124.131 90.4963C123.823 90.7483 123.613 91.0983 123.501 91.5463H127.155C127.062 91.2383 126.926 90.9817 126.749 90.7763C126.572 90.5617 126.357 90.3983 126.105 90.2863C125.862 90.1743 125.592 90.1183 125.293 90.1183ZM136.972 88.5923V90.4263H134.508V96.1523H132.506V90.4263H130.042V88.5923H136.972Z" fill="#202F36"/>
<path d="M517.233 486.778C518.203 486.778 519.001 487.067 519.627 487.646C520.252 488.225 520.565 488.957 520.565 489.844C520.565 490.749 520.252 491.505 519.627 492.112C519.001 492.709 518.227 493.008 517.303 493.008C516.687 493.008 516.127 492.877 515.623 492.616C515.128 492.345 514.741 491.977 514.461 491.51C514.181 491.034 514.036 490.502 514.027 489.914H516.057C516.057 490.147 516.108 490.357 516.211 490.544C516.323 490.731 516.472 490.88 516.659 490.992C516.855 491.095 517.069 491.146 517.303 491.146C517.657 491.146 517.951 491.025 518.185 490.782C518.427 490.53 518.549 490.217 518.549 489.844C518.549 489.443 518.418 489.116 518.157 488.864C517.895 488.612 517.564 488.486 517.163 488.486H514.545L514.363 488.234L514.881 483.53H519.921V485.322H516.463L516.295 486.778H517.233ZM525.828 493.008C525.062 493.008 524.395 492.812 523.826 492.42C523.256 492.028 522.818 491.468 522.51 490.74C522.202 490.012 522.048 489.158 522.048 488.178C522.048 486.685 522.384 485.509 523.056 484.65C523.737 483.782 524.661 483.348 525.828 483.348C526.994 483.348 527.914 483.782 528.586 484.65C529.258 485.509 529.594 486.685 529.594 488.178C529.594 489.662 529.253 490.838 528.572 491.706C527.9 492.574 526.985 493.008 525.828 493.008ZM524.512 490.39C524.82 490.894 525.258 491.146 525.828 491.146C526.397 491.146 526.831 490.894 527.13 490.39C527.428 489.877 527.578 489.144 527.578 488.192C527.578 487.231 527.424 486.493 527.116 485.98C526.817 485.467 526.388 485.21 525.828 485.21C525.258 485.21 524.82 485.467 524.512 485.98C524.213 486.484 524.064 487.217 524.064 488.178C524.064 489.139 524.213 489.877 524.512 490.39ZM536.51 485.28H541.914V492.84H539.912V487.058H538.176L537.924 489.746C537.812 490.885 537.509 491.692 537.014 492.168C536.52 492.644 535.778 492.882 534.788 492.882H534.452V491.034H534.956C535.236 491.034 535.47 490.936 535.656 490.74C535.843 490.544 535.955 490.264 535.992 489.9L536.51 485.28ZM551.491 489.032C551.491 489.228 551.477 489.429 551.449 489.634H545.737C545.821 490.147 546.022 490.544 546.339 490.824C546.666 491.095 547.081 491.23 547.585 491.23C547.93 491.23 548.243 491.155 548.523 491.006C548.803 490.847 549.022 490.633 549.181 490.362H551.337C551.057 491.183 550.581 491.837 549.909 492.322C549.237 492.807 548.462 493.05 547.585 493.05C546.465 493.05 545.532 492.667 544.785 491.902C544.038 491.137 543.665 490.189 543.665 489.06C543.665 488.612 543.726 488.183 543.847 487.772C543.978 487.361 544.16 486.993 544.393 486.666C544.636 486.339 544.916 486.059 545.233 485.826C545.55 485.583 545.91 485.397 546.311 485.266C546.712 485.135 547.137 485.07 547.585 485.07C548.341 485.07 549.018 485.247 549.615 485.602C550.222 485.957 550.684 486.437 551.001 487.044C551.328 487.651 551.491 488.313 551.491 489.032ZM547.585 486.806C547.128 486.806 546.74 486.932 546.423 487.184C546.115 487.436 545.905 487.786 545.793 488.234H549.447C549.354 487.926 549.218 487.669 549.041 487.464C548.864 487.249 548.649 487.086 548.397 486.974C548.154 486.862 547.884 486.806 547.585 486.806ZM559.264 485.28V487.114H556.8V492.84H554.798V487.114H552.334V485.28H559.264Z" fill="#202F36"/>
<path d="M30.8092 183.354C31.7799 183.354 32.5779 183.643 33.2032 184.222C33.8285 184.801 34.1412 185.533 34.1412 186.42C34.1412 187.325 33.8285 188.081 33.2032 188.688C32.5779 189.285 31.8032 189.584 30.8792 189.584C30.2632 189.584 29.7032 189.453 29.1992 189.192C28.7045 188.921 28.3172 188.553 28.0372 188.086C27.7572 187.61 27.6125 187.078 27.6032 186.49L29.6332 186.49C29.6332 186.723 29.6845 186.933 29.7872 187.12C29.8992 187.307 30.0485 187.456 30.2352 187.568C30.4312 187.671 30.6459 187.722 30.8792 187.722C31.2339 187.722 31.5279 187.601 31.7612 187.358C32.0039 187.106 32.1252 186.793 32.1252 186.42C32.1252 186.019 31.9945 185.692 31.7332 185.44C31.4719 185.188 31.1405 185.062 30.7392 185.062L28.1212 185.062L27.9392 184.81L28.4572 180.106L33.4972 180.106L33.4972 181.898L30.0392 181.898L29.8712 183.354L30.8092 183.354ZM40.9337 181.856L46.3377 181.856L46.3377 189.416L44.3357 189.416L44.3357 183.634L42.5997 183.634L42.3477 186.322C42.2357 187.461 41.9324 188.268 41.4377 188.744C40.943 189.22 40.201 189.458 39.2117 189.458L38.8757 189.458L38.8757 187.61L39.3797 187.61C39.6597 187.61 39.893 187.512 40.0797 187.316C40.2664 187.12 40.3784 186.84 40.4157 186.476L40.9337 181.856ZM55.9144 185.608C55.9144 185.804 55.9004 186.005 55.8724 186.21L50.1604 186.21C50.2444 186.723 50.445 187.12 50.7624 187.4C51.089 187.671 51.5044 187.806 52.0084 187.806C52.3537 187.806 52.6664 187.731 52.9464 187.582C53.2264 187.423 53.4457 187.209 53.6044 186.938L55.7604 186.938C55.4804 187.759 55.0044 188.413 54.3324 188.898C53.6604 189.383 52.8857 189.626 52.0084 189.626C50.8884 189.626 49.955 189.243 49.2084 188.478C48.4617 187.713 48.0884 186.765 48.0884 185.636C48.0884 185.188 48.149 184.759 48.2704 184.348C48.401 183.937 48.583 183.569 48.8164 183.242C49.059 182.915 49.339 182.635 49.6564 182.402C49.9737 182.159 50.333 181.973 50.7344 181.842C51.1357 181.711 51.5604 181.646 52.0084 181.646C52.7644 181.646 53.441 181.823 54.0384 182.178C54.645 182.533 55.107 183.013 55.4244 183.62C55.751 184.227 55.9144 184.889 55.9144 185.608ZM52.0084 183.382C51.551 183.382 51.1637 183.508 50.8464 183.76C50.5384 184.012 50.3284 184.362 50.2164 184.81L53.8704 184.81C53.777 184.502 53.6417 184.245 53.4644 184.04C53.287 183.825 53.0724 183.662 52.8204 183.55C52.5777 183.438 52.307 183.382 52.0084 183.382ZM63.6873 181.856L63.6873 183.69L61.2233 183.69L61.2233 189.416L59.2213 189.416L59.2213 183.69L56.7573 183.69L56.7573 181.856L63.6873 181.856Z" fill="#202F36"/>
<path d="M578.413 396.042L578.413 397.778L577.601 397.778L577.601 399.57L575.725 399.57L575.725 397.778L571.259 397.778L571.259 397.428L574.325 390.26L576.299 390.26L573.821 396.042L575.781 396.042L576.103 393.816L577.601 393.816L577.601 396.042L578.413 396.042ZM582.846 393.508C583.816 393.508 584.614 393.798 585.24 394.376C585.865 394.955 586.178 395.688 586.178 396.574C586.178 397.48 585.865 398.236 585.24 398.842C584.614 399.44 583.84 399.738 582.916 399.738C582.3 399.738 581.74 399.608 581.236 399.346C580.741 399.076 580.354 398.707 580.074 398.24C579.794 397.764 579.649 397.232 579.64 396.644L581.67 396.644C581.67 396.878 581.721 397.088 581.824 397.274C581.936 397.461 582.085 397.61 582.272 397.722C582.468 397.825 582.682 397.876 582.916 397.876C583.27 397.876 583.564 397.755 583.798 397.512C584.04 397.26 584.162 396.948 584.162 396.574C584.162 396.173 584.031 395.846 583.77 395.594C583.508 395.342 583.177 395.216 582.776 395.216L580.158 395.216L579.976 394.964L580.494 390.26L585.534 390.26L585.534 392.052L582.076 392.052L581.908 393.508L582.846 393.508ZM592.97 392.01L598.374 392.01L598.374 399.57L596.372 399.57L596.372 393.788L594.636 393.788L594.384 396.476C594.272 397.615 593.969 398.422 593.474 398.898C592.98 399.374 592.238 399.612 591.248 399.612L590.912 399.612L590.912 397.764L591.416 397.764C591.696 397.764 591.93 397.666 592.116 397.47C592.303 397.274 592.415 396.994 592.452 396.63L592.97 392.01ZM607.951 395.762C607.951 395.958 607.937 396.159 607.909 396.364L602.197 396.364C602.281 396.878 602.482 397.274 602.799 397.554C603.126 397.825 603.541 397.96 604.045 397.96C604.39 397.96 604.703 397.886 604.983 397.736C605.263 397.578 605.482 397.363 605.641 397.092L607.797 397.092C607.517 397.914 607.041 398.567 606.369 399.052C605.697 399.538 604.922 399.78 604.045 399.78C602.925 399.78 601.992 399.398 601.245 398.632C600.498 397.867 600.125 396.92 600.125 395.79C600.125 395.342 600.186 394.913 600.307 394.502C600.438 394.092 600.62 393.723 600.853 393.396C601.096 393.07 601.376 392.79 601.693 392.556C602.01 392.314 602.37 392.127 602.771 391.996C603.172 391.866 603.597 391.8 604.045 391.8C604.801 391.8 605.478 391.978 606.075 392.332C606.682 392.687 607.144 393.168 607.461 393.774C607.788 394.381 607.951 395.044 607.951 395.762ZM604.045 393.536C603.588 393.536 603.2 393.662 602.883 393.914C602.575 394.166 602.365 394.516 602.253 394.964L605.907 394.964C605.814 394.656 605.678 394.4 605.501 394.194C605.324 393.98 605.109 393.816 604.857 393.704C604.614 393.592 604.344 393.536 604.045 393.536ZM615.724 392.01L615.724 393.844L613.26 393.844L613.26 399.57L611.258 399.57L611.258 393.844L608.794 393.844L608.794 392.01L615.724 392.01Z" fill="#202F36"/>
<path d="M9.87312 294.662C9.10778 294.662 8.44045 294.466 7.87112 294.074C7.30178 293.682 6.86312 293.122 6.55512 292.394C6.24712 291.666 6.09312 290.812 6.09312 289.832C6.09312 288.339 6.42912 287.163 7.10112 286.304C7.78245 285.436 8.70645 285.002 9.87312 285.002C11.0398 285.002 11.9591 285.436 12.6311 286.304C13.3031 287.163 13.6391 288.339 13.6391 289.832C13.6391 291.316 13.2985 292.492 12.6171 293.36C11.9451 294.228 11.0305 294.662 9.87312 294.662ZM8.55712 292.044C8.86512 292.548 9.30378 292.8 9.87312 292.8C10.4425 292.8 10.8765 292.548 11.1751 292.044C11.4738 291.531 11.6231 290.798 11.6231 289.846C11.6231 288.885 11.4691 288.147 11.1611 287.634C10.8625 287.121 10.4331 286.864 9.87312 286.864C9.30378 286.864 8.86512 287.121 8.55712 287.634C8.25845 288.138 8.10912 288.871 8.10912 289.832C8.10912 290.793 8.25845 291.531 8.55712 292.044ZM20.5558 286.934H25.9598L25.9598 294.494H23.9578L23.9578 288.712H22.2218L21.9698 291.4C21.8578 292.539 21.5544 293.346 21.0598 293.822C20.5651 294.298 19.8231 294.536 18.8338 294.536H18.4978L18.4978 292.688H19.0018C19.2818 292.688 19.5151 292.59 19.7018 292.394C19.8884 292.198 20.0004 291.918 20.0378 291.554L20.5558 286.934ZM35.5364 290.686C35.5364 290.882 35.5224 291.083 35.4944 291.288L29.7824 291.288C29.8664 291.801 30.0671 292.198 30.3844 292.478C30.7111 292.749 31.1264 292.884 31.6304 292.884C31.9758 292.884 32.2884 292.809 32.5684 292.66C32.8484 292.501 33.0678 292.287 33.2264 292.016H35.3824C35.1024 292.837 34.6264 293.491 33.9544 293.976C33.2824 294.461 32.5078 294.704 31.6304 294.704C30.5104 294.704 29.5771 294.321 28.8304 293.556C28.0838 292.791 27.7104 291.843 27.7104 290.714C27.7104 290.266 27.7711 289.837 27.8924 289.426C28.0231 289.015 28.2051 288.647 28.4384 288.32C28.6811 287.993 28.9611 287.713 29.2784 287.48C29.5958 287.237 29.9551 287.051 30.3564 286.92C30.7578 286.789 31.1824 286.724 31.6304 286.724C32.3864 286.724 33.0631 286.901 33.6604 287.256C34.2671 287.611 34.7291 288.091 35.0464 288.698C35.3731 289.305 35.5364 289.967 35.5364 290.686ZM31.6304 288.46C31.1731 288.46 30.7858 288.586 30.4684 288.838C30.1604 289.09 29.9504 289.44 29.8384 289.888H33.4924C33.3991 289.58 33.2638 289.323 33.0864 289.118C32.9091 288.903 32.6944 288.74 32.4424 288.628C32.1998 288.516 31.9291 288.46 31.6304 288.46ZM43.3094 286.934V288.768H40.8454L40.8454 294.494H38.8434L38.8434 288.768H36.3794V286.934L43.3094 286.934Z" fill="#202F36"/>
<path d="M599.791 290.966V292.702H598.979V294.494H597.103V292.702H592.637V292.352L595.703 285.184H597.677L595.199 290.966H597.159L597.481 288.74H598.979V290.966H599.791ZM604.91 294.662C604.144 294.662 603.477 294.466 602.908 294.074C602.338 293.682 601.9 293.122 601.592 292.394C601.284 291.666 601.13 290.812 601.13 289.832C601.13 288.339 601.466 287.163 602.138 286.304C602.819 285.436 603.743 285.002 604.91 285.002C606.076 285.002 606.996 285.436 607.668 286.304C608.34 287.163 608.676 288.339 608.676 289.832C608.676 291.316 608.335 292.492 607.654 293.36C606.982 294.228 606.067 294.662 604.91 294.662ZM603.594 292.044C603.902 292.548 604.34 292.8 604.91 292.8C605.479 292.8 605.913 292.548 606.212 292.044C606.51 291.531 606.66 290.798 606.66 289.846C606.66 288.885 606.506 288.147 606.198 287.634C605.899 287.121 605.47 286.864 604.91 286.864C604.34 286.864 603.902 287.121 603.594 287.634C603.295 288.138 603.146 288.871 603.146 289.832C603.146 290.793 603.295 291.531 603.594 292.044ZM615.592 286.934H620.996V294.494H618.994V288.712H617.258L617.006 291.4C616.894 292.539 616.591 293.346 616.096 293.822C615.602 294.298 614.86 294.536 613.87 294.536H613.534V292.688H614.038C614.318 292.688 614.552 292.59 614.738 292.394C614.925 292.198 615.037 291.918 615.074 291.554L615.592 286.934ZM630.573 290.686C630.573 290.882 630.559 291.083 630.531 291.288L624.819 291.288C624.903 291.801 625.104 292.198 625.421 292.478C625.748 292.749 626.163 292.884 626.667 292.884C627.012 292.884 627.325 292.809 627.605 292.66C627.885 292.501 628.104 292.287 628.263 292.016H630.419C630.139 292.837 629.663 293.491 628.991 293.976C628.319 294.461 627.544 294.704 626.667 294.704C625.547 294.704 624.614 294.321 623.867 293.556C623.12 292.791 622.747 291.843 622.747 290.714C622.747 290.266 622.808 289.837 622.929 289.426C623.06 289.015 623.242 288.647 623.475 288.32C623.718 287.993 623.998 287.713 624.315 287.48C624.632 287.237 624.992 287.051 625.393 286.92C625.794 286.789 626.219 286.724 626.667 286.724C627.423 286.724 628.1 286.901 628.697 287.256C629.304 287.611 629.766 288.091 630.083 288.698C630.41 289.305 630.573 289.967 630.573 290.686ZM626.667 288.46C626.21 288.46 625.822 288.586 625.505 288.838C625.197 289.09 624.987 289.44 624.875 289.888H628.529C628.436 289.58 628.3 289.323 628.123 289.118C627.946 288.903 627.731 288.74 627.479 288.628C627.236 288.516 626.966 288.46 626.667 288.46ZM638.346 286.934V288.768H635.882V294.494H633.88V288.768H631.416V286.934H638.346Z" fill="#202F36"/>
<path d="M411.827 34.4248L414.669 34.4248L414.669 36.3008L408.145 36.3008L408.145 35.8668C409.48 34.3174 410.432 33.1881 411.001 32.4788C411.58 31.7601 411.967 31.2094 412.163 30.8268C412.369 30.4441 412.471 30.0848 412.471 29.7488C412.471 29.4221 412.373 29.1608 412.177 28.9648C411.981 28.7688 411.725 28.6708 411.407 28.6708C411.081 28.6708 410.815 28.7734 410.609 28.9788C410.413 29.1748 410.315 29.4408 410.315 29.7768L410.315 29.9448L408.313 29.9448L408.313 29.7488C408.313 28.8808 408.593 28.1714 409.153 27.6208C409.713 27.0701 410.455 26.7948 411.379 26.7948C411.977 26.7948 412.513 26.9208 412.989 27.1728C413.465 27.4154 413.834 27.7608 414.095 28.2088C414.357 28.6568 414.487 29.1608 414.487 29.7208C414.487 30.3181 414.305 30.9481 413.941 31.6108C413.577 32.2734 412.873 33.2114 411.827 34.4248ZM419.385 30.2388C420.356 30.2388 421.154 30.5281 421.779 31.1068C422.405 31.6854 422.717 32.4181 422.717 33.3048C422.717 34.2101 422.405 34.9661 421.779 35.5728C421.154 36.1701 420.379 36.4688 419.455 36.4688C418.839 36.4688 418.279 36.3381 417.775 36.0768C417.281 35.8061 416.893 35.4374 416.613 34.9708C416.333 34.4948 416.189 33.9628 416.179 33.3748L418.209 33.3748C418.209 33.6081 418.261 33.8181 418.363 34.0048C418.475 34.1914 418.625 34.3408 418.811 34.4528C419.007 34.5554 419.222 34.6068 419.455 34.6068C419.81 34.6068 420.104 34.4854 420.337 34.2428C420.58 33.9908 420.701 33.6781 420.701 33.3048C420.701 32.9034 420.571 32.5768 420.309 32.3248C420.048 32.0728 419.717 31.9468 419.315 31.9468L416.697 31.9468L416.515 31.6948L417.033 26.9908L422.073 26.9908L422.073 28.7828L418.615 28.7828L418.447 30.2388L419.385 30.2388ZM429.51 28.7408L434.914 28.7408L434.914 36.3008L432.912 36.3008L432.912 30.5188L431.176 30.5188L430.924 33.2068C430.812 34.3454 430.508 35.1528 430.014 35.6288C429.519 36.1048 428.777 36.3428 427.788 36.3428L427.452 36.3428L427.452 34.4948L427.956 34.4948C428.236 34.4948 428.469 34.3968 428.656 34.2008C428.842 34.0048 428.954 33.7248 428.992 33.3608L429.51 28.7408ZM444.49 32.4928C444.49 32.6888 444.476 32.8894 444.448 33.0948L438.736 33.0948C438.82 33.6081 439.021 34.0048 439.338 34.2848C439.665 34.5554 440.08 34.6908 440.584 34.6908C440.93 34.6908 441.242 34.6161 441.522 34.4668C441.802 34.3081 442.022 34.0934 442.18 33.8228L444.336 33.8228C444.056 34.6441 443.58 35.2974 442.908 35.7828C442.236 36.2681 441.462 36.5108 440.584 36.5108C439.464 36.5108 438.531 36.1281 437.784 35.3628C437.038 34.5974 436.664 33.6501 436.664 32.5208C436.664 32.0728 436.725 31.6434 436.846 31.2328C436.977 30.8221 437.159 30.4534 437.392 30.1268C437.635 29.8001 437.915 29.5201 438.232 29.2868C438.55 29.0441 438.909 28.8574 439.31 28.7268C439.712 28.5961 440.136 28.5308 440.584 28.5308C441.34 28.5308 442.017 28.7081 442.614 29.0628C443.221 29.4174 443.683 29.8981 444 30.5048C444.327 31.1114 444.49 31.7741 444.49 32.4928ZM440.584 30.2668C440.127 30.2668 439.74 30.3928 439.422 30.6448C439.114 30.8968 438.904 31.2468 438.792 31.6948L442.446 31.6948C442.353 31.3868 442.218 31.1301 442.04 30.9248C441.863 30.7101 441.648 30.5468 441.396 30.4348C441.154 30.3228 440.883 30.2668 440.584 30.2668ZM452.263 28.7408L452.263 30.5748L449.799 30.5748L449.799 36.3008L447.797 36.3008L447.797 30.5748L445.333 30.5748L445.333 28.7408L452.263 28.7408Z" fill="#202F36"/>
<path d="M192.882 546.513C193.778 546.513 194.511 546.793 195.08 547.353C195.659 547.913 195.948 548.637 195.948 549.523C195.948 550.503 195.617 551.306 194.954 551.931C194.301 552.557 193.465 552.869 192.448 552.869C191.403 552.869 190.549 552.557 189.886 551.931C189.233 551.306 188.906 550.503 188.906 549.523C188.906 548.655 189.228 547.671 189.872 546.569L191.72 543.377L193.918 543.377C193.675 543.797 193.349 544.362 192.938 545.071C192.527 545.781 192.219 546.308 192.014 546.653C192.303 546.56 192.593 546.513 192.882 546.513ZM192.434 551.021C192.873 551.021 193.232 550.881 193.512 550.601C193.792 550.321 193.932 549.962 193.932 549.523C193.932 549.075 193.792 548.711 193.512 548.431C193.232 548.151 192.873 548.011 192.434 548.011C191.995 548.011 191.631 548.151 191.342 548.431C191.062 548.711 190.922 549.075 190.922 549.523C190.922 549.962 191.062 550.321 191.342 550.601C191.631 550.881 191.995 551.021 192.434 551.021ZM200.348 546.639C201.319 546.639 202.117 546.929 202.742 547.507C203.367 548.086 203.68 548.819 203.68 549.705C203.68 550.611 203.367 551.367 202.742 551.973C202.117 552.571 201.342 552.869 200.418 552.869C199.802 552.869 199.242 552.739 198.738 552.477C198.243 552.207 197.856 551.838 197.576 551.371C197.296 550.895 197.151 550.363 197.142 549.775L199.172 549.775C199.172 550.009 199.223 550.219 199.326 550.405C199.438 550.592 199.587 550.741 199.774 550.853C199.97 550.956 200.185 551.007 200.418 551.007C200.773 551.007 201.067 550.886 201.3 550.643C201.543 550.391 201.664 550.079 201.664 549.705C201.664 549.304 201.533 548.977 201.272 548.725C201.011 548.473 200.679 548.347 200.278 548.347L197.66 548.347L197.478 548.095L197.996 543.391L203.036 543.391L203.036 545.183L199.578 545.183L199.41 546.639L200.348 546.639ZM210.473 545.141L215.877 545.141L215.877 552.701L213.875 552.701L213.875 546.919L212.139 546.919L211.887 549.607C211.775 550.746 211.471 551.553 210.977 552.029C210.482 552.505 209.74 552.743 208.751 552.743L208.415 552.743L208.415 550.895L208.919 550.895C209.199 550.895 209.432 550.797 209.619 550.601C209.805 550.405 209.917 550.125 209.955 549.761L210.473 545.141ZM225.453 548.893C225.453 549.089 225.439 549.29 225.411 549.495L219.699 549.495C219.783 550.009 219.984 550.405 220.301 550.685C220.628 550.956 221.043 551.091 221.547 551.091C221.893 551.091 222.205 551.017 222.485 550.867C222.765 550.709 222.985 550.494 223.143 550.223L225.299 550.223C225.019 551.045 224.543 551.698 223.871 552.183C223.199 552.669 222.425 552.911 221.547 552.911C220.427 552.911 219.494 552.529 218.747 551.763C218.001 550.998 217.627 550.051 217.627 548.921C217.627 548.473 217.688 548.044 217.809 547.633C217.94 547.223 218.122 546.854 218.355 546.527C218.598 546.201 218.878 545.921 219.195 545.687C219.513 545.445 219.872 545.258 220.273 545.127C220.675 544.997 221.099 544.931 221.547 544.931C222.303 544.931 222.98 545.109 223.577 545.463C224.184 545.818 224.646 546.299 224.963 546.905C225.29 547.512 225.453 548.175 225.453 548.893ZM221.547 546.667C221.09 546.667 220.703 546.793 220.385 547.045C220.077 547.297 219.867 547.647 219.755 548.095L223.409 548.095C223.316 547.787 223.181 547.531 223.003 547.325C222.826 547.111 222.611 546.947 222.359 546.835C222.117 546.723 221.846 546.667 221.547 546.667ZM233.226 545.141L233.226 546.975L230.762 546.975L230.762 552.701L228.76 552.701L228.76 546.975L226.296 546.975L226.296 545.141L233.226 545.141Z" fill="#202F36"/>
<path d="M190.271 26.9927L193.687 26.9927L193.687 36.3027L191.727 36.3027L191.727 28.7427L190.271 28.7427L190.271 26.9927ZM198.872 30.2407C199.843 30.2407 200.641 30.5301 201.266 31.1087C201.891 31.6874 202.204 32.4201 202.204 33.3067C202.204 34.2121 201.891 34.9681 201.266 35.5747C200.641 36.1721 199.866 36.4707 198.942 36.4707C198.326 36.4707 197.766 36.3401 197.262 36.0787C196.767 35.8081 196.38 35.4394 196.1 34.9727C195.82 34.4967 195.675 33.9647 195.666 33.3767L197.696 33.3767C197.696 33.6101 197.747 33.8201 197.85 34.0067C197.962 34.1934 198.111 34.3427 198.298 34.4547C198.494 34.5574 198.709 34.6087 198.942 34.6087C199.297 34.6087 199.591 34.4874 199.824 34.2447C200.067 33.9927 200.188 33.6801 200.188 33.3067C200.188 32.9054 200.057 32.5787 199.796 32.3267C199.535 32.0747 199.203 31.9487 198.802 31.9487L196.184 31.9487L196.002 31.6967L196.52 26.9927L201.56 26.9927L201.56 28.7847L198.102 28.7847L197.934 30.2407L198.872 30.2407ZM208.997 28.7427L214.401 28.7427L214.401 36.3027L212.399 36.3027L212.399 30.5207L210.663 30.5207L210.411 33.2087C210.299 34.3474 209.995 35.1547 209.501 35.6307C209.006 36.1067 208.264 36.3447 207.275 36.3447L206.939 36.3447L206.939 34.4967L207.443 34.4967C207.723 34.4967 207.956 34.3987 208.143 34.2027C208.329 34.0067 208.441 33.7267 208.479 33.3627L208.997 28.7427ZM223.977 32.4947C223.977 32.6907 223.963 32.8914 223.935 33.0967L218.223 33.0967C218.307 33.6101 218.508 34.0067 218.825 34.2867C219.152 34.5574 219.567 34.6927 220.071 34.6927C220.417 34.6927 220.729 34.6181 221.009 34.4687C221.289 34.3101 221.509 34.0954 221.667 33.8247L223.823 33.8247C223.543 34.6461 223.067 35.2994 222.395 35.7847C221.723 36.2701 220.949 36.5127 220.071 36.5127C218.951 36.5127 218.018 36.1301 217.271 35.3647C216.525 34.5994 216.151 33.6521 216.151 32.5227C216.151 32.0747 216.212 31.6454 216.333 31.2347C216.464 30.8241 216.646 30.4554 216.879 30.1287C217.122 29.8021 217.402 29.5221 217.719 29.2887C218.037 29.0461 218.396 28.8594 218.797 28.7287C219.199 28.5981 219.623 28.5327 220.071 28.5327C220.827 28.5327 221.504 28.7101 222.101 29.0647C222.708 29.4194 223.17 29.9001 223.487 30.5067C223.814 31.1134 223.977 31.7761 223.977 32.4947ZM220.071 30.2687C219.614 30.2687 219.227 30.3947 218.909 30.6467C218.601 30.8987 218.391 31.2487 218.279 31.6967L221.933 31.6967C221.84 31.3887 221.705 31.1321 221.527 30.9267C221.35 30.7121 221.135 30.5487 220.883 30.4367C220.641 30.3247 220.37 30.2687 220.071 30.2687ZM231.75 28.7427L231.75 30.5767L229.286 30.5767L229.286 36.3027L227.284 36.3027L227.284 30.5767L224.82 30.5767L224.82 28.7427L231.75 28.7427Z" fill="#202F36"/>
<path d="M411.455 546.644C412.426 546.644 413.224 546.933 413.849 547.512C414.475 548.091 414.787 548.823 414.787 549.71C414.787 550.615 414.475 551.371 413.849 551.978C413.224 552.575 412.449 552.874 411.525 552.874C410.909 552.874 410.349 552.743 409.845 552.482C409.351 552.211 408.963 551.843 408.683 551.376C408.403 550.9 408.259 550.368 408.249 549.78L410.279 549.78C410.279 550.013 410.331 550.223 410.433 550.41C410.545 550.597 410.695 550.746 410.881 550.858C411.077 550.961 411.292 551.012 411.525 551.012C411.88 551.012 412.174 550.891 412.407 550.648C412.65 550.396 412.771 550.083 412.771 549.71C412.771 549.309 412.641 548.982 412.379 548.73C412.118 548.478 411.787 548.352 411.385 548.352L408.767 548.352L408.585 548.1L409.103 543.396L414.143 543.396L414.143 545.188L410.685 545.188L410.517 546.644L411.455 546.644ZM419.364 546.644C420.335 546.644 421.133 546.933 421.758 547.512C422.384 548.091 422.696 548.823 422.696 549.71C422.696 550.615 422.384 551.371 421.758 551.978C421.133 552.575 420.358 552.874 419.434 552.874C418.818 552.874 418.258 552.743 417.754 552.482C417.26 552.211 416.872 551.843 416.592 551.376C416.312 550.9 416.168 550.368 416.158 549.78L418.188 549.78C418.188 550.013 418.24 550.223 418.342 550.41C418.454 550.597 418.604 550.746 418.79 550.858C418.986 550.961 419.201 551.012 419.434 551.012C419.789 551.012 420.083 550.891 420.316 550.648C420.559 550.396 420.68 550.083 420.68 549.71C420.68 549.309 420.55 548.982 420.288 548.73C420.027 548.478 419.696 548.352 419.294 548.352L416.676 548.352L416.494 548.1L417.012 543.396L422.052 543.396L422.052 545.188L418.594 545.188L418.426 546.644L419.364 546.644ZM429.489 545.146L434.893 545.146L434.893 552.706L432.891 552.706L432.891 546.924L431.155 546.924L430.903 549.612C430.791 550.751 430.487 551.558 429.993 552.034C429.498 552.51 428.756 552.748 427.767 552.748L427.431 552.748L427.431 550.9L427.935 550.9C428.215 550.9 428.448 550.802 428.635 550.606C428.821 550.41 428.933 550.13 428.971 549.766L429.489 545.146ZM444.469 548.898C444.469 549.094 444.455 549.295 444.427 549.5L438.715 549.5C438.799 550.013 439 550.41 439.317 550.69C439.644 550.961 440.059 551.096 440.563 551.096C440.909 551.096 441.221 551.021 441.501 550.872C441.781 550.713 442.001 550.499 442.159 550.228L444.315 550.228C444.035 551.049 443.559 551.703 442.887 552.188C442.215 552.673 441.441 552.916 440.563 552.916C439.443 552.916 438.51 552.533 437.763 551.768C437.017 551.003 436.643 550.055 436.643 548.926C436.643 548.478 436.704 548.049 436.825 547.638C436.956 547.227 437.138 546.859 437.371 546.532C437.614 546.205 437.894 545.925 438.211 545.692C438.529 545.449 438.888 545.263 439.289 545.132C439.691 545.001 440.115 544.936 440.563 544.936C441.319 544.936 441.996 545.113 442.593 545.468C443.2 545.823 443.662 546.303 443.979 546.91C444.306 547.517 444.469 548.179 444.469 548.898ZM440.563 546.672C440.106 546.672 439.719 546.798 439.401 547.05C439.093 547.302 438.883 547.652 438.771 548.1L442.425 548.1C442.332 547.792 442.197 547.535 442.019 547.33C441.842 547.115 441.627 546.952 441.375 546.84C441.133 546.728 440.862 546.672 440.563 546.672ZM452.242 545.146L452.242 546.98L449.778 546.98L449.778 552.706L447.776 552.706L447.776 546.98L445.312 546.98L445.312 545.146L452.242 545.146Z" fill="#202F36"/>
<rect x="347.978" y="229.52" width="30" height="30" rx="15" fill="#F8F8F8"/>
<path d="M363.705 258.337C363.561 258.481 363.378 258.579 363.178 258.619C362.979 258.658 362.772 258.638 362.584 258.56C362.396 258.482 362.235 258.351 362.122 258.181C362.009 258.012 361.949 257.813 361.949 257.61L361.948 246.326C361.953 246.057 362.063 245.8 362.256 245.61C362.448 245.421 362.707 245.316 362.977 245.316C363.246 245.316 363.505 245.421 363.698 245.61C363.89 245.8 364 246.057 364.005 246.326L364.006 257.61C364.006 257.883 363.898 258.144 363.705 258.337Z" fill="#FF7AB2"/>
<path d="M366.791 254.43C366.598 254.623 366.336 254.731 366.063 254.731L359.892 254.732C359.623 254.727 359.366 254.617 359.177 254.425C358.988 254.232 358.882 253.973 358.882 253.704C358.882 253.434 358.988 253.175 359.177 252.983C359.366 252.79 359.623 252.68 359.892 252.675L366.064 252.675C366.268 252.675 366.466 252.736 366.635 252.849C366.805 252.962 366.936 253.122 367.014 253.31C367.092 253.498 367.112 253.705 367.073 253.904C367.033 254.104 366.935 254.287 366.791 254.431L366.791 254.43ZM368.069 245.247C367.401 245.917 366.608 246.449 365.734 246.811C364.86 247.173 363.923 247.358 362.977 247.355C361.311 247.355 359.697 246.777 358.41 245.72C357.122 244.663 356.241 243.193 355.916 241.559C355.591 239.925 355.843 238.23 356.629 236.761C357.414 235.292 358.684 234.141 360.223 233.503C361.762 232.866 363.475 232.782 365.069 233.266C366.662 233.749 368.039 234.771 368.965 236.156C369.89 237.541 370.306 239.204 370.143 240.862C369.98 242.519 369.246 244.069 368.069 245.247ZM359.341 236.519C358.622 237.238 358.132 238.155 357.934 239.152C357.735 240.15 357.837 241.184 358.226 242.123C358.615 243.063 359.274 243.866 360.12 244.431C360.966 244.997 361.96 245.298 362.977 245.298C363.823 245.299 364.655 245.09 365.401 244.691C366.147 244.293 366.783 243.716 367.253 243.013C367.723 242.31 368.012 241.502 368.095 240.66C368.178 239.819 368.053 238.969 367.729 238.188C367.405 237.407 366.894 236.717 366.24 236.18C365.586 235.644 364.81 235.277 363.981 235.112C363.151 234.947 362.294 234.989 361.485 235.234C360.675 235.48 359.939 235.921 359.341 236.519Z" fill="#FF7AB2"/>
<rect x="261.977" y="229.52" width="30" height="30" rx="15" fill="#F8F8F8"/>
<path d="M278.256 244.27C278.053 244.27 277.854 244.209 277.685 244.096C277.516 243.983 277.384 243.823 277.306 243.635C277.228 243.447 277.208 243.24 277.248 243.041C277.287 242.841 277.385 242.658 277.529 242.514L285.507 234.535C285.701 234.347 285.961 234.244 286.231 234.246C286.501 234.248 286.759 234.357 286.949 234.547C287.14 234.738 287.248 234.996 287.25 235.266C287.253 235.535 287.149 235.795 286.962 235.989L278.983 243.968C278.791 244.161 278.529 244.27 278.256 244.27Z" fill="#6BE7FF"/>
<path d="M273.892 254.805C272.708 254.805 271.542 254.513 270.498 253.955C269.454 253.397 268.563 252.59 267.906 251.605C267.248 250.621 266.843 249.489 266.727 248.311C266.611 247.132 266.787 245.944 267.24 244.85C267.693 243.756 268.409 242.791 269.325 242.039C270.24 241.288 271.327 240.775 272.488 240.544C273.649 240.313 274.85 240.372 275.983 240.716C277.116 241.06 278.146 241.678 278.983 242.515C279.99 243.522 280.676 244.805 280.953 246.201C281.231 247.598 281.088 249.045 280.543 250.361C279.998 251.676 279.076 252.8 277.892 253.591C276.708 254.382 275.316 254.805 273.892 254.805ZM273.892 242.463C272.703 242.463 271.55 242.875 270.63 243.63C269.71 244.385 269.081 245.435 268.848 246.602C268.616 247.769 268.796 248.98 269.357 250.029C269.917 251.078 270.825 251.901 271.924 252.356C273.023 252.812 274.246 252.872 275.385 252.526C276.523 252.181 277.507 251.452 278.168 250.463C278.829 249.474 279.127 248.286 279.01 247.102C278.894 245.918 278.37 244.811 277.529 243.969C277.053 243.49 276.486 243.111 275.862 242.852C275.237 242.593 274.568 242.461 273.892 242.463ZM286.235 241.434C285.962 241.434 285.7 241.326 285.507 241.133C285.314 240.94 285.206 240.678 285.206 240.406V236.291H281.092C280.819 236.291 280.558 236.183 280.365 235.99C280.172 235.797 280.063 235.536 280.063 235.263C280.063 234.99 280.172 234.729 280.365 234.536C280.558 234.343 280.819 234.234 281.092 234.234H286.235C286.507 234.234 286.769 234.343 286.962 234.536C287.155 234.729 287.263 234.99 287.263 235.263V240.406C287.263 240.678 287.155 240.94 286.962 241.133C286.769 241.326 286.507 241.434 286.235 241.434Z" fill="#6BE7FF"/>
<rect x="327.978" y="339.52" width="30" height="30" rx="15" fill="#F8F8F8"/>
<path d="M354.303 346.635C353.386 345.43 352.091 344.569 350.625 344.189C349.16 343.809 347.61 343.932 346.223 344.54C344.982 345.075 343.875 345.978 342.978 347.177C342.08 345.975 340.973 345.072 339.732 344.54C338.345 343.932 336.795 343.809 335.33 344.189C333.864 344.569 332.569 345.43 331.653 346.635C330.686 347.901 330.175 349.485 330.175 351.212C330.175 353.699 331.658 356.427 334.582 359.324C336.965 361.684 339.781 363.616 341.247 364.558C341.764 364.888 342.364 365.064 342.978 365.064C343.591 365.064 344.191 364.888 344.708 364.558C346.173 363.616 348.99 361.684 351.373 359.324C354.297 356.428 355.78 353.699 355.78 351.212C355.78 349.485 355.269 347.901 354.303 346.635Z" fill="#F9595F"/>
<rect x="374.978" y="307.52" width="30" height="30" rx="15" fill="#F8F8F8"/>
<path d="M391.533 333.937V336.011H388.585V333.84C385.763 333.522 383.118 332.307 381.038 330.375L383.37 327.492C384.824 328.875 386.626 329.838 388.585 330.278V323.961C384.601 322.925 381.913 321.5 381.913 317.678C381.913 314.179 384.601 311.49 388.585 311.005V309.029H391.533V311.038C394.061 311.299 396.442 312.353 398.335 314.05L396.132 317.03C394.824 315.85 393.244 315.015 391.533 314.601V320.69C395.97 321.694 398.918 323.216 398.918 327.168C398.918 330.893 396.229 333.614 391.533 333.937ZM388.585 319.913V314.536C386.998 314.924 385.993 316.058 385.993 317.321C385.993 318.617 386.836 319.297 388.585 319.913ZM394.869 327.556C394.869 326.066 393.832 325.386 391.533 324.706V330.472C393.735 330.213 394.869 328.982 394.869 327.556Z" fill="#72BD39"/>
</svg>
