<svg width="30" height="30" viewBox="0 0 30 30" fill="none" xmlns="http://www.w3.org/2000/svg">
<rect width="30" height="30" rx="15" fill="#F8F8F8"/>
<path d="M16.279 14.7502C16.0756 14.7502 15.8768 14.6899 15.7077 14.5768C15.5386 14.4638 15.4068 14.3032 15.329 14.1153C15.2512 13.9274 15.2308 13.7206 15.2705 13.5211C15.3102 13.3216 15.4081 13.1384 15.5519 12.9946L23.5301 5.01528C23.7241 4.82793 23.9839 4.72426 24.2536 4.7266C24.5233 4.72894 24.7812 4.83711 24.9719 5.02781C25.1626 5.21851 25.2708 5.47647 25.2731 5.74615C25.2755 6.01582 25.1718 6.27563 24.9845 6.46961L17.0062 14.4489C16.8134 14.6418 16.5518 14.7502 16.279 14.7502Z" fill="#6BE7FF"/>
<path d="M11.915 25.2853C10.731 25.2854 9.56515 24.9934 8.52088 24.4353C7.47661 23.8772 6.58611 23.0701 5.92827 22.0856C5.27043 21.1011 4.86555 19.9696 4.74951 18.7912C4.63346 17.6129 4.80983 16.4241 5.263 15.3302C5.71616 14.2363 6.43213 13.271 7.34747 12.5199C8.26281 11.7688 9.34927 11.2551 10.5106 11.0242C11.6719 10.7933 12.8723 10.8524 14.0053 11.1963C15.1383 11.5401 16.1691 12.1581 17.0062 12.9955C18.0128 14.0024 18.6983 15.2852 18.976 16.6817C19.2536 18.0782 19.1109 19.5257 18.566 20.8411C18.0211 22.1565 17.0984 23.2808 15.9145 24.0719C14.7307 24.8629 13.3388 25.2852 11.915 25.2853ZM11.915 12.943C10.7253 12.943 9.57233 13.3555 8.65263 14.1102C7.73292 14.865 7.10335 15.9152 6.87119 17.0821C6.63903 18.249 6.81863 19.4603 7.37941 20.5096C7.94018 21.5588 8.84742 22.3812 9.94656 22.8366C11.0457 23.292 12.2687 23.3522 13.4073 23.007C14.5458 22.6617 15.5294 21.9324 16.1905 20.9432C16.8516 19.9541 17.1493 18.7663 17.0329 17.5823C16.9164 16.3982 16.393 15.2912 15.5519 14.4498C15.0753 13.9708 14.5085 13.5911 13.8842 13.3324C13.26 13.0738 12.5907 12.9415 11.915 12.943ZM24.2573 11.9145C23.9845 11.9145 23.7229 11.8061 23.53 11.6133C23.3371 11.4204 23.2288 11.1588 23.2288 10.886V6.77189H19.1147C18.8419 6.77189 18.5803 6.66353 18.3874 6.47064C18.1945 6.27776 18.0861 6.01615 18.0861 5.74337C18.0861 5.47059 18.1945 5.20898 18.3874 5.01609C18.5803 4.82321 18.8419 4.71484 19.1147 4.71484H24.2573C24.5301 4.71484 24.7917 4.82321 24.9846 5.01609C25.1774 5.20898 25.2858 5.47059 25.2858 5.74337V10.886C25.2858 11.1588 25.1774 11.4204 24.9846 11.6133C24.7917 11.8061 24.5301 11.9145 24.2573 11.9145Z" fill="#6BE7FF"/>
</svg>
