<svg width="30" height="30" viewBox="0 0 30 30" fill="none" xmlns="http://www.w3.org/2000/svg">
<rect width="30" height="30" rx="15" fill="#F8F8F8"/>
<path d="M15.7272 28.8178C15.5833 28.9616 15.4001 29.0596 15.2006 29.0992C15.0011 29.1389 14.7943 29.1185 14.6064 29.0406C14.4185 28.9628 14.2579 28.831 14.1449 28.6619C14.0319 28.4928 13.9716 28.294 13.9715 28.0906L13.9708 16.8067C13.9755 16.537 14.0859 16.28 14.2782 16.091C14.4706 15.9019 14.7295 15.796 14.9992 15.796C15.2689 15.796 15.5278 15.9019 15.7201 16.091C15.9125 16.28 16.0229 16.537 16.0276 16.8067L16.0283 28.0906C16.0283 28.3633 15.92 28.6249 15.7272 28.8178Z" fill="#FF7AB2"/>
<path d="M18.8131 24.9127C18.6202 25.1055 18.3586 25.2138 18.0858 25.2138L11.9148 25.2145C11.6451 25.2098 11.3881 25.0994 11.1991 24.907C11.0101 24.7147 10.9041 24.4558 10.9041 24.1861C10.9041 23.9164 11.0101 23.6575 11.1991 23.4652C11.3881 23.2728 11.6451 23.1624 11.9148 23.1577L18.0866 23.1577C18.29 23.1577 18.4888 23.2181 18.6579 23.3311C18.827 23.4441 18.9588 23.6047 19.0367 23.7926C19.1145 23.9805 19.1349 24.1873 19.0952 24.3868C19.0556 24.5863 18.9577 24.7695 18.8139 24.9134L18.8131 24.9127ZM20.091 15.7292C19.4238 16.3997 18.6302 16.9313 17.7562 17.2932C16.8822 17.6551 15.9452 17.8402 14.9992 17.8376C13.3335 17.8373 11.7195 17.2595 10.432 16.2027C9.14459 15.1458 8.26342 13.6752 7.93868 12.0415C7.61393 10.4078 7.8657 8.71197 8.65107 7.24306C9.43645 5.77415 10.7068 4.623 12.2458 3.98574C13.7848 3.34848 15.4971 3.26454 17.091 3.74823C18.6849 4.23191 20.0618 5.25329 20.9871 6.63834C21.9124 8.02339 22.3288 9.68642 22.1654 11.3441C22.002 13.0017 21.2689 14.5514 20.091 15.7292ZM11.3635 7.0017C10.6443 7.72088 10.1546 8.63716 9.95614 9.63467C9.75769 10.6322 9.85948 11.6661 10.2486 12.6058C10.6378 13.5455 11.2968 14.3487 12.1424 14.9138C12.988 15.4789 13.9822 15.7807 14.9992 15.7808C15.845 15.7809 16.6777 15.5725 17.4237 15.1739C18.1696 14.7753 18.8057 14.1989 19.2757 13.4957C19.7457 12.7925 20.0349 11.9843 20.1179 11.1426C20.2009 10.301 20.075 9.4518 19.7514 8.6704C19.4278 7.889 18.9165 7.19946 18.2627 6.66289C17.6089 6.12631 16.8329 5.75926 16.0034 5.59423C15.1739 5.42921 14.3165 5.47132 13.5072 5.71682C12.6978 5.96233 11.9615 6.40365 11.3635 7.0017Z" fill="#FF7AB2"/>
</svg>
