<svg width="25" height="25" viewBox="0 0 25 25" fill="none" xmlns="http://www.w3.org/2000/svg">
<g clip-path="url(#clip0_2271_17151)">
<path d="M3.33337 2.5C2.78109 2.5 2.33337 2.94772 2.33337 3.5C2.33337 4.05228 2.78109 4.5 3.33337 4.5V2.5ZM5.33337 3.5L6.33043 3.4233C6.29035 2.90231 5.85591 2.5 5.33337 2.5V3.5ZM21.3334 6.5L22.3273 6.61043C22.3587 6.32773 22.2682 6.04503 22.0785 5.83308C21.8888 5.62113 21.6178 5.5 21.3334 5.5V6.5ZM5.56414 6.5L4.56709 6.5767L5.56414 6.5ZM18.672 15.6187L18.7433 16.6161L18.672 15.6187ZM8.31742 16.3583L8.24617 15.3608L8.31742 16.3583ZM3.33337 4.5H5.33337V2.5H3.33337V4.5ZM8.38867 17.3557L18.7433 16.6161L18.6008 14.6212L8.24617 15.3608L8.38867 17.3557ZM21.5112 13.955L22.3273 6.61043L20.3395 6.38957L19.5234 13.7342L21.5112 13.955ZM4.33632 3.5767L4.56709 6.5767L6.5612 6.4233L6.33043 3.4233L4.33632 3.5767ZM4.56709 6.5767L5.18376 14.5935L7.17787 14.4401L6.5612 6.4233L4.56709 6.5767ZM21.3334 5.5H5.56414V7.5H21.3334V5.5ZM18.7433 16.6161C20.1871 16.513 21.3513 15.3937 21.5112 13.955L19.5234 13.7342C19.4701 14.2137 19.0821 14.5868 18.6008 14.6212L18.7433 16.6161ZM8.24617 15.3608C7.69742 15.4 7.22007 14.9886 7.17787 14.4401L5.18376 14.5935C5.31035 16.239 6.74241 17.4733 8.38867 17.3557L8.24617 15.3608Z" fill="#8B46C1"/>
<rect x="8.83337" y="21" width="0.01" height="0.01" stroke="#8B46C1" stroke-width="2" stroke-linejoin="round"/>
<rect x="17.8334" y="21" width="0.01" height="0.01" stroke="#8B46C1" stroke-width="2" stroke-linejoin="round"/>
</g>
<defs>
<clipPath id="clip0_2271_17151">
<rect width="24" height="24" fill="white" transform="translate(0.333374 0.5)"/>
</clipPath>
</defs>
</svg>
