<svg width="25" height="24" viewBox="0 0 25 24" fill="none" xmlns="http://www.w3.org/2000/svg">
<path d="M12.5 9.00006V13.0001M4.87891 15.1999C3.96947 16.775 3.51489 17.5629 3.58281 18.2092C3.64206 18.7729 3.93792 19.2851 4.39648 19.6182C4.92204 20.0001 5.8309 20.0001 7.64853 20.0001H17.3515C19.1691 20.0001 20.0778 20.0001 20.6034 19.6182C21.0619 19.2851 21.3579 18.7729 21.4172 18.2092C21.4851 17.5629 21.0307 16.775 20.1212 15.1999L15.2715 6.79986C14.3621 5.22468 13.9071 4.43722 13.3135 4.17291C12.7957 3.94236 12.204 3.94236 11.6862 4.17291C11.0928 4.43711 10.6381 5.22458 9.72946 6.79845L4.87891 15.1999ZM12.5508 16.0001V16.1001L12.4502 16.1003V16.0001H12.5508Z" stroke="#FB8C8C" stroke-width="2" stroke-linecap="round" stroke-linejoin="round"/>
</svg>
