<svg width="50.000000" height="50.000000" viewBox="0 0 50 50" fill="none" xmlns="http://www.w3.org/2000/svg" xmlns:xlink="http://www.w3.org/1999/xlink">
	<desc>
			Created with Pixso.
	</desc>
	<defs>
		<clipPath id="clip2032_954">
			<rect id="Frame" rx="-0.500000" width="49.000000" height="49.000000" transform="translate(0.500000 0.500000)" fill="white" fill-opacity="0"/>
		</clipPath>
	</defs>
	<rect id="Frame" rx="-0.500000" width="49.000000" height="49.000000" transform="translate(0.500000 0.500000)" fill="#FFFFFF" fill-opacity="0"/>
	<g clip-path="url(#clip2032_954)">
		<path id="Vector" d="M9.57 42.14C9.23 42.14 8.9 42.04 8.61 41.85C8.33 41.66 8.11 41.39 7.98 41.08C7.85 40.77 7.82 40.42 7.89 40.09C7.95 39.76 8.11 39.45 8.35 39.21L21.65 25.91C21.98 25.6 22.41 25.43 22.86 25.43C23.31 25.43 23.74 25.62 24.05 25.93C24.37 26.25 24.55 26.68 24.56 27.13C24.56 27.58 24.39 28.01 24.08 28.34L10.78 41.64C10.46 41.96 10.02 42.14 9.57 42.14Z" fill="#FF7AB2" fill-opacity="1.000000" fill-rule="nonzero"/>
		<path id="Vector" d="M17.81 41.17C17.35 41.17 16.92 40.99 16.6 40.67L9.32 33.39C9.01 33.07 8.84 32.64 8.84 32.19C8.85 31.74 9.03 31.31 9.34 30.99C9.66 30.67 10.09 30.49 10.54 30.49C10.99 30.49 11.42 30.66 11.75 30.97L19.02 38.24C19.26 38.48 19.42 38.79 19.49 39.12C19.56 39.46 19.52 39.8 19.39 40.11C19.26 40.43 19.04 40.69 18.76 40.88C18.48 41.07 18.15 41.17 17.81 41.17L17.81 41.17ZM30.14 31.85C28.56 31.86 27 31.55 25.54 30.94C24.09 30.34 22.76 29.45 21.65 28.34C19.69 26.37 18.47 23.79 18.2 21.03C17.92 18.26 18.62 15.49 20.16 13.18C21.7 10.88 24 9.17 26.66 8.37C29.31 7.56 32.17 7.7 34.73 8.77C37.3 9.83 39.41 11.75 40.72 14.2C42.03 16.65 42.45 19.47 41.91 22.19C41.37 24.92 39.9 27.37 37.75 29.13C35.6 30.89 32.91 31.85 30.14 31.85ZM30.14 11.28C28.44 11.28 26.79 11.78 25.38 12.73C23.97 13.67 22.87 15.01 22.22 16.57C21.57 18.14 21.4 19.86 21.73 21.52C22.06 23.19 22.88 24.71 24.08 25.91C25.07 26.91 26.3 27.64 27.65 28.05C29 28.46 30.43 28.53 31.81 28.26C33.19 27.98 34.48 27.37 35.57 26.48C36.66 25.58 37.52 24.44 38.06 23.13C38.6 21.83 38.81 20.42 38.67 19.01C38.53 17.61 38.05 16.26 37.26 15.09C36.48 13.92 35.42 12.96 34.18 12.29C32.93 11.63 31.55 11.28 30.14 11.28Z" fill="#FF7AB2" fill-opacity="1.000000" fill-rule="nonzero"/>
	</g>
</svg>
